<?xml version="1.0" encoding="utf-8"?>
<!-- Generator: Adobe Illustrator 21.1.0, SVG Export Plug-In . SVG Version: 6.00 Build 0)  -->
<svg version="1.1" id="圖層_1" xmlns="http://www.w3.org/2000/svg" xmlns:xlink="http://www.w3.org/1999/xlink" x="0px" y="0px"
	 viewBox="0 0 1408 424" style="enable-background:new 0 0 1408 424;" xml:space="preserve">
<style type="text/css">
	.st0{fill:#3F3D56;}
	.st1{fill:#415B48;}
	.st2{opacity:0.1;enable-background:new    ;}
	.st3{fill:#EBFFEB;}
	.st4{fill:#F2F2F2;}
	.st5{fill:#85AA85;}
	.st6{fill:#323F35;}
	.st7{opacity:0.1;fill:#323F35;enable-background:new    ;}
	.st8{fill:#516D58;}
	.st9{opacity:0.2;fill:#EBFFEB;enable-background:new    ;}
	.st10{opacity:0.4;fill:#EBFFEB;enable-background:new    ;}
	.st11{fill:#FFFFFF;}
	.st12{fill:#020202;}
	.st13{fill:#EBFFEB;stroke:#000000;stroke-width:0.8;stroke-miterlimit:10;}
	.st14{fill:#85AA85;stroke:#000000;stroke-width:1.36;stroke-miterlimit:10;}
	.st15{fill:#85AA85;stroke:#000000;stroke-width:1.32;stroke-miterlimit:10;}
	.st16{fill:#415B48;stroke:#000000;stroke-width:1.24;stroke-miterlimit:10;}
	.st17{fill:none;stroke:#415B48;stroke-width:0.34;stroke-miterlimit:10;}
	.st18{fill:none;stroke:#000000;stroke-width:1.82;stroke-linecap:round;stroke-miterlimit:10;}
	.st19{fill:none;stroke:#000000;stroke-width:3;stroke-miterlimit:10;}
	.st20{fill:none;stroke:#000000;stroke-width:3;stroke-miterlimit:10;stroke-dasharray:4.48,4.48;}
	.st21{fill:none;stroke:#000000;stroke-width:3;stroke-miterlimit:10;stroke-dasharray:6.23,6.23;}
	.st22{fill:none;stroke:#000000;stroke-width:3;stroke-miterlimit:10;stroke-dasharray:5.17,5.17;}
</style>
<title>web-service</title>
<path class="st0" d="M1328.8,270.1c-1.5,0-2.9-0.2-4.3-0.6l-0.3-0.1l-0.3-0.1c-9-4.4-16.9-10.6-23.3-18.3
	c-5.1-6.2-9.1-13.3-11.8-20.9c-3.2-9.1-4.7-18.7-4.6-28.4c0-0.2,0-0.4,0-0.5c-0.1-4.5,2.5-8.7,6.6-10.5c3.1-1.3,31.1-12.8,33.1-13.6
	c3.8-1.9,7.9-0.3,8.5,0c1.5,0.6,27.3,11.2,32.9,13.9c5.8,2.8,7.3,7.7,7.3,10.2c0.1,10.7-1.9,21.3-5.8,31.2
	c-3.1,7.7-7.5,14.7-13,20.9c-10.6,11.9-21.2,16.2-21.3,16.2C1331.5,269.9,1330.2,270.1,1328.8,270.1z M1326.4,263.9
	c1.5,0.4,3,0.4,4.4,0c1.8-0.6,10.6-5.2,18.9-14.6c11.5-12.9,17.3-29.1,17.3-48.2c0-0.4-0.3-3.1-3.9-4.9
	c-5.5-2.6-32.4-13.6-32.7-13.7h-0.1c-1.1-0.5-2.4-0.5-3.6-0.1l-0.2,0.1c-0.3,0.1-30,12.3-33.2,13.7c-1.9,0.9-3.1,2.9-3,5
	c0,0.1,0,0.3,0,0.6C1290,214.9,1293,247,1326.4,263.9L1326.4,263.9z"/>
<path class="st1" d="M1325.3,179.8c0,0-30,12.3-33.2,13.7c-3,1.4-4.9,4.4-4.8,7.8c0,3.2-2.4,45.2,38,65.4c0,0,3.7,1,6.5,0
	s38.1-18.2,38.1-65.6c0,0,0-4.8-5.6-7.5s-32.8-13.8-32.8-13.8S1328.1,178.4,1325.3,179.8z"/>
<path class="st2" d="M1328.5,189.5v65.7c0,0-30.3-14.6-30-52.9L1328.5,189.5z"/>
<polygon class="st3" points="1328.9,236.7 1319.3,224.3 1324.9,219.9 1329.5,225.8 1344.9,209.5 1350.1,214.4 "/>
<ellipse class="st4" cx="832" cy="313.4" rx="4.2" ry="1.3"/>
<ellipse class="st1" cx="718.8" cy="326.8" rx="149.2" ry="20.3"/>
<path d="M688.3,275.5l-4.2,26.5c0,0-20.5,10.9-6.1,11.2s82.1,0,82.1,0s13.1,0-7.7-11.5l-4.2-27.8L688.3,275.5z"/>
<path class="st2" d="M675.2,312.9c2.8-2.3,5.8-4.2,9-5.9l4.2-26.5l60.1,0.1l4.2,26.1c3.4,1.8,6.6,3.9,9.6,6.3
	c2.7-0.6,5.6-2.9-9.6-11.3l-4.2-27.8l-60.1,1.6l-4.2,26.5C684.1,302,666.9,311.1,675.2,312.9z"/>
<path d="M592.2,90.7h251.6c5.3,0,9.5,4.3,9.5,9.5v169.5c0,5.3-4.3,9.5-9.5,9.5H592.2c-5.3,0-9.5-4.3-9.5-9.5V100.2
	C582.7,94.9,587,90.7,592.2,90.7z"/>
<rect x="591.8" y="100.8" class="st3" width="252.4" height="141.2"/>
<circle class="st4" cx="718" cy="96.3" r="1.6"/>
<path class="st1" d="M853.3,253.1v16.5c0,5.3-4.3,9.5-9.5,9.5l0,0H592.2c-5.3,0-9.5-4.3-9.5-9.5c0,0,0,0,0,0l0,0v-16.5H853.3z"/>
<polygon class="st5" points="788.6,330.4 788.6,333.6 616.7,333.6 616.7,331.1 617,330.4 621.2,318.9 785.1,318.9 "/>
<path class="st5" d="M854.7,327.3c-0.3,1.3-1.5,2.8-4.2,4.1c-9.6,4.8-29.1-1.3-29.1-1.3s-15-2.6-15-9.3c0.4-0.3,0.9-0.5,1.3-0.8
	c4-2.1,17.4-7.4,41.1,0.2c1.7,0.6,3.3,1.6,4.5,3C854.4,324.4,854.9,325.8,854.7,327.3z"/>
<path class="st2" d="M854.7,327.3c-11.7,4.5-22.2,4.8-32.9-2.6c-4.1-3-9-4.6-14-4.6c4-2.1,17.4-7.4,41.1,0.2c1.7,0.6,3.3,1.6,4.5,3
	C854.4,324.4,854.9,325.8,854.7,327.3z"/>
<circle class="st3" cx="718" cy="266.2" r="6.1"/>
<polygon class="st2" points="788.6,330.4 788.6,333.6 616.7,333.6 616.7,331.1 617,330.4 "/>
<ellipse class="st6" cx="1206.1" cy="399.2" rx="57" ry="7.8"/>
<ellipse class="st7" cx="1206.1" cy="399.2" rx="47.9" ry="6.5"/>
<rect x="1174.1" y="318.3" width="63.4" height="73.8"/>
<rect x="1167.7" y="310.9" class="st8" width="76.2" height="26.2"/>
<rect x="1167.7" y="342" class="st8" width="76.2" height="26.2"/>
<rect x="1167.7" y="373.1" class="st8" width="76.2" height="26.2"/>
<rect x="1223.8" y="315.5" class="st9" width="4.9" height="4.9"/>
<rect x="1230.8" y="315.5" class="st10" width="4.9" height="4.9"/>
<rect x="1237.8" y="315.5" class="st3" width="4.9" height="4.9"/>
<rect x="1223.8" y="346.3" class="st9" width="4.9" height="4.9"/>
<rect x="1230.8" y="346.3" class="st10" width="4.9" height="4.9"/>
<rect x="1237.8" y="346.3" class="st3" width="4.9" height="4.9"/>
<rect x="1223.8" y="377.1" class="st9" width="4.9" height="4.9"/>
<rect x="1230.8" y="377.1" class="st10" width="4.9" height="4.9"/>
<rect x="1237.8" y="377.1" class="st3" width="4.9" height="4.9"/>
<path d="M113.6,272.7l-2.7-1.1L109,258H84.3l-2,13.5l-2.4,1.2c-0.3,0.1-0.4,0.5-0.3,0.8c0.1,0.2,0.3,0.3,0.5,0.3h33.2
	c0.3,0,0.6-0.2,0.6-0.6C113.9,273,113.8,272.8,113.6,272.7L113.6,272.7z"/>
<path class="st1" d="M157.5,259.8H36.1c-1.3,0-2.4-1.1-2.4-2.4v-17.1h126.1v17.1C159.9,258.8,158.8,259.8,157.5,259.8z"/>
<path d="M160,248.4H33.6v-73.2c0-1.6,1.3-2.9,2.9-2.9h120.6c1.6,0,2.9,1.3,2.9,2.9V248.4z"/>
<path class="st3" d="M152.4,243.1H41.2c-1.2,0-2.2-1-2.2-2.2v-61c0-1.2,1-2.2,2.2-2.2h111.3c1.2,0,2.2,1,2.2,2.2v61
	C154.7,242.1,153.7,243.1,152.4,243.1z"/>
<path d="M151.4,274H43.6c-0.2,0-0.3-0.1-0.3-0.3s0.1-0.3,0.3-0.3h107.8c0.2,0,0.3,0.1,0.3,0.3S151.6,274,151.4,274L151.4,274z"/>
<path class="st1" d="M142,235.5H51.6c-0.2,0-0.3-0.1-0.3-0.3v-43.3c0-0.2,0.1-0.3,0.3-0.3s0.3,0.1,0.3,0.3v43H142
	c0.2,0,0.3,0.1,0.3,0.3S142.2,235.5,142,235.5L142,235.5L142,235.5z"/>
<path class="st1" d="M70.9,232.4h-8.2c-0.5,0-0.8-0.4-0.8-0.8v-11.3c0-0.5,0.4-0.8,0.8-0.8h8.2c0.5,0,0.8,0.4,0.8,0.8v11.3
	C71.8,232,71.4,232.4,70.9,232.4C70.9,232.4,70.9,232.4,70.9,232.4z"/>
<path class="st1" d="M85.9,232.4h-8.2c-0.5,0-0.8-0.4-0.8-0.8v-22.1c0-0.5,0.4-0.8,0.8-0.8h8.2c0.5,0,0.8,0.4,0.8,0.8v22.1
	C86.8,232,86.4,232.4,85.9,232.4z"/>
<path class="st1" d="M100.9,232.4h-8.2c-0.5,0-0.8-0.4-0.8-0.8v-11.3c0-0.5,0.4-0.8,0.8-0.8h8.2c0.5,0,0.8,0.4,0.8,0.8v11.3
	C101.8,232,101.4,232.4,100.9,232.4C100.9,232.4,100.9,232.4,100.9,232.4z"/>
<path class="st1" d="M115.9,232.4h-8.2c-0.5,0-0.8-0.3-0.8-0.8c0,0,0,0,0,0v-26.4c0-0.5,0.4-0.8,0.8-0.8c0,0,0,0,0,0h8.2
	c0.5,0,0.8,0.3,0.8,0.8c0,0,0,0,0,0v26.4C116.7,232.1,116.4,232.4,115.9,232.4C115.9,232.4,115.9,232.4,115.9,232.4z"/>
<path class="st1" d="M130.9,232.4h-8.2c-0.5,0-0.8-0.4-0.8-0.8v-34c0-0.5,0.4-0.8,0.8-0.8h8.2c0.5,0,0.8,0.4,0.8,0.8v34
	C131.7,232,131.4,232.4,130.9,232.4z"/>
<polygon points="96.8,214.7 81.8,203.4 67,214.5 66.6,214.1 81.8,202.7 96.8,213.9 111.6,197.7 111.7,197.6 126.7,191.6 
	126.9,192.1 111.9,198.1 "/>
<circle class="st1" cx="66.8" cy="214.3" r="1.7"/>
<circle class="st1" cx="81.8" cy="203.3" r="1.7"/>
<circle class="st1" cx="96.8" cy="214.3" r="1.7"/>
<circle class="st1" cx="111.8" cy="197.9" r="1.7"/>
<path d="M1271.9,127.9h-123.9c-2.2,0-4-1.8-4-4V49.5c0-1.6,1.3-2.9,2.9-2.9l0,0h125.9c1.7,0,3,1.3,3,3v74.4
	C1275.9,126.1,1274.1,127.9,1271.9,127.9z"/>
<path class="st3" d="M1151.7,123.4l116.1,0.9c2.1,0,3.9-1.7,3.9-3.8c0,0,0,0,0,0l0.5-63.2c0-2.1-1.7-3.9-3.8-3.9c0,0,0,0,0,0
	l-116.1-0.9c-2.1,0-3.9,1.7-3.9,3.8c0,0,0,0,0,0l-0.5,63.2C1147.8,121.7,1149.5,123.4,1151.7,123.4
	C1151.7,123.4,1151.7,123.4,1151.7,123.4z"/>
<path class="st1" d="M1275.8,49.2H1144v-2c0-2.2,1.8-4,4-4h123.8c2.2,0,4,1.8,4,4L1275.8,49.2z"/>
<circle class="st11" cx="1151.3" cy="46.2" r="1"/>
<circle class="st11" cx="1155.2" cy="46.2" r="1"/>
<circle class="st11" cx="1159.2" cy="46.2" r="1"/>
<path class="st1" d="M1213.6,110.2h-10.4c-1.3,0-2.3-1-2.3-2.3V97.5c0-1.3,1-2.3,2.3-2.3h10.4c1.3,0,2.3,1,2.3,2.3v10.4
	C1215.9,109.1,1214.9,110.2,1213.6,110.2z M1203.2,95.7c-1,0-1.8,0.8-1.8,1.8c0,0,0,0,0,0v10.4c0,1,0.8,1.8,1.8,1.8l0,0h10.4
	c1,0,1.8-0.8,1.8-1.8c0,0,0,0,0,0V97.5c0-1-0.8-1.8-1.8-1.8l0,0H1203.2z"/>
<path class="st1" d="M1211.6,107.3h-6.3c-0.4,0-0.7-0.3-0.7-0.7v-7.7c0-0.4,0.3-0.7,0.7-0.7h4.6c0.2,0,0.3,0.1,0.4,0.2l1.7,1.4
	c0.2,0.1,0.3,0.3,0.3,0.6v6.3C1212.3,107,1212,107.3,1211.6,107.3z M1205.3,98.6c-0.1,0-0.2,0.1-0.2,0.2v7.7c0,0.1,0.1,0.2,0.2,0.2
	h6.3c0.1,0,0.2-0.1,0.2-0.2v-6.3c0-0.1,0-0.1-0.1-0.2l-1.7-1.4c0,0-0.1-0.1-0.2-0.1H1205.3z"/>
<path class="st1" d="M1210.4,101.5h-3.9c-0.1,0-0.2-0.1-0.2-0.2c0-0.1,0.1-0.2,0.2-0.2h3.9c0.1,0,0.2,0.1,0.2,0.2
	C1210.6,101.4,1210.5,101.5,1210.4,101.5z"/>
<path class="st1" d="M1210.4,102.9h-3.9c-0.1,0-0.2-0.1-0.2-0.2c0-0.1,0.1-0.2,0.2-0.2h3.9c0.1,0,0.2,0.1,0.2,0.2
	C1210.6,102.8,1210.5,102.9,1210.4,102.9z"/>
<path class="st1" d="M1210.4,104.4h-3.9c-0.1,0-0.2-0.1-0.2-0.2c0-0.1,0.1-0.2,0.2-0.2h3.9c0.1,0,0.2,0.1,0.2,0.2
	C1210.6,104.3,1210.5,104.4,1210.4,104.4z"/>
<path class="st1" d="M1238.2,110.2h-10.4c-1.3,0-2.3-1-2.3-2.3V97.5c0-1.3,1-2.3,2.3-2.3h10.4c1.3,0,2.3,1,2.3,2.3v10.4
	C1240.5,109.1,1239.5,110.2,1238.2,110.2z M1227.9,95.7c-1,0-1.8,0.8-1.8,1.8c0,0,0,0,0,0v10.4c0,1,0.8,1.8,1.8,1.8l0,0h10.4
	c1,0,1.8-0.8,1.8-1.8c0,0,0,0,0,0V97.5c0-1-0.8-1.8-1.8-1.8l0,0H1227.9z"/>
<path class="st1" d="M1236.4,105.3h-6.8c-0.4,0-0.7-0.3-0.7-0.7v-3.9c0-0.4,0.3-0.7,0.7-0.7h6.8c0.4,0,0.7,0.3,0.7,0.7v3.9
	C1237.2,105,1236.8,105.3,1236.4,105.3z M1229.7,100.5c-0.1,0-0.2,0.1-0.2,0.2v3.9c0,0.1,0.1,0.2,0.2,0.2h6.8c0.1,0,0.2-0.1,0.2-0.2
	v-3.9c0-0.1-0.1-0.2-0.2-0.2H1229.7z"/>
<path class="st1" d="M1233.1,103.3c-0.1,0-0.3,0-0.4-0.1l-3.6-2.2c-0.1-0.1-0.1-0.2-0.1-0.3c0.1-0.1,0.2-0.1,0.3-0.1l3.6,2.2
	c0.1,0.1,0.2,0.1,0.3,0l3.6-2.2c0.1-0.1,0.3,0,0.3,0.1c0.1,0.1,0,0.3-0.1,0.3l0,0l-3.6,2.2C1233.3,103.3,1233.2,103.3,1233.1,103.3z
	"/>
<path class="st1" d="M1189,110.2h-10.4c-1.3,0-2.3-1-2.3-2.3V97.5c0-1.3,1-2.3,2.3-2.3h10.4c1.3,0,2.3,1,2.3,2.3v10.4
	C1191.3,109.1,1190.3,110.2,1189,110.2z M1178.6,95.7c-1,0-1.8,0.8-1.8,1.8c0,0,0,0,0,0v10.4c0,1,0.8,1.8,1.8,1.8l0,0h10.4
	c1,0,1.8-0.8,1.8-1.8c0,0,0,0,0,0V97.5c0-1-0.8-1.8-1.8-1.8l0,0H1178.6z"/>
<path class="st1" d="M1187.2,105.3h-6.8c-0.4,0-0.7-0.3-0.7-0.7v-3.9c0-0.4,0.3-0.7,0.7-0.7h6.8c0.4,0,0.7,0.3,0.7,0.7v3.9
	C1187.9,105,1187.6,105.3,1187.2,105.3z M1180.4,100.5c-0.1,0-0.2,0.1-0.2,0.2v3.9c0,0.1,0.1,0.2,0.2,0.2h6.8c0.1,0,0.2-0.1,0.2-0.2
	v-3.9c0-0.1-0.1-0.2-0.2-0.2H1180.4z"/>
<path class="st1" d="M1186.1,105.3h-4.9c-0.3,0-0.5-0.2-0.5-0.5c0-0.1,0-0.2,0.1-0.2l1.5-2.5c0.1-0.2,0.4-0.3,0.7-0.2
	c0.1,0,0.1,0.1,0.2,0.2l0.9,1.6l0.6-0.9c0.1-0.2,0.4-0.3,0.7-0.2c0.1,0,0.1,0.1,0.2,0.2l1.1,1.8c0.1,0.2,0.1,0.5-0.2,0.7
	C1186.3,105.3,1186.2,105.4,1186.1,105.3L1186.1,105.3z M1186.1,104.9L1186.1,104.9l-1.1-1.9l-0.8,1.3c0,0.1-0.1,0.1-0.2,0.1l0,0
	c-0.1,0-0.2,0-0.2-0.1l-1.2-2l-1.5,2.5L1186.1,104.9z"/>
<circle class="st1" cx="1186.4" cy="101.5" r="0.5"/>
<path class="st3" d="M1277,83h-73.4c-2.2,0-4-1.8-4-4V63.3c0-2.2,1.8-4,4-4h73.4c2.2,0,4,1.8,4,4V79C1281,81.2,1279.2,83,1277,83z"
	/>
<path class="st1" d="M1277,83.1h-73.4c-2.3,0-4.1-1.8-4.1-4.1V63.3c0-2.3,1.8-4.1,4.1-4.1h73.4c2.3,0,4.1,1.8,4.1,4.1V79
	C1281.1,81.3,1279.3,83.1,1277,83.1z M1203.6,59.7c-2,0-3.6,1.6-3.6,3.6V79c0,2,1.6,3.6,3.6,3.6h73.4c2,0,3.6-1.6,3.6-3.6V63.3
	c0-2-1.6-3.6-3.6-3.6L1203.6,59.7z"/>
<path class="st5" d="M1268,79.1h-55.5c-2.2,0-4-1.8-4-4v-8.2c0-2.2,1.8-4,4-4h55.5c2.2,0,4,1.8,4,4v8.2
	C1272,77.3,1270.2,79.1,1268,79.1z"/>
<circle class="st12" cx="1224.4" cy="69.9" r="4.8"/>
<path class="st1" d="M1264.6,78.6l-6.7-5.6l-6.6-5.5c-0.4-0.3-0.9-0.3-1.2,0l-6.6,5.5l-1.6,1.4l-2.4-2l-7.4-6.2
	c-0.4-0.3-0.9-0.3-1.2,0l-7.3,6.2l-7.5,6.3c-0.1,0.1-0.1,0.2,0,0.3c0,0.1,0.1,0.1,0.2,0.1h15.3h4.8l0,0h14.4h13.8
	c0.1,0,0.2-0.1,0.2-0.2C1264.7,78.8,1264.7,78.7,1264.6,78.6L1264.6,78.6z"/>
<path class="st3" d="M1163.8,88.7h-10.4c-1.3,0-2.3-1-2.3-2.3V76c0-1.3,1-2.3,2.3-2.3h10.4c1.2,0,2.2,1,2.2,2.3v10.4
	C1166,87.6,1165,88.6,1163.8,88.7z"/>
<path class="st1" d="M1163.8,88.7h-10.4c-1.3,0-2.3-1-2.3-2.3V76c0-1.3,1-2.3,2.3-2.3h10.4c1.2,0,2.2,1,2.2,2.3v10.4
	C1166,87.6,1165,88.6,1163.8,88.7z M1153.4,74.2c-1,0-1.8,0.8-1.8,1.8c0,0,0,0,0,0v10.4c0,1,0.8,1.8,1.8,1.8l0,0h10.4
	c1,0,1.8-0.8,1.8-1.8c0,0,0,0,0,0V76c0-1-0.8-1.8-1.8-1.8l0,0L1153.4,74.2z"/>
<path class="st1" d="M1161.9,84.4h-6.8c-0.4,0-0.7-0.3-0.7-0.7v-5.1c0-0.4,0.3-0.7,0.7-0.7h1.9c0.3,0,0.5,0.1,0.6,0.3l0.5,0.9h3.7
	c0.4,0,0.7,0.3,0.7,0.7v3.9C1162.7,84.1,1162.3,84.4,1161.9,84.4z"/>
<path class="st3" d="M186.5,72.3h112c0.9,0,1.6,0.7,1.6,1.6v49.6c0,0.9-0.7,1.6-1.6,1.6h-112c-0.9,0-1.6-0.7-1.6-1.6V73.9
	C184.9,73.1,185.6,72.3,186.5,72.3z"/>
<path class="st13" d="M190.6,18h54.1c1.4,0,2.5,1.1,2.5,2.5V29c0,1.4-1.1,2.5-2.5,2.5h-54.1c-1.4,0-2.5-1.1-2.5-2.5v-8.5
	C188.1,19.1,189.2,18,190.6,18z"/>
<path class="st13" d="M231.8,46.4h54.1c1.4,0,2.5,1.1,2.5,2.5v8.5c0,1.4-1.1,2.5-2.5,2.5h-54.1c-1.4,0-2.5-1.1-2.5-2.5v-8.5
	C229.3,47.5,230.4,46.4,231.8,46.4z"/>
<path d="M298.2,124.9h-112c-1,0-1.8-0.8-1.8-1.8V74.4c0-1,0.8-1.8,1.8-1.8h112c1,0,1.8,0.8,1.8,1.8v48.7
	C300,124.1,299.2,124.9,298.2,124.9z M186.2,73.4c-0.6,0-1.1,0.5-1.1,1.1v48.7c0,0.6,0.5,1.1,1.1,1.1h112c0.6,0,1.1-0.5,1.1-1.1
	V74.4c0-0.6-0.5-1.1-1.1-1.1L186.2,73.4z"/>
<path class="st5" d="M190.9,78.7c-0.6,0-1.1,0.5-1.1,1.1c0,0.6,0.5,1.1,1.1,1.1h14.8c0.6,0,1.1-0.5,1.1-1.1c0-0.6-0.5-1.1-1.1-1.1
	H190.9z"/>
<path class="st5" d="M292.3,86v19.6h-99.9V95.3c0.7-0.4,1.4-0.9,2.1-1.3c3-2,6.2-3.4,9.7-4.2c1.7-0.3,3.3-0.3,5-0.1
	c1.7,0.3,3.5,0.8,5.1,1.5c1.6,0.6,3.3,1.2,5,1.6c1.7,0.3,3.4,0.4,5.1,0.1c3.2-0.6,6.3-1.6,9.3-2.9c3-1.3,6.2-2.1,9.4-2.4
	c3.2,0,6.4,0.5,9.5,1.6c6.2,1.9,12.6,4.8,19.3,2.8s12.9-7.7,20.4-6C292.2,85.9,292.3,86,292.3,86z"/>
<path d="M292.3,86.4c-0.1,0.1-0.2,0.2-0.3,0.2c-0.9-0.2-1.8-0.3-2.7-0.3c-7.3,0.1-13,6-20.1,6.9c-6.5,0.8-12.5-2.3-18.6-4
	c-3.1-1-6.4-1.2-9.7-0.7c-3.2,0.7-6.3,1.7-9.3,3.1c-2.9,1.3-6,2-9.1,2.2c-3.5,0.1-6.6-1.4-9.9-2.5c-1.7-0.6-3.4-1-5.2-1.1
	c-1.7,0-3.5,0.2-5.1,0.8c-3.4,1.2-6.6,2.9-9.5,5c-0.1,0-0.1,0-0.2,0c-0.2,0-0.3-0.2-0.3-0.3c0-0.1,0.1-0.2,0.1-0.2l0.1-0.1
	c0.7-0.4,1.4-0.9,2.1-1.3c2.9-2,6.2-3.4,9.7-4.2c1.7-0.3,3.3-0.3,5-0.1c1.7,0.3,3.4,0.8,5.1,1.5c1.6,0.6,3.3,1.2,5,1.6
	c1.7,0.3,3.4,0.4,5.1,0.1c3.2-0.6,6.3-1.6,9.2-2.9c3-1.3,6.2-2.1,9.4-2.4c3.2,0,6.4,0.5,9.5,1.6c6.2,1.9,12.6,4.8,19.2,2.8
	s12.9-7.7,20.3-6c0.1,0,0.1,0.1,0.2,0.1C292.4,86.2,292.4,86.3,292.3,86.4z"/>
<circle class="st8" cx="206.1" cy="90" r="1.5"/>
<circle class="st8" cx="243.1" cy="88.1" r="1.5"/>
<path class="st5" d="M205.3,114c-0.6,0-1.1,0.5-1.1,1.1c0,0.6,0.5,1.1,1.1,1.1l0,0h14.8c0.6,0,1.1-0.5,1.1-1.1
	c0-0.6-0.5-1.1-1.1-1.1H205.3z"/>
<circle class="st8" cx="195.8" cy="114.9" r="4"/>
<path class="st5" d="M241.1,114c-0.6,0-1.1,0.5-1.1,1.1c0,0.6,0.5,1.1,1.1,1.1h14.8c0.6,0,1.1-0.5,1.1-1.1c0-0.6-0.5-1.1-1.1-1.1
	H241.1z"/>
<circle class="st8" cx="231.6" cy="114.9" r="4"/>
<path class="st5" d="M276.8,114c-0.6,0-1.1,0.5-1.1,1.1c0,0.6,0.5,1.1,1.1,1.1h14.8c0.6,0,1.1-0.5,1.1-1.1c0-0.6-0.5-1.1-1.1-1.1
	H276.8z"/>
<circle class="st8" cx="267.3" cy="114.9" r="4"/>
<path class="st8" d="M247.8,51.6c-0.7,0-1.2,0.5-1.2,1.2V61c0,0.7,0.5,1.2,1.2,1.2h42.1c0.6,0,1.2-0.5,1.2-1.2v-8.3
	c0-0.7-0.5-1.2-1.2-1.2L247.8,51.6z"/>
<circle class="st3" cx="253.7" cy="57" r="2.6"/>
<path class="st3" d="M265.5,55.8c-0.6,0-1.1,0.5-1.1,1.1s0.5,1.1,1.1,1.1c0,0,0,0,0,0h14.8c0.6,0,1.1-0.5,1.1-1.1
	c0-0.6-0.5-1.1-1.1-1.1H265.5z"/>
<path class="st8" d="M206.4,23.6c-0.7,0-1.2,0.5-1.2,1.2V33c0,0.7,0.5,1.2,1.2,1.2h42.1c0.6,0,1.2-0.5,1.2-1.2v-8.2
	c0-0.7-0.5-1.2-1.2-1.2H206.4z"/>
<circle class="st3" cx="212.3" cy="29" r="2.6"/>
<path class="st3" d="M224.1,27.9c-0.6,0-1.1,0.5-1.1,1.1c0,0.6,0.5,1.1,1.1,1.1c0,0,0,0,0,0h14.8c0.6,0,1.1-0.5,1.1-1.1
	c0-0.6-0.5-1.1-1.1-1.1H224.1z"/>
<path class="st14" d="M239.1,295.6L239.1,295.6c-21,1.3-36.8,19.3-35.5,40.2c1.2,19,16.4,34.2,35.4,35.4c0.2,0,0.5-0.1,0.6-0.2
	c0.2-0.2,0.3-0.4,0.3-0.6v-73.9C239.9,296,239.5,295.6,239.1,295.6L239.1,295.6z"/>
<path class="st15" d="M270.7,356.7c-0.3,0-0.6-0.1-0.8-0.3l-24.9-25c-0.2-0.2-0.3-0.5-0.3-0.8v-34.3c0-0.3,0.1-0.6,0.3-0.8
	c0.2-0.2,0.5-0.3,0.8-0.3c20.4,1.3,35.8,18.9,34.5,39.3c-0.5,8-3.6,15.6-8.8,21.7C271.3,356.6,271,356.7,270.7,356.7L270.7,356.7z"
	/>
<path class="st16" d="M245.6,370.5c-0.3,0-0.5-0.1-0.7-0.3c-0.2-0.2-0.3-0.5-0.3-0.7v-29c0-0.6,0.4-1,1-1c0.3,0,0.6,0.1,0.8,0.3
	l20.5,20.5c0.4,0.4,0.4,1,0,1.4c0,0,0,0,0,0l0,0c-5.8,5.2-13.2,8.4-21.1,8.9L245.6,370.5z"/>
<path class="st5" d="M209.2,382.9h-23.6c-0.7,0-1.3-1.1-1.3-2.5s0.6-2.5,1.3-2.5h23.6c0.7,0,1.3,1.1,1.3,2.5
	S209.9,382.9,209.2,382.9z"/>
<path class="st1" d="M178.5,382.8c-1.5,0-2.7-1.2-2.7-2.7c0-1.5,1.2-2.7,2.7-2.7c1.5,0,2.7,1.2,2.7,2.7S180,382.8,178.5,382.8
	C178.5,382.8,178.5,382.8,178.5,382.8z"/>
<path class="st5" d="M209.2,391.5h-23.6c-0.7,0-1.3-1.1-1.3-2.5s0.6-2.5,1.3-2.5h23.6c0.7,0,1.3,1.1,1.3,2.5
	S209.9,391.5,209.2,391.5z"/>
<path class="st1" d="M178.5,391.7c-1.5,0-2.7-1.2-2.7-2.7c0-1.5,1.2-2.7,2.7-2.7c1.5,0,2.7,1.2,2.7,2.7S180,391.7,178.5,391.7
	C178.5,391.7,178.5,391.7,178.5,391.7z"/>
<path class="st5" d="M209.2,400.2h-23.6c-0.7,0-1.3-1.1-1.3-2.5s0.6-2.5,1.3-2.5h23.6c0.7,0,1.3,1.1,1.3,2.5
	S209.9,400.2,209.2,400.2z"/>
<path class="st1" d="M178.5,400.8c-1.5,0-2.7-1.2-2.7-2.7c0-1.5,1.2-2.7,2.7-2.7c1.5,0,2.7,1.2,2.7,2.7S180,400.8,178.5,400.8
	C178.5,400.8,178.5,400.8,178.5,400.8z"/>
<path class="st17" d="M284.6,312.6L284.6,312.6c-2.8,0.2-5.2-1.8-5.4-4.6s1.8-5.2,4.6-5.4c2.8-0.2,5.2,1.8,5.4,4.6c0,0,0,0,0,0
	C289.4,310,287.3,312.4,284.6,312.6z M284.5,311.8L284.5,311.8c2.3-0.2,4.1-2.2,3.9-4.5c-0.2-2.3-2.2-4.1-4.5-3.9
	c-2.3,0.2-4.1,2.2-3.9,4.5c0,0,0,0,0,0C280.2,310.3,282.2,312.1,284.5,311.8L284.5,311.8L284.5,311.8z"/>
<circle class="st5" cx="301.8" cy="296.8" r="3.1"/>
<circle class="st5" cx="316.8" cy="287.1" r="1.6"/>
<path class="st17" d="M271.8,382.3c-1.3,2-4,2.5-6,1.2c-2-1.3-2.5-4-1.2-6c1.3-2,4-2.5,6-1.2l0,0
	C272.5,377.6,273.1,380.3,271.8,382.3C271.8,382.3,271.8,382.3,271.8,382.3z M265.1,377.9c-1.1,1.7-0.7,3.9,1,5.1
	c1.7,1.1,3.9,0.7,5.1-1s0.7-3.9-1-5.1c0,0,0,0,0,0l0,0C268.5,375.8,266.2,376.2,265.1,377.9z"/>
<circle class="st5" cx="276.9" cy="395.5" r="2.7"/>
<circle class="st5" cx="284.3" cy="409.1" r="1.4"/>
<path class="st17" d="M188.8,323.1c-1.3-2.6-0.2-5.8,2.4-7.2c2.6-1.3,5.8-0.2,7.2,2.4c1.3,2.6,0.2,5.8-2.4,7.2l0,0
	C193.3,326.8,190.1,325.8,188.8,323.1z M197.6,318.7c-1.1-2.2-3.8-3.1-6.1-2c-2.2,1.1-3.1,3.8-2,6.1c1.1,2.2,3.8,3.1,6.1,2
	c0,0,0,0,0,0l0,0C197.9,323.7,198.8,321,197.6,318.7L197.6,318.7z"/>
<polyline class="st18" points="253.2,358 253.2,394.9 221.6,394.9 "/>
<path class="st19" d="M546.7,141.7c-0.7,0.3-1.4,0.5-2.2,0.8"/>
<path class="st20" d="M540.2,143.5c-8.9,1.9-27,3.7-54.8-2.9c-41.4-9.8-56.4-21.2-85.9-30.6c-27.5-8.8-55.1-7.9-65.6-7.1"/>
<path class="st19" d="M331.7,103.1c-1.5,0.1-2.3,0.2-2.3,0.2"/>
<path class="st19" d="M508.2,222.8c0,0-0.9,0.5-2.8,1.3"/>
<path class="st21" d="M499.6,226.3c-12.1,4.1-37.6,10.1-79.2,7.8c-61.6-3.4-85.8-14.5-130.2-20c-41.7-5.1-81.2,1.8-95.8,4.9"/>
<path class="st19" d="M191.3,219.6c-1.9,0.4-3,0.7-3,0.7"/>
<path class="st19" d="M531.9,290.4c-0.5,0.7-1.1,1.3-1.7,1.9"/>
<path class="st22" d="M526.4,295.9c-7.7,6.4-24,16.8-53.2,22.4c-44.1,8.5-63.9,2.4-96.4,5.7c-30,3-55.6,16.8-65.5,22.8"/>
<path class="st19" d="M309.1,348c-1.4,0.9-2.2,1.4-2.2,1.4"/>
<path class="st19" d="M894.3,135.7c0.7,0.3,1.4,0.5,2.2,0.8"/>
<path class="st20" d="M900.8,137.5c8.9,1.9,27,3.7,54.8-2.9c41.5-9.8,56.4-21.2,85.9-30.7c27.5-8.8,55.1-7.9,65.6-7.1"/>
<path class="st19" d="M1109.3,97.1c1.5,0.1,2.3,0.2,2.3,0.2"/>
<path class="st19" d="M932.9,216.8c0,0,0.9,0.5,2.8,1.3"/>
<path class="st21" d="M941.4,220.3c12.2,4.1,37.7,10.1,79.2,7.8c61.7-3.4,85.8-14.5,130.2-20c41.7-5.1,81.2,1.7,95.8,4.8"/>
<path class="st19" d="M1249.7,213.6c1.9,0.4,3,0.7,3,0.7"/>
<path class="st19" d="M909.1,284.4c0.5,0.7,1.1,1.3,1.7,1.9"/>
<path class="st22" d="M914.6,289.9c7.7,6.4,24,16.8,53.2,22.4c44.1,8.5,63.9,2.4,96.4,5.7c30.1,3,55.6,16.8,65.5,22.8"/>
<path class="st19" d="M1131.9,342c1.4,0.9,2.2,1.4,2.2,1.4"/>
</svg>
