<svg width="296" height="217" viewBox="0 0 296 217" fill="none" xmlns="http://www.w3.org/2000/svg">
<g clip-path="url(#clip0_59_607)">
<path d="M138.465 171.78L143.141 169.693L137.284 150.265L130.383 153.346L138.465 171.78Z" fill="#FFB6B6"/>
<path d="M135.116 166.506L142.111 161.578L144.041 164.683L153.906 165.167C154.394 165.191 154.86 165.369 155.239 165.677C155.617 165.984 155.887 166.404 156.009 166.875C156.131 167.346 156.099 167.844 155.918 168.296C155.736 168.748 155.415 169.13 155 169.386L146.352 174.739L142.951 172.59L144.279 176.022L141.018 178.04L135.116 166.506Z" fill="#2F2E41"/>
<path d="M258.583 135.008C258.583 133.054 257.925 131.468 257.118 131.465H36.9844C36.1732 131.468 35.5192 133.054 35.5156 135.008V215.439C35.5156 215.621 35.4479 215.796 35.3258 215.93C35.2036 216.064 35.0357 216.148 34.8547 216.166C34.2639 216.223 33.673 216.275 33.0822 216.324C33.0676 216.324 33.053 216.328 33.0383 216.328C32.7168 216.357 32.3953 216.379 32.0738 216.404H32.0701C31.9047 216.099 31.7412 215.791 31.5797 215.481C31.525 215.376 31.4965 215.26 31.4965 215.142V130.411C31.4965 129.872 31.5184 129.329 31.5549 128.793C31.6071 128.057 31.6985 127.324 31.829 126.598C32.4464 123.212 33.8422 120.919 35.4279 120.912H258.671C258.902 120.913 259.131 120.962 259.343 121.054C259.655 121.191 259.936 121.388 260.172 121.633C260.493 121.966 260.767 122.34 260.987 122.745C261.769 124.119 262.328 126.168 262.525 128.552C262.525 128.574 262.529 128.596 262.529 128.618C262.58 129.208 262.606 129.81 262.602 130.411L262.653 138.223L262.686 142.882L262.785 157.5L262.821 162.691L262.982 215.985C262.982 216.178 262.905 216.364 262.768 216.501C262.631 216.637 262.445 216.714 262.251 216.714H259.314C259.12 216.714 258.934 216.637 258.797 216.501C258.66 216.364 258.583 216.178 258.583 215.985V135.008Z" fill="#E6E6E6"/>
<path d="M198.766 84.358H175.046C174.71 84.3585 174.389 84.492 174.152 84.729C173.915 84.966 173.782 85.2873 173.782 85.622V123.006H200.033V85.622C200.033 85.456 200 85.2916 199.936 85.1382C199.873 84.9848 199.779 84.8455 199.662 84.7281C199.544 84.6107 199.404 84.5176 199.251 84.4541C199.097 84.3906 198.932 84.3579 198.766 84.358ZM186.986 105.599C186.244 105.596 185.533 105.3 185.009 104.777C184.484 104.254 184.188 103.545 184.185 102.805V98.4928C184.185 97.7522 184.481 97.0422 185.006 96.5189C185.531 95.9955 186.243 95.7015 186.986 95.7015C187.728 95.7015 188.44 95.9955 188.965 96.5189C189.49 97.0422 189.786 97.7522 189.786 98.4928V102.805C189.783 103.545 189.487 104.254 188.962 104.777C188.438 105.3 187.727 105.596 186.986 105.599Z" fill="#2F2E41"/>
<path d="M173.701 121.81V125.417C173.701 125.604 173.776 125.783 173.908 125.915C174.041 126.047 174.22 126.122 174.408 126.122H199.407C199.594 126.121 199.774 126.047 199.906 125.915C200.038 125.783 200.113 125.604 200.114 125.417V121.81H173.701Z" fill="#3F3D56"/>
<path d="M143.225 32.2972C142.952 32.9829 142.532 33.6005 141.994 34.1065C141.456 34.6126 140.813 34.9948 140.111 35.2261C139.408 35.4575 138.664 35.5324 137.929 35.4457C137.195 35.3589 136.489 35.1126 135.86 34.724L102.378 57.9953L101.454 48.7214L134.374 27.4416C135.099 26.4312 136.169 25.7211 137.383 25.4456C138.597 25.1702 139.871 25.3487 140.962 25.9472C142.052 26.5457 142.886 27.5227 143.303 28.6931C143.72 29.8634 143.692 31.1458 143.225 32.2972Z" fill="#FFB6B6"/>
<path d="M68.261 46.9701C68.261 46.9701 64.6356 52.3147 70.3247 57.0444C76.0137 61.774 99.0725 60.8331 102.794 60.7925C106.515 60.7518 123.588 43.1308 123.588 43.1308L123.476 32.954L102.863 45.157L68.261 46.9701Z" fill="#415B48"/>
<path d="M66.2084 82.4542L66.5737 89.3803C66.5737 89.3803 65.4953 95.5155 66.3822 96.8395C67.2625 98.1569 91.4353 100.117 91.4353 100.117C91.4353 100.117 90.6774 89.7872 92.0445 82.3157L66.2084 82.4542Z" fill="#FFB6B6"/>
<path d="M140.395 152.974L131.09 161.1L112.853 123.888C94.7691 126.992 77.7082 127.986 62.9513 124.232C57.9549 122.978 54.9008 117.831 56.1297 112.735C56.1872 112.497 56.2536 112.261 56.329 112.028C58.0951 106.652 62.7182 102.848 66.3606 96.9353L92.9659 97.3385L89.9943 107.568L115.839 104.231C121.037 103.56 125.784 107.314 126.442 112.615C126.476 112.895 126.499 113.176 126.51 113.458L140.395 152.974Z" fill="#2F2E41"/>
<path d="M76.5967 35.8444C82.5632 35.8444 87.4 31.0187 87.4 25.066C87.4 19.1132 82.5632 14.2876 76.5967 14.2876C70.6302 14.2876 65.7935 19.1132 65.7935 25.066C65.7935 31.0187 70.6302 35.8444 76.5967 35.8444Z" fill="#FFB6B6"/>
<path d="M70.2633 39.7354L80.1689 40.898C80.5866 40.9471 80.9786 41.1249 81.2902 41.4067C81.6018 41.6885 81.8176 42.0604 81.9074 42.4703L83.4827 49.6622L93.3027 61.1998C93.3027 61.1998 96.8289 67.7963 95.5066 75.2724C94.7108 79.7743 93.3342 84.1544 91.4109 88.3035C91.4109 88.3035 67.2612 98.1575 66.3796 96.8382C65.4981 95.5189 65.212 89.5262 65.212 89.5262L62.105 55.0408C61.9272 53.2238 62.1546 51.39 62.7708 49.671C63.3871 47.952 64.377 46.3904 65.6695 45.0981C66.4534 44.3288 67.227 43.7903 67.8567 43.7903C69.2791 43.7425 69.0966 40.5486 70.2633 39.7354Z" fill="#415B48"/>
<path d="M91.5182 186.23L96.115 188.476L107.181 171.461L100.396 168.146L91.5182 186.23Z" fill="#FFB6B6"/>
<path d="M102.53 182.384L93.086 178.807L106.047 139.967C88.4387 134.817 75.1564 126.52 63.5594 116.672C59.6252 113.354 56.6747 109.092 60.0254 105.055C60.182 104.866 60.3456 104.684 60.516 104.507C64.4726 100.455 74.5141 101.234 80.3923 97.5229L93.539 111.527L92.7153 115.278L117.396 123.625C122.36 125.304 124.968 130.758 123.221 135.807C123.129 136.074 123.025 136.336 122.91 136.595L102.53 182.384Z" fill="#2F2E41"/>
<path d="M91.3615 183.518L99.2626 186.813L97.6513 190.095L102.48 198.691C102.719 199.115 102.815 199.605 102.755 200.088C102.695 200.571 102.482 201.022 102.147 201.375C101.812 201.729 101.372 201.966 100.892 202.053C100.412 202.139 99.9165 202.071 99.4785 201.857L90.3391 197.39L90.3576 193.374L88.1488 196.319L84.7029 194.635L91.3615 183.518Z" fill="#2F2E41"/>
<path d="M75.911 124.05C75.2914 123.648 74.7679 123.114 74.3773 122.488C73.9867 121.861 73.7385 121.157 73.6502 120.424C73.562 119.692 73.6357 118.949 73.8664 118.248C74.0971 117.547 74.479 116.905 74.9852 116.367L58.7521 79.0156L68.0463 79.948L82.4341 116.356C83.2833 117.265 83.769 118.452 83.7992 119.694C83.8294 120.936 83.402 122.146 82.5979 123.094C81.7938 124.042 80.669 124.664 79.4366 124.84C78.2041 125.016 76.9497 124.735 75.911 124.05V124.05Z" fill="#FFB6B6"/>
<path d="M76.3397 47.8344C76.3397 47.8344 71.8067 43.2307 66.0334 47.8577C60.2602 52.4847 56.6186 75.2211 55.9217 78.8682C55.2248 82.5153 69.1559 102.701 69.1559 102.701L79.1763 104.607L71.2692 82.0319L76.3397 47.8344Z" fill="#415B48"/>
<path d="M238.043 26.0161H136.651C135.78 26.0175 134.945 26.3634 134.329 26.9779C133.713 27.5925 133.366 28.4256 133.365 29.2947V97.5574C133.365 98.4266 133.712 99.2601 134.328 99.8748C134.944 100.489 135.779 100.835 136.651 100.836H238.043C238.915 100.835 239.75 100.489 240.366 99.8748C240.982 99.2601 241.329 98.4266 241.33 97.5574V29.2947C241.328 28.4256 240.982 27.5925 240.366 26.9779C239.75 26.3634 238.915 26.0175 238.043 26.0161Z" fill="#3F3D56"/>
<path d="M237.197 28.3843H137.498C137.031 28.3853 136.584 28.5708 136.255 28.9002C135.925 29.2296 135.74 29.676 135.74 30.1413V96.712C135.741 97.1768 135.927 97.6223 136.256 97.951C136.585 98.2796 137.032 98.4646 137.498 98.4654H237.197C237.663 98.4646 238.109 98.2796 238.439 97.951C238.768 97.6223 238.954 97.1768 238.955 96.712V30.1413C238.954 29.676 238.769 29.2296 238.44 28.9002C238.11 28.5708 237.664 28.3853 237.197 28.3843Z" fill="white"/>
<path d="M217.777 127.377H158.462C158.299 127.377 158.139 127.341 157.992 127.271C157.846 127.202 157.717 127.1 157.614 126.974C157.512 126.849 157.439 126.702 157.401 126.544C157.363 126.387 157.36 126.223 157.394 126.064L158.314 121.703C158.367 121.459 158.501 121.24 158.695 121.083C158.89 120.926 159.132 120.84 159.382 120.839H216.857C217.107 120.84 217.349 120.926 217.544 121.083C217.738 121.24 217.872 121.459 217.925 121.703L218.845 126.064C218.879 126.223 218.876 126.387 218.838 126.544C218.8 126.702 218.727 126.849 218.625 126.974C218.522 127.1 218.393 127.202 218.247 127.271C218.1 127.341 217.94 127.377 217.777 127.377H217.777Z" fill="#2F2E41"/>
<path d="M161.452 121.624H159.982C159.883 121.624 159.803 121.704 159.803 121.802V122.54C159.803 122.638 159.883 122.718 159.982 122.718H161.452C161.55 122.718 161.63 122.638 161.63 122.54V121.802C161.63 121.704 161.55 121.624 161.452 121.624Z" fill="#3F3D56"/>
<path d="M165.105 121.624H163.635C163.537 121.624 163.457 121.704 163.457 121.802V122.54C163.457 122.638 163.537 122.718 163.635 122.718H165.105C165.204 122.718 165.284 122.638 165.284 122.54V121.802C165.284 121.704 165.204 121.624 165.105 121.624Z" fill="#3F3D56"/>
<path d="M168.759 121.624H167.289C167.19 121.624 167.111 121.704 167.111 121.802V122.54C167.111 122.638 167.19 122.718 167.289 122.718H168.759C168.858 122.718 168.937 122.638 168.937 122.54V121.802C168.937 121.704 168.858 121.624 168.759 121.624Z" fill="#3F3D56"/>
<path d="M172.413 121.624H170.943C170.844 121.624 170.764 121.704 170.764 121.802V122.54C170.764 122.638 170.844 122.718 170.943 122.718H172.413C172.511 122.718 172.591 122.638 172.591 122.54V121.802C172.591 121.704 172.511 121.624 172.413 121.624Z" fill="#3F3D56"/>
<path d="M176.067 121.624H174.596C174.498 121.624 174.418 121.704 174.418 121.802V122.54C174.418 122.638 174.498 122.718 174.596 122.718H176.067C176.165 122.718 176.245 122.638 176.245 122.54V121.802C176.245 121.704 176.165 121.624 176.067 121.624Z" fill="#3F3D56"/>
<path d="M179.72 121.624H178.25C178.152 121.624 178.072 121.704 178.072 121.802V122.54C178.072 122.638 178.152 122.718 178.25 122.718H179.72C179.819 122.718 179.899 122.638 179.899 122.54V121.802C179.899 121.704 179.819 121.624 179.72 121.624Z" fill="#3F3D56"/>
<path d="M183.374 121.624H181.904C181.805 121.624 181.726 121.704 181.726 121.802V122.54C181.726 122.638 181.805 122.718 181.904 122.718H183.374C183.473 122.718 183.552 122.638 183.552 122.54V121.802C183.552 121.704 183.473 121.624 183.374 121.624Z" fill="#3F3D56"/>
<path d="M187.028 121.624H185.558C185.459 121.624 185.379 121.704 185.379 121.802V122.54C185.379 122.638 185.459 122.718 185.558 122.718H187.028C187.126 122.718 187.206 122.638 187.206 122.54V121.802C187.206 121.704 187.126 121.624 187.028 121.624Z" fill="#3F3D56"/>
<path d="M190.681 121.624H189.211C189.113 121.624 189.033 121.704 189.033 121.802V122.54C189.033 122.638 189.113 122.718 189.211 122.718H190.681C190.78 122.718 190.86 122.638 190.86 122.54V121.802C190.86 121.704 190.78 121.624 190.681 121.624Z" fill="#3F3D56"/>
<path d="M194.335 121.624H192.865C192.767 121.624 192.687 121.704 192.687 121.802V122.54C192.687 122.638 192.767 122.718 192.865 122.718H194.335C194.434 122.718 194.514 122.638 194.514 122.54V121.802C194.514 121.704 194.434 121.624 194.335 121.624Z" fill="#3F3D56"/>
<path d="M197.989 121.624H196.519C196.42 121.624 196.34 121.704 196.34 121.802V122.54C196.34 122.638 196.42 122.718 196.519 122.718H197.989C198.087 122.718 198.167 122.638 198.167 122.54V121.802C198.167 121.704 198.087 121.624 197.989 121.624Z" fill="#3F3D56"/>
<path d="M201.643 121.624H200.173C200.074 121.624 199.994 121.704 199.994 121.802V122.54C199.994 122.638 200.074 122.718 200.173 122.718H201.643C201.741 122.718 201.821 122.638 201.821 122.54V121.802C201.821 121.704 201.741 121.624 201.643 121.624Z" fill="#3F3D56"/>
<path d="M205.296 121.624H203.826C203.728 121.624 203.648 121.704 203.648 121.802V122.54C203.648 122.638 203.728 122.718 203.826 122.718H205.296C205.395 122.718 205.475 122.638 205.475 122.54V121.802C205.475 121.704 205.395 121.624 205.296 121.624Z" fill="#3F3D56"/>
<path d="M208.95 121.624H207.48C207.381 121.624 207.302 121.704 207.302 121.802V122.54C207.302 122.638 207.381 122.718 207.48 122.718H208.95C209.049 122.718 209.128 122.638 209.128 122.54V121.802C209.128 121.704 209.049 121.624 208.95 121.624Z" fill="#3F3D56"/>
<path d="M212.604 121.624H211.134C211.035 121.624 210.955 121.704 210.955 121.802V122.54C210.955 122.638 211.035 122.718 211.134 122.718H212.604C212.702 122.718 212.782 122.638 212.782 122.54V121.802C212.782 121.704 212.702 121.624 212.604 121.624Z" fill="#3F3D56"/>
<path d="M216.258 121.624H214.787C214.689 121.624 214.609 121.704 214.609 121.802V122.54C214.609 122.638 214.689 122.718 214.787 122.718H216.258C216.356 122.718 216.436 122.638 216.436 122.54V121.802C216.436 121.704 216.356 121.624 216.258 121.624Z" fill="#3F3D56"/>
<path d="M161.409 123.447H159.938C159.84 123.447 159.76 123.526 159.76 123.625V124.362C159.76 124.461 159.84 124.54 159.938 124.54H161.409C161.507 124.54 161.587 124.461 161.587 124.362V123.625C161.587 123.526 161.507 123.447 161.409 123.447Z" fill="#3F3D56"/>
<path d="M165.062 123.447H163.592C163.494 123.447 163.414 123.526 163.414 123.625V124.362C163.414 124.461 163.494 124.54 163.592 124.54H165.062C165.161 124.54 165.241 124.461 165.241 124.362V123.625C165.241 123.526 165.161 123.447 165.062 123.447Z" fill="#3F3D56"/>
<path d="M168.716 123.447H167.246C167.147 123.447 167.067 123.526 167.067 123.625V124.362C167.067 124.461 167.147 124.54 167.246 124.54H168.716C168.814 124.54 168.894 124.461 168.894 124.362V123.625C168.894 123.526 168.814 123.447 168.716 123.447Z" fill="#3F3D56"/>
<path d="M172.37 123.447H170.9C170.801 123.447 170.721 123.526 170.721 123.625V124.362C170.721 124.461 170.801 124.54 170.9 124.54H172.37C172.468 124.54 172.548 124.461 172.548 124.362V123.625C172.548 123.526 172.468 123.447 172.37 123.447Z" fill="#3F3D56"/>
<path d="M176.023 123.447H174.553C174.455 123.447 174.375 123.526 174.375 123.625V124.362C174.375 124.461 174.455 124.54 174.553 124.54H176.023C176.122 124.54 176.202 124.461 176.202 124.362V123.625C176.202 123.526 176.122 123.447 176.023 123.447Z" fill="#3F3D56"/>
<path d="M179.677 123.447H178.207C178.108 123.447 178.029 123.526 178.029 123.625V124.362C178.029 124.461 178.108 124.54 178.207 124.54H179.677C179.776 124.54 179.855 124.461 179.855 124.362V123.625C179.855 123.526 179.776 123.447 179.677 123.447Z" fill="#3F3D56"/>
<path d="M183.331 123.447H181.861C181.762 123.447 181.682 123.526 181.682 123.625V124.362C181.682 124.461 181.762 124.54 181.861 124.54H183.331C183.429 124.54 183.509 124.461 183.509 124.362V123.625C183.509 123.526 183.429 123.447 183.331 123.447Z" fill="#3F3D56"/>
<path d="M186.985 123.447H185.514C185.416 123.447 185.336 123.526 185.336 123.625V124.362C185.336 124.461 185.416 124.54 185.514 124.54H186.985C187.083 124.54 187.163 124.461 187.163 124.362V123.625C187.163 123.526 187.083 123.447 186.985 123.447Z" fill="#3F3D56"/>
<path d="M190.638 123.447H189.168C189.07 123.447 188.99 123.526 188.99 123.625V124.362C188.99 124.461 189.07 124.54 189.168 124.54H190.638C190.737 124.54 190.817 124.461 190.817 124.362V123.625C190.817 123.526 190.737 123.447 190.638 123.447Z" fill="#3F3D56"/>
<path d="M194.292 123.447H192.822C192.723 123.447 192.644 123.526 192.644 123.625V124.362C192.644 124.461 192.723 124.54 192.822 124.54H194.292C194.391 124.54 194.47 124.461 194.47 124.362V123.625C194.47 123.526 194.391 123.447 194.292 123.447Z" fill="#3F3D56"/>
<path d="M197.946 123.447H196.476C196.377 123.447 196.297 123.526 196.297 123.625V124.362C196.297 124.461 196.377 124.54 196.476 124.54H197.946C198.044 124.54 198.124 124.461 198.124 124.362V123.625C198.124 123.526 198.044 123.447 197.946 123.447Z" fill="#3F3D56"/>
<path d="M201.599 123.447H200.129C200.031 123.447 199.951 123.526 199.951 123.625V124.362C199.951 124.461 200.031 124.54 200.129 124.54H201.599C201.698 124.54 201.778 124.461 201.778 124.362V123.625C201.778 123.526 201.698 123.447 201.599 123.447Z" fill="#3F3D56"/>
<path d="M205.253 123.447H203.783C203.685 123.447 203.605 123.526 203.605 123.625V124.362C203.605 124.461 203.685 124.54 203.783 124.54H205.253C205.352 124.54 205.432 124.461 205.432 124.362V123.625C205.432 123.526 205.352 123.447 205.253 123.447Z" fill="#3F3D56"/>
<path d="M208.907 123.447H207.437C207.338 123.447 207.258 123.526 207.258 123.625V124.362C207.258 124.461 207.338 124.54 207.437 124.54H208.907C209.005 124.54 209.085 124.461 209.085 124.362V123.625C209.085 123.526 209.005 123.447 208.907 123.447Z" fill="#3F3D56"/>
<path d="M212.561 123.447H211.091C210.992 123.447 210.912 123.526 210.912 123.625V124.362C210.912 124.461 210.992 124.54 211.091 124.54H212.561C212.659 124.54 212.739 124.461 212.739 124.362V123.625C212.739 123.526 212.659 123.447 212.561 123.447Z" fill="#3F3D56"/>
<path d="M216.214 123.447H214.744C214.646 123.447 214.566 123.526 214.566 123.625V124.362C214.566 124.461 214.646 124.54 214.744 124.54H216.214C216.313 124.54 216.393 124.461 216.393 124.362V123.625C216.393 123.526 216.313 123.447 216.214 123.447Z" fill="#3F3D56"/>
<path d="M191.734 125.634H177.476C177.378 125.634 177.298 125.714 177.298 125.812V126.55C177.298 126.648 177.378 126.728 177.476 126.728H191.734C191.833 126.728 191.913 126.648 191.913 126.55V125.812C191.913 125.714 191.833 125.634 191.734 125.634Z" fill="#3F3D56"/>
<path d="M230.331 210.576L227.514 206.06L226.951 208.64C226.852 209.092 226.754 209.552 226.662 210.007C225.862 209.326 225.011 208.695 224.178 208.09C221.62 206.238 219.064 204.384 216.509 202.527L217.309 207.157C217.802 210.007 218.317 212.916 219.538 215.523C219.673 215.818 219.819 216.11 219.976 216.394H231.865C231.961 216.13 232.027 215.856 232.063 215.577C232.066 215.559 232.067 215.541 232.066 215.523C232.253 213.755 231.274 212.089 230.331 210.576Z" fill="#F0F0F0"/>
<path d="M69.5668 210.576L66.7497 206.06L66.1871 208.64C66.0884 209.092 65.9898 209.552 65.8984 210.007C65.0982 209.326 64.2469 208.695 63.414 208.09C60.8563 206.238 58.2999 204.384 55.7447 202.527L56.5448 207.157C57.0381 210.007 57.5534 212.916 58.7736 215.523C58.9089 215.818 59.055 216.11 59.2122 216.394H71.1014C71.197 216.13 71.2632 215.856 71.2987 215.577C71.3017 215.559 71.3029 215.541 71.3023 215.523C71.4887 213.755 70.5095 212.089 69.5668 210.576Z" fill="#F0F0F0"/>
<path d="M295.565 216.888L194.813 217C194.698 217 194.588 216.954 194.507 216.872C194.425 216.791 194.38 216.681 194.38 216.566C194.38 216.451 194.425 216.341 194.507 216.259C194.588 216.178 194.698 216.132 194.813 216.132L295.565 216.02C295.68 216.02 295.79 216.066 295.872 216.147C295.953 216.229 295.999 216.339 295.999 216.454C295.999 216.569 295.953 216.679 295.872 216.76C295.79 216.842 295.68 216.888 295.565 216.888Z" fill="#CACACA"/>
<path d="M101.187 216.888L0.435067 217C0.319905 217 0.209576 216.954 0.128261 216.872C0.0469469 216.791 0.00128174 216.681 0.00128174 216.566C0.00128174 216.451 0.0469469 216.341 0.128261 216.259C0.209576 216.178 0.319905 216.132 0.435067 216.132L101.187 216.02C101.302 216.02 101.412 216.066 101.493 216.147C101.575 216.229 101.62 216.339 101.62 216.454C101.62 216.569 101.575 216.679 101.493 216.76C101.412 216.842 101.302 216.888 101.187 216.888Z" fill="#CACACA"/>
<path d="M65.1722 15.458C63.4294 15.9756 61.8035 14.5211 60.5905 13.1432L61.0216 13.6535C58.168 15.6585 56.4618 18.9247 55.3547 22.231C54.2476 25.5336 53.6301 28.993 52.3805 32.2483C51.131 35.4999 49.1141 38.6458 46.0267 40.268C41.8907 42.4406 36.823 41.4527 32.4239 39.8852C32.3654 39.8633 32.3106 39.8451 32.2521 39.8232C34.0339 36.5028 35.125 32.8575 35.4601 29.106C33.6504 32.631 31.0406 35.6854 27.8384 38.0261C24.964 36.7225 22.2001 35.1889 19.5737 33.4403C17.8747 32.3066 16.0844 30.8412 15.8871 28.8108C15.6861 26.7949 17.1951 24.954 18.9745 23.9844C20.7539 23.0147 22.8 22.6866 24.7437 22.1034C26.6839 21.5238 28.6642 20.5723 29.6836 18.8226C32.0329 14.7982 28.0796 9.12242 30.6007 5.20006C31.8429 3.27169 34.2544 2.49888 36.4905 1.96302C39.9035 1.14853 43.3678 0.565164 46.8598 0.216918C49.9252 -0.0892883 53.093 -0.202292 56.0087 0.781942C58.9244 1.76618 61.5697 4.05179 62.1945 7.06281C63.8971 7.95592 65.6984 8.9438 66.6118 10.6389C67.5252 12.3303 67.0174 14.9112 65.1722 15.458Z" fill="#2F2E41"/>
<path d="M62.5706 14.7799C60.9017 16.8657 59.9933 19.1214 59.9933 20.4722C56.5264 26.794 61.4841 32.2241 67.8206 35.6829C70.3479 37.0697 73.2661 37.5773 76.1147 37.1255L76.3798 35.9965L76.739 37.0135C76.739 37.0135 80.8645 50.608 82.2252 51.4055C81.7089 48.9861 81.1174 37.7842 80.8299 35.423C80.4319 32.2094 81.8192 27.4251 82.82 24.5156C83.4405 22.7225 83.759 20.8392 83.7624 18.9422V18.8593L84.7369 21.9821L88.2844 20.4722C87.6244 16.6953 88.2844 12.4076 80.3718 12.7795C76.0923 9.84307 72.3237 9.39577 69.2281 10.2286C68.8286 9.61237 66.5249 10.7666 65.8592 10.4421" fill="#2F2E41"/>
<path d="M238.955 30.1413V96.712C238.954 97.1768 238.768 97.6223 238.439 97.951C238.11 98.2796 237.663 98.4646 237.197 98.4654H202.041C198.152 94.8669 194.961 90.5838 192.629 85.8308C192.475 85.5246 192.329 85.2147 192.19 84.9012C190.066 80.3008 188.779 75.3596 188.391 70.309C188.365 69.9992 188.343 69.6893 188.328 69.3758C188.281 68.5738 188.259 67.7609 188.259 66.9444C188.252 61.5137 189.28 56.1313 191.288 51.0836C191.409 50.7701 191.536 50.4603 191.668 50.1504C195.709 40.6773 203.011 32.9575 212.257 28.3843H237.197C237.664 28.3853 238.11 28.5708 238.44 28.9002C238.769 29.2296 238.955 29.676 238.955 30.1413Z" fill="#415B48"/>
<path d="M232.185 37.5562H138.897C138.8 37.554 138.708 37.5141 138.64 37.4449C138.572 37.3758 138.534 37.2828 138.534 37.186C138.534 37.0893 138.572 36.9963 138.64 36.9272C138.708 36.858 138.8 36.818 138.897 36.8159H232.185C232.282 36.818 232.375 36.858 232.442 36.9272C232.51 36.9963 232.548 37.0893 232.548 37.186C232.548 37.2828 232.51 37.3758 232.442 37.4449C232.375 37.5141 232.282 37.554 232.185 37.5562Z" fill="#CACACA"/>
<path d="M145.247 34.9261C146.448 34.9261 147.422 33.9333 147.422 32.7087C147.422 31.484 146.448 30.4912 145.247 30.4912C144.047 30.4912 143.073 31.484 143.073 32.7087C143.073 33.9333 144.047 34.9261 145.247 34.9261Z" fill="#3F3D56"/>
<path d="M152.758 34.9261C153.959 34.9261 154.932 33.9333 154.932 32.7087C154.932 31.484 153.959 30.4912 152.758 30.4912C151.557 30.4912 150.584 31.484 150.584 32.7087C150.584 33.9333 151.557 34.9261 152.758 34.9261Z" fill="#3F3D56"/>
<path d="M160.269 34.9261C161.469 34.9261 162.443 33.9333 162.443 32.7087C162.443 31.484 161.469 30.4912 160.269 30.4912C159.068 30.4912 158.095 31.484 158.095 32.7087C158.095 33.9333 159.068 34.9261 160.269 34.9261Z" fill="#3F3D56"/>
<path d="M227.663 31.0409H222.328C222.222 31.043 222.122 31.0864 222.048 31.1617C221.974 31.2371 221.932 31.3384 221.932 31.4439C221.932 31.5495 221.974 31.6508 222.048 31.7262C222.122 31.8015 222.222 31.8449 222.328 31.847H227.663C227.769 31.8449 227.87 31.8015 227.944 31.7262C228.018 31.6508 228.059 31.5495 228.059 31.4439C228.059 31.3384 228.018 31.2371 227.944 31.1617C227.87 31.0864 227.769 31.043 227.663 31.0409Z" fill="#3F3D56"/>
<path d="M227.663 32.5537H222.328C222.222 32.5558 222.122 32.5992 222.048 32.6745C221.974 32.7499 221.932 32.8512 221.932 32.9567C221.932 33.0623 221.974 33.1636 222.048 33.239C222.122 33.3143 222.222 33.3577 222.328 33.3598H227.663C227.769 33.3577 227.87 33.3143 227.944 33.239C228.018 33.1636 228.059 33.0623 228.059 32.9567C228.059 32.8512 228.018 32.7499 227.944 32.6745C227.87 32.5992 227.769 32.5558 227.663 32.5537Z" fill="#3F3D56"/>
<path d="M227.663 34.0646H222.328C222.222 34.0667 222.122 34.11 222.048 34.1854C221.974 34.2607 221.932 34.3621 221.932 34.4676C221.932 34.5731 221.974 34.6745 222.048 34.7498C222.122 34.8252 222.222 34.8686 222.328 34.8706H227.663C227.769 34.8686 227.87 34.8252 227.944 34.7498C228.018 34.6745 228.059 34.5731 228.059 34.4676C228.059 34.3621 228.018 34.2607 227.944 34.1854C227.87 34.11 227.769 34.0667 227.663 34.0646Z" fill="#3F3D56"/>
<path d="M166.767 59.1794H155.11C154.234 59.1794 153.524 59.8876 153.524 60.7611V60.7611C153.524 61.6347 154.234 62.3428 155.11 62.3428H166.767C167.642 62.3428 168.352 61.6347 168.352 60.7611C168.352 59.8876 167.642 59.1794 166.767 59.1794Z" fill="#415B48"/>
<path d="M174.297 65.5062H147.579C146.704 65.5062 145.994 66.2144 145.994 67.0879C145.994 67.9615 146.704 68.6696 147.579 68.6696H174.297C175.172 68.6696 175.882 67.9615 175.882 67.0879C175.882 66.2144 175.172 65.5062 174.297 65.5062Z" fill="#E6E6E6"/>
<path d="M174.297 71.833H147.579C146.704 71.833 145.994 72.5412 145.994 73.4147V73.4147C145.994 74.2883 146.704 74.9964 147.579 74.9964H174.297C175.172 74.9964 175.882 74.2883 175.882 73.4147C175.882 72.5412 175.172 71.833 174.297 71.833Z" fill="#E6E6E6"/>
<path d="M148.433 94.6487C148.436 95.9517 148.203 97.2445 147.747 98.4653H137.498C137.032 98.4645 136.585 98.2796 136.256 97.9509C135.927 97.6223 135.741 97.1767 135.74 96.7119V83.8513C136.313 83.7589 136.892 83.7126 137.472 83.7128C138.912 83.7127 140.337 83.9955 141.667 84.545C142.997 85.0946 144.205 85.9001 145.223 86.9156C146.241 87.9311 147.048 89.1367 147.599 90.4636C148.15 91.7904 148.433 93.2126 148.433 94.6487Z" fill="#415B48"/>
<path opacity="0.2" d="M239.046 51.0836V50.1504H223.368V39.3347H222.436V50.1504H204.467V39.3347H203.535V50.1504H191.668C191.536 50.4602 191.409 50.7701 191.288 51.0836H203.535V69.3757H188.328C188.343 69.6892 188.365 69.9991 188.391 70.3089H203.535V84.9011H192.19C192.329 85.2146 192.475 85.5245 192.629 85.8307H203.535V98.0972H204.467V85.8307H222.436V98.0972H223.368V85.8307H239.046V84.9011H223.368V70.3089H239.046V69.3757H223.368V51.0836H239.046ZM222.436 84.9011H204.467V70.3089H222.436V84.9011ZM222.436 69.3757H204.467V51.0836H222.436V69.3757Z" fill="black"/>
<path d="M226.423 91.5589C226.223 91.568 226.025 91.5156 225.855 91.4088C225.686 91.302 225.554 91.1458 225.477 90.9616C225.4 90.7773 225.381 90.5738 225.424 90.3786C225.466 90.1834 225.568 90.006 225.715 89.8704L225.782 89.6051C225.773 89.5838 225.764 89.5626 225.755 89.5414C225.554 89.0666 225.216 88.6618 224.785 88.3778C224.354 88.0939 223.848 87.9434 223.331 87.9453C222.814 87.9472 222.31 88.1014 221.88 88.3886C221.451 88.6758 221.117 89.083 220.919 89.5593C220.128 91.4601 219.121 93.3642 218.873 95.374C218.763 96.2624 218.809 97.1629 219.009 98.0356C217.151 93.992 216.186 89.5972 216.18 85.149C216.179 84.0328 216.242 82.9174 216.366 81.8081C216.469 80.8987 216.611 79.9958 216.794 79.0993C217.79 74.2353 219.928 69.6764 223.033 65.7969C224.535 64.9789 225.75 63.7209 226.515 62.1926C226.791 61.6432 226.987 61.0568 227.095 60.4515C226.926 60.4737 226.754 60.4875 226.584 60.4986C226.531 60.5014 226.476 60.5041 226.423 60.5069L226.403 60.5078C226.217 60.5162 226.032 60.4706 225.871 60.3766C225.71 60.2826 225.58 60.1442 225.496 59.9781C225.412 59.812 225.378 59.6252 225.398 59.4402C225.418 59.2552 225.491 59.0799 225.608 58.9354C225.682 58.8456 225.755 58.7557 225.828 58.666C225.939 58.5273 226.053 58.3915 226.164 58.2529C226.177 58.2397 226.189 58.2258 226.201 58.2113C226.328 58.0532 226.456 57.898 226.584 57.7399C226.351 57.3786 226.037 57.0759 225.667 56.8555C224.386 56.1069 222.619 56.6254 221.693 57.7815C220.765 58.9377 220.59 60.5596 220.912 62.0041C221.229 63.2332 221.754 64.3995 222.463 65.4531C222.393 65.5418 222.321 65.6277 222.252 65.7164C220.982 67.3457 219.875 69.0952 218.947 70.9399C219.173 68.8733 218.903 66.7828 218.161 64.8404C217.409 63.03 215.999 61.5054 214.758 59.9404C213.266 58.0606 210.209 58.881 209.946 61.2639C209.943 61.287 209.941 61.31 209.938 61.3331C210.123 61.4369 210.303 61.5471 210.48 61.6636C210.702 61.8115 210.874 62.0228 210.973 62.2699C211.073 62.5169 211.095 62.7882 211.037 63.0481C210.979 63.308 210.844 63.5445 210.65 63.7265C210.455 63.9085 210.21 64.0276 209.946 64.0682L209.919 64.0724C209.985 64.7354 210.101 65.3926 210.266 66.0381C210.746 67.8401 211.594 69.5239 212.756 70.9838C213.919 72.4437 215.371 73.6482 217.022 74.5219C217.13 74.5774 217.236 74.6328 217.344 74.6855C216.412 77.3214 215.827 80.067 215.605 82.8533C215.479 84.4972 215.486 86.1485 215.627 87.7912L215.618 87.7329C215.263 85.9063 214.286 84.2582 212.853 83.0668C210.726 81.3229 207.719 80.6807 205.424 79.2789C205.18 79.1227 204.896 79.0393 204.606 79.0385C204.316 79.0378 204.032 79.1199 203.788 79.275C203.543 79.43 203.348 79.6517 203.225 79.9138C203.102 80.1759 203.058 80.4676 203.096 80.7543C203.099 80.7747 203.102 80.7951 203.105 80.8155C203.447 80.9546 203.78 81.1148 204.103 81.2952C204.287 81.399 204.468 81.5091 204.644 81.6257C204.866 81.7736 205.038 81.9849 205.137 82.2319C205.237 82.479 205.259 82.7502 205.201 83.0101C205.144 83.2701 205.009 83.5065 204.814 83.6886C204.619 83.8706 204.374 83.9897 204.11 84.0303L204.083 84.0344C204.064 84.0372 204.047 84.04 204.028 84.0427C204.612 85.4356 205.433 86.7176 206.454 87.8327C207.714 89.1825 209.238 90.2612 210.932 91.0025C212.625 91.7439 214.453 92.1323 216.302 92.144H216.305C216.807 94.3204 217.534 96.4389 218.475 98.4653H226.228C226.256 98.3794 226.281 98.2906 226.306 98.2047C225.588 98.2497 224.868 98.2069 224.161 98.0772C224.736 97.3729 225.311 96.6631 225.886 95.9589C225.899 95.9458 225.911 95.9319 225.923 95.9174C226.214 95.5569 226.509 95.1993 226.801 94.8389L226.801 94.8384C226.816 93.7336 226.689 92.6314 226.423 91.559L226.423 91.5589ZM217.544 74.1338L217.548 74.1283L217.544 74.1393V74.1338ZM215.827 89.5794L215.76 89.4297C215.763 89.3216 215.763 89.2135 215.76 89.1026C215.76 89.0721 215.755 89.0416 215.755 89.0111C215.78 89.2024 215.802 89.3937 215.83 89.585L215.827 89.5794Z" fill="#2F2E41"/>
</g>
<defs>
<clipPath id="clip0_59_607">
<rect width="296" height="217" fill="white"/>
</clipPath>
</defs>
</svg>
