<svg width="288" height="217" viewBox="0 0 288 217" fill="none" xmlns="http://www.w3.org/2000/svg">
<g clip-path="url(#clip0_59_683)">
<path d="M165.966 10.5614C168.436 15.8087 163.202 17.295 157.205 20.1075C151.209 22.92 146.722 25.9937 144.251 20.7464C141.781 15.4991 139.777 5.08412 148.26 1.10537C157.035 -3.01046 163.496 5.31414 165.966 10.5614Z" fill="#2F2E41"/>
<path d="M153.732 20.8808C158.19 20.8808 161.804 17.2734 161.804 12.8234C161.804 8.37341 158.19 4.76599 153.732 4.76599C149.274 4.76599 145.66 8.37341 145.66 12.8234C145.66 17.2734 149.274 20.8808 153.732 20.8808Z" fill="#FFB8B8"/>
<path d="M193.724 48.5563C193.444 48.1921 193.165 47.8346 192.882 47.4868C192.518 47.0341 192.151 46.5956 191.781 46.1713C187.598 41.3522 183.147 38.3177 178.247 37.9929H178.241L178.168 37.9863L168.403 47.4868L165.084 50.7149L165.156 50.892L166.947 55.3438H198.332C196.918 53.0012 195.379 50.7355 193.724 48.5563V48.5563Z" fill="#2F2E41"/>
<path d="M144.954 16.0673L147.843 14.712L147.441 10.5511L149.373 13.9945L150.754 13.3467L150.52 10.9195L151.647 12.9281L161.909 8.11471C160.945 6.06734 159.206 4.486 157.074 3.71858C154.942 2.95116 152.592 3.06052 150.541 4.02259L149.054 4.72019C147.002 5.68227 145.418 7.41825 144.649 9.54625C143.88 11.6743 143.99 14.02 144.954 16.0673V16.0673Z" fill="#2F2E41"/>
<path d="M211.833 162.322H43.2811C41.8434 162.32 40.4649 161.75 39.4483 160.735C38.4316 159.72 37.8598 158.344 37.8581 156.909V55.8175C37.8593 54.7661 38.2783 53.7581 39.0231 53.0147C39.7678 52.2712 40.7777 51.853 41.831 51.8518H213.215C214.286 51.853 215.313 52.2784 216.071 53.0348C216.829 53.7911 217.255 54.8165 217.256 55.886V156.909C217.255 158.344 216.683 159.72 215.666 160.735C214.649 161.75 213.271 162.32 211.833 162.322Z" fill="#F2F2F2"/>
<path d="M48.5398 156.909H206.575C207.969 156.909 209.307 156.356 210.293 155.372C211.279 154.387 211.833 153.052 211.833 151.66V65.858C211.833 64.4659 211.279 63.1309 210.293 62.1465C209.307 61.1621 207.969 60.6091 206.575 60.6091H48.5398C47.1451 60.6091 45.8075 61.1621 44.8213 62.1465C43.8352 63.1309 43.2811 64.4659 43.2811 65.858V151.66C43.2811 153.052 43.8352 154.387 44.8213 155.372C45.8075 156.356 47.1451 156.909 48.5398 156.909Z" fill="white"/>
<path d="M217.181 55.5079H37.782V52.7521C37.7841 51.3123 38.3583 49.932 39.3787 48.9142C40.399 47.8963 41.7822 47.3241 43.2248 47.3229H211.738C213.181 47.3241 214.564 47.8963 215.584 48.9142C216.604 49.932 217.179 51.3123 217.181 52.7521V55.5079Z" fill="#415B48"/>
<path d="M47.6733 52.8287C48.4508 52.8287 49.0811 52.1996 49.0811 51.4235C49.0811 50.6474 48.4508 50.0183 47.6733 50.0183C46.8958 50.0183 46.2655 50.6474 46.2655 51.4235C46.2655 52.1996 46.8958 52.8287 47.6733 52.8287Z" fill="white"/>
<path d="M53.017 52.8287C53.7945 52.8287 54.4248 52.1996 54.4248 51.4235C54.4248 50.6474 53.7945 50.0183 53.017 50.0183C52.2395 50.0183 51.6092 50.6474 51.6092 51.4235C51.6092 52.1996 52.2395 52.8287 53.017 52.8287Z" fill="white"/>
<path d="M58.3607 52.8287C59.1382 52.8287 59.7686 52.1996 59.7686 51.4235C59.7686 50.6474 59.1382 50.0183 58.3607 50.0183C57.5832 50.0183 56.9529 50.6474 56.9529 51.4235C56.9529 52.1996 57.5832 52.8287 58.3607 52.8287Z" fill="white"/>
<path d="M132.488 138.301H118.356C117.528 138.301 116.734 137.972 116.149 137.388C115.564 136.803 115.234 136.011 115.233 135.185V121.079C115.234 120.252 115.564 119.46 116.149 118.876C116.734 118.292 117.528 117.963 118.356 117.962H132.488C133.316 117.963 134.11 118.292 134.695 118.876C135.28 119.46 135.61 120.252 135.611 121.079V135.185C135.61 136.011 135.28 136.803 134.695 137.388C134.11 137.972 133.316 138.301 132.488 138.301V138.301ZM118.356 118.618C117.702 118.619 117.076 118.878 116.613 119.34C116.151 119.801 115.891 120.426 115.891 121.079V135.185C115.891 135.837 116.151 136.463 116.613 136.924C117.076 137.385 117.702 137.645 118.356 137.645H132.488C133.142 137.645 133.768 137.385 134.231 136.924C134.693 136.463 134.953 135.837 134.953 135.185V121.079C134.953 120.426 134.693 119.801 134.231 119.34C133.768 118.878 133.142 118.619 132.488 118.618H118.356Z" fill="#CCCCCC"/>
<path d="M129.695 134.365H121.149C120.888 134.365 120.637 134.261 120.452 134.076C120.268 133.892 120.164 133.642 120.163 133.381V122.883C120.164 122.622 120.268 122.372 120.452 122.187C120.637 122.003 120.888 121.899 121.149 121.899H127.341C127.566 121.899 127.784 121.975 127.959 122.116L130.312 124.003C130.427 124.095 130.52 124.212 130.584 124.345C130.648 124.478 130.681 124.623 130.681 124.77V133.381C130.68 133.642 130.576 133.892 130.392 134.076C130.207 134.261 129.956 134.365 129.695 134.365V134.365ZM121.149 122.555C121.062 122.555 120.979 122.59 120.917 122.651C120.855 122.713 120.821 122.796 120.821 122.883V133.381C120.821 133.468 120.855 133.551 120.917 133.612C120.979 133.674 121.062 133.709 121.149 133.709H129.695C129.782 133.709 129.865 133.674 129.927 133.612C129.989 133.551 130.023 133.468 130.023 133.381V124.77C130.023 124.721 130.012 124.673 129.991 124.629C129.97 124.584 129.939 124.545 129.901 124.515L127.547 122.627C127.489 122.58 127.416 122.555 127.341 122.555H121.149Z" fill="#CCCCCC"/>
<path d="M128.051 126.491H122.793C122.706 126.491 122.622 126.457 122.56 126.395C122.499 126.334 122.464 126.25 122.464 126.163C122.464 126.076 122.499 125.993 122.56 125.931C122.622 125.87 122.706 125.835 122.793 125.835H128.051C128.139 125.835 128.222 125.87 128.284 125.931C128.345 125.993 128.38 126.076 128.38 126.163C128.38 126.25 128.345 126.334 128.284 126.395C128.222 126.457 128.139 126.491 128.051 126.491Z" fill="#CCCCCC"/>
<path d="M128.051 128.46H122.793C122.706 128.46 122.622 128.425 122.56 128.364C122.499 128.302 122.464 128.219 122.464 128.132C122.464 128.045 122.499 127.961 122.56 127.9C122.622 127.838 122.706 127.804 122.793 127.804H128.051C128.139 127.804 128.222 127.838 128.284 127.9C128.345 127.961 128.38 128.045 128.38 128.132C128.38 128.219 128.345 128.302 128.284 128.364C128.222 128.425 128.139 128.46 128.051 128.46Z" fill="#CCCCCC"/>
<path d="M128.051 130.428H122.793C122.706 130.428 122.622 130.394 122.56 130.332C122.499 130.27 122.464 130.187 122.464 130.1C122.464 130.013 122.499 129.93 122.56 129.868C122.622 129.807 122.706 129.772 122.793 129.772H128.051C128.139 129.772 128.222 129.807 128.284 129.868C128.345 129.93 128.38 130.013 128.38 130.1C128.38 130.187 128.345 130.27 128.284 130.332C128.222 130.394 128.139 130.428 128.051 130.428Z" fill="#CCCCCC"/>
<path d="M166.012 138.301H151.88C151.052 138.301 150.258 137.972 149.673 137.388C149.087 136.803 148.758 136.011 148.757 135.185V121.079C148.758 120.252 149.087 119.46 149.673 118.876C150.258 118.292 151.052 117.963 151.88 117.962H166.012C166.84 117.963 167.634 118.292 168.219 118.876C168.804 119.46 169.134 120.252 169.134 121.079V135.185C169.134 136.011 168.804 136.803 168.219 137.388C167.634 137.972 166.84 138.301 166.012 138.301V138.301ZM151.88 118.618C151.226 118.619 150.599 118.878 150.137 119.34C149.675 119.801 149.415 120.426 149.415 121.079V135.185C149.415 135.837 149.675 136.463 150.137 136.924C150.599 137.385 151.226 137.645 151.88 137.645H166.012C166.666 137.645 167.292 137.385 167.754 136.924C168.216 136.463 168.476 135.837 168.477 135.185V121.079C168.476 120.426 168.216 119.801 167.754 119.34C167.292 118.878 166.666 118.619 166.012 118.618H151.88Z" fill="#CCCCCC"/>
<path d="M163.547 131.74H154.345C154.083 131.74 153.833 131.636 153.648 131.452C153.463 131.267 153.359 131.017 153.359 130.756V125.507C153.359 125.246 153.463 124.996 153.648 124.812C153.833 124.627 154.083 124.523 154.345 124.523H163.547C163.809 124.523 164.059 124.627 164.244 124.812C164.429 124.996 164.533 125.246 164.533 125.507V130.756C164.533 131.017 164.429 131.267 164.244 131.452C164.059 131.636 163.809 131.74 163.547 131.74V131.74ZM154.345 125.179C154.257 125.179 154.174 125.214 154.112 125.275C154.051 125.337 154.016 125.42 154.016 125.507V130.756C154.016 130.843 154.051 130.927 154.112 130.988C154.174 131.05 154.257 131.084 154.345 131.084H163.547C163.634 131.084 163.718 131.05 163.779 130.988C163.841 130.927 163.876 130.843 163.876 130.756V125.507C163.876 125.42 163.841 125.337 163.779 125.275C163.718 125.214 163.634 125.179 163.547 125.179H154.345Z" fill="#CCCCCC"/>
<path d="M158.946 128.997C158.761 128.997 158.58 128.946 158.423 128.849L153.513 125.785C153.439 125.739 153.387 125.666 153.367 125.581C153.348 125.496 153.363 125.407 153.409 125.334C153.455 125.26 153.529 125.208 153.614 125.188C153.698 125.168 153.788 125.183 153.861 125.229L158.772 128.292C158.824 128.325 158.884 128.342 158.946 128.342C159.008 128.342 159.068 128.325 159.12 128.292L164.03 125.229C164.104 125.183 164.193 125.168 164.278 125.188C164.363 125.208 164.437 125.26 164.483 125.334C164.529 125.407 164.544 125.496 164.524 125.581C164.505 125.666 164.453 125.739 164.379 125.785L159.469 128.849C159.312 128.946 159.131 128.997 158.946 128.997V128.997Z" fill="#CCCCCC"/>
<path d="M98.9645 138.301H84.8319C84.0041 138.301 83.2104 137.972 82.6251 137.388C82.0397 136.803 81.7105 136.011 81.7095 135.185V121.079C81.7105 120.252 82.0397 119.46 82.6251 118.876C83.2104 118.292 84.0041 117.963 84.8319 117.962H98.9645C99.7923 117.963 100.586 118.292 101.171 118.876C101.757 119.46 102.086 120.252 102.087 121.079V135.185C102.086 136.011 101.757 136.803 101.171 137.388C100.586 137.972 99.7923 138.301 98.9645 138.301V138.301ZM84.8319 118.618C84.1783 118.619 83.5518 118.878 83.0897 119.34C82.6275 119.801 82.3676 120.426 82.3669 121.079V135.185C82.3676 135.837 82.6275 136.463 83.0897 136.924C83.5518 137.385 84.1783 137.645 84.8319 137.645H98.9645C99.618 137.645 100.245 137.385 100.707 136.924C101.169 136.463 101.429 135.837 101.429 135.185V121.079C101.429 120.426 101.169 119.801 100.707 119.34C100.245 118.878 99.618 118.619 98.9645 118.618H84.8319Z" fill="#CCCCCC"/>
<path d="M96.4995 131.74H87.2968C87.0354 131.74 86.7848 131.636 86.5999 131.452C86.4151 131.267 86.3111 131.017 86.3108 130.756V125.507C86.3111 125.246 86.4151 124.996 86.5999 124.812C86.7848 124.627 87.0354 124.523 87.2968 124.523H96.4995C96.7609 124.523 97.0115 124.627 97.1963 124.812C97.3812 124.996 97.4852 125.246 97.4855 125.507V130.756C97.4852 131.017 97.3812 131.267 97.1963 131.452C97.0115 131.636 96.7609 131.74 96.4995 131.74V131.74ZM87.2968 125.179C87.2097 125.179 87.1262 125.214 87.0645 125.275C87.0029 125.337 86.9683 125.42 86.9682 125.507V130.756C86.9683 130.843 87.0029 130.927 87.0645 130.988C87.1262 131.05 87.2097 131.084 87.2968 131.084H96.4995C96.5866 131.084 96.6701 131.05 96.7318 130.988C96.7934 130.927 96.828 130.843 96.8281 130.756V125.507C96.828 125.42 96.7934 125.337 96.7318 125.275C96.6701 125.214 96.5866 125.179 96.4995 125.179H87.2968Z" fill="#CCCCCC"/>
<path d="M95.0408 131.74H88.4268C88.3114 131.74 88.198 131.71 88.0981 131.652C87.9981 131.595 87.9151 131.512 87.8574 131.412C87.7997 131.313 87.7694 131.199 87.7694 131.084C87.7694 130.969 87.7998 130.856 87.8576 130.756L89.8498 127.312C89.9075 127.212 89.9905 127.129 90.0904 127.071C90.1903 127.014 90.3037 126.984 90.4191 126.984C90.5345 126.984 90.6478 127.014 90.7478 127.071C90.8477 127.129 90.9307 127.212 90.9884 127.312L92.2751 129.536L93.0206 128.247C93.0783 128.148 93.1612 128.065 93.2612 128.007C93.3611 127.95 93.4745 127.919 93.5899 127.919C93.7052 127.919 93.8186 127.95 93.9185 128.007C94.0185 128.065 94.1015 128.148 94.1592 128.247L95.6102 130.756C95.6679 130.856 95.6983 130.969 95.6983 131.084C95.6983 131.199 95.6679 131.313 95.6102 131.412C95.5525 131.512 95.4695 131.595 95.3695 131.652C95.2696 131.71 95.1562 131.74 95.0408 131.74H95.0408ZM95.0408 131.084L93.5898 128.575L92.5598 130.356C92.531 130.406 92.4895 130.448 92.4395 130.476C92.3895 130.505 92.3328 130.52 92.2751 130.52V130.52C92.2174 130.52 92.1607 130.505 92.1108 130.476C92.0608 130.448 92.0193 130.406 91.9904 130.356L90.4192 127.64L88.4268 131.084H95.0408Z" fill="#CCCCCC"/>
<path d="M95.5134 127.148C95.8765 127.148 96.1708 126.854 96.1708 126.491C96.1708 126.129 95.8765 125.835 95.5134 125.835C95.1504 125.835 94.8561 126.129 94.8561 126.491C94.8561 126.854 95.1504 127.148 95.5134 127.148Z" fill="#CCCCCC"/>
<path d="M252.686 212.629L248.657 212.629L246.74 197.116L252.687 197.116L252.686 212.629Z" fill="#FFB8B8"/>
<path d="M253.714 216.528L240.721 216.527V216.363C240.721 215.701 240.852 215.044 241.106 214.432C241.36 213.819 241.733 213.263 242.202 212.794C242.672 212.326 243.229 211.954 243.843 211.7C244.457 211.446 245.114 211.316 245.778 211.316H245.779L253.714 211.316L253.714 216.528Z" fill="#2F2E41"/>
<path d="M269.119 212.629L265.09 212.629L263.173 197.116L269.12 197.116L269.119 212.629Z" fill="#FFB8B8"/>
<path d="M270.147 216.528L257.155 216.527V216.363C257.155 215.701 257.285 215.044 257.539 214.432C257.794 213.819 258.166 213.263 258.636 212.794C259.105 212.326 259.663 211.954 260.276 211.7C260.89 211.446 261.547 211.316 262.212 211.316H262.212L270.147 211.316L270.147 216.528Z" fill="#2F2E41"/>
<path d="M267.911 205.904L264.18 204.771C263.901 204.687 263.654 204.523 263.469 204.299C263.284 204.075 263.169 203.802 263.139 203.514L259.66 170.601C259.657 170.561 259.639 170.524 259.61 170.497C259.581 170.47 259.543 170.454 259.503 170.454C259.463 170.451 259.423 170.462 259.391 170.488C259.36 170.513 259.34 170.549 259.335 170.589L253.507 202.475C253.472 202.669 253.398 202.853 253.29 203.018C253.182 203.183 253.043 203.324 252.879 203.434C252.716 203.544 252.532 203.62 252.339 203.659C252.146 203.697 251.947 203.696 251.754 203.656L246.984 202.676C246.635 202.603 246.323 202.406 246.107 202.122C245.891 201.838 245.784 201.486 245.807 201.13L249.352 148.866L273.39 146.278L269.818 204.582C269.795 204.957 269.63 205.309 269.356 205.566C269.082 205.824 268.72 205.968 268.344 205.969C268.198 205.969 268.052 205.947 267.911 205.904V205.904Z" fill="#2F2E41"/>
<path d="M267.889 103.353C272.347 103.353 275.961 99.7459 275.961 95.2959C275.961 90.8459 272.347 87.2385 267.889 87.2385C263.43 87.2385 259.816 90.8459 259.816 95.2959C259.816 99.7459 263.43 103.353 267.889 103.353Z" fill="#FFB8B8"/>
<path d="M249.315 149.173L254.527 116.417C254.804 114.675 255.45 113.012 256.421 111.539C257.392 110.066 258.666 108.816 260.159 107.873C261.651 106.929 263.328 106.314 265.078 106.067C266.827 105.821 268.609 105.949 270.305 106.444V106.444C273.27 107.3 275.809 109.229 277.425 111.853C279.042 114.477 279.62 117.609 279.048 120.636L273.595 149.89L249.315 149.173Z" fill="#415B48"/>
<path d="M270.117 155.034C270.52 154.769 270.86 154.418 271.113 154.007C271.366 153.596 271.525 153.134 271.58 152.655C271.634 152.176 271.583 151.691 271.43 151.234C271.276 150.776 271.024 150.358 270.691 150.009L276.08 139.592L270.011 140.239L265.824 150.031C265.273 150.628 264.961 151.407 264.946 152.218C264.931 153.03 265.215 153.819 265.744 154.436C266.273 155.053 267.011 155.454 267.817 155.565C268.623 155.675 269.441 155.486 270.117 155.034V155.034Z" fill="#FFB8B8"/>
<path d="M271.271 148.171C270.973 148.129 270.695 147.998 270.473 147.794L268.412 145.892C268.189 145.686 268.035 145.416 267.971 145.12C267.907 144.823 267.935 144.514 268.053 144.234L272.173 134.485L271.589 115.222C271.673 114.602 271.878 114.006 272.194 113.466C272.509 112.926 272.927 112.453 273.426 112.075C273.924 111.697 274.492 111.42 275.098 111.261C275.703 111.102 276.334 111.063 276.954 111.148C277.575 111.232 278.172 111.438 278.713 111.753C279.253 112.068 279.726 112.487 280.105 112.984C280.484 113.482 280.76 114.049 280.919 114.654C281.078 115.258 281.116 115.888 281.03 116.507L282.03 128.616C282.334 132.292 281.29 135.952 279.092 138.916L272.666 147.588C272.543 147.754 272.385 147.893 272.204 147.995C272.023 148.097 271.823 148.16 271.616 148.179C271.501 148.19 271.385 148.188 271.271 148.171V148.171Z" fill="#415B48"/>
<path d="M221.402 90.906C221.49 91.3802 221.681 91.8294 221.962 92.2219C222.243 92.6145 222.606 92.9408 223.027 93.178C223.448 93.4151 223.915 93.5573 224.397 93.5945C224.879 93.6317 225.363 93.563 225.815 93.3933L233.324 102.408L235.094 96.5775L227.692 88.9111C227.356 88.1717 226.76 87.5809 226.017 87.2508C225.273 86.9207 224.435 86.8742 223.659 87.1201C222.884 87.366 222.226 87.8872 221.81 88.585C221.394 89.2827 221.249 90.1086 221.402 90.906V90.906Z" fill="#FFB8B8"/>
<path d="M227.284 94.6425C227.439 94.3849 227.669 94.1805 227.943 94.0567L230.502 92.903C230.779 92.7787 231.088 92.7425 231.386 92.7991C231.685 92.8557 231.959 93.0025 232.171 93.2196L239.559 100.808L257.559 107.782C258.097 108.1 258.568 108.522 258.943 109.022C259.319 109.522 259.592 110.091 259.746 110.697C259.901 111.302 259.935 111.933 259.846 112.551C259.756 113.17 259.546 113.765 259.226 114.302C258.906 114.839 258.483 115.308 257.982 115.683C257.48 116.057 256.91 116.328 256.303 116.482C255.696 116.636 255.065 116.669 254.445 116.579C253.825 116.489 253.229 116.278 252.692 115.959L241.13 112.156C237.621 111.002 234.651 108.616 232.773 105.44L227.279 96.1527C227.173 95.974 227.106 95.7753 227.083 95.5692C227.059 95.3632 227.08 95.1545 227.142 94.9567C227.177 94.8468 227.225 94.7413 227.284 94.6425V94.6425Z" fill="#415B48"/>
<path opacity="0.1" d="M274.436 123.235L274.107 133.733L268.053 144.234L273.108 132.531L274.436 123.235Z" fill="black"/>
<path d="M266.964 96.8101C266.457 96.8759 265.943 96.7558 265.518 96.4721C265.093 96.1883 264.786 95.7603 264.653 95.2675C264.525 94.7003 264.245 94.1785 263.842 93.7582C263.44 93.3378 262.93 93.0347 262.368 92.8814C260.888 92.5436 259.078 93.2394 257.993 92.1195C257.761 91.8639 257.592 91.5568 257.502 91.2235C257.412 90.8903 257.403 90.5405 257.475 90.2029C257.675 89.1147 258.455 88.2926 259.303 87.635C261.09 86.2578 263.251 85.4515 265.504 85.322C266.67 85.2883 267.838 85.3463 268.995 85.4954C270.206 85.5717 271.405 85.7903 272.565 86.1467C273.887 86.6446 275.062 87.4672 275.981 88.5383C276.901 89.6094 277.535 90.8945 277.825 92.2749C278.09 93.6594 278.049 95.0851 277.705 96.4524C277.361 97.8196 276.723 99.0955 275.834 100.191C274.77 101.514 273.398 102.556 271.837 103.228C271.465 103.403 271.039 103.425 270.652 103.288C269.68 102.903 269.839 101.701 270.282 100.899C270.756 100.041 271.486 99.2109 271.104 98.167C270.913 97.6829 270.546 97.2886 270.077 97.0627C269.11 96.5709 268.03 96.6872 266.991 96.807L266.964 96.8101Z" fill="#2F2E41"/>
<path d="M218.705 101.36H118.791C117.353 101.359 115.974 100.788 114.958 99.7731C113.941 98.7583 113.369 97.3825 113.368 95.9474V74.6237C113.369 73.1886 113.941 71.8128 114.958 70.798C115.974 69.7832 117.353 69.2124 118.791 69.2108H218.705C220.142 69.2125 221.521 69.7833 222.538 70.798C223.554 71.8128 224.126 73.1886 224.128 74.6237V95.9474C224.126 97.3825 223.554 98.7583 222.538 99.7731C221.521 100.788 220.142 101.359 218.705 101.36V101.36Z" fill="white"/>
<path d="M218.705 101.524H118.79C117.309 101.523 115.889 100.935 114.842 99.8891C113.794 98.8436 113.205 97.426 113.203 95.9475V74.6238C113.205 73.1452 113.794 71.7277 114.842 70.6822C115.889 69.6366 117.309 69.0485 118.79 69.0469H218.705C220.186 69.0485 221.606 69.6366 222.654 70.6822C223.701 71.7277 224.29 73.1452 224.292 74.6238V95.9475C224.29 97.426 223.701 98.8436 222.654 99.8891C221.606 100.935 220.186 101.523 218.705 101.524ZM118.79 69.703C117.483 69.7045 116.23 70.2234 115.306 71.1459C114.382 72.0684 113.862 73.3192 113.861 74.6238V95.9475C113.862 97.2521 114.382 98.5029 115.306 99.4254C116.23 100.348 117.483 100.867 118.79 100.868H218.705C220.012 100.867 221.265 100.348 222.189 99.4254C223.113 98.5029 223.633 97.2521 223.635 95.9475V74.6238C223.633 73.3192 223.113 72.0684 222.189 71.1459C221.265 70.2234 220.012 69.7045 218.705 69.703H118.79Z" fill="#3F3D56"/>
<path d="M206.544 96.1115H130.951C129.513 96.1098 128.135 95.539 127.118 94.5243C126.102 93.5095 125.53 92.1336 125.528 90.6985V79.5446C125.53 78.1095 126.102 76.7337 127.118 75.7189C128.135 74.7041 129.513 74.1333 130.951 74.1317H206.544C207.982 74.1333 209.36 74.7041 210.377 75.7189C211.394 76.7337 211.965 78.1095 211.967 79.5446V90.6985C211.965 92.1336 211.394 93.5095 210.377 94.5243C209.36 95.539 207.982 96.1098 206.544 96.1115V96.1115Z" fill="#F2F2F2"/>
<path d="M147.218 90.0995C150.8 90.0995 153.704 87.2013 153.704 83.6262C153.704 80.0511 150.8 77.153 147.218 77.153C143.637 77.153 140.733 80.0511 140.733 83.6262C140.733 87.2013 143.637 90.0995 147.218 90.0995Z" fill="#FF6584"/>
<path d="M201.846 95.4582L192.692 87.7949L183.696 80.2639C183.459 80.0652 183.159 79.9565 182.849 79.9571C182.539 79.9577 182.239 80.0676 182.003 80.2672L173.036 87.8327L170.845 89.6808L167.543 86.9161L157.506 78.5143C157.269 78.3156 156.969 78.2069 156.659 78.2075C156.349 78.2081 156.05 78.3179 155.813 78.5176L145.809 86.9579L135.648 95.5311C135.596 95.5746 135.559 95.6327 135.542 95.6978C135.525 95.7628 135.528 95.8316 135.551 95.8948C135.575 95.9579 135.617 96.0124 135.672 96.0509C135.727 96.0893 135.793 96.1099 135.86 96.1097L156.694 96.0697L163.288 96.057L163.223 96.1115L182.88 96.0736L201.636 96.0376C201.703 96.0375 201.769 96.0167 201.824 95.978C201.879 95.9393 201.921 95.8847 201.944 95.8214C201.967 95.7582 201.97 95.6894 201.953 95.6244C201.935 95.5594 201.898 95.5014 201.846 95.4582Z" fill="#3F3D56"/>
<path d="M287.671 217H224.568C224.48 217 224.397 216.965 224.335 216.904C224.274 216.842 224.239 216.759 224.239 216.672C224.239 216.585 224.274 216.501 224.335 216.44C224.397 216.378 224.48 216.344 224.568 216.344H287.671C287.759 216.344 287.842 216.378 287.904 216.44C287.965 216.501 288 216.585 288 216.672C288 216.759 287.965 216.842 287.904 216.904C287.842 216.965 287.759 217 287.671 217Z" fill="#CCCCCC"/>
<path d="M198.532 43.2746C198.27 42.8488 197.923 42.4809 197.513 42.1932C197.104 41.9056 196.64 41.7042 196.149 41.6015C195.97 41.5638 195.787 41.5408 195.604 41.5326L170.563 19.1854C170.071 18.6808 169.415 18.3679 168.712 18.303C168.574 18.2871 168.434 18.2827 168.295 18.2898C167.717 18.316 167.16 18.5097 166.69 18.8472C166.221 19.1846 165.861 19.6512 165.653 20.19C165.445 20.7287 165.399 21.3162 165.52 21.8806C165.642 22.4451 165.925 22.962 166.336 23.3681L175.923 31.7106L191.666 45.4069C191.679 45.6649 191.718 45.9209 191.781 46.1713C191.97 46.8966 192.375 47.5476 192.942 48.038C193.51 48.5284 194.213 48.835 194.96 48.9171C195.64 48.9965 196.329 48.8828 196.948 48.5891C197.439 48.36 197.874 48.0276 198.223 47.6147C198.259 47.5721 198.292 47.5327 198.325 47.4868C198.785 46.889 199.051 46.1656 199.088 45.413C199.125 44.6603 198.931 43.9144 198.532 43.2746H198.532Z" fill="#FFB8B8"/>
<path d="M155.701 64.8115L155.467 55.3438L155.27 47.4868L155.135 41.9886L154.869 31.271C154.816 30.6972 154.597 30.1511 154.239 29.6994C153.881 29.2477 153.398 28.9099 152.851 28.7272C152.303 28.5446 151.714 28.525 151.156 28.6709C150.597 28.8168 150.093 29.1218 149.706 29.5487C149.614 29.6463 149.532 29.7517 149.459 29.8637C149.055 30.4421 148.873 31.1468 148.946 31.8484L149.532 47.4868L149.824 55.3438L150.199 65.3659C150.091 65.5131 149.993 65.6677 149.906 65.8284C149.673 66.2708 149.531 66.756 149.491 67.2545C149.451 67.753 149.513 68.2545 149.673 68.7285C149.84 69.2255 150.11 69.6815 150.467 70.0666C150.823 70.4517 151.257 70.757 151.74 70.9625C152.224 71.168 152.745 71.269 153.27 71.2588C153.795 71.2486 154.312 71.1275 154.787 70.9035C155.338 70.6432 155.817 70.2513 156.181 69.7625C156.545 69.2737 156.782 68.703 156.872 68.1009C156.963 67.4987 156.903 66.8836 156.699 66.3099C156.494 65.7362 156.152 65.2215 155.701 64.8115H155.701Z" fill="#FFB8B8"/>
<path d="M178.247 37.9929L175.923 31.7106L172.163 21.5343C171.892 20.7939 171.457 20.124 170.891 19.5742C170.325 19.0245 169.642 18.609 168.893 18.3587C168.834 18.339 168.772 18.3194 168.712 18.3029C167.987 18.0831 167.222 18.0227 166.471 18.1258C165.72 18.2288 165 18.493 164.361 18.9L151.697 26.9177C150.538 27.6503 149.709 28.8042 149.385 30.1356C149.062 31.467 149.27 32.8717 149.965 34.0529C151.549 36.7862 153.275 39.435 155.135 41.9886C156.611 43.993 159.359 44.2062 159.835 47.4868H169.173L178.625 39.0164L178.247 37.9929Z" fill="#CCCCCC"/>
<path d="M33.2493 114.772C37.4553 114.772 40.865 111.368 40.865 107.17C40.865 102.972 37.4553 99.5685 33.2493 99.5685C29.0432 99.5685 25.6336 102.972 25.6336 107.17C25.6336 111.368 29.0432 114.772 33.2493 114.772Z" fill="#A0616A"/>
<path d="M51.946 101.938C52.021 101.997 52.0938 102.06 52.1642 102.127C52.5141 102.456 52.7903 102.855 52.9749 103.298C53.1595 103.741 53.2482 104.218 53.2353 104.698C53.2223 105.177 53.108 105.649 52.8998 106.081C52.6916 106.513 52.3942 106.897 52.0271 107.207C51.9415 107.278 51.8523 107.345 51.7596 107.408L52.2751 124.777C52.2897 125.345 52.1204 125.904 51.7921 126.368C51.4638 126.833 50.994 127.18 50.4526 127.358L50.4212 127.364L36.2923 128.866C35.9082 128.907 35.5198 128.871 35.1495 128.761C34.7793 128.652 34.4345 128.47 34.1351 128.226C33.8357 127.982 33.5876 127.682 33.4051 127.342C33.2227 127.002 33.1095 126.63 33.0721 126.246C33.0348 125.862 33.0739 125.475 33.1873 125.106C33.3008 124.738 33.4862 124.395 33.733 124.098C33.9798 123.802 34.283 123.557 34.6251 123.378C34.9672 123.199 35.3415 123.089 35.7263 123.055L45.798 122.17L47.5398 107.128C47.4259 107.028 47.3192 106.919 47.2205 106.804C46.6744 106.158 46.388 105.334 46.4168 104.49C46.4457 103.645 46.7879 102.842 47.3768 102.236C47.9657 101.629 48.7595 101.263 49.6038 101.208C50.4482 101.153 51.2829 101.413 51.946 101.938H51.946Z" fill="#A0616A"/>
<path d="M45.7923 212.965H49.5939L51.4022 198.33H45.7916L45.7923 212.965Z" fill="#A0616A"/>
<path d="M44.8228 211.726L52.3091 211.726H52.3094C52.9359 211.726 53.5563 211.849 54.1352 212.089C54.714 212.328 55.24 212.679 55.683 213.121C56.126 213.563 56.4774 214.088 56.7172 214.666C56.9569 215.244 57.0803 215.863 57.0803 216.488V216.643L44.823 216.643L44.8228 211.726Z" fill="#2F2E41"/>
<path d="M8.00826 207.719L11.2745 209.66L20.3302 198.009L15.5094 195.144L8.00826 207.719Z" fill="#A0616A"/>
<path d="M7.81005 206.16L14.2426 209.982L14.2428 209.983C14.7811 210.302 15.2511 210.725 15.6258 211.226C16.0004 211.728 16.2725 212.297 16.4265 212.904C16.5805 213.51 16.6134 214.14 16.5233 214.759C16.4331 215.378 16.2218 215.973 15.9012 216.51L15.8219 216.643L5.28998 210.384L7.81005 206.16Z" fill="#2F2E41"/>
<path d="M50.4908 207.796H46.2341C45.8894 207.797 45.5567 207.67 45.3005 207.439C45.0442 207.209 44.8825 206.893 44.8466 206.55L40.5552 166.286C40.5443 166.184 40.5004 166.089 40.4301 166.015C40.3599 165.941 40.2672 165.893 40.1663 165.877C40.0655 165.86 39.9622 165.878 39.8722 165.926C39.7823 165.974 39.7108 166.051 39.6687 166.144L31.9269 183.255L18.2204 205.563C18.043 205.849 17.7683 206.062 17.4466 206.162C17.125 206.263 16.7779 206.244 16.4689 206.11L10.9933 203.705C10.8122 203.626 10.6502 203.509 10.5179 203.362C10.3856 203.215 10.2861 203.042 10.226 202.854C10.1659 202.665 10.1465 202.467 10.1691 202.271C10.1918 202.074 10.256 201.885 10.3574 201.716L22.9575 180.657L26.8218 162.914C25.6064 155.22 30.8167 143.78 30.8695 143.665L30.8954 143.609L45.2474 138.01L45.3193 138.098C50.9793 156.638 54.4283 176.59 51.8817 206.52C51.8503 206.867 51.6904 207.19 51.4333 207.426C51.1761 207.662 50.8401 207.794 50.4908 207.796V207.796Z" fill="#2F2E41"/>
<path d="M30.3172 145.484L30.2503 145.344C30.2184 145.277 27.0271 138.558 24.567 131.378C24.0942 129.989 23.9155 128.518 24.0422 127.057C24.1688 125.596 24.5981 124.177 25.3028 122.89C26.0166 121.59 26.9932 120.452 28.1707 119.548C29.3482 118.644 30.7009 117.994 32.1432 117.64V117.64C34.6469 117.041 37.283 117.359 39.571 118.538C41.8591 119.716 43.6469 121.676 44.6087 124.06C46.5601 128.93 45.9381 134.129 45.3529 138.218L45.3412 138.3L45.2666 138.335L30.3172 145.484Z" fill="#3F3D56"/>
<path d="M42.4831 102.876H30.3903V97.6145C33.0445 96.562 35.6418 95.6669 37.2119 97.6145C38.6099 97.6145 39.9507 98.1689 40.9392 99.1556C41.9278 100.142 42.4831 101.481 42.4831 102.876V102.876Z" fill="#2F2E41"/>
<path d="M29.7208 96.686C22.4914 96.686 20.4679 105.731 20.4679 110.834C20.4679 113.679 21.7573 114.697 23.7833 115.042L24.4989 111.232L26.1748 115.205C26.7439 115.208 27.3418 115.197 27.9616 115.186L28.5298 114.018L29.7969 115.165C34.8718 115.172 38.9735 115.911 38.9735 110.834C38.9735 105.731 37.1989 96.686 29.7208 96.686Z" fill="#2F2E41"/>
<path d="M63.4324 217H0.328665C0.241498 217 0.1579 216.965 0.0962635 216.904C0.0346269 216.842 0 216.759 0 216.672C0 216.585 0.0346269 216.501 0.0962635 216.44C0.1579 216.378 0.241498 216.344 0.328665 216.344H63.4324C63.5195 216.344 63.6031 216.378 63.6648 216.44C63.7264 216.501 63.761 216.585 63.761 216.672C63.761 216.759 63.7264 216.842 63.6648 216.904C63.6031 216.965 63.5195 217 63.4324 217Z" fill="#CCCCCC"/>
<path d="M64.6189 109.07H50.4863C49.6585 109.069 48.8649 108.74 48.2796 108.156C47.6942 107.572 47.365 106.779 47.364 105.953V91.8468C47.365 91.0205 47.6942 90.2283 48.2796 89.6441C48.8649 89.0598 49.6585 88.7312 50.4863 88.7302H64.6189C65.4467 88.7312 66.2404 89.0598 66.8257 89.6441C67.4111 90.2283 67.7403 91.0205 67.7413 91.8468V105.953C67.7403 106.779 67.4111 107.572 66.8257 108.156C66.2404 108.74 65.4467 109.069 64.6189 109.07V109.07Z" fill="white"/>
<path d="M64.6189 109.07H50.4863C49.6585 109.069 48.8649 108.74 48.2796 108.156C47.6942 107.572 47.365 106.779 47.364 105.953V91.8468C47.365 91.0205 47.6942 90.2283 48.2796 89.6441C48.8649 89.0598 49.6585 88.7312 50.4863 88.7302H64.6189C65.4467 88.7312 66.2404 89.0598 66.8257 89.6441C67.4111 90.2283 67.7403 91.0205 67.7413 91.8468V105.953C67.7403 106.779 67.4111 107.572 66.8257 108.156C66.2404 108.74 65.4467 109.069 64.6189 109.07V109.07ZM50.4863 89.3863C49.8328 89.3871 49.2062 89.6465 48.7441 90.1078C48.282 90.569 48.0221 91.1944 48.0213 91.8468V105.953C48.0221 106.605 48.282 107.231 48.7441 107.692C49.2062 108.153 49.8328 108.413 50.4863 108.414H64.6189C65.2725 108.413 65.899 108.153 66.3611 107.692C66.8233 107.231 67.0832 106.605 67.0839 105.953V91.8468C67.0832 91.1944 66.8233 90.569 66.3611 90.1078C65.899 89.6465 65.2725 89.3871 64.6189 89.3863H50.4863Z" fill="#3F3D56"/>
<path d="M62.154 103.329H52.9513C52.6899 103.328 52.4393 103.225 52.2544 103.04C52.0696 102.856 51.9656 102.605 51.9653 102.345V95.4554C51.9656 95.1944 52.0696 94.9443 52.2544 94.7598C52.4393 94.5753 52.6899 94.4715 52.9513 94.4712H55.542C55.7105 94.4706 55.8763 94.5133 56.0234 94.5954C56.1705 94.6774 56.2939 94.7959 56.3818 94.9394L57.1043 96.1115H62.154C62.4154 96.1118 62.666 96.2155 62.8508 96.4C63.0357 96.5846 63.1397 96.8347 63.1399 97.0956V102.345C63.1397 102.605 63.0357 102.856 62.8508 103.04C62.666 103.225 62.4154 103.328 62.154 103.329V103.329Z" fill="#415B48"/>
<path d="M61.8546 106.809C61.9006 106.893 61.9431 106.979 61.982 107.068C62.1766 107.507 62.2761 107.982 62.274 108.461C62.2719 108.941 62.1683 109.415 61.9699 109.852C61.7715 110.289 61.4829 110.679 61.1229 110.997C60.7629 111.315 60.3397 111.553 59.881 111.697C59.7742 111.73 59.6658 111.757 59.5562 111.779L53.2789 127.986C53.0714 128.516 52.6983 128.965 52.215 129.266C51.7316 129.567 51.1639 129.705 50.5959 129.659L50.5644 129.653L36.9587 125.565C36.5888 125.453 36.2446 125.27 35.9461 125.025C35.6475 124.781 35.4004 124.479 35.2192 124.139C35.0379 123.798 34.926 123.425 34.89 123.042C34.854 122.658 34.8945 122.27 35.0093 121.902C35.124 121.534 35.3107 121.192 35.5586 120.896C35.8064 120.601 36.1105 120.357 36.4533 120.179C36.7961 120.001 37.1708 119.893 37.5557 119.86C37.9407 119.828 38.3283 119.872 38.6961 119.99L48.3228 123.075L55.7757 109.886C55.7099 109.75 55.6537 109.608 55.6077 109.463C55.3552 108.657 55.4119 107.786 55.7667 107.02C56.1215 106.253 56.7491 105.645 57.5276 105.314C58.3061 104.983 59.1801 104.953 59.9797 105.229C60.7793 105.506 61.4475 106.069 61.8546 106.809H61.8546Z" fill="#A0616A"/>
</g>
<defs>
<clipPath id="clip0_59_683">
<rect width="288" height="217" fill="white"/>
</clipPath>
</defs>
</svg>
