<svg width="337" height="203" viewBox="0 0 337 203" fill="none" xmlns="http://www.w3.org/2000/svg">
<g clip-path="url(#clip0_59_798)">
<path d="M21.1989 42.5502C17.0062 42.5502 12.9076 41.3025 9.42142 38.9647C5.93527 36.627 3.21815 33.3043 1.61365 29.4168C0.00915469 25.5292 -0.410655 21.2515 0.407311 17.1245C1.22528 12.9976 3.24429 9.20672 6.20901 6.23134C9.17374 3.25597 12.951 1.22971 17.0632 0.408805C21.1754 -0.4121 25.4378 0.00921821 29.3114 1.61948C33.185 3.22974 36.4958 5.95663 38.8252 9.4553C41.1546 12.954 42.3979 17.0673 42.3979 21.2751C42.3915 26.9157 40.156 32.3234 36.1818 36.3119C32.2076 40.3003 26.8193 42.5439 21.1989 42.5502ZM21.1989 0.886474C17.1809 0.886474 13.253 2.08225 9.91215 4.32258C6.57126 6.56291 3.96735 9.74719 2.42971 13.4727C0.892063 17.1983 0.489747 21.2977 1.27363 25.2527C2.05752 29.2078 3.99239 32.8407 6.83358 35.6921C9.67478 38.5435 13.2947 40.4853 17.2355 41.272C21.1764 42.0587 25.2612 41.6549 28.9734 40.1118C32.6856 38.5686 35.8585 35.9553 38.0908 32.6025C40.3231 29.2496 41.5146 25.3076 41.5146 21.2751C41.5085 15.8696 39.3661 10.6872 35.5575 6.86494C31.7489 3.04265 26.5851 0.892602 21.1989 0.886474Z" fill="#F2F2F2"/>
<path d="M165.175 30.1397C163.079 30.1397 161.029 29.5159 159.286 28.347C157.543 27.1781 156.185 25.5168 155.382 23.573C154.58 21.6292 154.37 19.4904 154.779 17.4269C155.188 15.3634 156.198 13.468 157.68 11.9803C159.163 10.4926 161.051 9.47948 163.107 9.06903C165.163 8.65857 167.295 8.86923 169.231 9.67436C171.168 10.4795 172.824 11.8429 173.988 13.5923C175.153 15.3416 175.775 17.3983 175.775 19.5022C175.771 22.3225 174.654 25.0263 172.667 27.0205C170.679 29.0148 167.985 30.1365 165.175 30.1397ZM165.175 9.75109C163.253 9.75109 161.375 10.323 159.777 11.3944C158.179 12.4659 156.934 13.9888 156.199 15.7706C155.463 17.5524 155.271 19.513 155.646 21.4045C156.021 23.2961 156.946 25.0335 158.305 26.3972C159.664 27.761 161.395 28.6897 163.28 29.0659C165.164 29.4422 167.118 29.2491 168.893 28.511C170.669 27.773 172.186 26.5232 173.254 24.9196C174.321 23.316 174.891 21.4308 174.891 19.5022C174.888 16.9169 173.864 14.4384 172.042 12.6103C170.221 10.7823 167.751 9.75401 165.175 9.75109Z" fill="#F2F2F2"/>
<path d="M239.813 81.9979C237.455 81.9979 235.149 81.296 233.188 79.981C231.227 78.666 229.699 76.797 228.796 74.6103C227.894 72.4235 227.658 70.0173 228.118 67.6959C228.578 65.3745 229.714 63.2421 231.381 61.5685C233.049 59.8948 235.174 58.7551 237.487 58.2933C239.8 57.8315 242.197 58.0685 244.376 58.9743C246.555 59.8801 248.418 61.414 249.728 63.382C251.038 65.35 251.737 67.6637 251.737 70.0306C251.734 73.2034 250.476 76.2453 248.241 78.4888C246.005 80.7323 242.974 81.9943 239.813 81.9979ZM239.813 58.9498C237.629 58.9498 235.495 59.5997 233.679 60.8173C231.863 62.0348 230.448 63.7654 229.612 65.7902C228.777 67.8149 228.558 70.0429 228.984 72.1924C229.41 74.3418 230.462 76.3162 232.006 77.8659C233.55 79.4156 235.517 80.4709 237.659 80.8985C239.801 81.326 242.021 81.1066 244.038 80.2679C246.056 79.4292 247.78 78.009 248.993 76.1868C250.207 74.3645 250.854 72.2222 250.854 70.0306C250.851 67.0928 249.687 64.2763 247.617 62.199C245.547 60.1216 242.74 58.9531 239.813 58.9498Z" fill="#F2F2F2"/>
<path d="M336.558 203H237.188C237.071 203 236.959 202.953 236.876 202.87C236.793 202.787 236.747 202.674 236.747 202.557C236.747 202.439 236.793 202.326 236.876 202.243C236.959 202.16 237.071 202.114 237.188 202.114H336.558C336.675 202.114 336.788 202.16 336.871 202.243C336.953 202.326 337 202.439 337 202.557C337 202.674 336.953 202.787 336.871 202.87C336.788 202.953 336.675 203 336.558 203Z" fill="#CCCCCC"/>
<path d="M283.058 67.9238C289.048 67.9238 293.905 63.0499 293.905 57.0376C293.905 51.0253 289.048 46.1514 283.058 46.1514C277.067 46.1514 272.21 51.0253 272.21 57.0376C272.21 63.0499 277.067 67.9238 283.058 67.9238Z" fill="#FFB8B8"/>
<path d="M284.183 186.309L279.056 188.056L269.9 169.042L277.466 166.463L284.183 186.309Z" fill="#FFB8B8"/>
<path d="M274.897 187.835L284.784 184.464L286.899 190.712L270.786 196.205C270.508 195.384 270.394 194.517 270.45 193.652C270.507 192.788 270.732 191.943 271.114 191.165C271.496 190.388 272.026 189.694 272.675 189.123C273.324 188.551 274.079 188.113 274.897 187.835Z" fill="#2F2E41"/>
<path d="M295.767 197.05L290.359 197.322L286.737 176.519L294.719 176.116L295.767 197.05Z" fill="#FFB8B8"/>
<path d="M286.419 195.966L296.848 195.44L297.178 202.03L280.183 202.888C280.139 202.022 280.266 201.157 280.556 200.341C280.846 199.524 281.293 198.773 281.872 198.131C282.452 197.488 283.151 196.966 283.931 196.595C284.711 196.223 285.557 196.01 286.419 195.966Z" fill="#2F2E41"/>
<path d="M263.586 127.93C264.071 127.497 264.456 126.962 264.712 126.363C264.969 125.765 265.092 125.117 265.072 124.466C265.052 123.815 264.891 123.176 264.598 122.594C264.306 122.012 263.89 121.502 263.38 121.099L268.535 106.129L260.59 108.167L256.912 122.07C256.294 122.975 256.029 124.076 256.166 125.164C256.303 126.253 256.833 127.253 257.656 127.975C258.478 128.697 259.536 129.092 260.629 129.083C261.723 129.075 262.775 128.665 263.586 127.93Z" fill="#FFB8B8"/>
<path d="M295.261 190.777C295.192 190.777 295.122 190.774 295.052 190.766L287.712 189.986C287.261 189.941 286.839 189.741 286.518 189.42C286.196 189.099 285.994 188.677 285.946 188.225L280.273 137.471L276.168 151.359L283.821 178.655C283.899 178.933 283.916 179.224 283.871 179.51C283.825 179.795 283.719 180.067 283.559 180.306C283.398 180.546 283.188 180.748 282.942 180.898C282.696 181.049 282.421 181.144 282.135 181.177L274.695 182.035C274.221 182.087 273.744 181.968 273.35 181.699C272.956 181.429 272.671 181.027 272.547 180.565L264.417 149.848C264.35 149.596 264.333 149.332 264.367 149.073L268.022 121.505L295.277 123.698L297.248 188.722C297.256 188.989 297.211 189.255 297.115 189.504C297.018 189.753 296.873 189.98 296.688 190.171C296.503 190.363 296.281 190.516 296.036 190.62C295.791 190.724 295.528 190.777 295.261 190.777V190.777Z" fill="#2F2E41"/>
<path d="M285.84 128.412C276.708 128.412 266.37 124.872 265.744 124.654L265.563 124.591L275.864 71.5433L276.054 71.5511C280.136 71.7173 291.277 71.8026 291.389 71.8035L291.589 71.805L295.883 118.618L296.65 125.466L296.556 125.542C293.93 127.674 290.011 128.412 285.84 128.412Z" fill="#415B48"/>
<path d="M269.343 123.828L262.9 121.223L266.184 81.3574C266.263 80.3745 266.561 79.4221 267.056 78.5703C267.551 77.7185 268.23 76.9891 269.043 76.4359L272.434 74.1202C272.338 73.7928 272.321 73.4473 272.384 73.1119C272.447 72.7765 272.588 72.4609 272.796 72.191C273.004 71.9211 273.273 71.7045 273.581 71.5591C273.888 71.4137 274.226 71.3436 274.566 71.3546L275.537 71.386C275.722 71.2611 275.939 71.1951 276.162 71.1967C276.385 71.1983 276.602 71.2674 276.784 71.3949C276.967 71.5224 277.107 71.7024 277.186 71.9113C277.265 72.1202 277.28 72.3481 277.227 72.5653L277.014 76.7889L269.343 123.828Z" fill="#2F2E41"/>
<path d="M266.092 116.681L257.679 116.325L260.405 98.7326L262.663 82.1785C262.707 81.584 262.885 81.0074 263.183 80.4916C263.48 79.9757 263.89 79.5341 264.382 79.1997C264.874 78.8653 265.434 78.6468 266.022 78.5604C266.61 78.474 267.209 78.5221 267.776 78.701C268.658 78.9789 269.415 79.5597 269.914 80.3415C270.413 81.1233 270.621 82.0563 270.503 82.9769L268.215 100.913L266.092 116.681Z" fill="#2F2E41"/>
<path d="M279.413 124.438L279.356 124.26C279.317 124.138 275.525 111.933 281.869 97.3684L285.051 81.4893L287.769 71.5188C287.82 71.3406 287.912 71.1768 288.037 71.0404C288.162 70.904 288.317 70.7987 288.49 70.733C288.693 70.6625 288.912 70.6535 289.12 70.7071C289.328 70.7608 289.515 70.8747 289.659 71.0346C291.554 70.4764 293.591 70.6808 295.339 71.6046L299.157 73.623C300.006 74.0718 300.682 74.7906 301.08 75.6667C301.478 76.5429 301.576 77.5268 301.357 78.4644L296.139 100.813L298.675 121.688L279.413 124.438Z" fill="#2F2E41"/>
<path d="M284.969 115.833C285.614 115.903 286.267 115.831 286.882 115.621C287.496 115.41 288.057 115.067 288.526 114.616C288.994 114.164 289.357 113.615 289.591 113.007C289.825 112.4 289.923 111.748 289.879 111.098L301.696 102.312L297.565 100.347L284.823 106.934C283.74 107.082 282.748 107.622 282.036 108.454C281.323 109.286 280.94 110.352 280.958 111.449C280.976 112.546 281.394 113.598 282.133 114.406C282.872 115.214 283.881 115.722 284.969 115.833V115.833Z" fill="#FFB8B8"/>
<path d="M292.377 111.901L288.386 104.424L298.229 97.9224L293.426 80.632C293.234 79.9398 293.185 79.2151 293.285 78.5034C293.384 77.7916 293.628 77.108 294.002 76.4953C294.377 75.8826 294.873 75.3538 295.46 74.9422C296.047 74.5305 296.712 74.2447 297.414 74.1026C298.654 73.8545 299.942 74.0665 301.039 74.6994C302.135 75.3323 302.966 76.343 303.376 77.5439L309.857 96.6628C309.991 97.0568 309.998 97.4828 309.878 97.8812C309.759 98.2796 309.518 98.6305 309.189 98.8846L292.377 111.901Z" fill="#2F2E41"/>
<path d="M283.825 59.3466C282.525 59.5164 281.544 58.1812 281.089 56.947C280.634 55.7127 280.287 54.2758 279.157 53.6091C277.612 52.6982 275.636 53.7937 273.87 53.4932C271.875 53.1538 270.578 51.0323 270.477 49.0045C270.375 46.9766 271.179 45.0263 271.968 43.1566L272.244 45.4802C272.207 44.6927 272.372 43.9088 272.723 43.2037C273.074 42.4985 273.6 41.8956 274.25 41.4526L273.895 44.8621C273.97 44.3917 274.138 43.9409 274.387 43.5356C274.637 43.1303 274.964 42.7784 275.349 42.5002C275.735 42.222 276.171 42.0229 276.633 41.9144C277.096 41.8059 277.575 41.79 278.043 41.8678L277.987 43.8993C280.291 43.6243 282.615 43.349 284.926 43.5585C287.236 43.7679 289.563 44.5016 291.314 46.0289C293.934 48.3133 294.891 52.075 294.57 55.543C294.248 59.011 292.822 62.2689 291.335 65.416C290.961 66.2079 290.444 67.1014 289.576 67.2023C288.797 67.2929 288.084 66.6391 287.842 65.8902C287.655 65.1218 287.662 64.3188 287.863 63.5539C288.082 62.385 288.358 61.1902 288.152 60.0189C287.946 58.8475 287.106 57.69 285.93 57.5465C284.753 57.4029 283.55 58.7526 284.115 59.7978L283.825 59.3466Z" fill="#2F2E41"/>
<path d="M141.905 178.878L137.682 177.094L134.786 155.851H96.2126L93.0729 177.007L89.2952 178.903C89.1145 178.993 88.9696 179.143 88.8839 179.326C88.7983 179.51 88.7769 179.717 88.8234 179.915C88.8698 180.112 88.9813 180.288 89.1397 180.414C89.2982 180.54 89.4944 180.608 89.6965 180.608H141.557C141.764 180.608 141.965 180.536 142.125 180.405C142.285 180.273 142.395 180.09 142.436 179.886C142.477 179.682 142.447 179.471 142.35 179.287C142.253 179.103 142.096 178.959 141.905 178.878Z" fill="#E6E6E6"/>
<path d="M210.452 158.677H20.9697C19.9756 158.675 19.0229 158.277 18.3207 157.57C17.6185 156.864 17.2242 155.907 17.2242 154.909V128.094H214.198V154.909C214.198 155.907 213.803 156.864 213.101 157.57C212.399 158.277 211.446 158.675 210.452 158.677Z" fill="#CCCCCC"/>
<path d="M214.396 140.768H17.0512V26.0296C17.0526 24.8255 17.5298 23.6711 18.3782 22.8197C19.2266 21.9683 20.3769 21.4894 21.5767 21.488H209.87C211.07 21.4894 212.22 21.9683 213.069 22.8197C213.917 23.6712 214.394 24.8255 214.396 26.0296V140.768Z" fill="#3F3D56"/>
<path d="M202.609 132.44H28.8378C27.9128 132.439 27.026 132.07 26.372 131.413C25.7179 130.757 25.35 129.867 25.3489 128.939V33.317C25.35 32.3887 25.7179 31.4987 26.3719 30.8423C27.026 30.1859 27.9128 29.8166 28.8378 29.8156H202.609C203.534 29.8166 204.421 30.1859 205.075 30.8423C205.729 31.4987 206.097 32.3887 206.098 33.317V128.939C206.097 129.867 205.729 130.757 205.075 131.413C204.421 132.07 203.534 132.439 202.609 132.44Z" fill="white"/>
<path d="M200.973 180.83H32.7068C32.5897 180.83 32.4774 180.783 32.3945 180.7C32.3117 180.617 32.2652 180.504 32.2652 180.386C32.2652 180.269 32.3117 180.156 32.3945 180.073C32.4774 179.99 32.5897 179.943 32.7068 179.943H200.973C201.091 179.943 201.203 179.99 201.286 180.073C201.369 180.156 201.415 180.269 201.415 180.386C201.415 180.504 201.369 180.617 201.286 180.7C201.203 180.783 201.091 180.83 200.973 180.83Z" fill="#CCCCCC"/>
<path d="M186.284 120.559H45.1629C45.0458 120.559 44.9334 120.512 44.8506 120.429C44.7678 120.346 44.7213 120.233 44.7213 120.116V52.2334C44.7213 52.1158 44.7678 52.0031 44.8506 51.92C44.9334 51.8369 45.0458 51.7902 45.1629 51.7902C45.28 51.7902 45.3924 51.8369 45.4752 51.92C45.558 52.0031 45.6045 52.1158 45.6045 52.2334V119.673H186.284C186.401 119.673 186.513 119.719 186.596 119.802C186.679 119.885 186.726 119.998 186.726 120.116C186.726 120.233 186.679 120.346 186.596 120.429C186.513 120.512 186.401 120.559 186.284 120.559Z" fill="#3F3D56"/>
<path d="M75.3143 115.683H62.4788C62.1312 115.683 61.798 115.544 61.5522 115.298C61.3064 115.051 61.1682 114.717 61.1678 114.368V96.6104C61.1682 96.2616 61.3064 95.9272 61.5522 95.6806C61.798 95.4339 62.1312 95.2952 62.4788 95.2948H75.3143C75.6619 95.2952 75.9951 95.4339 76.2409 95.6806C76.4866 95.9272 76.6249 96.2616 76.6253 96.6104V114.368C76.6249 114.717 76.4866 115.051 76.2409 115.298C75.9951 115.544 75.6619 115.683 75.3143 115.683Z" fill="#415B48"/>
<path d="M98.7215 115.683H85.8859C85.5384 115.683 85.2052 115.544 84.9594 115.298C84.7136 115.051 84.5753 114.717 84.5749 114.368V79.7675C84.5753 79.4187 84.7136 79.0843 84.9594 78.8377C85.2052 78.591 85.5384 78.4523 85.8859 78.4519H98.7215C99.069 78.4523 99.4022 78.591 99.648 78.8377C99.8938 79.0843 100.032 79.4187 100.032 79.7675V114.368C100.032 114.717 99.8938 115.051 99.648 115.298C99.4022 115.544 99.069 115.683 98.7215 115.683Z" fill="#415B48"/>
<path d="M122.129 115.683H109.293C108.946 115.683 108.612 115.544 108.367 115.298C108.121 115.051 107.983 114.717 107.982 114.368V96.6104C107.983 96.2616 108.121 95.9272 108.367 95.6806C108.612 95.4339 108.946 95.2952 109.293 95.2948H122.129C122.476 95.2952 122.809 95.4339 123.055 95.6806C123.301 95.9272 123.439 96.2616 123.44 96.6104V114.368C123.439 114.717 123.301 115.051 123.055 115.298C122.809 115.544 122.476 115.683 122.129 115.683Z" fill="#415B48"/>
<path d="M145.536 115.683H132.7C132.361 115.691 132.032 115.563 131.786 115.327C131.54 115.092 131.398 114.768 131.389 114.427V73.0596C131.398 72.7187 131.54 72.3951 131.786 72.1597C132.032 71.9243 132.361 71.7962 132.7 71.8035H145.536C145.875 71.7962 146.204 71.9243 146.45 72.1597C146.696 72.3951 146.838 72.7187 146.847 73.0596V114.427C146.838 114.768 146.696 115.092 146.45 115.327C146.204 115.563 145.875 115.691 145.536 115.683Z" fill="#415B48"/>
<path d="M168.943 115.683H156.107C155.76 115.683 155.427 115.544 155.181 115.298C154.935 115.051 154.797 114.717 154.796 114.368V61.1518C154.797 60.803 154.935 60.4686 155.181 60.2219C155.427 59.9753 155.76 59.8366 156.107 59.8362H168.943C169.291 59.8366 169.624 59.9753 169.87 60.2219C170.115 60.4686 170.254 60.803 170.254 61.1518V114.368C170.254 114.717 170.115 115.051 169.87 115.298C169.624 115.544 169.291 115.683 168.943 115.683Z" fill="#415B48"/>
<path d="M68.8966 89.976C70.3601 89.976 71.5464 88.7854 71.5464 87.3166C71.5464 85.8479 70.3601 84.6572 68.8966 84.6572C67.4331 84.6572 66.2467 85.8479 66.2467 87.3166C66.2467 88.7854 67.4331 89.976 68.8966 89.976Z" fill="#3F3D56"/>
<path d="M92.3037 72.69C93.7672 72.69 94.9536 71.4993 94.9536 70.0306C94.9536 68.5619 93.7672 67.3712 92.3037 67.3712C90.8403 67.3712 89.6539 68.5619 89.6539 70.0306C89.6539 71.4993 90.8403 72.69 92.3037 72.69Z" fill="#3F3D56"/>
<path d="M115.711 89.976C117.174 89.976 118.361 88.7854 118.361 87.3166C118.361 85.8479 117.174 84.6572 115.711 84.6572C114.247 84.6572 113.061 85.8479 113.061 87.3166C113.061 88.7854 114.247 89.976 115.711 89.976Z" fill="#3F3D56"/>
<path d="M139.118 64.2686C140.582 64.2686 141.768 63.078 141.768 61.6092C141.768 60.1405 140.582 58.9498 139.118 58.9498C137.655 58.9498 136.468 60.1405 136.468 61.6092C136.468 63.078 137.655 64.2686 139.118 64.2686Z" fill="#3F3D56"/>
<path d="M162.525 54.5175C163.989 54.5175 165.175 53.3269 165.175 51.8581C165.175 50.3894 163.989 49.1987 162.525 49.1987C161.062 49.1987 159.875 50.3894 159.875 51.8581C159.875 53.3269 161.062 54.5175 162.525 54.5175Z" fill="#3F3D56"/>
<path d="M115.767 87.9122L92.3037 70.2752L69.1616 87.6711L68.6316 86.962L92.3037 69.1675L115.655 86.7208L138.86 61.2359L138.953 61.1978L162.36 51.733L162.69 52.5552L139.376 61.9823L115.767 87.9122Z" fill="#3F3D56"/>
</g>
<defs>
<clipPath id="clip0_59_798">
<rect width="337" height="203" fill="white"/>
</clipPath>
</defs>
</svg>
