<svg width="276" height="214" viewBox="0 0 276 214" fill="none" xmlns="http://www.w3.org/2000/svg">
<g clip-path="url(#clip0_59_834)">
<path d="M37.4575 207.284L40.4226 202.52L41.0149 205.243C41.1187 205.719 41.2226 206.204 41.3187 206.685C42.1609 205.965 43.057 205.3 43.9338 204.662C46.6258 202.708 49.3166 200.752 52.0061 198.794L51.1639 203.677C50.6447 206.685 50.1024 209.753 48.818 212.503C48.6756 212.814 48.5218 213.122 48.3564 213.422H35.8422C35.7416 213.143 35.6719 212.854 35.6346 212.56C35.6314 212.541 35.6302 212.522 35.6308 212.503C35.4345 210.638 36.4653 208.88 37.4575 207.284Z" fill="#F0F0F0"/>
<path d="M225.899 0H49.7632C48.2499 0.00240505 46.7993 0.604562 45.7293 1.67452C44.6592 2.74447 44.057 4.19495 44.0546 5.70809V124.555C44.056 126.068 44.6579 127.519 45.7282 128.589C46.7985 129.659 48.2496 130.261 49.7632 130.263H225.899C227.412 130.261 228.864 129.659 229.934 128.589C231.004 127.519 231.606 126.068 231.608 124.555V5.70808C231.605 4.19494 231.003 2.74446 229.933 1.67451C228.863 0.60456 227.412 0.00240504 225.899 0Z" fill="#E6E6E6"/>
<path d="M224.813 126.328H109.403C93.2318 126.281 77.7362 119.836 66.3013 108.402C54.8663 96.9682 48.4214 81.474 48.3741 65.3041V7.18182C48.3743 6.32068 48.716 5.49476 49.3244 4.88526C49.9328 4.27576 50.7582 3.93245 51.6194 3.93066H224.813C225.675 3.93245 226.5 4.27576 227.108 4.88526C227.717 5.49476 228.058 6.32068 228.059 7.18182V123.083C228.058 123.943 227.715 124.768 227.107 125.376C226.499 125.985 225.674 126.327 224.813 126.328Z" fill="white"/>
<path d="M215.723 20.0914H53.6657C53.4973 20.0877 53.3369 20.0182 53.2191 19.8977C53.1013 19.7773 53.0353 19.6155 53.0353 19.447C53.0353 19.2785 53.1013 19.1167 53.2191 18.9963C53.3369 18.8758 53.4973 18.8063 53.6657 18.8026H215.723C215.891 18.8063 216.051 18.8758 216.169 18.9963C216.287 19.1167 216.353 19.2785 216.353 19.447C216.353 19.6155 216.287 19.7773 216.169 19.8977C216.051 20.0182 215.891 20.0877 215.723 20.0914Z" fill="#CACACA"/>
<path d="M64.6971 15.5124C66.783 15.5124 68.4739 13.7839 68.4739 11.6518C68.4739 9.5196 66.783 7.79114 64.6971 7.79114C62.6112 7.79114 60.9203 9.5196 60.9203 11.6518C60.9203 13.7839 62.6112 15.5124 64.6971 15.5124Z" fill="#3F3D56"/>
<path d="M77.7443 15.5124C79.8302 15.5124 81.5211 13.7839 81.5211 11.6518C81.5211 9.5196 79.8302 7.79114 77.7443 7.79114C75.6584 7.79114 73.9675 9.5196 73.9675 11.6518C73.9675 13.7839 75.6584 15.5124 77.7443 15.5124Z" fill="#3F3D56"/>
<path d="M90.7914 15.5124C92.8773 15.5124 94.5682 13.7839 94.5682 11.6518C94.5682 9.5196 92.8773 7.79114 90.7914 7.79114C88.7055 7.79114 87.0146 9.5196 87.0146 11.6518C87.0146 13.7839 88.7055 15.5124 90.7914 15.5124Z" fill="#3F3D56"/>
<path d="M164.029 78.0201H98.401C97.2138 78.0353 96.0648 77.6003 95.1854 76.8026C94.306 76.0048 93.7615 74.9036 93.6614 73.7206C93.6204 73.1157 93.6989 72.5086 93.8925 71.934C94.0861 71.3594 94.391 70.8286 94.7898 70.3718C95.1885 69.915 95.6734 69.5412 96.2166 69.2718C96.7599 69.0024 97.3508 68.8426 97.9558 68.8016C98.059 68.7946 98.1623 68.7911 98.2658 68.791H164.029C165.253 68.791 166.426 69.2772 167.292 70.1426C168.157 71.008 168.644 72.1817 168.644 73.4055C168.644 74.6294 168.157 75.8031 167.292 76.6685C166.426 77.5339 165.253 78.0201 164.029 78.0201Z" fill="#415B48"/>
<path d="M164.15 52.176C166.453 52.176 168.32 50.3094 168.32 48.0069C168.32 45.7044 166.453 43.8379 164.15 43.8379C161.847 43.8379 159.981 45.7044 159.981 48.0069C159.981 50.3094 161.847 52.176 164.15 52.176Z" fill="#E6E6E6"/>
<path d="M163.581 50.1767C163.509 50.1767 163.438 50.1599 163.374 50.1277C163.31 50.0955 163.254 50.0488 163.21 49.9912L162.073 48.4747C162.036 48.426 162.009 48.3704 161.994 48.3113C161.978 48.2522 161.975 48.1906 161.983 48.1301C161.992 48.0696 162.012 48.0114 162.043 47.9587C162.074 47.9061 162.115 47.8602 162.164 47.8235C162.213 47.7869 162.269 47.7602 162.328 47.7451C162.387 47.7301 162.449 47.7268 162.509 47.7356C162.57 47.7444 162.628 47.7651 162.68 47.7964C162.733 47.8278 162.779 47.8692 162.815 47.9182L163.559 48.9103L165.47 46.0436C165.538 45.941 165.644 45.8696 165.765 45.845C165.885 45.8205 166.011 45.8448 166.113 45.9127C166.216 45.9805 166.287 46.0863 166.312 46.2069C166.336 46.3274 166.312 46.4527 166.244 46.5553L166.242 46.5581L163.967 49.9702C163.926 50.0319 163.871 50.0829 163.806 50.1188C163.741 50.1547 163.668 50.1745 163.594 50.1766L163.581 50.1767Z" fill="white"/>
<path d="M164.15 102.936C166.453 102.936 168.32 101.069 168.32 98.7667C168.32 96.4642 166.453 94.5977 164.15 94.5977C161.847 94.5977 159.981 96.4642 159.981 98.7667C159.981 101.069 161.847 102.936 164.15 102.936Z" fill="#E6E6E6"/>
<path d="M163.581 100.936C163.509 100.936 163.438 100.92 163.374 100.888C163.31 100.855 163.254 100.809 163.21 100.751L162.073 99.2344C162.036 99.1857 162.009 99.1302 161.994 99.0711C161.978 99.012 161.975 98.9504 161.983 98.8899C161.992 98.8294 162.012 98.7711 162.043 98.7185C162.074 98.6659 162.115 98.6199 162.164 98.5833C162.213 98.5466 162.269 98.52 162.328 98.5049C162.387 98.4898 162.449 98.4866 162.509 98.4954C162.57 98.5042 162.628 98.5248 162.68 98.5562C162.733 98.5875 162.779 98.6289 162.815 98.678L163.559 99.6701L165.47 96.8034C165.538 96.7008 165.644 96.6294 165.765 96.6048C165.885 96.5802 166.011 96.6046 166.113 96.6724C166.216 96.7403 166.287 96.8461 166.312 96.9666C166.336 97.0872 166.312 97.2125 166.244 97.3151L166.242 97.3179L163.967 100.73C163.926 100.792 163.871 100.843 163.806 100.879C163.741 100.914 163.668 100.934 163.594 100.936L163.581 100.936Z" fill="white"/>
<path d="M130.57 52.6402H98.401C97.2138 52.6554 96.0648 52.2204 95.1854 51.4227C94.306 50.625 93.7615 49.5238 93.6614 48.3407C93.6204 47.7358 93.6989 47.1287 93.8925 46.5541C94.0861 45.9795 94.391 45.4487 94.7898 44.9919C95.1885 44.5351 95.6734 44.1614 96.2166 43.8919C96.7599 43.6225 97.3508 43.4628 97.9558 43.4217C98.059 43.4147 98.1623 43.4112 98.2658 43.4111H130.57C131.794 43.4111 132.968 43.8973 133.834 44.7627C134.699 45.6281 135.185 46.8018 135.185 48.0257C135.185 49.2495 134.699 50.4232 133.834 51.2886C132.968 52.154 131.794 52.6402 130.57 52.6402Z" fill="#415B48"/>
<path d="M164.029 52.8323H98.2658C96.9909 52.8323 95.7682 52.3259 94.8666 51.4245C93.9651 50.523 93.4586 49.3004 93.4586 48.0255C93.4586 46.7507 93.9651 45.5281 94.8666 44.6266C95.7682 43.7252 96.9909 43.2188 98.2658 43.2188H164.029C165.304 43.2188 166.526 43.7252 167.428 44.6266C168.329 45.5281 168.836 46.7507 168.836 48.0255C168.836 49.3004 168.329 50.523 167.428 51.4245C166.526 52.3259 165.304 52.8323 164.029 52.8323ZM98.2658 43.9878C97.1949 43.9878 96.1678 44.4132 95.4105 45.1705C94.6532 45.9277 94.2278 46.9547 94.2278 48.0255C94.2278 49.0964 94.6532 50.1234 95.4105 50.8806C96.1678 51.6379 97.1949 52.0633 98.2658 52.0633H164.029C165.1 52.0633 166.127 51.6379 166.884 50.8806C167.641 50.1234 168.067 49.0964 168.067 48.0255C168.067 46.9547 167.641 45.9277 166.884 45.1705C166.127 44.4132 165.1 43.9878 164.029 43.9878H98.2658Z" fill="#3F3D56"/>
<path d="M164.029 78.2122H98.2658C96.9909 78.2122 95.7682 77.7058 94.8666 76.8043C93.9651 75.9029 93.4586 74.6803 93.4586 73.4054C93.4586 72.1306 93.9651 70.908 94.8666 70.0065C95.7682 69.1051 96.9909 68.5986 98.2658 68.5986H164.029C165.304 68.5986 166.526 69.1051 167.428 70.0065C168.329 70.908 168.836 72.1306 168.836 73.4054C168.836 74.6803 168.329 75.9029 167.428 76.8043C166.526 77.7058 165.304 78.2122 164.029 78.2122ZM98.2658 69.3677C97.1949 69.3677 96.1678 69.7931 95.4105 70.5503C94.6532 71.3076 94.2278 72.3346 94.2278 73.4054C94.2278 74.4763 94.6532 75.5033 95.4105 76.2605C96.1678 77.0177 97.1949 77.4431 98.2658 77.4431H164.029C165.1 77.4431 166.127 77.0177 166.884 76.2605C167.641 75.5033 168.067 74.4763 168.067 73.4054C168.067 72.3346 167.641 71.3076 166.884 70.5503C166.127 69.7931 165.1 69.3677 164.029 69.3677H98.2658Z" fill="#3F3D56"/>
<path d="M116.726 103.4H98.401C97.2138 103.415 96.0648 102.98 95.1854 102.182C94.306 101.385 93.7615 100.284 93.6614 99.1005C93.6204 98.4956 93.6989 97.8885 93.8925 97.3139C94.0861 96.7393 94.391 96.2084 94.7898 95.7517C95.1885 95.2949 95.6734 94.9211 96.2166 94.6517C96.7599 94.3823 97.3508 94.2225 97.9558 94.1815C98.059 94.1745 98.1624 94.171 98.2658 94.1709H116.726C117.95 94.1709 119.123 94.6571 119.989 95.5225C120.854 96.3878 121.34 97.5616 121.34 98.7854C121.34 100.009 120.854 101.183 119.989 102.048C119.123 102.914 117.95 103.4 116.726 103.4Z" fill="#415B48"/>
<path d="M164.029 103.592H98.2658C96.9909 103.592 95.7682 103.086 94.8666 102.184C93.9651 101.283 93.4586 100.06 93.4586 98.7853C93.4586 97.5105 93.9651 96.2878 94.8666 95.3864C95.7682 94.4849 96.9909 93.9785 98.2658 93.9785H164.029C165.304 93.9785 166.526 94.4849 167.428 95.3864C168.329 96.2878 168.836 97.5105 168.836 98.7853C168.836 100.06 168.329 101.283 167.428 102.184C166.526 103.086 165.304 103.592 164.029 103.592ZM98.2658 94.7476C97.1949 94.7476 96.1678 95.173 95.4105 95.9302C94.6532 96.6874 94.2278 97.7144 94.2278 98.7853C94.2278 99.8562 94.6532 100.883 95.4105 101.64C96.1678 102.398 97.1949 102.823 98.2658 102.823H164.029C165.1 102.823 166.127 102.398 166.884 101.64C167.641 100.883 168.067 99.8562 168.067 98.7853C168.067 97.7144 167.641 96.6874 166.884 95.9302C166.127 95.173 165.1 94.7476 164.029 94.7476H98.2658Z" fill="#3F3D56"/>
<path d="M110.573 38.4544H95.1895C94.7815 38.4544 94.3902 38.2923 94.1017 38.0039C93.8133 37.7154 93.6512 37.3242 93.6512 36.9162C93.6512 36.5083 93.8133 36.117 94.1017 35.8286C94.3902 35.5401 94.7815 35.3781 95.1895 35.3781H110.573C110.981 35.3781 111.372 35.5401 111.66 35.8286C111.949 36.117 112.111 36.5083 112.111 36.9162C112.111 37.3242 111.949 37.7154 111.66 38.0039C111.372 38.2923 110.981 38.4544 110.573 38.4544Z" fill="#CCCCCC"/>
<path d="M110.573 63.8342H95.1895C94.7815 63.8342 94.3902 63.6721 94.1017 63.3836C93.8133 63.0952 93.6512 62.7039 93.6512 62.296C93.6512 61.888 93.8133 61.4968 94.1017 61.2083C94.3902 60.9199 94.7815 60.7578 95.1895 60.7578H110.573C110.981 60.7578 111.372 60.9199 111.66 61.2083C111.949 61.4968 112.111 61.888 112.111 62.296C112.111 62.7039 111.949 63.0952 111.66 63.3836C111.372 63.6721 110.981 63.8342 110.573 63.8342Z" fill="#CCCCCC"/>
<path d="M110.573 89.214H95.1895C94.7815 89.214 94.3902 89.052 94.1017 88.7635C93.8133 88.4751 93.6512 88.0838 93.6512 87.6759C93.6512 87.2679 93.8133 86.8767 94.1017 86.5882C94.3902 86.2998 94.7815 86.1377 95.1895 86.1377H110.573C110.981 86.1377 111.372 86.2998 111.66 86.5882C111.949 86.8767 112.111 87.2679 112.111 87.6759C112.111 88.0838 111.949 88.4751 111.66 88.7635C111.372 89.052 110.981 89.214 110.573 89.214Z" fill="#CCCCCC"/>
<path d="M87.5022 38.7853C88.4254 38.7853 89.1737 38.0204 89.1737 37.0767C89.1737 36.133 88.4254 35.368 87.5022 35.368C86.579 35.368 85.8306 36.133 85.8306 37.0767C85.8306 38.0204 86.579 38.7853 87.5022 38.7853Z" fill="#3F3D56"/>
<path d="M87.5022 64.1651C88.4254 64.1651 89.1737 63.4001 89.1737 62.4565C89.1737 61.5128 88.4254 60.7478 87.5022 60.7478C86.579 60.7478 85.8306 61.5128 85.8306 62.4565C85.8306 63.4001 86.579 64.1651 87.5022 64.1651Z" fill="#3F3D56"/>
<path d="M87.5022 89.545C88.4254 89.545 89.1737 88.78 89.1737 87.8363C89.1737 86.8927 88.4254 86.1277 87.5022 86.1277C86.579 86.1277 85.8306 86.8927 85.8306 87.8363C85.8306 88.78 86.579 89.545 87.5022 89.545Z" fill="#3F3D56"/>
<path d="M197.652 209.265L193.845 209.265L192.033 194.579L197.653 194.579L197.652 209.265Z" fill="#FFB6B6"/>
<path d="M197.786 213.237L186.077 213.237V213.089C186.077 211.88 186.557 210.721 187.412 209.866C188.267 209.012 189.426 208.531 190.635 208.531H190.635L192.774 206.909L196.764 208.532L197.786 208.532L197.786 213.237Z" fill="#2F2E41"/>
<path d="M212.651 209.265L208.843 209.265L207.032 194.579L212.652 194.579L212.651 209.265Z" fill="#FFB6B6"/>
<path d="M212.785 213.237L201.076 213.237V213.089C201.076 211.88 201.556 210.721 202.411 209.866C203.265 209.012 204.424 208.531 205.633 208.531H205.633L207.772 206.909L211.763 208.532L212.785 208.532L212.785 213.237Z" fill="#2F2E41"/>
<path d="M184.549 117.286L181.857 126.515L185.028 165.602C185.028 165.602 183.395 168.045 184.549 168.045C185.703 168.045 187.182 168.587 186.25 170.047C185.318 171.506 188.504 176.746 188.504 176.746L193.01 204.577L198.751 204.492C198.751 204.492 201.67 202.866 200.032 201.222C198.394 199.578 197.24 199.578 198.778 198.04C200.317 196.502 200.317 196.965 200.317 195.772C200.317 194.579 201.858 180 198.203 174.407L199.304 151.605L201.898 173.971L207.239 203.808L212.77 203.762C212.77 203.762 215.325 201.3 215.32 199.478C215.315 197.655 213.742 197.504 214.913 196.426C216.084 195.348 216.084 178.788 212.623 169.584L212.65 128.41C212.65 128.41 216.05 119.169 212.606 115.536C209.162 111.902 184.549 117.286 184.549 117.286Z" fill="#2F2E41"/>
<path d="M219.215 101.184L221.534 77.1691C221.629 76.1513 221.32 75.137 220.674 74.3449C220.028 73.5529 219.096 73.0465 218.08 72.9353C217.053 72.8228 216.024 73.1228 215.218 73.7693C214.413 74.4158 213.897 75.3557 213.785 76.3824C213.777 76.4508 213.771 76.5195 213.768 76.5882L212.124 101.607L210.484 116.768C209.816 116.969 209.226 117.37 208.794 117.918C208.362 118.466 208.109 119.134 208.069 119.831C208.03 120.527 208.206 121.219 208.574 121.812C208.942 122.405 209.483 122.871 210.124 123.146C210.766 123.421 211.476 123.491 212.159 123.348C212.843 123.205 213.465 122.855 213.942 122.346C214.419 121.837 214.728 121.193 214.827 120.503C214.926 119.812 214.809 119.107 214.494 118.485L219.215 101.184Z" fill="#FFB6B6"/>
<path d="M210.52 64.9963L218.874 66.0436C218.874 66.0436 225.134 77.8408 223.845 78.842C222.557 79.8431 216.735 86.0893 212.443 83.2259C208.151 80.3626 210.52 64.9963 210.52 64.9963Z" fill="#3F3D56"/>
<path d="M196.134 53.6776C201.031 53.6776 205.001 49.7082 205.001 44.8117C205.001 39.9152 201.031 35.9458 196.134 35.9458C191.237 35.9458 187.267 39.9152 187.267 44.8117C187.267 49.7082 191.237 53.6776 196.134 53.6776Z" fill="#FFB6B6"/>
<path d="M199.56 52.9509C197.016 52.8675 196.785 52.1954 194.24 52.112C193.43 52.0854 192.474 51.9744 192.082 51.2647C191.968 50.9989 191.917 50.7102 191.934 50.4214C191.95 50.1326 192.034 49.8516 192.177 49.6004C192.467 49.1018 192.729 48.587 192.961 48.0586C193.101 47.6442 193.137 47.2021 193.068 46.7704C192.998 46.3387 192.824 45.9304 192.562 45.5809C192.299 45.2313 191.955 44.951 191.56 44.7641C191.164 44.5773 190.73 44.4895 190.293 44.5084C189.518 44.5418 188.791 44.9059 188.019 44.9724C186.96 45.0637 184.618 41.5676 185.106 40.6232C185.58 39.7039 186.536 39.0103 186.686 37.9867C186.784 37.3172 186.508 36.6521 186.47 35.9765C186.414 34.9748 188.953 37.2334 188.488 36.3444C187.347 34.1637 198.098 31.4602 199.868 34.1917C200.529 35.2126 201.708 35.143 202.759 35.7561C203.447 36.158 205.186 37.5443 205.582 38.4083C205.945 39.29 206.117 40.2389 206.085 41.1919C206.101 45.6244 205.426 49.7015 201.85 52.3215" fill="#2F2E41"/>
<path d="M193.779 56.1434L201.086 54.6052L206.698 57.3045C206.698 57.3045 219.974 62.644 219.928 67.9089C219.883 73.1738 217.55 84.7101 214.871 85.8637C212.192 87.0173 217.191 90.8628 215.653 93.17C214.115 95.4773 211.784 111.24 211.784 111.24C211.784 111.24 217.232 122.091 212.623 124.208C208.014 126.324 188.537 128.303 187.289 125.541C186.04 122.78 186.029 124.287 183.15 123.533C180.272 122.78 183.153 112.216 185.751 111.153C188.348 110.09 189.886 87.0173 189.886 87.0173L185.751 69.077L192.06 60.1961L193.779 56.1434Z" fill="#3F3D56"/>
<path d="M188.661 105.457L195.263 82.2513C195.539 81.2673 195.418 80.214 194.925 79.3186C194.432 78.4232 193.607 77.7576 192.627 77.4653C191.637 77.17 190.571 77.2799 189.662 77.7709C188.753 78.2619 188.077 79.0938 187.782 80.0835C187.762 80.1495 187.744 80.216 187.728 80.2829L181.609 104.598L177.269 119.216C176.575 119.294 175.922 119.582 175.399 120.044C174.875 120.505 174.506 121.117 174.342 121.795C174.178 122.473 174.227 123.185 174.482 123.835C174.737 124.484 175.186 125.04 175.767 125.425C176.349 125.811 177.035 126.008 177.733 125.991C178.43 125.973 179.105 125.741 179.667 125.326C180.228 124.911 180.647 124.333 180.869 123.671C181.09 123.01 181.102 122.296 180.904 121.627L188.661 105.457Z" fill="#FFB6B6"/>
<path d="M186.619 68.2961L194.649 70.8291C194.649 70.8291 199.871 78.4971 197.916 79.591C195.961 80.6849 195.227 80.4535 196.232 82.3832C197.236 84.3129 198.683 83.5599 197.236 84.313C195.788 85.066 188.938 90.1629 185.231 86.5742C181.524 82.9854 186.619 68.2961 186.619 68.2961Z" fill="#3F3D56"/>
<path d="M2.03716e-06 213.473C-0.000177012 213.532 0.0114483 213.592 0.0342136 213.647C0.0569789 213.703 0.0904381 213.753 0.132682 213.796C0.174926 213.838 0.225129 213.872 0.280419 213.895C0.33571 213.918 0.395007 213.93 0.454928 213.93H275.542C275.664 213.93 275.78 213.882 275.866 213.796C275.952 213.71 276 213.594 276 213.473C276 213.351 275.952 213.235 275.866 213.149C275.78 213.063 275.664 213.015 275.542 213.015H0.457651C0.397728 213.015 0.33836 213.026 0.282931 213.049C0.227502 213.072 0.177097 213.105 0.134601 213.148C0.0921041 213.19 0.0583466 213.24 0.0352523 213.295C0.0121579 213.351 0.000178034 213.41 2.03716e-06 213.47V213.473Z" fill="#CCCCCC"/>
<path d="M164.15 81.2362C168.486 81.2362 172 77.7219 172 73.3869C172 69.0518 168.486 65.5376 164.15 65.5376C159.815 65.5376 156.3 69.0518 156.3 73.3869C156.3 77.7219 159.815 81.2362 164.15 81.2362Z" fill="#415B48"/>
<path d="M163.079 77.4722C162.944 77.4722 162.81 77.4406 162.689 77.38C162.568 77.3194 162.462 77.2313 162.381 77.1229L160.239 74.2676C160.1 74.0824 160.041 73.8495 160.073 73.6203C160.106 73.3911 160.229 73.1842 160.414 73.0453C160.599 72.9064 160.832 72.8467 161.061 72.8795C161.291 72.9122 161.497 73.0347 161.636 73.22L163.037 75.0878L166.636 69.6905C166.764 69.4974 166.963 69.3629 167.19 69.3167C167.417 69.2704 167.653 69.3162 167.846 69.444C168.039 69.5717 168.174 69.771 168.22 69.9979C168.266 70.2248 168.22 70.4608 168.093 70.6539L168.089 70.6592L163.806 77.0834C163.728 77.1996 163.624 77.2955 163.502 77.3631C163.38 77.4307 163.243 77.468 163.104 77.4719L163.079 77.4722Z" fill="white"/>
</g>
<defs>
<clipPath id="clip0_59_834">
<rect width="276" height="213.93" fill="white"/>
</clipPath>
</defs>
</svg>
