<svg width="227" height="162" viewBox="0 0 227 162" fill="none" xmlns="http://www.w3.org/2000/svg">
<g clip-path="url(#clip0_59_878)">
<path d="M207.276 145.733C209.267 149.256 207.579 161.152 207.579 161.152C207.579 161.152 196.523 156.468 194.533 152.947C193.579 151.256 193.335 149.255 193.855 147.384C194.374 145.513 195.615 143.925 197.304 142.969C198.993 142.013 200.992 141.767 202.862 142.285C204.731 142.803 206.319 144.044 207.276 145.733V145.733Z" fill="#F1F1F1"/>
<path d="M207.739 161.137L207.504 161.187C205.242 150.43 197.343 143.135 197.263 143.063L197.425 142.885C197.505 142.958 205.46 150.302 207.739 161.137Z" fill="white"/>
<path d="M225.366 149.744C222.664 154.649 207.433 161.294 207.433 161.294C207.433 161.294 204.921 144.855 207.622 139.951C208.919 137.596 211.098 135.853 213.679 135.106C216.26 134.359 219.033 134.669 221.386 135.968C223.739 137.266 225.48 139.447 226.226 142.031C226.973 144.614 226.663 147.389 225.366 149.744Z" fill="#F1F1F1"/>
<path d="M207.567 161.472L207.338 161.231C218.36 150.754 221.213 136.142 221.241 135.996L221.567 136.057C221.54 136.204 218.669 150.919 207.567 161.472Z" fill="white"/>
<path d="M53.368 112.601C51.6249 112.595 49.8894 112.37 48.2022 111.932L47.8696 111.84L47.5612 111.685C36.4084 106.088 26.9993 98.6955 19.5954 89.7122C13.4665 82.2323 8.68815 73.7396 5.47518 64.616C1.63298 53.6929 -0.215501 42.1672 0.0179921 30.5892C0.0227035 30.3462 0.0266909 30.1585 0.0266909 30.0293C0.0266909 24.4011 3.14788 19.4628 7.97827 17.4483C11.6752 15.9065 45.2417 2.10677 47.667 1.1097C52.2344 -1.18097 57.107 0.730957 57.8868 1.0653C59.6358 1.78106 90.666 14.4844 97.3716 17.6803C104.282 20.9742 106.126 26.8915 106.126 29.8686C106.126 43.3468 103.794 55.9433 99.1945 67.3082C95.4799 76.5072 90.2151 84.9997 83.6296 92.4156C70.9234 106.728 58.2139 111.801 58.0913 111.846C56.5723 112.369 54.9742 112.625 53.368 112.601ZM50.3792 105.191C51.4811 105.438 54.0179 105.809 55.6714 105.205C57.772 104.438 68.4096 98.9169 78.3502 87.7201C92.0846 72.2499 99.0534 52.8026 99.0636 29.9183C99.0391 29.4547 98.7102 26.148 94.3352 24.0628C87.7596 20.9287 55.5064 7.72833 55.1813 7.59528L55.0922 7.55747C54.4163 7.27397 52.2652 6.67682 50.7824 7.45456L50.4855 7.59309C50.126 7.74089 14.4948 22.3888 10.6947 23.9736C8.03643 25.0822 7.0893 27.8287 7.0893 30.0293C7.0893 30.1901 7.08514 30.424 7.07926 30.7264C6.77556 46.3846 10.3957 84.9148 50.3792 105.191Z" fill="#3F3D56"/>
<path d="M49.1441 4.32354C49.1441 4.32354 13.1891 19.1043 9.33676 20.7109C5.48442 22.3175 3.55826 26.1734 3.55826 30.0293C3.55826 33.8851 0.669018 84.1989 49.1441 108.525C49.1441 108.525 53.5437 109.744 56.8817 108.525C60.2196 107.307 102.595 86.7425 102.595 29.8686C102.595 29.8686 102.595 24.0848 95.8536 20.8716C89.1121 17.6584 56.5177 4.32354 56.5177 4.32354C56.5177 4.32354 52.5149 2.55627 49.1441 4.32354Z" fill="#415B48"/>
<path opacity="0.1" d="M52.9965 15.8911V94.7414C52.9965 94.7414 16.7204 77.2635 17.0414 31.3145L52.9965 15.8911Z" fill="black"/>
<path d="M53.4696 72.562L41.9138 57.6901L48.634 52.4587L54.1056 59.5002L72.5897 39.9697L78.7708 45.8314L53.4696 72.562Z" fill="white"/>
<path d="M226.723 162H121.131C121.058 162 120.987 161.971 120.935 161.919C120.883 161.867 120.854 161.796 120.854 161.723C120.854 161.649 120.883 161.579 120.935 161.527C120.987 161.475 121.058 161.445 121.131 161.445H226.723C226.796 161.445 226.867 161.475 226.919 161.527C226.971 161.579 227 161.649 227 161.723C227 161.796 226.971 161.867 226.919 161.919C226.867 161.971 226.796 162 226.723 162Z" fill="#CACACA"/>
<path d="M151.655 157.627L155.941 157.627L157.98 141.08L151.654 141.08L151.655 157.627Z" fill="#FFB8B8"/>
<path d="M150.561 156.227L159.002 156.226H159.003C160.429 156.226 161.797 156.794 162.806 157.803C163.815 158.813 164.382 160.183 164.382 161.61V161.785L150.561 161.786L150.561 156.227Z" fill="#2F2E41"/>
<path d="M166.066 157.627L170.352 157.627L172.391 141.08L166.065 141.08L166.066 157.627Z" fill="#FFB8B8"/>
<path d="M164.973 156.227L173.414 156.226H173.414C174.841 156.226 176.209 156.794 177.218 157.803C178.226 158.813 178.793 160.183 178.793 161.61V161.785L164.973 161.786L164.973 156.227Z" fill="#2F2E41"/>
<path d="M158.391 99.5163L159.42 152.014L151.102 151.498L145.332 118.059L143.51 95.2605L158.391 99.5163Z" fill="#2F2E41"/>
<path d="M172.665 90.7008L173.831 152.846L164.131 152.569L162.036 115.627L158.391 102.252L143.51 95.2606L145.939 78.5415L167.806 78.2375L172.665 90.7008Z" fill="#2F2E41"/>
<path d="M155.942 35.072C160.05 35.072 163.38 31.7388 163.38 27.6271C163.38 23.5154 160.05 20.1823 155.942 20.1823C151.834 20.1823 148.504 23.5154 148.504 27.6271C148.504 31.7388 151.834 35.072 155.942 35.072Z" fill="#FFB8B8"/>
<path d="M162.111 38.2083L163.251 39.9359L166.288 48.4473L163.858 81.5813L149.584 81.8856L147.762 43.8874L151.579 39.1117L162.111 38.2083Z" fill="#CCCCCC"/>
<path d="M141.991 44.7993L139.562 44.4954C139.562 44.4954 138.954 44.7993 138.65 46.9272C138.347 49.0551 134.702 67.9021 134.702 67.9021L139.562 91.0048L145.028 83.7092L141.688 70.9419L145.028 58.1746L141.991 44.7993Z" fill="#2F2E41"/>
<path d="M172.969 44.4956H174.791L179.347 69.1179L175.095 88.2689L170.843 81.2774L172.058 73.6778L171.451 66.9903L169.325 63.0382L172.969 44.4956Z" fill="#2F2E41"/>
<path d="M160.337 27.627L158.985 27.2886C158.985 27.2886 157.97 21.5358 155.604 22.2126C153.237 22.8894 147.151 23.5662 147.151 20.859C147.151 18.1517 152.899 15.7829 156.28 16.1213C159.661 16.4597 163.979 17.5824 165.07 22.551C166.82 30.5159 161.46 32.5277 161.46 32.5277L161.549 32.2377C161.797 31.4325 161.815 30.574 161.601 29.7592C161.386 28.9444 160.949 28.2059 160.337 27.627V27.627Z" fill="#2F2E41"/>
<path d="M139.865 44.4954L149.584 40.5436L151.862 38.8717L158.695 69.118L161.884 37.9597L174.488 44.4954L170.236 65.1662L169.628 73.0698L171.451 79.4534C171.451 79.4534 177.828 84.0131 175.702 88.8769C173.577 93.7406 171.147 94.0446 171.147 94.0446C171.147 94.0446 160.821 84.3171 160.214 81.8853C159.606 79.4534 158.695 75.1976 158.695 75.1976C158.695 75.1976 153.532 94.6525 147.458 94.3486C141.384 94.0446 141.384 87.6609 141.384 87.6609L142.902 80.9733L145.332 73.9817L144.117 62.4303L139.865 44.4954Z" fill="#2F2E41"/>
</g>
<defs>
<clipPath id="clip0_59_878">
<rect width="227" height="162" fill="white"/>
</clipPath>
</defs>
</svg>
