<svg width="289" height="181" viewBox="0 0 289 181" fill="none" xmlns="http://www.w3.org/2000/svg">
<g clip-path="url(#clip0_72_930)">
<path d="M75.53 110.309C105.895 110.309 130.511 85.6155 130.511 55.1545C130.511 24.6935 105.895 0 75.53 0C45.1649 0 20.5492 24.6935 20.5492 55.1545C20.5492 85.6155 45.1649 110.309 75.53 110.309Z" fill="#F2F2F2"/>
<path d="M0 13.2429C0 33.3103 12.5496 49.5486 28.0585 49.5486L0 13.2429Z" fill="#2F2E41"/>
<path d="M28.0585 49.5486C28.0585 29.2557 42.0631 12.835 59.3701 12.835L28.0585 49.5486Z" fill="#415B48"/>
<path d="M10.1661 15.062C10.1661 34.1239 18.1687 49.5486 28.0585 49.5486L10.1661 15.062Z" fill="#415B48"/>
<path d="M28.0585 49.5486C28.0585 23.6188 44.2456 2.63672 64.2498 2.63672L28.0585 49.5486Z" fill="#2F2E41"/>
<path d="M22.1557 49.8046C22.1557 49.8046 26.1349 49.6817 27.3341 48.8251C28.5333 47.9684 33.455 46.9455 33.7525 48.3194C34.05 49.6933 39.7324 55.1524 35.24 55.1887C30.7475 55.2251 24.8015 54.4868 23.6046 53.7554C22.4077 53.024 22.1557 49.8046 22.1557 49.8046Z" fill="#A8A8A8"/>
<path opacity="0.2" d="M35.3202 54.7104C30.8277 54.7467 24.8817 54.0084 23.6848 53.277C22.7733 52.72 22.4101 50.7214 22.2885 49.7993C22.2044 49.8029 22.1557 49.8045 22.1557 49.8045C22.1557 49.8045 22.4077 53.0239 23.6046 53.7552C24.8016 54.4866 30.7475 55.225 35.24 55.1886C36.5368 55.1781 36.9847 54.7153 36.9601 54.0298C36.7799 54.444 36.2854 54.7026 35.3202 54.7104Z" fill="black"/>
<path d="M51.2661 116.508C77.9247 116.508 99.5357 113.559 99.5357 109.921C99.5357 106.283 77.9247 103.333 51.2661 103.333C24.6076 103.333 2.99661 106.283 2.99661 109.921C2.99661 113.559 24.6076 116.508 51.2661 116.508Z" fill="#3F3D56"/>
<path opacity="0.1" d="M51.2661 115.451C73.6479 115.451 91.7919 112.975 91.7919 109.921C91.7919 106.866 73.6479 104.39 51.2661 104.39C28.8844 104.39 10.7404 106.866 10.7404 109.921C10.7404 112.975 28.8844 115.451 51.2661 115.451Z" fill="black"/>
<path d="M215.95 181C256.295 181 289 176.537 289 171.031C289 165.525 256.295 161.062 215.95 161.062C175.606 161.062 142.901 165.525 142.901 171.031C142.901 176.537 175.606 181 215.95 181Z" fill="#3F3D56"/>
<path d="M80.1762 173.135C104.411 173.135 124.058 170.454 124.058 167.147C124.058 163.839 104.411 161.158 80.1762 161.158C55.9412 161.158 36.2948 163.839 36.2948 167.147C36.2948 170.454 55.9412 173.135 80.1762 173.135Z" fill="#3F3D56"/>
<path d="M119.411 162.097C142.643 168.053 187.298 154.329 192.203 138.792" stroke="#2F2E41" stroke-width="2" stroke-miterlimit="10"/>
<path d="M79.9181 67.0658C79.9181 67.0658 113.474 57.7439 115.539 87.7811C117.604 117.818 87.92 126.363 111.151 132.319" stroke="#2F2E41" stroke-width="2" stroke-miterlimit="10"/>
<path d="M47.4981 139.125C47.4981 139.125 57.5837 136.323 58.2043 145.351C58.825 154.379 49.9031 156.947 56.8854 158.737" stroke="#2F2E41" stroke-width="2" stroke-miterlimit="10"/>
<path d="M201.004 145.846L198.97 158.87C198.97 158.87 188.96 164.204 195.998 164.361C203.037 164.518 236.197 164.361 236.197 164.361C236.197 164.361 242.61 164.361 232.443 158.713L230.41 145.062L201.004 145.846Z" fill="#2F2E41"/>
<path opacity="0.1" d="M194.583 164.22C196.181 162.793 198.97 161.306 198.97 161.306L201.004 148.283L230.41 148.311L232.443 161.15C234.814 162.467 236.283 163.477 237.142 164.251C238.448 163.952 239.875 162.842 232.443 158.713L230.41 145.062L201.004 145.846L198.97 158.87C198.97 158.87 190.559 163.353 194.583 164.22Z" fill="black"/>
<path d="M277.134 55.074H153.967C151.394 55.074 149.308 57.166 149.308 59.7467V142.978C149.308 145.559 151.394 147.651 153.967 147.651H277.134C279.707 147.651 281.792 145.559 281.792 142.978V59.7467C281.792 57.166 279.707 55.074 277.134 55.074Z" fill="#2F2E41"/>
<path d="M277.334 60.0166H153.766V129.371H277.334V60.0166Z" fill="#415B48"/>
<path d="M215.55 58.6043C215.982 58.6043 216.332 58.253 216.332 57.8197C216.332 57.3864 215.982 57.0352 215.55 57.0352C215.118 57.0352 214.768 57.3864 214.768 57.8197C214.768 58.253 215.118 58.6043 215.55 58.6043Z" fill="#F2F2F2"/>
<path d="M281.792 134.862V142.978C281.792 143.591 281.672 144.199 281.438 144.766C281.204 145.333 280.861 145.848 280.428 146.282C279.996 146.716 279.482 147.06 278.917 147.295C278.352 147.53 277.746 147.651 277.134 147.65H153.967C153.355 147.651 152.749 147.53 152.184 147.295C151.619 147.06 151.105 146.716 150.673 146.282C150.24 145.848 149.897 145.333 149.663 144.766C149.429 144.199 149.308 143.591 149.308 142.978V134.862H281.792Z" fill="#2F2E41"/>
<path d="M250.118 172.835V174.404H165.967V173.148L166.083 172.835L168.157 167.186H248.398L250.118 172.835Z" fill="#2F2E41"/>
<path d="M282.502 171.298C282.349 171.956 281.77 172.649 280.463 173.305C275.77 175.659 266.229 172.678 266.229 172.678C266.229 172.678 258.878 171.422 258.878 168.127C259.084 167.985 259.299 167.857 259.522 167.743C261.495 166.696 268.036 164.112 279.634 167.852C280.489 168.121 281.252 168.623 281.839 169.301C282.309 169.853 282.678 170.553 282.502 171.298Z" fill="#2F2E41"/>
<path opacity="0.1" d="M282.502 171.298C276.759 173.506 271.639 173.671 266.385 170.01C263.736 168.165 261.329 167.708 259.522 167.743C261.495 166.696 268.036 164.112 279.634 167.852C280.489 168.121 281.252 168.623 281.839 169.301C282.309 169.853 282.678 170.553 282.502 171.298Z" fill="black"/>
<path d="M275.301 170.01C276.424 170.01 277.335 169.729 277.335 169.383C277.335 169.036 276.424 168.755 275.301 168.755C274.178 168.755 273.268 169.036 273.268 169.383C273.268 169.729 274.178 170.01 275.301 170.01Z" fill="#F2F2F2"/>
<path d="M215.55 144.277C217.192 144.277 218.522 142.942 218.522 141.296C218.522 139.649 217.192 138.314 215.55 138.314C213.909 138.314 212.578 139.649 212.578 141.296C212.578 142.942 213.909 144.277 215.55 144.277Z" fill="#F2F2F2"/>
<path opacity="0.1" d="M250.118 172.834V174.404H165.967V173.148L166.083 172.834H250.118Z" fill="black"/>
<path d="M81.725 41.1716H28.0348V103.835H81.725V41.1716Z" fill="#2F2E41"/>
<path d="M87.1456 34.957H22.6142V57.226H87.1456V34.957Z" fill="#3F3D56"/>
<path d="M87.1456 61.3691H22.6142V83.6381H87.1456V61.3691Z" fill="#3F3D56"/>
<path d="M87.1456 87.781H22.6142V110.05H87.1456V87.781Z" fill="#3F3D56"/>
<path opacity="0.4" d="M74.2393 38.8413H70.1093V42.9844H74.2393V38.8413Z" fill="#415B48"/>
<path opacity="0.8" d="M80.1762 38.8413H76.0462V42.9844H80.1762V38.8413Z" fill="#415B48"/>
<path d="M86.1131 38.8413H81.9831V42.9844H86.1131V38.8413Z" fill="#415B48"/>
<path opacity="0.4" d="M74.2393 64.9944H70.1093V69.1374H74.2393V64.9944Z" fill="#415B48"/>
<path opacity="0.8" d="M80.1762 64.9944H76.0462V69.1374H80.1762V64.9944Z" fill="#415B48"/>
<path d="M86.1131 64.9944H81.9831V69.1374H86.1131V64.9944Z" fill="#415B48"/>
<path opacity="0.4" d="M74.2393 91.1475H70.1093V95.2905H74.2393V91.1475Z" fill="#415B48"/>
<path opacity="0.8" d="M80.1762 91.1475H76.0462V95.2905H80.1762V91.1475Z" fill="#415B48"/>
<path d="M86.1131 91.1475H81.9831V95.2905H86.1131V91.1475Z" fill="#415B48"/>
<path d="M81.725 159.767C92.9871 159.767 102.117 150.608 102.117 139.31C102.117 128.013 92.9871 118.854 81.725 118.854C70.4628 118.854 61.333 128.013 61.333 139.31C61.333 150.608 70.4628 159.767 81.725 159.767Z" fill="#2F2E41"/>
<path d="M78.6275 155.365H72.4324V166.499H78.6275V155.365Z" fill="#2F2E41"/>
<path d="M91.0175 155.365H84.8225V166.499H91.0175V155.365Z" fill="#2F2E41"/>
<path d="M77.5949 168.571C80.4461 168.571 82.7575 167.701 82.7575 166.629C82.7575 165.556 80.4461 164.687 77.5949 164.687C74.7438 164.687 72.4324 165.556 72.4324 166.629C72.4324 167.701 74.7438 168.571 77.5949 168.571Z" fill="#2F2E41"/>
<path d="M89.985 168.312C92.8362 168.312 95.1475 167.442 95.1475 166.37C95.1475 165.297 92.8362 164.428 89.985 164.428C87.1338 164.428 84.8225 165.297 84.8225 166.37C84.8225 167.442 87.1338 168.312 89.985 168.312Z" fill="#2F2E41"/>
<path d="M82.2412 141.123C86.0903 141.123 89.2106 137.993 89.2106 134.132C89.2106 130.27 86.0903 127.14 82.2412 127.14C78.3921 127.14 75.2718 130.27 75.2718 134.132C75.2718 137.993 78.3921 141.123 82.2412 141.123Z" fill="white"/>
<path d="M82.2412 136.462C83.5243 136.462 84.5644 135.419 84.5644 134.131C84.5644 132.844 83.5243 131.801 82.2412 131.801C80.9582 131.801 79.9181 132.844 79.9181 134.131C79.9181 135.419 80.9582 136.462 82.2412 136.462Z" fill="#3F3D56"/>
<path d="M61.9441 120.287C60.2976 112.889 65.5609 105.415 73.7002 103.592C81.8394 101.768 89.7724 106.287 91.419 113.684C93.0655 121.082 87.6714 123.81 79.5321 125.633C71.3928 127.456 63.5907 127.684 61.9441 120.287Z" fill="#415B48"/>
<path d="M100.851 135.23C106.027 133.008 109.66 129.884 108.965 128.254C108.269 126.624 103.509 127.104 98.3317 129.326C93.1549 131.549 89.5221 134.673 90.2177 136.303C90.9133 137.933 95.6738 137.453 100.851 135.23Z" fill="#2F2E41"/>
<path d="M62.648 148.954C67.8249 146.732 71.4576 143.608 70.7621 141.978C70.0665 140.348 65.306 140.828 60.1291 143.051C54.9523 145.273 51.3195 148.397 52.0151 150.027C52.7107 151.657 57.4712 151.177 62.648 148.954Z" fill="#2F2E41"/>
<path d="M93.5988 145.266C93.5988 147.268 88.4598 151.222 82.7575 151.222C77.0551 151.222 71.6581 147.527 71.6581 145.525C71.6581 143.523 77.0551 143.971 82.7575 143.971C88.4598 143.971 93.5988 143.264 93.5988 145.266Z" fill="white"/>
</g>
<defs>
<clipPath id="clip0_72_930">
<rect width="289" height="181" fill="white"/>
</clipPath>
</defs>
</svg>
