<svg width="282" height="209" viewBox="0 0 282 209" fill="none" xmlns="http://www.w3.org/2000/svg">
<g clip-path="url(#clip0_59_743)">
<path d="M200.166 153.289H48.305C46.9519 153.288 45.6547 152.748 44.6979 151.789C43.7411 150.83 43.2029 149.529 43.2013 148.173V24.2006C43.2029 22.844 43.7411 21.5434 44.6979 20.5842C45.6547 19.6249 46.9519 19.0853 48.305 19.0837H200.166C201.519 19.0853 202.816 19.6249 203.773 20.5842C204.73 21.5434 205.268 22.844 205.27 24.2006V148.173C205.268 149.529 204.73 150.83 203.773 151.789C202.816 152.748 201.519 153.288 200.166 153.289Z" fill="#E6E6E6"/>
<path d="M51.7483 22.7258C50.4449 22.7273 49.1953 23.2471 48.2737 24.1712C47.352 25.0952 46.8336 26.348 46.8322 27.6548V144.721C46.8337 146.028 47.3521 147.281 48.2738 148.205C49.1954 149.129 50.445 149.648 51.7483 149.65H155.691C167.873 149.636 179.552 144.778 188.166 136.142C196.78 127.506 201.626 115.797 201.64 103.584V27.6548C201.638 26.348 201.12 25.0952 200.198 24.1712C199.276 23.2471 198.027 22.7274 196.723 22.7258L51.7483 22.7258Z" fill="white"/>
<path d="M172.474 75.3758H144.938C144.364 75.3752 143.813 75.1462 143.407 74.739C143.001 74.3319 142.772 73.7799 142.772 73.2041V59.4637C142.772 58.8879 143.001 58.3359 143.407 57.9288C143.813 57.5216 144.364 57.2926 144.938 57.292H172.474C173.048 57.2926 173.599 57.5216 174.005 57.9288C174.411 58.3359 174.639 58.8879 174.64 59.4637C176.344 64.3261 176.586 68.9463 174.64 73.2041C174.639 73.7799 174.411 74.3319 174.005 74.739C173.599 75.1462 173.048 75.3752 172.474 75.3758Z" fill="#E6E6E6"/>
<path d="M169.212 74.0479H145.817C145.329 74.0474 144.861 73.8528 144.516 73.5069C144.171 73.161 143.977 72.692 143.977 72.2028V60.5289C143.977 60.0398 144.171 59.5708 144.516 59.2248C144.861 58.8789 145.329 58.6844 145.817 58.6838H169.212C169.7 58.6844 170.167 58.8789 170.512 59.2248C170.857 59.5708 171.051 60.0397 171.052 60.5289C172.631 64.6864 172.885 68.6206 171.052 72.2028C171.051 72.692 170.857 73.161 170.512 73.5069C170.167 73.8528 169.7 74.0474 169.212 74.0479Z" fill="white"/>
<path d="M167.95 82.5736H149.401C148.855 82.5744 148.331 82.3579 147.945 81.9717C147.558 81.5855 147.341 81.0612 147.34 80.5141C147.339 79.9671 147.554 79.442 147.939 79.0544C148.324 78.6667 148.847 78.4483 149.393 78.447H167.95C168.495 78.4481 169.018 78.6659 169.403 79.0527C169.788 79.4396 170.004 79.9638 170.004 80.5103C170.004 81.0568 169.788 81.5811 169.403 81.9679C169.018 82.3547 168.495 82.5726 167.95 82.5736Z" fill="#E6E6E6"/>
<path d="M155.478 61.8359C155.265 61.8367 155.06 61.9221 154.91 62.0735C154.759 62.2249 154.674 62.4299 154.673 62.6439V71.3896C154.673 71.5308 154.71 71.6696 154.781 71.792C154.851 71.9144 154.952 72.0162 155.074 72.0871C155.196 72.1581 155.334 72.1957 155.475 72.1963C155.616 72.1969 155.754 72.1603 155.876 72.0904L163.576 67.6888C163.7 67.6182 163.803 67.5159 163.874 67.3924C163.945 67.2689 163.983 67.1286 163.983 66.9859C163.982 66.8431 163.944 66.703 163.872 66.5799C163.8 66.4568 163.696 66.3551 163.572 66.2852L155.873 61.9406C155.753 61.8722 155.617 61.8361 155.478 61.8359Z" fill="#E6E6E6"/>
<path d="M267.81 192.267C267.386 191.726 266.809 191.324 266.155 191.115C265.5 190.905 264.798 190.897 264.139 191.091L263.995 191.134L262.702 196.194C262.509 195.44 262.094 193.737 261.833 192.071L261.81 191.933L261.682 191.989C260.33 192.588 259.06 193.356 257.9 194.274C255.846 195.926 254.176 198.007 253.004 200.372C251.833 202.736 251.19 205.328 251.119 207.968L251.116 208.065L251.114 208.126L251.285 208.065L254.959 206.748C256.585 206.892 258.223 206.67 259.753 206.098C261.283 205.526 262.666 204.619 263.801 203.442C265.286 201.873 266.304 199.854 267.288 197.901C267.576 197.332 267.871 196.745 268.173 196.18C268.51 195.566 268.655 194.865 268.591 194.168C268.526 193.47 268.254 192.808 267.81 192.267Z" fill="#F2F2F2"/>
<path d="M174 63.221C174.074 63.6041 174.231 63.9663 174.459 64.2821C174.687 64.5979 174.982 64.8597 175.322 65.049C175.663 65.2383 176.04 65.3504 176.428 65.3776C176.817 65.4048 177.206 65.3463 177.569 65.2062L188.548 78.0109L189.938 73.2839L179.053 61.5691C178.778 60.9729 178.295 60.4986 177.694 60.2361C177.094 59.9735 176.418 59.941 175.795 60.1446C175.172 60.3482 174.645 60.7739 174.314 61.3409C173.984 61.9079 173.872 62.5768 174 63.221L174 63.221Z" fill="#FFB8B8"/>
<path d="M218.247 205.003H214.614L212.886 190.953H218.248L218.247 205.003Z" fill="#FFB6B6"/>
<path d="M218.151 203.814L214.271 202.232L214.16 202.186L212.018 203.814C210.809 203.814 209.649 204.296 208.794 205.153C207.939 206.01 207.459 207.173 207.458 208.385V208.534H219.173V203.814H218.151Z" fill="#2F2E41"/>
<path d="M244.166 205.003H240.533L238.804 190.953H244.167L244.166 205.003Z" fill="#FFB6B6"/>
<path d="M244.069 203.814L240.19 202.232L240.079 202.186L237.937 203.814C236.728 203.814 235.568 204.296 234.713 205.153C233.858 206.01 233.377 207.173 233.377 208.385V208.534H245.092V203.814H244.069Z" fill="#2F2E41"/>
<path d="M235.591 121.102C235.591 121.102 240.148 125.855 240.148 129.761C240.148 133.666 239.009 139.029 240.148 140.202C241.288 141.376 242.712 142.804 241.003 144.517C239.294 146.23 238.439 147.087 239.579 148.229C240.718 149.372 240.148 169.36 240.148 169.36L246.13 196.202H238.594L229.04 169.36L226.477 147.087L218.187 168.504L219.102 196.433L211.224 196.202L207.964 166.505C207.964 166.505 212.805 138.255 211.951 137.531C211.097 136.807 211.951 135.346 211.951 135.346L214.23 124.528L235.591 121.102Z" fill="#2F2E41"/>
<path d="M226.669 87.4009C226.669 87.4009 228.218 81.2792 221.079 79.5241C213.941 77.7689 193.534 75.514 193.534 75.514L183.221 64.5427L179.727 69.6306L191.288 84.034L218.681 89.6751L226.669 87.4009Z" fill="#3F3D56"/>
<path d="M181.425 69.2556C181.746 68.8396 181.996 68.3741 182.167 67.8774L183.646 64.234L183.262 64.2179C182.731 64.1177 182.185 64.1312 181.659 64.2575C181.133 64.3838 180.64 64.62 180.212 64.9507C179.784 65.2814 179.43 65.6991 179.174 66.1764C178.918 66.6538 178.765 67.1799 178.726 67.7205C178.678 68.1881 178.762 68.6599 178.968 69.082C179.073 69.2912 179.226 69.4725 179.415 69.6111C179.603 69.7496 179.822 69.8415 180.052 69.8791C180.314 69.8931 180.576 69.8438 180.815 69.7353C181.054 69.6268 181.263 69.4623 181.425 69.2556Z" fill="#E6E6E6"/>
<path d="M212.775 125.987L211.921 132.197C211.921 132.197 213.63 134.037 214.484 133.807C215.339 133.577 218.472 132.238 218.472 132.238C218.472 132.238 222.174 134.267 224.168 134.497C226.162 134.727 236.7 133.347 236.985 132.657C237.27 131.967 240.58 129.266 240.58 129.266L239.264 121.387L212.775 125.987Z" fill="#E6E6E6"/>
<path d="M240.525 104.263C240.525 104.263 239.802 110.251 240.372 110.802C240.941 111.35 239.802 114.82 238.663 117.104C237.523 119.389 239.517 119.674 239.517 121.387C239.517 123.101 240.372 129.383 240.372 129.383C240.372 129.383 231.542 129.954 230.118 128.526C228.694 127.099 226.415 128.241 223.282 131.382C220.149 134.523 213.345 131.953 211.921 130.525C210.497 129.097 213.029 123.957 213.883 122.961C214.738 121.964 213.06 123.118 212.206 119.96C211.351 116.801 213.029 117.104 214.453 115.676C215.877 114.249 214.453 111.679 213.313 109.109C212.174 106.539 213.029 87.4067 213.029 82.8378C213.029 78.269 219.295 77.6979 219.295 77.6979L221.776 74.5711L223.598 72.2724L227.17 72.1296L227.264 72.1267L230.719 71.9868L232.396 73.9457L236.099 78.269L240.371 79.1256C243.789 80.2679 242.935 87.4067 242.935 87.4067L240.525 104.263Z" fill="#3F3D56"/>
<path d="M226.994 70.8909C231.037 70.8909 234.315 67.6046 234.315 63.5507C234.315 59.4968 231.037 56.2104 226.994 56.2104C222.95 56.2104 219.672 59.4968 219.672 63.5507C219.672 67.6046 222.95 70.8909 226.994 70.8909Z" fill="#FFB6B6"/>
<path d="M235.483 61.0814C233.469 59.8432 233.727 56.6058 231.787 55.4753C230.822 54.918 229.738 54.6025 228.626 54.5557C227.514 54.5088 226.407 54.7321 225.399 55.2064C224.033 54.6202 222.395 55.088 221.302 56.1465C220.209 57.205 219.617 58.7665 219.443 60.3369C219.317 61.9147 219.43 63.5025 219.778 65.0464C219.886 64.4261 219.995 63.8058 220.103 63.1855L225.875 61.9208C225.364 62.3811 224.853 62.8413 224.342 63.3016C226.956 63.8982 229.699 63.4682 232.007 62.0999C234.519 63.2292 234.064 65.7654 231.858 69.1313C232.713 70.559 237.777 62.4922 235.483 61.0814Z" fill="#2F2E41"/>
<path d="M232.397 73.9457C232.38 73.959 232.363 73.9713 232.345 73.9828C231.742 74.3435 231.051 74.5312 230.349 74.5253C229.429 74.6022 228.516 74.3152 227.805 73.7258C227.432 73.3717 225.948 74.1198 224.974 74.5339C223.952 74.9584 222.807 74.9717 221.776 74.571L223.598 72.2723L226.603 71.6045H227.353L230.719 71.9868L232.397 73.9457Z" fill="#E6E6E6"/>
<path d="M281.556 208.884L179.643 209C179.584 209 179.526 208.989 179.472 208.967C179.417 208.945 179.368 208.912 179.326 208.87C179.285 208.829 179.252 208.78 179.229 208.726C179.206 208.672 179.194 208.613 179.194 208.555C179.194 208.496 179.205 208.437 179.227 208.383C179.249 208.329 179.282 208.279 179.323 208.237C179.364 208.196 179.413 208.162 179.467 208.14C179.522 208.117 179.58 208.105 179.638 208.105H179.643L281.556 207.989C281.674 207.99 281.787 208.037 281.87 208.121C281.953 208.205 282 208.318 282 208.437C282 208.555 281.953 208.669 281.87 208.752C281.787 208.836 281.674 208.884 281.556 208.884Z" fill="#CACACA"/>
<path d="M159.529 58.5391H158.779V4.75659H188.277V5.50857H159.529V58.5391Z" fill="#3F3D56"/>
<path d="M211.219 0H191.342C190.049 0 188.809 0.51497 187.895 1.43162C186.981 2.34827 186.467 3.59151 186.467 4.88785C186.467 6.18419 186.981 7.42743 187.895 8.34408C188.809 9.26073 190.049 9.7757 191.342 9.7757H211.219C212.512 9.7757 213.752 9.26073 214.666 8.34408C215.58 7.42743 216.094 6.18419 216.094 4.88785C216.094 3.59151 215.58 2.34827 214.666 1.43162C213.752 0.51497 212.512 0 211.219 0Z" fill="#415B48"/>
<path d="M158.719 63.4594C161.193 63.4594 163.199 61.4484 163.199 58.9678C163.199 56.4872 161.193 54.4763 158.719 54.4763C156.245 54.4763 154.239 56.4872 154.239 58.9678C154.239 61.4484 156.245 63.4594 158.719 63.4594Z" fill="#415B48"/>
<path d="M104.734 75.8452L124.387 71.2855L130.029 69.9767C130.734 69.813 130.441 68.7238 129.735 68.8876L110.082 73.4472L104.44 74.7561C103.735 74.9198 104.028 76.009 104.734 75.8452H104.734Z" fill="#F2F2F2"/>
<path d="M125.029 63.9707L135.55 68.823C135.909 68.9475 136.245 69.13 136.546 69.3634C136.836 69.6486 136.625 69.9229 136.388 70.1713C135.68 70.8342 134.932 71.4531 134.148 72.0244L129.666 75.678C129.103 76.1367 129.897 76.937 130.454 76.4826L134.359 73.3005L136.311 71.7094C136.864 71.2586 137.537 70.7986 137.759 70.0805C138.226 68.5718 136.383 67.972 135.359 67.4997L130.777 65.3866L125.602 62.9996C124.949 62.6987 124.371 63.6676 125.029 63.9707Z" fill="#F2F2F2"/>
<path d="M270.221 100.909C268.346 99.635 266.069 99.1617 263.843 99.001C261.314 98.863 258.778 98.8659 256.248 99.0099C253.621 99.1143 250.999 99.3049 248.382 99.5818C245.768 99.8591 243.166 100.222 240.575 100.672C238.255 101.034 235.959 101.538 233.7 102.18C231.562 102.774 229.548 103.749 227.755 105.059C226.182 106.245 224.971 107.851 224.262 109.693C223.566 111.42 223.447 113.327 223.925 115.128C224.179 116.002 224.615 116.813 225.203 117.508C225.883 118.27 226.688 118.909 227.583 119.398C229.443 120.462 231.55 121.102 233.231 122.465C233.675 122.822 234.079 123.225 234.437 123.667C234.68 124.009 235.017 124.275 235.406 124.431C235.775 124.56 236.173 124.577 236.552 124.479C236.93 124.382 237.271 124.174 237.532 123.882C237.868 123.42 238.149 122.92 238.368 122.391L239.255 120.675C239.315 120.525 239.389 120.381 239.477 120.246C239.544 120.166 239.425 120.248 239.447 120.227C239.46 120.215 239.486 120.216 239.5 120.206C239.573 120.17 239.65 120.14 239.729 120.118C240.55 119.805 241.374 119.501 242.202 119.207C245.258 118.115 248.351 117.108 251.493 116.293C253.11 115.858 254.749 115.514 256.404 115.263C258.548 114.957 260.724 114.992 262.877 114.783C265.195 114.558 267.588 114.087 269.576 112.807C271.22 111.806 272.486 110.286 273.177 108.486C273.476 107.628 273.579 106.714 273.477 105.811C273.219 103.768 271.887 102.042 270.221 100.909Z" fill="#E6E6E6"/>
<path d="M266.384 102.057C264.691 100.906 262.633 100.478 260.622 100.333C258.335 100.208 256.044 100.211 253.758 100.341C251.384 100.435 249.014 100.608 246.649 100.858C244.288 101.108 241.936 101.437 239.594 101.843C237.498 102.17 235.423 102.625 233.382 103.206C231.45 103.742 229.63 104.623 228.01 105.807C226.588 106.879 225.494 108.33 224.853 109.995C224.224 111.556 224.117 113.279 224.548 114.906C224.778 115.697 225.171 116.43 225.703 117.057C226.317 117.746 227.045 118.324 227.854 118.765C229.535 119.727 231.438 120.305 232.958 121.537C233.359 121.859 233.724 122.223 234.048 122.623C234.268 122.932 234.572 123.172 234.923 123.313C235.256 123.43 235.617 123.445 235.959 123.357C236.301 123.269 236.609 123.081 236.844 122.818C237.149 122.4 237.402 121.948 237.6 121.47L238.402 119.919C238.456 119.783 238.523 119.654 238.602 119.531C238.662 119.46 238.555 119.533 238.576 119.514C238.587 119.504 238.61 119.504 238.623 119.496C238.689 119.463 238.759 119.436 238.83 119.416C239.572 119.133 240.317 118.858 241.065 118.592C243.827 117.606 246.622 116.696 249.461 115.959C250.922 115.566 252.404 115.256 253.899 115.028C255.836 114.752 257.803 114.784 259.748 114.595C261.843 114.391 264.005 113.966 265.802 112.809C267.287 111.904 268.432 110.531 269.056 108.905C269.326 108.129 269.419 107.303 269.327 106.487C269.094 104.64 267.891 103.081 266.384 102.057Z" fill="white"/>
<path d="M262.837 104.136L235.235 109.24C235.156 109.255 235.075 109.255 234.996 109.238C234.917 109.222 234.843 109.19 234.776 109.145C234.71 109.099 234.653 109.041 234.609 108.974C234.565 108.906 234.535 108.831 234.52 108.752C234.505 108.672 234.506 108.591 234.523 108.512C234.539 108.433 234.571 108.359 234.617 108.292C234.662 108.226 234.72 108.169 234.788 108.125C234.855 108.081 234.93 108.051 235.009 108.037L235.013 108.036L262.615 102.932C262.694 102.917 262.775 102.919 262.854 102.935C262.932 102.952 263.006 102.984 263.072 103.03C263.138 103.075 263.195 103.134 263.238 103.201C263.282 103.269 263.312 103.344 263.327 103.423C263.341 103.502 263.34 103.583 263.323 103.662C263.307 103.741 263.275 103.815 263.229 103.881C263.184 103.948 263.125 104.004 263.058 104.048C262.991 104.092 262.916 104.122 262.837 104.136V104.136Z" fill="#E6E6E6"/>
<path d="M263.517 107.832L235.914 112.936C235.836 112.951 235.754 112.95 235.676 112.934C235.597 112.918 235.522 112.886 235.456 112.84C235.39 112.795 235.333 112.737 235.289 112.669C235.245 112.602 235.215 112.527 235.2 112.447C235.185 112.368 235.186 112.287 235.203 112.208C235.219 112.129 235.251 112.055 235.297 111.988C235.342 111.922 235.4 111.865 235.468 111.821C235.535 111.777 235.61 111.747 235.689 111.732L235.693 111.732L263.295 106.628C263.374 106.613 263.455 106.614 263.533 106.631C263.612 106.648 263.686 106.68 263.752 106.726C263.818 106.771 263.875 106.829 263.918 106.897C263.962 106.964 263.992 107.04 264.007 107.119C264.021 107.198 264.02 107.279 264.003 107.358C263.986 107.436 263.954 107.511 263.909 107.577C263.863 107.643 263.805 107.7 263.738 107.744C263.671 107.787 263.596 107.817 263.517 107.832Z" fill="#E6E6E6"/>
<path d="M239.811 116.037L236.594 116.632C236.435 116.661 236.271 116.625 236.139 116.533C236.006 116.441 235.914 116.3 235.885 116.14C235.856 115.981 235.891 115.817 235.982 115.683C236.074 115.549 236.214 115.458 236.373 115.428L239.589 114.833C239.749 114.804 239.913 114.839 240.046 114.931C240.179 115.024 240.27 115.165 240.299 115.324C240.329 115.484 240.294 115.648 240.202 115.782C240.111 115.915 239.97 116.007 239.811 116.037Z" fill="#E6E6E6"/>
<path d="M237.481 131.401C238.89 131.141 239.823 129.784 239.563 128.37C239.303 126.957 237.949 126.022 236.539 126.283C235.129 126.544 234.197 127.901 234.457 129.314C234.717 130.728 236.071 131.662 237.481 131.401Z" fill="#D1D3D4"/>
<path d="M94.6341 74.6798H71.0577C69.9632 74.6785 68.914 74.242 68.14 73.4661C67.3661 72.6902 66.9308 71.6382 66.9295 70.5409V54.9628C66.9308 53.8655 67.3661 52.8135 68.14 52.0376C68.914 51.2617 69.9632 50.8253 71.0577 50.824H94.6341C95.7286 50.8253 96.7778 51.2617 97.5517 52.0376C98.3257 52.8135 98.761 53.8655 98.7623 54.9628V70.541C98.761 71.6383 98.3256 72.6902 97.5517 73.4661C96.7778 74.242 95.7286 74.6785 94.6341 74.6798Z" fill="#E6E6E6"/>
<path d="M92.0433 73.8404H71.5244C70.5719 73.8393 69.6587 73.4595 68.9851 72.7842C68.3116 72.1089 67.9327 71.1934 67.9316 70.2384V56.6804C67.9327 55.7255 68.3116 54.8099 68.9851 54.1346C69.6587 53.4594 70.5719 53.0795 71.5244 53.0784H92.0433C92.9958 53.0795 93.9091 53.4594 94.5826 54.1346C95.2561 54.8099 95.635 55.7255 95.6362 56.6804V70.2384C95.635 71.1934 95.2561 72.1089 94.5826 72.7842C93.909 73.4595 92.9958 73.8393 92.0433 73.8404Z" fill="white"/>
<path d="M97.9549 88.7147H67.7033C67.5163 88.7143 67.3372 88.6395 67.2052 88.5068C67.0732 88.3742 66.999 88.1944 66.999 88.007C66.999 87.8196 67.0732 87.6398 67.2052 87.5072C67.3372 87.3745 67.5163 87.2997 67.7033 87.2993H97.9549C98.1418 87.2997 98.3209 87.3745 98.453 87.5072C98.585 87.6398 98.6591 87.8196 98.6591 88.007C98.6591 88.1944 98.585 88.3742 98.453 88.5068C98.3209 88.6395 98.1418 88.7143 97.9549 88.7147Z" fill="#E6E6E6"/>
<path d="M97.9549 84.6707H67.7033C67.5163 84.6703 67.3372 84.5956 67.2052 84.4629C67.0732 84.3302 66.999 84.1505 66.999 83.9631C66.999 83.7756 67.0732 83.5959 67.2052 83.4632C67.3372 83.3306 67.5163 83.2558 67.7033 83.2554H97.9549C98.1418 83.2558 98.3209 83.3306 98.453 83.4632C98.585 83.5959 98.6591 83.7756 98.6591 83.9631C98.6591 84.1505 98.585 84.3302 98.453 84.4629C98.3209 84.5956 98.1418 84.6703 97.9549 84.6707Z" fill="#E6E6E6"/>
<path d="M97.9549 92.7586H67.7032C67.516 92.7586 67.3365 92.6841 67.2041 92.5514C67.0717 92.4186 66.9974 92.2386 66.9974 92.0509C66.9974 91.8633 67.0717 91.6833 67.2041 91.5505C67.3365 91.4178 67.516 91.3433 67.7032 91.3433H97.9549C98.1421 91.3433 98.3216 91.4178 98.454 91.5505C98.5864 91.6833 98.6607 91.8633 98.6607 92.0509C98.6607 92.2386 98.5864 92.4186 98.454 92.5514C98.3216 92.6841 98.1421 92.7586 97.9549 92.7586Z" fill="#E6E6E6"/>
<path d="M97.9549 96.8026H67.7032C67.516 96.8026 67.3365 96.728 67.2041 96.5953C67.0717 96.4626 66.9974 96.2826 66.9974 96.0949C66.9974 95.9072 67.0717 95.7272 67.2041 95.5945C67.3365 95.4618 67.516 95.3872 67.7032 95.3872H97.9549C98.1421 95.3872 98.3216 95.4618 98.454 95.5945C98.5864 95.7272 98.6607 95.9072 98.6607 96.0949C98.6607 96.2826 98.5864 96.4626 98.454 96.5953C98.3216 96.728 98.1421 96.8026 97.9549 96.8026Z" fill="#E6E6E6"/>
<path d="M97.9549 100.847H67.7032C67.516 100.847 67.3365 100.772 67.2041 100.639C67.0717 100.507 66.9974 100.327 66.9974 100.139C66.9974 99.9511 67.0717 99.7712 67.2041 99.6384C67.3365 99.5057 67.516 99.4312 67.7032 99.4312H97.9549C98.1421 99.4312 98.3216 99.5057 98.454 99.6384C98.5864 99.7712 98.6607 99.9511 98.6607 100.139C98.6607 100.327 98.5864 100.507 98.454 100.639C98.3216 100.772 98.1421 100.847 97.9549 100.847Z" fill="#E6E6E6"/>
<path d="M97.9549 104.89H67.7033C67.5163 104.89 67.3372 104.815 67.2052 104.683C67.0732 104.55 66.999 104.37 66.999 104.183C66.999 103.995 67.0732 103.816 67.2052 103.683C67.3372 103.55 67.5163 103.476 67.7033 103.475H97.9549C98.1418 103.476 98.3209 103.55 98.453 103.683C98.585 103.816 98.6591 103.995 98.6591 104.183C98.6591 104.37 98.585 104.55 98.453 104.683C98.3209 104.815 98.1418 104.89 97.9549 104.89Z" fill="#E6E6E6"/>
<path d="M81.3166 95.6162H82.0667V124.583H27.8167V123.832H81.3166V95.6162Z" fill="#3F3D56"/>
<path d="M4.87532 129.34H24.7516C26.0446 129.34 27.2847 128.825 28.199 127.908C29.1133 126.992 29.627 125.748 29.627 124.452C29.627 123.156 29.1133 121.912 28.199 120.996C27.2847 120.079 26.0446 119.564 24.7516 119.564H4.87532C3.5823 119.564 2.34225 120.079 1.42795 120.996C0.51365 121.912 0 123.156 0 124.452C0 125.748 0.51365 126.992 1.42795 127.908C2.34225 128.825 3.5823 129.34 4.87532 129.34Z" fill="#415B48"/>
<path d="M82.2139 97.799C84.6881 97.799 86.6939 95.788 86.6939 93.3074C86.6939 90.8268 84.6881 88.8159 82.2139 88.8159C79.7397 88.8159 77.7339 90.8268 77.7339 93.3074C77.7339 95.788 79.7397 97.799 82.2139 97.799Z" fill="#415B48"/>
<path d="M105.37 94.5555C111.947 95.9571 110.274 96.2306 116.852 97.6321L122.515 98.839C123.224 98.9899 123.418 97.8787 122.709 97.7276C116.132 96.3261 117.805 96.0526 111.227 94.6511L105.564 93.4442C104.855 93.2933 104.661 94.4045 105.37 94.5555H105.37Z" fill="#F2F2F2"/>
<path d="M120.519 91.2759L128.005 100.135C128.278 100.4 128.506 100.708 128.679 101.047C128.822 101.429 128.515 101.588 128.195 101.712C127.274 102.013 126.335 102.256 125.384 102.441L119.781 103.851C119.077 104.028 119.459 105.09 120.156 104.914L125.036 103.687L127.476 103.073C128.168 102.899 128.972 102.768 129.476 102.212C130.536 101.043 129.119 99.7175 128.391 98.8552L125.131 94.9972L121.448 90.639C120.984 90.0897 120.052 90.7224 120.519 91.2759V91.2759Z" fill="#F2F2F2"/>
<path d="M144.254 129.895C150.008 129.895 154.672 125.218 154.672 119.45C154.672 113.681 150.008 109.005 144.254 109.005C138.5 109.005 133.836 113.681 133.836 119.45C133.836 125.218 138.5 129.895 144.254 129.895Z" fill="#E6E6E6"/>
<path d="M143.239 128.563C147.613 128.563 151.159 125.008 151.159 120.622C151.159 116.237 147.613 112.682 143.239 112.682C138.864 112.682 135.318 116.237 135.318 120.622C135.318 125.008 138.864 128.563 143.239 128.563Z" fill="white"/>
<path d="M141.818 126.058C141.638 126.058 141.46 126.016 141.299 125.936C141.138 125.855 140.999 125.738 140.891 125.594L138.048 121.794C137.957 121.672 137.891 121.533 137.853 121.386C137.815 121.238 137.806 121.084 137.828 120.933C137.849 120.782 137.9 120.637 137.978 120.505C138.055 120.374 138.158 120.259 138.279 120.168C138.401 120.076 138.54 120.009 138.687 119.971C138.834 119.933 138.988 119.925 139.138 119.946C139.289 119.968 139.434 120.019 139.565 120.097C139.696 120.174 139.811 120.277 139.902 120.399L139.903 120.4L141.762 122.886L146.538 115.703C146.622 115.576 146.731 115.467 146.857 115.382C146.984 115.297 147.126 115.238 147.275 115.208C147.424 115.177 147.578 115.177 147.728 115.207C147.877 115.236 148.019 115.295 148.146 115.38C148.273 115.465 148.381 115.574 148.466 115.701C148.551 115.827 148.61 115.97 148.64 116.12C148.669 116.269 148.669 116.424 148.64 116.573C148.61 116.723 148.551 116.866 148.466 116.992L142.782 125.541C142.679 125.696 142.541 125.823 142.379 125.913C142.217 126.003 142.035 126.053 141.85 126.058C141.839 126.058 141.828 126.058 141.818 126.058Z" fill="#E6E6E6"/>
<path d="M241.535 130.21C241.87 130.012 242.158 129.743 242.379 129.421C242.599 129.1 242.747 128.734 242.811 128.349C242.875 127.964 242.854 127.57 242.75 127.194C242.646 126.818 242.461 126.47 242.208 126.174L250.573 111.518L245.665 111.786L238.292 125.987C237.824 126.447 237.54 127.062 237.494 127.717C237.448 128.373 237.643 129.022 238.043 129.542C238.443 130.063 239.019 130.418 239.663 130.541C240.306 130.664 240.972 130.546 241.535 130.21H241.535Z" fill="#FFB8B8"/>
<path d="M232.113 78.84C232.113 78.84 240.972 75.9845 243.251 82.8377C245.53 89.691 253.189 108.252 253.189 108.252L244.96 125.1L241.257 121.102L245.215 109.394L233.822 92.261L232.113 78.84Z" fill="#3F3D56"/>
<path d="M245.242 123.379C244.976 122.927 244.637 122.521 244.241 122.177L241.414 119.449L241.256 119.801C240.967 120.259 240.777 120.772 240.699 121.309C240.621 121.845 240.657 122.392 240.804 122.913C240.952 123.434 241.208 123.919 241.555 124.334C241.902 124.749 242.333 125.086 242.82 125.323C243.235 125.542 243.703 125.638 244.17 125.603C244.403 125.582 244.628 125.507 244.826 125.383C245.024 125.259 245.19 125.09 245.311 124.889C245.421 124.65 245.472 124.388 245.46 124.125C245.448 123.863 245.373 123.607 245.242 123.379Z" fill="#E6E6E6"/>
<path d="M144.164 133.501H143.414V162.469H168.787V161.717H144.164V133.501Z" fill="#3F3D56"/>
<path d="M196.604 162.338C196.602 161.042 196.088 159.799 195.174 158.883C194.26 157.966 193.021 157.451 191.728 157.45H171.852C170.559 157.45 169.319 157.965 168.405 158.881C167.49 159.798 166.977 161.041 166.977 162.338C166.977 163.634 167.49 164.877 168.405 165.794C169.319 166.71 170.559 167.225 171.852 167.225H191.728C193.021 167.224 194.26 166.709 195.174 165.792C196.088 164.876 196.602 163.634 196.604 162.338Z" fill="#415B48"/>
<path d="M143.267 135.684C145.741 135.684 147.747 133.673 147.747 131.193C147.747 128.712 145.741 126.701 143.267 126.701C140.792 126.701 138.787 128.712 138.787 131.193C138.787 133.673 140.792 135.684 143.267 135.684Z" fill="#415B48"/>
</g>
<defs>
<clipPath id="clip0_59_743">
<rect width="282" height="209" fill="white"/>
</clipPath>
</defs>
</svg>
