<svg width="860" height="633" viewBox="0 0 860 633" fill="none" xmlns="http://www.w3.org/2000/svg">
<g clip-path="url(#clip0_179_134)">
<path d="M797.498 630.206C786.905 629.766 777.254 625.491 772.888 618.868C772.684 618.558 772.492 618.243 772.311 617.925C770.717 615.103 770.219 611.859 771.962 609.078C773.705 606.297 778.062 604.185 782.43 604.624C786.798 605.063 790.215 608.55 788.406 611.31C788.006 605.732 787.671 599.871 792.168 595.016C794.644 592.478 797.873 590.809 801.375 590.258C810.437 588.664 816.453 593.788 817.658 598.958C818.547 602.777 817.319 606.658 816.096 610.437C819.865 605.98 828.828 603.997 835.696 606.102C842.564 608.207 846.369 614.102 844.024 619.002C841.261 624.766 832.05 627.745 823.494 629.32C816.427 630.621 805.833 630.552 797.498 630.206Z" fill="#F2F2F2"/>
<path d="M62.509 630.206C73.102 629.766 82.753 625.491 87.118 618.868C87.3227 618.558 87.515 618.243 87.695 617.925C89.289 615.103 89.787 611.859 88.044 609.078C86.301 606.297 81.944 604.185 77.576 604.624C73.208 605.063 69.79 608.55 71.6 611.31C72 605.732 72.335 599.871 67.838 595.016C65.3626 592.479 62.1334 590.81 58.6319 590.258C49.5699 588.664 43.5539 593.788 42.3489 598.958C41.4599 602.777 42.6879 606.658 43.9109 610.437C40.1419 605.98 31.1789 603.997 24.3109 606.102C17.4429 608.207 13.6369 614.102 15.9829 619.002C18.7459 624.766 27.9569 627.745 36.5129 629.32C43.58 630.621 54.173 630.552 62.509 630.206Z" fill="#F2F2F2"/>
<path d="M859.113 629.236H0V632.679H859.113V629.236Z" fill="#CCCCCC"/>
<path d="M346.402 108.212C346.368 108.905 346.389 109.599 346.464 110.289L298.852 150.247L284.652 145.106L274.093 165.52L305.136 180.296L357.188 121.885C359.816 122.361 362.528 122.027 364.961 120.925C367.394 119.823 369.435 118.007 370.811 115.717C372.187 113.428 372.833 110.774 372.664 108.108C372.495 105.442 371.518 102.891 369.864 100.794C368.209 98.6963 365.956 97.1524 363.402 96.3673C360.849 95.5821 358.117 95.5928 355.57 96.398C353.023 97.2031 350.782 98.7646 349.144 100.875C347.506 102.985 346.549 105.544 346.401 108.211L346.402 108.212Z" fill="#A0616A"/>
<path d="M282.545 175.313L236.567 158.713C234.477 157.959 232.556 156.8 230.914 155.303C229.271 153.806 227.94 152.001 226.996 149.989C226.051 147.978 225.512 145.8 225.409 143.581C225.306 141.361 225.642 139.143 226.396 137.053C227.15 134.963 228.309 133.042 229.806 131.4C231.303 129.757 233.108 128.426 235.119 127.481C239.182 125.574 243.835 125.358 248.056 126.882L294.034 143.482C295.441 143.99 296.588 145.035 297.224 146.389C297.86 147.743 297.932 149.293 297.424 150.7L297.424 150.701L289.765 171.922C289.255 173.328 288.209 174.474 286.856 175.109C285.502 175.745 283.952 175.818 282.545 175.312L282.545 175.313Z" fill="#CCCCCC"/>
<path d="M248.872 336.988H264.238L271.548 277.718H248.87L248.872 336.988Z" fill="#A0616A"/>
<path d="M293.871 351.257L245.578 351.259L245.577 332.6L275.211 332.599C277.661 332.599 280.088 333.081 282.352 334.019C284.615 334.956 286.672 336.33 288.405 338.063C290.138 339.796 291.512 341.852 292.45 344.116C293.388 346.38 293.871 348.806 293.871 351.257Z" fill="#2F2E41"/>
<path d="M210.896 317.136L223.466 325.974L263.537 281.695L244.986 268.652L210.896 317.136Z" fill="#A0616A"/>
<path d="M237.986 351.661L198.481 323.892L209.21 308.629L233.452 325.669C235.456 327.078 237.163 328.868 238.476 330.937C239.789 333.005 240.681 335.312 241.102 337.726C241.523 340.14 241.465 342.612 240.93 345.003C240.395 347.394 239.395 349.657 237.986 351.661V351.661Z" fill="#2F2E41"/>
<path d="M282.495 230.221C282.495 230.221 320.842 225.697 313.959 250.58C307.076 275.463 230.382 296.954 230.382 296.954L282.495 230.221Z" fill="#A0616A"/>
<path d="M256.101 103.251C273.103 103.251 286.885 89.4682 286.885 72.4666C286.885 55.4651 273.103 41.6826 256.101 41.6826C239.099 41.6826 225.317 55.4651 225.317 72.4666C225.317 89.4682 239.099 103.251 256.101 103.251Z" fill="#A0616A"/>
<path d="M157.928 291.859C140.411 271.459 134.282 240.159 162.216 214.123C169.115 207.851 176.927 202.663 185.384 198.737L207.896 135.774C210.234 129.199 214.522 123.492 220.188 119.417C225.854 115.342 232.627 113.092 239.605 112.966C246.379 112.674 253.078 114.486 258.781 118.154C264.484 121.821 268.912 127.165 271.456 133.45C274.205 139.844 274.52 147.024 272.34 153.634C265.638 174.504 256.836 194.64 246.071 213.734L247.235 223.047L304.142 228.105L303.611 228.968C303.334 229.418 275.483 271.853 239.853 300.02C227.67 309.65 215.073 313.642 203.183 313.641C185.154 313.645 168.756 304.466 157.928 291.859Z" fill="#CCCCCC"/>
<path d="M152.558 82.1254C158.004 75.6354 160.34 67.1474 162.22 58.8854C165.193 45.8144 167.494 32.2985 174.1 20.6335C180.706 8.96845 192.845 -0.696559 206.23 0.0394411C219.539 0.771441 230.298 11.4784 236.009 23.6604C237.392 23.1238 238.872 22.8834 240.353 22.9549C241.835 23.0264 243.284 23.4081 244.609 24.0754C248.725 26.3294 250.264 32.7364 246.838 35.9444C250.442 34.2286 254.366 33.2904 258.356 33.191C262.346 33.0916 266.312 33.8332 269.997 35.3674C274.735 37.3846 278.825 40.6696 281.817 44.861C284.808 49.0525 286.586 53.988 286.954 59.1244C287.097 61.2091 286.811 63.301 286.113 65.2706C285.415 67.2401 284.32 69.0454 282.896 70.5744C276.99 76.6544 268.636 74.5575 261.208 73.0085C254.192 71.5455 245.647 71.1505 241.694 77.8354C240.137 80.6208 239.7 83.8956 240.475 86.9914C241.989 93.6644 246.93 98.3124 251.723 102.761L252.507 104.217C235.583 107.517 217.107 95.9594 212.663 79.2984C208.219 62.6374 218.503 43.4164 234.825 37.8584C233.738 37.8934 232.662 37.6373 231.708 37.1166C230.753 36.596 229.955 35.8297 229.396 34.8971C228.837 33.9645 228.538 32.8994 228.529 31.8123C228.52 30.7251 228.802 29.6552 229.345 28.7134C224.828 26.1815 219.717 24.9044 214.54 25.0144C206.109 25.5674 198.813 31.5684 194.425 38.7894C190.037 46.0104 188.05 54.3894 186.038 62.5964C184.026 70.8034 181.848 79.1654 177.156 86.1964C173.907 91.0634 169.564 95.1035 164.476 97.9944C159.388 100.885 153.695 102.547 147.85 102.847C142.006 103.146 136.173 102.076 130.815 99.7211C125.458 97.366 120.725 93.7914 116.995 89.2824C122.89 92.1411 129.56 92.989 135.982 91.6964C142.405 90.4038 148.228 87.0419 152.558 82.1254Z" fill="#2F2E41"/>
<path d="M390.029 165.866C382.354 165.866 374.851 163.59 368.469 159.326C362.088 155.062 357.114 149.001 354.177 141.91C351.239 134.819 350.471 127.016 351.968 119.489C353.466 111.961 357.162 105.046 362.589 99.6191C368.016 94.1919 374.931 90.496 382.458 88.9986C389.986 87.5012 397.789 88.2697 404.88 91.2069C411.971 94.1441 418.031 99.118 422.296 105.5C426.56 111.881 428.836 119.384 428.836 127.059C428.824 137.348 424.732 147.212 417.456 154.487C410.181 161.762 400.318 165.854 390.029 165.866ZM390.029 94.7207C383.633 94.7207 377.381 96.6174 372.063 100.171C366.745 103.724 362.6 108.775 360.152 114.684C357.704 120.593 357.064 127.095 358.312 133.369C359.56 139.642 362.639 145.404 367.162 149.927C371.685 154.449 377.447 157.529 383.72 158.777C389.993 160.025 396.496 159.384 402.405 156.937C408.314 154.489 413.364 150.344 416.918 145.026C420.471 139.708 422.368 133.455 422.368 127.059C422.358 118.486 418.948 110.266 412.885 104.203C406.823 98.1406 398.603 94.7304 390.029 94.7207Z" fill="#415B48"/>
<path d="M388.756 78.5519C387.898 78.5519 387.075 78.2111 386.469 77.6047C385.862 76.9982 385.522 76.1757 385.522 75.318V38.1284C385.522 37.2707 385.862 36.4482 386.469 35.8417C387.075 35.2352 387.898 34.8945 388.756 34.8945C389.613 34.8945 390.436 35.2352 391.042 35.8417C391.649 36.4482 391.99 37.2707 391.99 38.1284V75.3181C391.989 76.1757 391.649 76.9982 391.042 77.6047C390.436 78.2111 389.613 78.5519 388.756 78.5519Z" fill="#415B48"/>
<path d="M338.287 129.021H301.098C300.24 129.021 299.417 128.68 298.811 128.073C298.204 127.467 297.864 126.644 297.864 125.787C297.864 124.929 298.204 124.106 298.811 123.5C299.417 122.893 300.24 122.553 301.098 122.553H338.287C339.145 122.553 339.967 122.893 340.574 123.5C341.18 124.106 341.521 124.929 341.521 125.787C341.521 126.644 341.18 127.467 340.574 128.073C339.967 128.68 339.145 129.021 338.287 129.021H338.287Z" fill="#415B48"/>
<path d="M474.11 129.021H436.92C436.063 129.021 435.24 128.68 434.634 128.073C434.027 127.467 433.687 126.644 433.687 125.787C433.687 124.929 434.027 124.106 434.634 123.5C435.24 122.893 436.063 122.553 436.92 122.553H474.11C474.968 122.553 475.79 122.893 476.397 123.5C477.003 124.106 477.344 124.929 477.344 125.787C477.344 126.644 477.003 127.467 476.397 128.073C475.79 128.68 474.968 129.021 474.11 129.021Z" fill="#415B48"/>
<path d="M435.899 93.6616C435.255 93.6616 434.626 93.4694 434.092 93.1097C433.558 92.75 433.144 92.2392 432.902 91.6425C432.66 91.0459 432.602 90.3906 432.734 89.7607C432.867 89.1307 433.185 88.5548 433.647 88.1065L449.221 72.9966C449.526 72.7001 449.886 72.4665 450.281 72.3093C450.676 72.1521 451.098 72.0743 451.523 72.0804C451.948 72.0865 452.368 72.1764 452.758 72.3448C453.149 72.5133 453.502 72.7571 453.798 73.0623C454.094 73.3674 454.327 73.728 454.483 74.1232C454.64 74.5185 454.717 74.9408 454.71 75.3659C454.703 75.791 454.613 76.2105 454.444 76.6006C454.275 76.9906 454.03 77.3435 453.725 77.639L438.15 92.7489C437.548 93.3353 436.74 93.6629 435.899 93.6616Z" fill="#415B48"/>
<path d="M340.926 93.6616C340.085 93.6627 339.277 93.3352 338.674 92.7489L323.1 77.639C322.794 77.3435 322.55 76.9906 322.381 76.6006C322.211 76.2105 322.121 75.791 322.114 75.3659C322.107 74.9408 322.184 74.5185 322.341 74.1232C322.497 73.728 322.73 73.3674 323.026 73.0623C323.322 72.7571 323.676 72.5133 324.066 72.3448C324.456 72.1764 324.876 72.0865 325.301 72.0804C325.726 72.0743 326.148 72.1521 326.543 72.3093C326.938 72.4665 327.299 72.7001 327.603 72.9966L343.177 88.1065C343.639 88.5548 343.957 89.1307 344.09 89.7607C344.223 90.3906 344.165 91.0459 343.923 91.6425C343.681 92.2392 343.266 92.75 342.732 93.1097C342.199 93.4694 341.569 93.6616 340.926 93.6616Z" fill="#415B48"/>
<path d="M328.585 182.036C327.95 182.036 327.329 181.848 326.799 181.497C326.269 181.146 325.855 180.646 325.607 180.061C325.36 179.476 325.29 178.831 325.407 178.206C325.524 177.581 325.822 177.005 326.265 176.549L341.839 160.51C342.437 159.896 343.254 159.544 344.111 159.532C344.969 159.519 345.796 159.848 346.411 160.445C347.026 161.043 347.379 161.86 347.392 162.717C347.405 163.574 347.077 164.401 346.48 165.017L330.906 181.055C330.604 181.366 330.244 181.613 329.845 181.781C329.447 181.95 329.018 182.036 328.585 182.036Z" fill="#415B48"/>
<path d="M454.707 185.27C454.275 185.271 453.848 185.185 453.45 185.017C453.053 184.85 452.693 184.604 452.393 184.294L433.585 165.022C433.287 164.718 433.053 164.359 432.895 163.964C432.736 163.57 432.657 163.148 432.662 162.723C432.667 162.298 432.756 161.879 432.923 161.488C433.09 161.097 433.333 160.743 433.637 160.446C433.941 160.15 434.301 159.916 434.696 159.758C435.091 159.6 435.512 159.522 435.937 159.528C436.362 159.533 436.782 159.622 437.172 159.79C437.563 159.958 437.916 160.201 438.213 160.506L457.021 179.778C457.465 180.233 457.766 180.81 457.884 181.435C458.003 182.06 457.934 182.706 457.687 183.292C457.44 183.879 457.025 184.379 456.495 184.731C455.965 185.083 455.343 185.27 454.707 185.27Z" fill="#415B48"/>
<path d="M388.756 217.609C387.898 217.608 387.075 217.268 386.469 216.661C385.862 216.055 385.522 215.232 385.522 214.375V177.185C385.522 176.76 385.605 176.34 385.768 175.947C385.93 175.555 386.169 175.199 386.469 174.898C386.769 174.598 387.126 174.36 387.518 174.197C387.91 174.035 388.331 173.951 388.756 173.951C389.18 173.951 389.601 174.035 389.993 174.197C390.386 174.36 390.742 174.598 391.042 174.898C391.343 175.199 391.581 175.555 391.743 175.947C391.906 176.34 391.99 176.76 391.99 177.185V214.375C391.989 215.232 391.649 216.055 391.042 216.661C390.436 217.268 389.613 217.608 388.756 217.609Z" fill="#415B48"/>
<path d="M347.945 151.202C347.62 151.815 347.344 152.452 347.119 153.108L287.036 169.041L276.369 158.352L258.134 172.341L279.953 198.911L351.896 168.163C354.073 169.712 356.669 170.561 359.34 170.599C362.011 170.636 364.63 169.859 366.849 168.371C369.067 166.884 370.781 164.756 371.76 162.271C372.74 159.786 372.941 157.061 372.335 154.46C371.728 151.858 370.345 149.503 368.367 147.707C366.39 145.911 363.913 144.76 361.265 144.406C358.617 144.052 355.924 144.513 353.545 145.727C351.165 146.941 349.212 148.85 347.944 151.201L347.945 151.202Z" fill="#A0616A"/>
<path d="M261.621 184.798L227.058 150.23C225.486 148.659 224.238 146.794 223.387 144.741C222.536 142.688 222.097 140.487 222.097 138.264C222.096 136.041 222.533 133.84 223.384 131.787C224.234 129.733 225.481 127.867 227.052 126.296C228.624 124.724 230.49 123.477 232.544 122.627C234.597 121.777 236.798 121.339 239.021 121.34C241.244 121.34 243.444 121.779 245.498 122.63C247.551 123.481 249.416 124.729 250.987 126.301L285.552 160.866C286.61 161.924 287.204 163.358 287.204 164.853C287.204 166.349 286.611 167.783 285.553 168.841L285.552 168.842L269.599 184.796C268.54 185.852 267.106 186.445 265.611 186.445C264.115 186.445 262.681 185.852 261.622 184.796L261.621 184.798Z" fill="#CCCCCC"/>
<path d="M627.927 632.155H269.844C192.593 632.155 129.744 568.249 129.744 489.697C129.744 411.146 192.593 347.24 269.844 347.24H295.319C309.334 318.664 330.931 294.488 357.751 277.352C384.964 259.952 416.586 250.702 448.886 250.692C538.478 250.692 613.154 321.145 620.104 411.605H627.927C687.785 411.605 736.484 461.074 736.484 521.88C736.484 582.686 687.785 632.155 627.927 632.155ZM269.844 353.24C195.901 353.24 135.744 414.454 135.744 489.697C135.744 564.94 195.901 626.155 269.844 626.155H627.927C684.477 626.155 730.484 579.377 730.484 521.88C730.484 464.382 684.477 417.605 627.927 417.605H614.482L614.31 414.788C608.904 326.136 536.241 256.692 448.886 256.692C385.982 256.692 327.503 293.921 299.903 351.536L299.087 353.24H269.844Z" fill="#3F3D56"/>
<path d="M339.04 532.3C337.307 532.3 336.007 532.04 335.14 531.52C334.36 531.086 333.84 530.436 333.58 529.57C333.32 528.616 333.19 527.533 333.19 526.32V447.41C333.19 446.196 333.32 445.156 333.58 444.29C333.927 443.423 334.49 442.773 335.27 442.34C336.137 441.82 337.437 441.56 339.17 441.56C340.903 441.56 342.16 441.82 342.94 442.34C343.807 442.773 344.327 443.423 344.5 444.29C344.76 445.156 344.89 446.24 344.89 447.54V526.45C344.89 527.663 344.76 528.703 344.5 529.57C344.24 530.436 343.677 531.086 342.81 531.52C342.03 532.04 340.773 532.3 339.04 532.3Z" fill="#415B48"/>
<path d="M401.955 533.08C397.708 533.08 393.635 532.256 389.735 530.61C385.922 528.963 382.498 526.71 379.465 523.85C376.432 520.903 374.048 517.48 372.315 513.58C370.582 509.68 369.715 505.433 369.715 500.84C369.715 496.333 370.538 492.173 372.185 488.36C373.832 484.46 376.128 481.036 379.075 478.09C382.022 475.143 385.402 472.846 389.215 471.2C393.115 469.466 397.275 468.6 401.695 468.6C407.675 468.6 413.048 470.03 417.815 472.89C422.668 475.663 426.525 479.476 429.385 484.33C432.245 489.183 433.675 494.643 433.675 500.71C433.675 505.476 432.808 509.853 431.075 513.84C429.342 517.74 427.002 521.12 424.055 523.98C421.108 526.84 417.728 529.093 413.915 530.74C410.102 532.3 406.115 533.08 401.955 533.08ZM401.695 521.77C405.335 521.77 408.715 520.86 411.835 519.04C414.955 517.22 417.468 514.706 419.375 511.5C421.282 508.293 422.235 504.653 422.235 500.58C422.235 496.506 421.325 492.91 419.505 489.79C417.772 486.67 415.345 484.243 412.225 482.51C409.105 480.776 405.552 479.91 401.565 479.91C397.752 479.91 394.285 480.82 391.165 482.64C388.132 484.46 385.662 486.93 383.755 490.05C381.935 493.17 381.025 496.723 381.025 500.71C381.025 504.87 381.978 508.553 383.885 511.76C385.792 514.88 388.305 517.35 391.425 519.17C394.632 520.903 398.055 521.77 401.695 521.77Z" fill="#415B48"/>
<path d="M511.734 441.56C512.86 441.56 513.77 441.69 514.464 441.95C515.244 442.21 515.85 442.73 516.284 443.51C516.717 444.203 516.934 445.373 516.934 447.02C516.934 448.58 516.674 449.75 516.154 450.53C515.72 451.31 515.114 451.83 514.334 452.09C513.554 452.263 512.6 452.35 511.474 452.35H484.564V526.58C484.564 527.706 484.39 528.703 484.044 529.57C483.784 530.436 483.22 531.086 482.354 531.52C481.574 532.04 480.36 532.3 478.714 532.3C476.98 532.3 475.68 532.04 474.814 531.52C474.034 531.086 473.514 530.436 473.254 529.57C473.08 528.616 472.994 527.576 472.994 526.45V452.35H445.694C444.567 452.35 443.614 452.263 442.834 452.09C442.054 451.83 441.447 451.31 441.014 450.53C440.58 449.75 440.364 448.58 440.364 447.02C440.364 445.373 440.537 444.203 440.884 443.51C441.317 442.73 441.924 442.21 442.704 441.95C443.57 441.69 444.524 441.56 445.564 441.56H511.734Z" fill="#415B48"/>
</g>
<defs>
<clipPath id="clip0_179_134">
<rect width="859.113" height="632.68" fill="white"/>
</clipPath>
</defs>
</svg>
