<svg width="556" height="646" viewBox="0 0 556 646" fill="none" xmlns="http://www.w3.org/2000/svg">
<g clip-path="url(#clip0_179_97)">
<path d="M38.5 406.772H1.5V369.772C1.5 363.172 6.90002 357.772 13.5 357.772H49.5V395.772C49.5 401.838 44.5654 406.772 38.5 406.772Z" fill="#3F3D56"/>
<path d="M544.5 49.7725H507.5V12.7725C507.5 6.17242 512.9 0.772461 519.5 0.772461H555.5V38.7725C555.5 44.8379 550.565 49.7725 544.5 49.7725Z" fill="#3F3D56"/>
<path d="M285.241 629.768L271.914 629.767L265.574 578.362L285.244 578.364L285.241 629.768Z" fill="#A0616A"/>
<path d="M285.71 643.671L244.728 643.669V643.151C244.728 634.342 251.87 627.2 260.679 627.2H260.68L268.166 621.521L282.133 627.201L285.711 627.201L285.71 643.671V643.671Z" fill="#2F2E41"/>
<path d="M276.795 364.463L268 395C268 395 249 494.934 254 508.934C259 522.934 262.685 611 262.685 611H288.701C288.701 611 292.205 588.659 292.102 585.297C292 581.934 298 527.934 290 519.934L325 431.934L380 385.934L358.433 359.164L276.795 364.463L276.795 364.463Z" fill="#2F2E41"/>
<path opacity="0.5" d="M404 414V398L388 376C381.4 376 376 381.4 376 388V442C376 448.6 381.4 454 388 454H442C448.6 454 454 448.6 454 442L432 427H417C409.832 427 404 421.168 404 414Z" fill="#415B48"/>
<path opacity="0.5" d="M481.22 281.5H154.78C144.149 281.5 135.5 272.851 135.5 262.22V148.78C135.5 138.149 144.149 129.5 154.78 129.5H481.22C491.851 129.5 500.5 138.149 500.5 148.78V262.22C500.5 272.851 491.851 281.5 481.22 281.5Z" fill="#415B48"/>
<path d="M340.78 260H127.78C116.874 260 108 251.126 108 240.22V126.78C108 115.873 116.873 107 127.78 107H454.22C465.126 107 474 115.874 474 126.78C474 200.238 414.238 260 340.78 260ZM127.78 109C117.976 109 110 116.976 110 126.78V240.22C110 250.024 117.976 258 127.78 258H340.78C413.135 258 472 199.135 472 126.78C472 116.976 464.024 109 454.22 109H127.78Z" fill="#415B48"/>
<path d="M367.8 377.045L365.683 347.082L382.631 343.484L383.742 375.243C384.409 375.947 384.987 376.759 385.443 377.672C387.923 382.641 385.905 388.678 380.936 391.158C375.968 393.637 369.93 391.619 367.451 386.651C365.87 383.482 366.124 379.883 367.8 377.045Z" fill="#A0616A"/>
<path d="M340.895 184.923L334.375 189.782L350.399 281.161L348.057 286.756L351.182 289.694L352.14 296.722L364.758 362H384C383.718 359.733 389.281 357.408 389 355C388.679 352.247 386.425 348.082 386.105 345.173C386.006 344.273 385.906 343.365 385.807 342.452C385.661 341.111 385.515 339.756 385.369 338.389C385.256 337.331 385.142 336.265 385.029 335.193C382.568 311.976 381.557 285.851 380.136 263.292C378.324 234.532 375.847 211.568 368.854 207.816L340.895 184.923L340.895 184.923Z" fill="#3F3D56"/>
<path d="M389.535 628.212C391.6 628.341 392.742 625.775 391.179 624.279L391.024 623.661C391.044 623.611 391.065 623.562 391.086 623.512C393.175 618.53 400.255 618.565 402.327 623.554C404.166 627.982 406.506 632.418 407.083 637.1C407.341 639.167 407.225 641.272 406.766 643.3C411.074 633.89 413.341 623.614 413.341 613.28C413.341 610.683 413.199 608.087 412.909 605.497C412.67 603.378 412.34 601.273 411.914 599.186C409.608 587.909 404.615 577.168 397.414 568.197C393.952 566.304 391.065 563.346 389.321 559.8C388.694 558.521 388.203 557.146 387.971 555.744C388.365 555.796 389.457 549.795 389.159 549.427C389.708 548.594 390.691 548.18 391.291 547.367C394.273 543.323 398.382 544.029 400.527 549.524C405.109 551.837 405.154 555.672 402.342 559.361C400.553 561.708 400.307 564.883 398.738 567.396C398.899 567.602 399.067 567.803 399.229 568.009C402.19 571.807 404.751 575.889 406.91 580.178C406.3 575.412 407.2 569.67 408.736 565.968C410.484 561.751 413.761 558.199 416.647 554.553C420.113 550.174 427.22 552.085 427.831 557.637C427.837 557.69 427.842 557.744 427.848 557.798C427.419 558.04 427 558.297 426.589 558.568C424.25 560.115 425.058 563.742 427.83 564.17L427.893 564.179C427.738 565.723 427.473 567.254 427.086 568.759C430.788 583.074 422.796 588.288 411.384 588.523C411.132 588.652 410.887 588.781 410.635 588.904C411.791 592.159 412.715 595.498 413.4 598.883C414.013 601.873 414.439 604.896 414.678 607.932C414.976 611.762 414.95 615.611 414.627 619.435L414.646 619.299C415.466 615.088 417.753 611.155 421.073 608.429C426.018 604.366 433.006 602.87 438.341 599.605C440.909 598.033 444.2 600.064 443.752 603.042L443.73 603.184C442.936 603.507 442.161 603.882 441.412 604.302C440.983 604.544 440.563 604.8 440.153 605.072C437.813 606.619 438.622 610.246 441.394 610.673L441.457 610.683C441.502 610.69 441.541 610.696 441.586 610.703C440.223 613.938 438.324 616.942 435.947 619.532C433.633 632.029 423.691 633.215 413.057 629.575H413.051C411.888 634.639 410.189 639.587 408.006 644.301H389.986C389.922 644.101 389.863 643.895 389.805 643.694C391.472 643.798 393.151 643.701 394.792 643.397C393.455 641.757 392.118 640.103 390.781 638.463C390.748 638.43 390.722 638.398 390.697 638.366C390.018 637.526 389.334 636.693 388.656 635.853L388.655 635.852C388.613 633.275 388.922 630.706 389.534 628.212L389.535 628.212Z" fill="#F2F2F2"/>
<path d="M187.983 644.355C187.983 645.015 188.513 645.545 189.173 645.545H442.463C443.123 645.545 443.653 645.015 443.653 644.355C443.653 643.695 443.123 643.165 442.463 643.165H189.173C188.513 643.165 187.983 643.695 187.983 644.355H187.983Z" fill="#CCCCCC"/>
<path d="M22.69 0C10.1587 0 0 10.1587 0 22.69V407H2V157.68C2 71.7 71.7 2 157.68 2L555.364 1.63633L555 0H22.69Z" fill="#3F3D56"/>
<path d="M189 256C189 257.34 188.96 258.68 188.89 260H127.78C117.41 260 109 251.59 109 241.22V184.44C111.63 184.15 114.3 184 117 184C156.76 184 189 216.24 189 256H189Z" fill="#415B48"/>
<path d="M415.551 182.996H220.182C216.852 182.996 214.146 185.703 214.146 189.032C214.146 192.362 216.852 195.068 220.182 195.068H415.551C418.88 195.068 421.587 192.362 421.587 189.032C421.587 185.703 418.88 182.996 415.551 182.996Z" fill="#415B48"/>
<path d="M280.756 149.152H220.182C216.852 149.152 214.146 151.859 214.146 155.188C214.146 158.518 216.852 161.224 220.182 161.224H280.756C284.086 161.224 286.792 158.518 286.792 155.188C286.792 151.859 284.086 149.152 280.756 149.152Z" fill="#415B48"/>
<path d="M340.241 629.768L326.914 629.767L320.574 578.362L340.244 578.364L340.241 629.768Z" fill="#A0616A"/>
<path d="M340.71 643.671L299.728 643.669V643.151C299.728 634.342 306.87 627.2 315.679 627.2H315.68L323.166 621.521L337.133 627.201L340.711 627.201L340.71 643.671V643.671Z" fill="#2F2E41"/>
<path d="M312.5 376.5L319.5 437.5L304 501L317.5 611.5L342.5 613.5C342.5 613.5 354.5 532.5 343.5 504.5L371.5 394.5L350.5 382.5L312.5 376.5Z" fill="#2F2E41"/>
<path d="M338.583 170.386C334.171 165.676 335.682 161.385 328.861 160.183C324.237 159.368 318.672 160.185 313.937 160.181C302.037 160.17 300.248 166.75 293.397 175.492C275.75 198.009 292.168 216.079 288 243C284.127 268.014 294.506 281.636 289.909 306.718C287.721 318.657 283.48 335.468 276.058 349.198C271.96 356.78 269.994 365.599 271 374C271.889 381.435 367.907 382.302 370.564 380.472C373.692 378.318 372.634 373.7 372.94 370.483C373.767 361.767 374.61 355.66 372.517 346.758C370.55 338.393 370.586 328.672 370.559 320.026C370.533 311.69 358.792 325.452 359.474 317.13C360.344 306.516 362.068 296.131 363.968 285.614C365.439 277.473 366.015 269.108 368.176 261.137C370.665 251.955 373.632 243.878 373.732 234.249C373.81 226.753 375.619 216.274 372.639 209.407C368.249 199.29 359.395 190.18 351.927 182.077C348.213 178.048 344.526 175.426 340.283 172.087" fill="#3F3D56"/>
<path d="M187.849 216.49L214.884 229.581L209.56 246.068L181.47 231.21C180.526 231.438 179.535 231.535 178.516 231.475C172.972 231.15 168.742 226.392 169.068 220.849C169.393 215.306 174.15 211.076 179.693 211.401C183.229 211.609 186.223 213.623 187.849 216.49L187.849 216.49Z" fill="#A0616A"/>
<path d="M270.775 291.213C268.186 289.841 228.74 264.685 208 253C207.611 252.781 204.934 254.216 204.561 254.005C203.99 253.684 204.532 251.3 204 251C202.845 250.35 200.688 251.823 199.731 251.284C196.266 249.331 197 241 197 241L204 224L215.444 223.635L218 228L223.426 227.346L227 232L268.192 248.162C269.793 226.684 278.382 208.966 287.686 191.632L291.447 192.342C300.931 194.134 307.258 203.161 305.706 212.687L294.843 279.364C293.792 285.567 289.402 290.569 283.388 292.418C279.042 293.754 274.533 293.202 270.775 291.213Z" fill="#3F3D56"/>
<path d="M311.671 153.862C328.573 153.862 342.275 140.16 342.275 123.257C342.275 106.355 328.573 92.6523 311.671 92.6523C294.768 92.6523 281.066 106.355 281.066 123.257C281.066 140.16 294.768 153.862 311.671 153.862Z" fill="#A0616A"/>
<path d="M345.639 124.188C344.57 123.758 343.499 123.398 342.57 123.168C347.821 129.78 338.955 135.582 337.58 142.348C337.694 147.72 334.757 150.157 329.619 151.628L329.739 151.208C287.949 161.913 332.033 126.279 299.359 125.297C294.379 125.588 301.03 109.93 295.909 110.718C282.909 112.718 282.303 111.344 280.91 120.719C278.379 121.548 274.909 117.718 275.32 113.718C274.393 112.035 271.973 113.112 271 110.558C269.969 108.608 268.009 95.8579 272.479 101.818C272.775 97.7491 271.624 89.4309 276.699 96.5379C276.039 93.3047 278.845 94.7048 280.019 96.6278C280.849 94.7378 281.679 92.8579 282.499 90.9679C282.269 91.8178 282.419 92.7478 282.84 93.5879C285.198 88.5766 288.8 88.1228 294.419 86.7079C294.354 88.243 294.389 90.0391 294.599 91.4278C301.125 80.6166 316.927 83.6371 323.229 93.1884C327.222 94.1001 328.909 92.7179 332.909 93.7179C343.657 96.4048 348.571 112.977 345.639 124.188V124.188Z" fill="#2F2E41"/>
<path d="M427 413H464V376C464 369.4 458.6 364 452 364H416V402C416 408.065 420.935 413 427 413Z" fill="#415B48"/>
<path d="M127.706 63.8556C132.377 63.8556 136.163 59.985 136.163 55.2105C136.163 50.436 132.377 46.5654 127.706 46.5654C123.036 46.5654 119.25 50.436 119.25 55.2105C119.25 59.985 123.036 63.8556 127.706 63.8556Z" fill="#3F3D56"/>
<path d="M156.92 63.8556C161.59 63.8556 165.376 59.985 165.376 55.2105C165.376 50.436 161.59 46.5654 156.92 46.5654C152.249 46.5654 148.463 50.436 148.463 55.2105C148.463 59.985 152.249 63.8556 156.92 63.8556Z" fill="#3F3D56"/>
<path d="M186.134 63.8556C190.804 63.8556 194.59 59.985 194.59 55.2105C194.59 50.436 190.804 46.5654 186.134 46.5654C181.463 46.5654 177.677 50.436 177.677 55.2105C177.677 59.985 181.463 63.8556 186.134 63.8556Z" fill="#3F3D56"/>
<path d="M393.5 84.2725C392.673 84.2725 392 84.9453 392 85.7725V95.7725C392 96.5996 392.673 97.2725 393.5 97.2725H403.5C404.327 97.2725 405 96.5996 405 95.7725V85.7725C405 84.9453 404.327 84.2725 403.5 84.2725H393.5Z" fill="#415B48"/>
<path d="M416.5 84.2725C415.673 84.2725 415 84.9453 415 85.7725V95.7725C415 96.5996 415.673 97.2725 416.5 97.2725H426.5C427.327 97.2725 428 96.5996 428 95.7725V85.7725C428 84.9453 427.327 84.2725 426.5 84.2725H416.5Z" fill="#415B48"/>
<path d="M439.5 84.2725C438.673 84.2725 438 84.9453 438 85.7725V95.7725C438 96.5996 438.673 97.2725 439.5 97.2725H449.5C450.327 97.2725 451 96.5996 451 95.7725V85.7725C451 84.9453 450.327 84.2725 449.5 84.2725H439.5Z" fill="#415B48"/>
</g>
<defs>
<clipPath id="clip0_179_97">
<rect width="555.5" height="645.545" fill="white"/>
</clipPath>
</defs>
</svg>
