<svg id="圖層_1" data-name="圖層 1" xmlns="http://www.w3.org/2000/svg" xmlns:xlink="http://www.w3.org/1999/xlink" viewBox="0 0 1408 424"><defs><style>.cls-1,.cls-10,.cls-11,.cls-3,.cls-4,.cls-5,.cls-6,.cls-7,.cls-8,.cls-9{fill:none;}.cls-2{fill:#f2f2f2;}.cls-10,.cls-11,.cls-3,.cls-4,.cls-5,.cls-6,.cls-7,.cls-8,.cls-9{stroke:#000;stroke-miterlimit:10;}.cls-11,.cls-3,.cls-4,.cls-5,.cls-6,.cls-7,.cls-8{stroke-width:3px;}.cls-4{stroke-dasharray:4.48 4.48;}.cls-5{stroke-dasharray:6.6 6.6;}.cls-6{stroke-dasharray:5.29 5.29;}.cls-7{stroke-dasharray:4.25 4.25;}.cls-8{stroke-dasharray:4.51 4.51;}.cls-10,.cls-9{stroke-width:2.63px;}.cls-10{stroke-dasharray:5.46 5.46;}.cls-11{stroke-dasharray:5.15 5.15;}.cls-12{fill:#ccc;}.cls-13{fill:#e6e6e6;}.cls-14{fill:#fff;}.cls-15{fill:#3f3d56;}.cls-16,.cls-18,.cls-19,.cls-20,.cls-23{fill:#415b48;}.cls-17{clip-path:url(#clip-path);}.cls-18{opacity:0.8;}.cls-18,.cls-19,.cls-20,.cls-23,.cls-25{isolation:isolate;}.cls-19{opacity:0.4;}.cls-20{opacity:0.6;}.cls-21{clip-path:url(#clip-path-2);}.cls-22{clip-path:url(#clip-path-3);}.cls-23{opacity:0.5;}.cls-24{clip-path:url(#clip-path-4);}.cls-25{opacity:0.1;}.cls-26{clip-path:url(#clip-path-5);}</style><clipPath id="clip-path"><rect class="cls-1" x="30.6" y="134.73" width="98.53" height="109.97"/></clipPath><clipPath id="clip-path-2"><rect class="cls-1" x="1169.26" y="171.64" width="191" height="86.24"/></clipPath><clipPath id="clip-path-3"><rect class="cls-1" x="1148" y="295" width="110.78" height="98"/></clipPath><clipPath id="clip-path-4"><rect class="cls-1" x="568" y="110" width="312.18" height="179.63"/></clipPath><clipPath id="clip-path-5"><rect class="cls-1" x="350.39" y="304.11" width="85" height="93.44"/></clipPath></defs><title>素材</title><ellipse class="cls-2" cx="832.02" cy="313.42" rx="4.15" ry="1.28"/><path class="cls-3" d="M538.35,152.15a22.28,22.28,0,0,1-2.24.39"/><path class="cls-4" d="M531.64,152.92c-9.09.4-27.26-.78-53.57-11.74C438.75,124.8,425.9,111,398.34,97c-25.7-13.12-53.06-16.76-63.61-17.71"/><path class="cls-3" d="M332.49,79.07c-1.47-.11-2.27-.14-2.27-.14"/><path class="cls-3" d="M527.15,193s-1,.47-3,1.21"/><path class="cls-5" d="M517.83,196.23c-13.74,3.92-43.12,9.65-91.23,6.52-70.53-4.59-98.07-16.08-148.88-22.37-48.13-6-93.72.34-110.18,3.13"/><path class="cls-3" d="M164.29,184.08c-2.09.38-3.21.62-3.21.62"/><path class="cls-3" d="M533.5,237.5s-.7.56-2.11,1.53"/><path class="cls-6" d="M526.95,241.89c-9.51,5.76-29.34,15.83-59.45,21.61-44.13,8.49-56.9,1.81-93.7-.57-55-3.56-86.43,20.36-96.61,29.83"/><path class="cls-3" d="M275.28,294.6c-1.19,1.2-1.78,1.9-1.78,1.9"/><path class="cls-3" d="M568,278a10.91,10.91,0,0,0-2.13.13"/><path class="cls-7" d="M561.72,279c-5.71,1.67-15.31,6-28.72,17-23.33,19.12-19,24.63-34.09,40.87-13.64,14.64-32.69,19.61-41.06,21.15"/><path class="cls-3" d="M455.74,358.37c-1.35.21-2.11.28-2.11.28"/><path class="cls-3" d="M890.81,152a22.27,22.27,0,0,0,2.26.26"/><path class="cls-8" d="M897.57,152.37c9.1-.11,27.17-2.32,52.8-14.73,38.34-18.57,50.91-32.19,77.12-48.64C1065.93,64.88,1105,66.5,1118,67.89"/><path class="cls-3" d="M1120.25,68.16c1.46.19,2.25.34,2.25.34"/><path class="cls-9" d="M895.93,224.72a24.69,24.69,0,0,0,2.35,1.29"/><path class="cls-10" d="M903.28,228.18c9.78,3.71,29.54,8.62,60.72,5,47.23-5.46,65.23-17.26,99.11-24.18,31.32-6.39,61.55-1.09,73.4,1.57"/><path class="cls-9" d="M1139.17,211.22c1.68.41,2.59.68,2.59.68"/><path class="cls-3" d="M836.08,294.44a23.38,23.38,0,0,0,1.74,1.94"/><path class="cls-11" d="M841.62,299.85c7.67,6.37,24,16.8,53.17,22.41,44.13,8.49,63.74,7.22,96.42,5.66,60.42-2.87,110.86,21.82,125.79,30"/><path class="cls-3" d="M1119.25,359.18c1.47.84,2.25,1.32,2.25,1.32"/><path class="cls-12" d="M258.5,23.52a2.34,2.34,0,0,0-2.14-1.43H213.71a2.31,2.31,0,0,0-2.31,2.31v54a2.31,2.31,0,0,0,2.31,2.31h42.65a2.31,2.31,0,0,0,2.31-2.31v-54A2.27,2.27,0,0,0,258.5,23.52Zm-.34,54.83a1.8,1.8,0,0,1-1.8,1.8H213.71a1.8,1.8,0,0,1-1.8-1.8v-54a1.8,1.8,0,0,1,1.8-1.8h42.65A1.81,1.81,0,0,1,258,23.74a2,2,0,0,1,.07.2,1.78,1.78,0,0,1,.06.46Z"/><path class="cls-12" d="M249.6,34.83H236.75a1,1,0,0,1,0-2.06H249.6a1,1,0,0,1,0,2.06Z"/><path class="cls-12" d="M249.6,40.22H236.75a1,1,0,0,1,0-2.06H249.6a1,1,0,0,1,0,2.06Z"/><path class="cls-12" d="M230.16,43.29h-9.39a1.16,1.16,0,0,1-1.16-1.16V31.06a1.16,1.16,0,0,1,1.16-1.16h9.39a1.16,1.16,0,0,1,1.16,1.16V42.14a1.16,1.16,0,0,1-1.16,1.16Z"/><path class="cls-12" d="M249.51,51.27h-29a1,1,0,0,1,0-2.06h29a1,1,0,0,1,0,2.06Z"/><path class="cls-12" d="M249.51,56.67h-29a1,1,0,0,1,0-2.06h29a1,1,0,0,1,0,2.06Z"/><path class="cls-12" d="M249.51,62.06h-29a1,1,0,0,1,0-2.06h29a1,1,0,1,1,0,2.06Z"/><path class="cls-12" d="M249.51,67.46h-29a1,1,0,0,1,0-2.06h29a1,1,0,1,1,0,2.06Z"/><path class="cls-12" d="M249.51,72.85h-29a1,1,0,0,1,0-2.06h29a1,1,0,1,1,0,2.06Z"/><path class="cls-13" d="M284.27,55.39a3,3,0,0,0-2.71-1.82h-54a2.93,2.93,0,0,0-2.93,2.94v68.56a2.93,2.93,0,0,0,2.93,2.94h54a2.94,2.94,0,0,0,2.93-2.94V56.51a2.89,2.89,0,0,0-.22-1.12Z"/><path class="cls-14" d="M280,124H229.17c-.73,0-1.3-.8-1.3-1.82V58.62c0-1,.57-1.82,1.3-1.82H280c.73,0,1.31.8,1.31,1.82v63.52C281.26,123.16,280.68,124,280,124Z"/><path d="M284.27,55.39a3,3,0,0,0-2.71-1.82h-54a2.93,2.93,0,0,0-2.93,2.94v68.56a2.93,2.93,0,0,0,2.93,2.94h54a2.94,2.94,0,0,0,2.93-2.94V56.51a2.89,2.89,0,0,0-.22-1.12Zm-.43,69.68a2.29,2.29,0,0,1-2.28,2.29h-54a2.28,2.28,0,0,1-2.28-2.28V56.51a2.28,2.28,0,0,1,2.28-2.29h54a2.29,2.29,0,0,1,2.11,1.44,2.55,2.55,0,0,1,.09.26,2.27,2.27,0,0,1,.08.59Z"/><path class="cls-15" d="M272.69,69.75h-16a1.32,1.32,0,0,1-.91-.36,1.17,1.17,0,0,1,0-1.72,1.32,1.32,0,0,1,.91-.36h16a1.32,1.32,0,0,1,.91.36,1.17,1.17,0,0,1,0,1.72,1.32,1.32,0,0,1-.91.36Z"/><path class="cls-15" d="M272.69,76.22h-16a1.32,1.32,0,0,1-.91-.36,1.17,1.17,0,0,1,0-1.72,1.32,1.32,0,0,1,.91-.36h16a1.32,1.32,0,0,1,.91.36,1.17,1.17,0,0,1,0,1.72,1.32,1.32,0,0,1-.91.36Z"/><path class="cls-16" d="M248.27,80.27H236.58a1.43,1.43,0,0,1-1-.43,1.48,1.48,0,0,1-.42-1V64.74a1.48,1.48,0,0,1,.42-1,1.43,1.43,0,0,1,1-.43h11.68a1.43,1.43,0,0,1,1,.43,1.48,1.48,0,0,1,.42,1V78.8a1.48,1.48,0,0,1-.42,1A1.43,1.43,0,0,1,248.27,80.27Z"/><path class="cls-13" d="M272.66,90.78h-37a1.37,1.37,0,0,1-.93-.36,1.15,1.15,0,0,1,0-1.72,1.37,1.37,0,0,1,.93-.36h37a1.37,1.37,0,0,1,.93.36,1.15,1.15,0,0,1,0,1.72,1.37,1.37,0,0,1-.93.36Z"/><path class="cls-13" d="M272.66,97.26h-37a1.37,1.37,0,0,1-.93-.35,1.15,1.15,0,0,1,0-1.72,1.36,1.36,0,0,1,.93-.36h37a1.37,1.37,0,0,1,.93.36,1.15,1.15,0,0,1,0,1.72,1.37,1.37,0,0,1-.93.36Z"/><path class="cls-13" d="M272.66,104.54h-37a1.37,1.37,0,0,1-.93-.36,1.15,1.15,0,0,1,0-1.72,1.37,1.37,0,0,1,.93-.36h37a1.37,1.37,0,0,1,.93.35,1.15,1.15,0,0,1,0,1.72,1.36,1.36,0,0,1-.93.36Z"/><path class="cls-13" d="M272.66,111h-37a1.39,1.39,0,0,1-.5-.09,1.32,1.32,0,0,1-.43-.26,1.21,1.21,0,0,1-.29-.39,1.13,1.13,0,0,1,0-.93,1.22,1.22,0,0,1,.28-.39,1.33,1.33,0,0,1,.42-.26,1.41,1.41,0,0,1,.5-.09h37a1.37,1.37,0,0,1,.93.36,1.15,1.15,0,0,1,0,1.72,1.37,1.37,0,0,1-.93.36Z"/><path class="cls-13" d="M272.66,118.29h-37a1.2,1.2,0,0,1-.93-.47,1.9,1.9,0,0,1,0-2.29,1.2,1.2,0,0,1,.93-.48h37a1.2,1.2,0,0,1,.93.47,1.9,1.9,0,0,1,0,2.29,1.2,1.2,0,0,1-.93.47Z"/><path class="cls-16" d="M291,69.75a21,21,0,1,0-21-21A21,21,0,0,0,291,69.75Z"/><path class="cls-14" d="M294.51,49.12V37.39h-6.28V49.12H285.3l3,5.06,3,5.06,3-5.06,3-5.06Z"/><path class="cls-13" d="M1260,105.28H1147a2.5,2.5,0,0,1-2.5-2.51V36.69a2.5,2.5,0,0,1,2.5-2.51H1260a2.5,2.5,0,0,1,2.5,2.51v66.09a2.5,2.5,0,0,1-2.5,2.51Z"/><path class="cls-12" d="M1267.49,115.17h-128V30.8a2.81,2.81,0,0,1,2.81-2.8h122.36a2.81,2.81,0,0,1,2.81,2.8Zm-127.39-.59h126.8V30.8a2.21,2.21,0,0,0-2.22-2.21H1142.32a2.22,2.22,0,0,0-2.22,2.21Z"/><path class="cls-14" d="M1231.63,91.68h-56.25a2.46,2.46,0,0,1-1.75-.74,2.54,2.54,0,0,1-.73-1.78V50.92a2.54,2.54,0,0,1,.73-1.78,2.46,2.46,0,0,1,1.75-.74h56.25a2.46,2.46,0,0,1,1.75.74,2.54,2.54,0,0,1,.73,1.78V89.16a2.54,2.54,0,0,1-.73,1.78,2.46,2.46,0,0,1-1.75.74Z"/><path class="cls-12" d="M1184.33,65.1a2,2,0,0,1-1.2-.42,2.43,2.43,0,0,1-.8-1.11,2.8,2.8,0,0,1-.12-1.43,2.6,2.6,0,0,1,.59-1.27,2.1,2.1,0,0,1,1.11-.68,1.91,1.91,0,0,1,1.25.14,2.25,2.25,0,0,1,1,.91,2.73,2.73,0,0,1,.36,1.37,2.67,2.67,0,0,1-.63,1.75,2,2,0,0,1-1.53.73Z"/><path class="cls-16" d="M1184.33,72.51a2.17,2.17,0,1,1,1.53-.63,2.16,2.16,0,0,1-1.53.63Z"/><path class="cls-16" d="M1184.33,80.55a2,2,0,0,1-1.2-.42,2.43,2.43,0,0,1-.8-1.11,2.8,2.8,0,0,1-.12-1.43,2.6,2.6,0,0,1,.59-1.27,2.1,2.1,0,0,1,1.11-.68,1.91,1.91,0,0,1,1.25.14,2.25,2.25,0,0,1,1,.91,2.73,2.73,0,0,1,.36,1.37,2.67,2.67,0,0,1-.63,1.75,2,2,0,0,1-1.53.73Z"/><path class="cls-12" d="M1195.81,60.15a1.79,1.79,0,0,0-1.34.63,2.39,2.39,0,0,0,0,3.06,1.79,1.79,0,0,0,1.34.63h27.12a1.79,1.79,0,0,0,1.34-.63,2.39,2.39,0,0,0,0-3.06,1.79,1.79,0,0,0-1.34-.63Z"/><path class="cls-16" d="M1195.81,68.8a2.13,2.13,0,0,0-1.34.45,1.35,1.35,0,0,0,0,2.19,2.13,2.13,0,0,0,1.34.45h27.12a2.13,2.13,0,0,0,1.34-.45,1.35,1.35,0,0,0,0-2.19,2.13,2.13,0,0,0-1.34-.45Z"/><path class="cls-16" d="M1195.81,76.22a1.92,1.92,0,0,0-1.34.54,1.83,1.83,0,0,0,0,2.62,1.92,1.92,0,0,0,1.34.54h27.12a1.92,1.92,0,0,0,1.34-.54,1.83,1.83,0,0,0,0-2.62,1.92,1.92,0,0,0-1.34-.54Z"/><path class="cls-16" d="M1176.42,104.66H1144a1.46,1.46,0,0,1-1-.4,1.34,1.34,0,0,1-.42-1V82.54a1.34,1.34,0,0,1,.42-1,1.46,1.46,0,0,1,1-.4h32.39a1.46,1.46,0,0,1,1,.4,1.34,1.34,0,0,1,.42,1V103.3a1.34,1.34,0,0,1-.42,1,1.46,1.46,0,0,1-1,.4Z"/><path class="cls-16" d="M1220.12,104.66h-22.73a.89.89,0,0,1-.71-.4,1.65,1.65,0,0,1-.29-1V82.54a1.65,1.65,0,0,1,.29-1,.89.89,0,0,1,.71-.4h22.73a.89.89,0,0,1,.71.4,1.66,1.66,0,0,1,.29,1V103.3a1.66,1.66,0,0,1-.29,1,.89.89,0,0,1-.71.4Z"/><path class="cls-14" d="M1155.29,92.78h-1.73a1.08,1.08,0,0,0-.1-.37.84.84,0,0,0-.21-.29.9.9,0,0,0-.33-.19,1.32,1.32,0,0,0-.44-.07,1.27,1.27,0,0,0-.73.2,1.24,1.24,0,0,0-.45.57,2.4,2.4,0,0,0-.15.9,2.44,2.44,0,0,0,.15.93,1.19,1.19,0,0,0,.45.56,1.3,1.3,0,0,0,.71.19,1.46,1.46,0,0,0,.42-.06,1,1,0,0,0,.33-.17.87.87,0,0,0,.22-.26,1,1,0,0,0,.12-.35h1.73a2.17,2.17,0,0,1-.22.78,2.53,2.53,0,0,1-.55.73,2.67,2.67,0,0,1-.87.53,3.63,3.63,0,0,1-2.76-.15,2.63,2.63,0,0,1-1.08-1,3.35,3.35,0,0,1-.4-1.69,3.29,3.29,0,0,1,.41-1.69,2.65,2.65,0,0,1,1.09-1,3.29,3.29,0,0,1,1.53-.36,3.67,3.67,0,0,1,1.1.16,2.67,2.67,0,0,1,.88.46,2.27,2.27,0,0,1,.61.73A2.59,2.59,0,0,1,1155.29,92.78Z"/><path class="cls-14" d="M1156,91.84V90.53h5.46v1.32h-1.89v4.7h-1.68v-4.7Z"/><path class="cls-14" d="M1162.17,96.54v-6h2.71a2.88,2.88,0,0,1,1.22.24,1.88,1.88,0,0,1,.82.7,2,2,0,0,1,.29,1.1,1.9,1.9,0,0,1-.3,1.09,1.83,1.83,0,0,1-.84.67,3.21,3.21,0,0,1-1.25.23h-1.62V93.29h1.28a1.63,1.63,0,0,0,.51-.07.65.65,0,0,0,.33-.23.68.68,0,0,0,.12-.41.7.7,0,0,0-.12-.42.65.65,0,0,0-.33-.24,1.46,1.46,0,0,0-.51-.08h-.6v4.71Zm3.68-2.76,1.57,2.76h-1.85L1164,93.78Z"/><path class="cls-14" d="M1168,96.54v-6h1.71v4.7h2.54v1.32Z"/><path class="cls-14" d="M1209.06,96.63h-2.16V90.44H1209a2.88,2.88,0,0,1,1.49.37,2.44,2.44,0,0,1,1,1.06,3.68,3.68,0,0,1,.34,1.66,3.72,3.72,0,0,1-.34,1.66,2.48,2.48,0,0,1-1,1.06A2.87,2.87,0,0,1,1209.06,96.63Zm-.63-1.43h.58a1.55,1.55,0,0,0,.71-.15,1,1,0,0,0,.45-.51,2.62,2.62,0,0,0,.16-1,2.57,2.57,0,0,0-.16-1,1,1,0,0,0-.46-.51,1.66,1.66,0,0,0-.74-.15h-.54Z"/><path class="cls-15" d="M1186.77,96V91.68h1.31V96Zm-1.51-1.51V93.19h4.33V94.5Z"/><rect x="1154.97" y="104.05" width="1.24" height="9.89"/><rect x="1211.85" y="104.05" width="1.24" height="9.89"/><path class="cls-16" d="M1269.59,111.06h-5.16v-.89a1.18,1.18,0,0,0-1.18-1.18h-6.2a1.18,1.18,0,0,0-1.18,1.18v.89H1255v-.89a1.18,1.18,0,0,0-1.18-1.18h-6.2a1.18,1.18,0,0,0-1.18,1.18v.89h-.89v-.89a1.18,1.18,0,0,0-1.18-1.18h-6.2a1.18,1.18,0,0,0-1.18,1.18v.89h-.88v-.89a1.18,1.18,0,0,0-1.18-1.18h-6.2a1.18,1.18,0,0,0-1.18,1.18v.89h-.89v-.89a1.18,1.18,0,0,0-1.18-1.18h-6.2a1.18,1.18,0,0,0-1.18,1.18v.89h-.89v-.89A1.18,1.18,0,0,0,1216,109h-6.2a1.18,1.18,0,0,0-1.18,1.18v.89h-.88v-.89a1.18,1.18,0,0,0-1.18-1.18h-6.2a1.18,1.18,0,0,0-1.18,1.18v.89h-.88v-.89a1.18,1.18,0,0,0-1.18-1.18H1191a1.18,1.18,0,0,0-1.18,1.18v.89h-.89v-.89a1.18,1.18,0,0,0-1.18-1.18h-6.2a1.18,1.18,0,0,0-1.18,1.18v.89h-.89v-.89a1.18,1.18,0,0,0-1.18-1.18h-6.2a1.18,1.18,0,0,0-1.18,1.18v.89H1170v-.89a1.18,1.18,0,0,0-1.18-1.18h-6.2a1.18,1.18,0,0,0-1.18,1.18v.89h-.89v-.89a1.18,1.18,0,0,0-1.18-1.18h-6.2a1.18,1.18,0,0,0-1.18,1.18v.89h-.89v-.89a1.18,1.18,0,0,0-1.18-1.18h-6.2a1.18,1.18,0,0,0-1.18,1.18v.89h-5.16a8.41,8.41,0,0,0-8.41,8.41h0a2.51,2.51,0,0,0,2.51,2.51h144a2.51,2.51,0,0,0,2.51-2.51h0a8.41,8.41,0,0,0-8.41-8.41Z"/><path class="cls-13" d="M246.48,340.1H133.2a1.78,1.78,0,0,1-1.78-1.78V289.21a1.78,1.78,0,0,1,1.78-1.78H246.48a1.78,1.78,0,0,1,1.79,1.78v49.11a1.78,1.78,0,0,1-1.79,1.78Zm-113.28-52a1.07,1.07,0,0,0-1.07,1.07v49.11a1.07,1.07,0,0,0,1.07,1.07H246.48a1.07,1.07,0,0,0,1.07-1.07V289.21a1.07,1.07,0,0,0-1.07-1.07Z"/><path class="cls-13" d="M137.81,293.62a1.07,1.07,0,0,0-.76.32,1.13,1.13,0,0,0,0,1.56,1.07,1.07,0,0,0,.76.32h15.1a1.07,1.07,0,0,0,.76-.32,1.13,1.13,0,0,0,0-1.56,1.07,1.07,0,0,0-.76-.32Z"/><path class="cls-13" d="M240.3,301.13v19.93H139.38V310.57c.7-.45,1.4-.9,2.11-1.33A29.15,29.15,0,0,1,151.3,305a14.72,14.72,0,0,1,5.06-.06,28.79,28.79,0,0,1,5.15,1.52,35,35,0,0,0,5.05,1.59,14.71,14.71,0,0,0,5.12.1,44.09,44.09,0,0,0,9.33-3,30.16,30.16,0,0,1,9.51-2.47,28.24,28.24,0,0,1,9.59,1.59c6.31,2,12.76,4.87,19.45,2.87s13-7.86,20.56-6.12A.28.28,0,0,1,240.3,301.13Z"/><path class="cls-16" d="M240.69,301.45a.3.3,0,0,1-.15.13.32.32,0,0,1-.2,0,11.66,11.66,0,0,0-2.74-.27c-7.42.13-13.13,5.91-20.39,6.77-6.55.78-12.71-2.3-18.86-3.91a23.07,23.07,0,0,0-9.79-.71,53.06,53.06,0,0,0-9.41,3,28.07,28.07,0,0,1-9.25,2.18c-3.53.06-6.7-1.35-10-2.42a18.3,18.3,0,0,0-5.25-1,16.39,16.39,0,0,0-5.17.77,42.22,42.22,0,0,0-9.66,4.87.28.28,0,0,1-.18,0,.33.33,0,0,1-.18-.08.32.32,0,0,1-.1-.16.31.31,0,0,1,0-.19.32.32,0,0,1,.12-.15l.14-.09c.7-.44,1.4-.87,2.11-1.29a29.75,29.75,0,0,1,9.82-4.1,15.29,15.29,0,0,1,5.07-.06,29.58,29.58,0,0,1,5.16,1.47,36.09,36.09,0,0,0,5.06,1.54,15.27,15.27,0,0,0,5.13.1,45.35,45.35,0,0,0,9.34-2.88,31.1,31.1,0,0,1,9.52-2.38,29.24,29.24,0,0,1,9.6,1.53c6.32,1.89,12.78,4.69,19.47,2.77s13-7.58,20.58-5.91a.28.28,0,0,1,.18.11.31.31,0,0,1,0,.34Z"/><path class="cls-16" d="M153.32,306.46a1.55,1.55,0,1,0-1.55-1.55A1.55,1.55,0,0,0,153.32,306.46Z"/><path class="cls-16" d="M190.73,304.69a1.57,1.57,0,1,0-1.33-1.55A1.45,1.45,0,0,0,190.73,304.69Z"/><path class="cls-16" d="M236.32,302.48a1.33,1.33,0,1,0-1.33-1.33A1.33,1.33,0,0,0,236.32,302.48Z"/><path class="cls-13" d="M152.41,329a1.07,1.07,0,0,0-.76.32,1.13,1.13,0,0,0,0,1.57,1.07,1.07,0,0,0,.76.32h15.1a1.07,1.07,0,0,0,.76-.32,1.13,1.13,0,0,0,0-1.57,1.07,1.07,0,0,0-.76-.32Z"/><path class="cls-16" d="M142.92,334.34a4.21,4.21,0,1,0-4-4.2A4.1,4.1,0,0,0,142.92,334.34Z"/><path class="cls-13" d="M188.71,329a1.06,1.06,0,0,0-.76.32,1.13,1.13,0,0,0,0,1.57,1.06,1.06,0,0,0,.76.32h15.1a1.06,1.06,0,0,0,.76-.32,1.13,1.13,0,0,0,0-1.57,1.06,1.06,0,0,0-.76-.32Z"/><path class="cls-16" d="M179,334.34a4.2,4.2,0,1,0-4.2-4.2A4.2,4.2,0,0,0,179,334.34Z"/><path class="cls-13" d="M225,329a1,1,0,0,0-.74.32,1.15,1.15,0,0,0,0,1.57,1,1,0,0,0,.74.32h14.72a1,1,0,0,0,.74-.32,1.15,1.15,0,0,0,0-1.57,1,1,0,0,0-.74-.32Z"/><path class="cls-16" d="M215.07,334.34a4.21,4.21,0,1,0-4-4.2A4.1,4.1,0,0,0,215.07,334.34Z"/><path class="cls-13" d="M238.77,274.15H183c-1.09,0-2-.63-2-1.41V260.51c0-.78.88-1.41,2-1.41h55.81c1.09,0,2,.63,2,1.41v12.22C240.74,273.51,239.86,274.15,238.77,274.15ZM183,259.66c-.65,0-1.18.38-1.18.85v12.22c0,.47.53.85,1.18.85h55.81c.65,0,1.18-.38,1.18-.85V260.51c0-.47-.53-.85-1.18-.85Z"/><path class="cls-16" d="M195.46,266.18a1.2,1.2,0,0,0-.84.35,1.17,1.17,0,0,0-.35.83v8.26a1.17,1.17,0,0,0,.35.83,1.2,1.2,0,0,0,.84.35h42.76a1.2,1.2,0,0,0,.84-.35,1.17,1.17,0,0,0,.35-.83v-8.26a1.17,1.17,0,0,0-.35-.83,1.2,1.2,0,0,0-.84-.35Z"/><path class="cls-14" d="M201.35,274.15a2.66,2.66,0,1,0-2.66-2.66A2.66,2.66,0,0,0,201.35,274.15Z"/><path class="cls-14" d="M213.47,270.61a1.16,1.16,0,0,0-.74.26.79.79,0,0,0,0,1.25,1.16,1.16,0,0,0,.74.26h14.72a1.16,1.16,0,0,0,.74-.26.79.79,0,0,0,0-1.25,1.16,1.16,0,0,0-.74-.26Z"/><g class="cls-17"><path class="cls-13" d="M109.16,160.85h-.6V144.3A9.57,9.57,0,0,0,99,134.73H64a9.57,9.57,0,0,0-9.57,9.58v90.78A9.57,9.57,0,0,0,64,244.66H99a9.57,9.57,0,0,0,9.57-9.58V172.63h.6Z"/><path class="cls-14" d="M99.37,137.22H94.8a3.4,3.4,0,0,1-3.14,4.68H71.6a3.4,3.4,0,0,1-3.14-4.68H64.18A7.15,7.15,0,0,0,57,144.37V235a7.15,7.15,0,0,0,7.14,7.15H99.37a7.15,7.15,0,0,0,7.14-7.15h0V144.37a7.15,7.15,0,0,0-7.14-7.15Z"/><path class="cls-12" d="M103.62,208.41H61.42a.78.78,0,0,1-.78-.78V197.15a.78.78,0,0,1,.78-.78h42.19a.78.78,0,0,1,.78.78v10.48a.78.78,0,0,1-.78.78ZM61.42,196.69a.47.47,0,0,0-.47.47v10.48a.47.47,0,0,0,.47.47h42.19a.47.47,0,0,0,.47-.47V197.15a.47.47,0,0,0-.47-.47Z"/><path class="cls-12" d="M66.89,205.68a3.29,3.29,0,1,0-3.28-3.29A3.28,3.28,0,0,0,66.89,205.68Z"/><path class="cls-13" d="M74.47,200.2a.55.55,0,0,0-.39.16.55.55,0,0,0,.39.94h25.79a.54.54,0,0,0,.21,0,.55.55,0,0,0,.3-.29.54.54,0,0,0,0-.21.56.56,0,0,0,0-.21.55.55,0,0,0-.12-.18.54.54,0,0,0-.18-.12.55.55,0,0,0-.21,0H74.47Z"/><path class="cls-13" d="M74.47,203.49a.55.55,0,0,0,0,1.1h25.79a.55.55,0,0,0,.39-.15.55.55,0,0,0,.12-.18.54.54,0,0,0,0-.21.55.55,0,0,0-.15-.39.55.55,0,0,0-.39-.17H74.47Z"/><path class="cls-12" d="M103.62,225.93H61.42a.78.78,0,0,1-.78-.78V214.67a.78.78,0,0,1,.78-.78h42.19a.78.78,0,0,1,.78.78v10.48a.78.78,0,0,1-.78.78ZM61.42,214.21a.47.47,0,0,0-.47.47v10.48a.47.47,0,0,0,.47.47h42.19a.47.47,0,0,0,.47-.47V214.67a.47.47,0,0,0-.47-.47Z"/><path class="cls-12" d="M66.89,223.2a3.29,3.29,0,1,0-3.28-3.28A3.28,3.28,0,0,0,66.89,223.2Z"/><path class="cls-13" d="M74.47,217.72a.55.55,0,1,0,0,1.09h25.79a.55.55,0,0,0,.56-.54.55.55,0,0,0-.15-.39.55.55,0,0,0-.39-.17H74.47Z"/><path class="cls-13" d="M74.47,221a.55.55,0,0,0,0,1.1h25.79a.55.55,0,0,0,.39-.15.55.55,0,0,0,.12-.18.54.54,0,0,0,0-.21.55.55,0,0,0-.15-.39.55.55,0,0,0-.39-.17H74.47Z"/><path class="cls-12" d="M81.63,186.67a14.85,14.85,0,0,1-14.85-14.85h0s0-.06,0-.09a14.84,14.84,0,1,1,14.85,15h0Zm0-29.41A14.57,14.57,0,0,0,67.1,171.73s0,.06,0,.09a14.53,14.53,0,1,0,14.53-14.55Z"/><path class="cls-16" d="M89.32,178.1H74.24l7.11-12.33a.5.5,0,0,1,.87,0L87,174l.23.4Z"/><path class="cls-16" d="M125,158.37a2.15,2.15,0,0,1,0,.43,3.21,3.21,0,0,1-2.51,0,2.18,2.18,0,0,1,0-.43,1.69,1.69,0,0,1,.91-1.61,1,1,0,1,1,.77,0A1.69,1.69,0,0,1,125,158.37Z"/><path class="cls-12" d="M40,190.75l12.39,12.5h5.85v.2H52.36l0,0L39.91,190.89Z"/><path class="cls-15" d="M35.95,193.05a5.32,5.32,0,0,1-5.32-5.32h0v0a5.32,5.32,0,1,1,5.32,5.36Zm0-10.54a5.22,5.22,0,0,0-5.21,5.18v0a5.21,5.21,0,1,0,5.21-5.21Z"/><path class="cls-12" d="M40,209.36l12.39,12.5h5.85v.2H52.36l0,0L39.91,209.5Z"/><path class="cls-15" d="M35.95,200.87a5.32,5.32,0,0,0-5.32,5.32h0v0a5.32,5.32,0,1,0,5.32-5.36Zm0,10.54a5.22,5.22,0,0,1-5.21-5.18v0a5.21,5.21,0,1,1,5.21,5.21Z"/><path class="cls-12" d="M37.6,190.18v-2.83H37v2.83Z"/><path class="cls-16" d="M36.23,190.18v-4.91h-.57v4.91Z"/><path class="cls-16" d="M34.87,190.18V186.5H34.3v3.69Z"/><path class="cls-18" d="M34.27,206.79a.59.59,0,1,0-.59-.59A.59.59,0,0,0,34.27,206.79Z"/><path class="cls-19" d="M37.62,206.79a.59.59,0,1,0-.59-.59A.59.59,0,0,0,37.62,206.79Z"/><path class="cls-20" d="M35.95,206.79a.59.59,0,1,0-.59-.59A.59.59,0,0,0,35.95,206.79Z"/><path class="cls-15" d="M123.67,162.27a5.32,5.32,0,0,1-5.32-5.32h0v0a5.32,5.32,0,1,1,5.32,5.36Zm0-10.54a5.22,5.22,0,0,0-5.21,5.18v0a5.21,5.21,0,1,0,5.21-5.21Z"/><path class="cls-12" d="M118.21,159.11l-12.39,12.5H100v.2h5.93l0,0,12.42-12.53Z"/><circle class="cls-16" cx="101.64" cy="219.38" r="16.6"/><circle class="cls-16" cx="117.16" cy="228.36" r="10.89"/><circle class="cls-16" cx="83.95" cy="225.64" r="13.61"/><rect class="cls-16" x="83.41" y="225.64" width="34.84" height="13.61"/><path class="cls-14" d="M91,229.38a.76.76,0,0,1-.38-.07.31.31,0,0,1-.15-.19,1.17,1.17,0,0,1,0-.31V221.3a1,1,0,0,1,0-.3.36.36,0,0,1,.16-.19.76.76,0,0,1,.38-.07.69.69,0,0,1,.36.07.26.26,0,0,1,.15.19,1.08,1.08,0,0,1,0,.31v7.51a1,1,0,0,1,0,.3.3.3,0,0,1-.16.19A.69.69,0,0,1,91,229.38Z"/><path class="cls-14" d="M97.13,229.46a3,3,0,0,1-1.18-.24,3.41,3.41,0,0,1-1-.64,3.11,3.11,0,0,1-.69-1,3.06,3.06,0,0,1,0-2.4,3,3,0,0,1,.67-1,3.13,3.13,0,0,1,1-.66,3.05,3.05,0,0,1,4.3,2.81,3,3,0,0,1-.93,2.22,3.24,3.24,0,0,1-1,.64A3.06,3.06,0,0,1,97.13,229.46Zm0-1.08a1.94,1.94,0,0,0,1-.26,2,2,0,0,0,.73-.72,2.11,2.11,0,0,0,0-2.07,1.76,1.76,0,0,0-.7-.69,2.11,2.11,0,0,0-1-.25,2,2,0,0,0-1,.26,2.08,2.08,0,0,0-.72.71,2,2,0,0,0-.26,1,2,2,0,0,0,.28,1.05,2,2,0,0,0,.73.71A2.09,2.09,0,0,0,97.11,228.38Z"/><path class="cls-14" d="M107.75,220.74a.78.78,0,0,1,.26,0,.31.31,0,0,1,.18.15.65.65,0,0,1,.06.33.6.6,0,0,1-.08.33.31.31,0,0,1-.18.15l-.28,0h-2.6v7.07a.75.75,0,0,1-.05.28.3.3,0,0,1-.16.19.65.65,0,0,1-.35.07.76.76,0,0,1-.38-.07.3.3,0,0,1-.15-.19,1.63,1.63,0,0,1,0-.3v-7.06h-2.64l-.28,0a.31.31,0,0,1-.18-.15.7.7,0,0,1-.06-.33.79.79,0,0,1,.05-.33.31.31,0,0,1,.18-.15,1,1,0,0,1,.28,0Z"/></g><g class="cls-21"><path class="cls-16" d="M1336.62,182.62s-5.36,3-3.82,6.39,23.45.62,23.45.62-1.54-4.64-4.32-5.56S1336.62,182.62,1336.62,182.62Z"/><path class="cls-12" d="M1334.53,183.41a10.42,10.42,0,0,1,3.53-1.46,23.88,23.88,0,0,1,12.71.4l-.08-.06a14.19,14.19,0,0,1,4.53,3.78Z"/><path class="cls-12" d="M1358.27,198l-.22,3.33a53.5,53.5,0,0,1-.76,6.92,15.17,15.17,0,0,1-2,5.44,8.08,8.08,0,0,1-4.54,3.46,8.31,8.31,0,0,1-3.52.08c-2.2-1.25-3.69.35-1.49,2a17,17,0,0,0,1.55,1l1,15.41-18.51-4,3.61-20.51a12.19,12.19,0,0,1-1.51-1.65,15.27,15.27,0,0,1-2.65-9.79,45.62,45.62,0,0,1,2-10.13,26.19,26.19,0,0,1,.84-2.66c.4.17.81.32,1.23.45a28.26,28.26,0,0,0,8.28.87q7.43,0,14.84-.58a14.28,14.28,0,0,1,2,6.16,28.63,28.63,0,0,1-.07,4.21Z"/><path d="M1204.18,222.27V254h22.17v-31.7a1.07,1.07,0,0,0-.75-1,1,1,0,0,0-.32,0h-20a1.07,1.07,0,0,0-1.07,1.07Zm8.65,10.89a2.37,2.37,0,0,1,4.73,0v3.68a2.37,2.37,0,0,1-4.73,0Z"/><path class="cls-15" d="M1204.11,253V256a.6.6,0,0,0,.6.6h21.11a.6.6,0,0,0,.6-.6V253Z"/><path d="M1169.3,174.51v57.88a2.78,2.78,0,0,0,2.78,2.78h85.63a2.78,2.78,0,0,0,2.78-2.78V174.51a2.78,2.78,0,0,0-2.78-2.78h-85.63a2.78,2.78,0,0,0-2.78,2.78Z"/><path class="cls-16" d="M1171.31,175.23v56.45a1.49,1.49,0,0,0,1.48,1.49H1257a1.49,1.49,0,0,0,1.48-1.49V175.23a1.49,1.49,0,0,0-1.48-1.49h-84.2a1.49,1.49,0,0,0-1.48,1.49Z"/><path d="M1188.48,257.33a.91.91,0,0,0,.72.34h50.09a.92.92,0,0,0,.89-.71.92.92,0,0,0,0-.41l-.78-3.7a.92.92,0,0,0-.57-.67.9.9,0,0,0-.33-.06H1190a.9.9,0,0,0-.33.06.92.92,0,0,0-.57.67l-.78,3.7a.92.92,0,0,0,.19.77Z"/><path class="cls-13" d="M1236.76,253.72H1238a.15.15,0,0,0,.15-.15v-.63a.15.15,0,0,0-.15-.15h-1.24a.15.15,0,0,0-.15.15v.63A.15.15,0,0,0,1236.76,253.72Z"/><path class="cls-13" d="M1233.68,253.72h1.24a.15.15,0,0,0,.15-.15v-.63a.15.15,0,0,0-.15-.15h-1.24a.15.15,0,0,0-.15.15v.63A.15.15,0,0,0,1233.68,253.72Z"/><path class="cls-13" d="M1230.59,253.72h1.24a.15.15,0,0,0,.15-.15v-.63a.15.15,0,0,0-.15-.15h-1.24a.15.15,0,0,0-.15.15v.63A.15.15,0,0,0,1230.59,253.72Z"/><path class="cls-13" d="M1227.5,253.72h1.24a.15.15,0,0,0,.15-.15v-.63a.15.15,0,0,0-.15-.15h-1.24a.15.15,0,0,0-.15.15v.63A.15.15,0,0,0,1227.5,253.72Z"/><path class="cls-13" d="M1224.42,253.72h1.24a.15.15,0,0,0,.15-.15v-.63a.15.15,0,0,0-.15-.15h-1.24a.15.15,0,0,0-.15.15v.63A.15.15,0,0,0,1224.42,253.72Z"/><path class="cls-13" d="M1221.33,253.72h1.24a.15.15,0,0,0,.15-.15v-.63a.15.15,0,0,0-.15-.15h-1.24a.15.15,0,0,0-.15.15v.63A.15.15,0,0,0,1221.33,253.72Z"/><path class="cls-13" d="M1218.25,253.72h1.24a.15.15,0,0,0,.15-.15v-.63a.15.15,0,0,0-.15-.15h-1.24a.15.15,0,0,0-.15.15v.63A.15.15,0,0,0,1218.25,253.72Z"/><path class="cls-13" d="M1215.16,253.72h1.24a.15.15,0,0,0,.15-.15v-.63a.15.15,0,0,0-.15-.15h-1.24a.15.15,0,0,0-.15.15v.63A.15.15,0,0,0,1215.16,253.72Z"/><path class="cls-13" d="M1212.08,253.72h1.24a.15.15,0,0,0,.15-.15v-.63a.15.15,0,0,0-.15-.15h-1.24a.15.15,0,0,0-.15.15v.63A.15.15,0,0,0,1212.08,253.72Z"/><path class="cls-13" d="M1209,253.72h1.24a.15.15,0,0,0,.15-.15v-.63a.15.15,0,0,0-.15-.15H1209a.15.15,0,0,0-.15.15v.63A.15.15,0,0,0,1209,253.72Z"/><path class="cls-13" d="M1205.91,253.72h1.24a.15.15,0,0,0,.15-.15v-.63a.15.15,0,0,0-.15-.15h-1.24a.15.15,0,0,0-.15.15v.63A.15.15,0,0,0,1205.91,253.72Z"/><path class="cls-13" d="M1202.82,253.72h1.24a.15.15,0,0,0,.15-.15v-.63a.15.15,0,0,0-.15-.15h-1.24a.15.15,0,0,0-.15.15v.63A.15.15,0,0,0,1202.82,253.72Z"/><path class="cls-13" d="M1199.73,253.72H1201a.15.15,0,0,0,.15-.15v-.63a.15.15,0,0,0-.15-.15h-1.24a.15.15,0,0,0-.15.15v.63A.15.15,0,0,0,1199.73,253.72Z"/><path class="cls-13" d="M1196.65,253.72h1.24a.15.15,0,0,0,.15-.15v-.63a.15.15,0,0,0-.15-.15h-1.24a.15.15,0,0,0-.15.15v.63A.15.15,0,0,0,1196.65,253.72Z"/><path class="cls-13" d="M1193.56,253.72h1.24a.15.15,0,0,0,.15-.15v-.63a.15.15,0,0,0-.15-.15h-1.24a.15.15,0,0,0-.15.15v.63A.15.15,0,0,0,1193.56,253.72Z"/><path class="cls-13" d="M1190.48,253.72h1.24a.15.15,0,0,0,.15-.15v-.63a.15.15,0,0,0-.15-.15h-1.24a.15.15,0,0,0-.15.15v.63A.15.15,0,0,0,1190.48,253.72Z"/><path class="cls-13" d="M1236.8,255.27H1238a.15.15,0,0,0,.15-.15v-.63a.15.15,0,0,0-.15-.15h-1.24a.15.15,0,0,0-.15.15v.63A.15.15,0,0,0,1236.8,255.27Z"/><path class="cls-13" d="M1233.71,255.27H1235a.15.15,0,0,0,.15-.15v-.63a.15.15,0,0,0-.15-.15h-1.24a.15.15,0,0,0-.15.15v.63A.15.15,0,0,0,1233.71,255.27Z"/><path class="cls-13" d="M1230.63,255.27h1.24a.15.15,0,0,0,.15-.15v-.63a.15.15,0,0,0-.15-.15h-1.24a.15.15,0,0,0-.15.15v.63A.15.15,0,0,0,1230.63,255.27Z"/><path class="cls-13" d="M1227.54,255.27h1.24a.15.15,0,0,0,.15-.15v-.63a.15.15,0,0,0-.15-.15h-1.24a.15.15,0,0,0-.15.15v.63A.15.15,0,0,0,1227.54,255.27Z"/><path class="cls-13" d="M1224.46,255.27h1.24a.15.15,0,0,0,.15-.15v-.63a.15.15,0,0,0-.15-.15h-1.24a.15.15,0,0,0-.15.15v.63A.15.15,0,0,0,1224.46,255.27Z"/><path class="cls-13" d="M1221.37,255.27h1.24a.15.15,0,0,0,.15-.15v-.63a.15.15,0,0,0-.15-.15h-1.24a.15.15,0,0,0-.15.15v.63A.15.15,0,0,0,1221.37,255.27Z"/><path class="cls-13" d="M1218.28,255.27h1.24a.15.15,0,0,0,.15-.15v-.63a.15.15,0,0,0-.15-.15h-1.24a.15.15,0,0,0-.15.15v.63A.15.15,0,0,0,1218.28,255.27Z"/><path class="cls-13" d="M1215.2,255.27h1.24a.15.15,0,0,0,.15-.15v-.63a.15.15,0,0,0-.15-.15h-1.24a.15.15,0,0,0-.15.15v.63A.15.15,0,0,0,1215.2,255.27Z"/><path class="cls-13" d="M1212.11,255.27h1.24a.15.15,0,0,0,.15-.15v-.63a.15.15,0,0,0-.15-.15h-1.24a.15.15,0,0,0-.15.15v.63A.15.15,0,0,0,1212.11,255.27Z"/><path class="cls-13" d="M1209,255.27h1.24a.15.15,0,0,0,.15-.15v-.63a.15.15,0,0,0-.15-.15H1209a.15.15,0,0,0-.15.15v.63A.15.15,0,0,0,1209,255.27Z"/><path class="cls-13" d="M1205.94,255.27h1.24a.15.15,0,0,0,.15-.15v-.63a.15.15,0,0,0-.15-.15h-1.24a.15.15,0,0,0-.15.15v.63A.15.15,0,0,0,1205.94,255.27Z"/><path class="cls-13" d="M1202.86,255.27h1.24a.15.15,0,0,0,.15-.15v-.63a.15.15,0,0,0-.15-.15h-1.24a.15.15,0,0,0-.15.15v.63A.15.15,0,0,0,1202.86,255.27Z"/><path class="cls-13" d="M1199.77,255.27H1201a.15.15,0,0,0,.15-.15v-.63a.15.15,0,0,0-.15-.15h-1.24a.15.15,0,0,0-.15.15v.63A.15.15,0,0,0,1199.77,255.27Z"/><path class="cls-13" d="M1196.69,255.27h1.24a.15.15,0,0,0,.15-.15v-.63a.15.15,0,0,0-.15-.15h-1.24a.15.15,0,0,0-.15.15v.63A.15.15,0,0,0,1196.69,255.27Z"/><path class="cls-13" d="M1193.6,255.27h1.24a.15.15,0,0,0,.15-.15v-.63a.15.15,0,0,0-.15-.15h-1.24a.15.15,0,0,0-.15.15v.63A.15.15,0,0,0,1193.6,255.27Z"/><path class="cls-13" d="M1190.51,255.27h1.24a.15.15,0,0,0,.15-.15v-.63a.15.15,0,0,0-.15-.15h-1.24a.15.15,0,0,0-.15.15v.63A.15.15,0,0,0,1190.51,255.27Z"/><path class="cls-13" d="M1211.19,257.12h12a.15.15,0,0,0,.15-.15v-.63a.15.15,0,0,0-.15-.15h-12a.15.15,0,0,0-.15.15V257A.15.15,0,0,0,1211.19,257.12Z"/><path d="M1177,181.51h78.78a.31.31,0,0,0,0-.63H1177a.31.31,0,0,0,0,.63Z"/><path d="M1250.45,179.28a1.88,1.88,0,1,0-1.84-1.88A1.86,1.86,0,0,0,1250.45,179.28Z"/><path d="M1244.1,179.28a1.88,1.88,0,1,0-1.84-1.88A1.86,1.86,0,0,0,1244.1,179.28Z"/><path d="M1237.76,179.28a1.88,1.88,0,1,0-1.84-1.88A1.86,1.86,0,0,0,1237.76,179.28Z"/><path d="M1180.51,176.33a.34.34,0,0,0,.21.31l.13,0h4.51a.34.34,0,0,0,0-.68h-4.51a.34.34,0,0,0-.34.34Z"/><path d="M1180.51,177.61a.34.34,0,0,0,.21.31l.13,0h4.51a.34.34,0,0,0,0-.68h-4.51a.34.34,0,0,0-.34.34Z"/><path d="M1180.51,178.89a.34.34,0,0,0,.34.34h4.51a.34.34,0,0,0,0-.68h-4.51l-.13,0a.34.34,0,0,0-.21.31Z"/><path class="cls-13" d="M1181.9,188.8h-1.62a.89.89,0,0,0,0,1.78h1.62a.89.89,0,0,0,0-1.78Z"/><path class="cls-13" d="M1200.42,188.8h-1.62a.89.89,0,0,0,0,1.78h1.62a.89.89,0,0,0,0-1.78Z"/><path class="cls-13" d="M1205.66,188.8H1204a.89.89,0,0,0,0,1.78h1.62a.89.89,0,0,0,0-1.78Z"/><path class="cls-13" d="M1195.38,188.66h-10.06a.89.89,0,0,0,0,1.78h10.06a.89.89,0,0,0,0-1.78Z"/><path class="cls-13" d="M1220.06,188.66H1210a.89.89,0,0,0,0,1.78h10.06a.89.89,0,0,0,0-1.78Z"/><path class="cls-13" d="M1186.84,192.82h-1.62a.89.89,0,0,0,0,1.78h1.62a.89.89,0,0,0,0-1.78Z"/><path class="cls-13" d="M1205.35,192.82h-1.62a.89.89,0,0,0,0,1.78h1.62a.89.89,0,0,0,0-1.78Z"/><path class="cls-13" d="M1210.6,192.82H1209a.89.89,0,0,0,0,1.78h1.62a.89.89,0,0,0,0-1.78Z"/><path class="cls-13" d="M1200.32,192.67h-10.06a.89.89,0,0,0,0,1.78h10.06a.89.89,0,0,0,0-1.78Z"/><path class="cls-13" d="M1225,192.67h-10.06a.89.89,0,0,0,0,1.78H1225a.89.89,0,0,0,0-1.78Z"/><path class="cls-13" d="M1191.78,196.84h-1.62a.89.89,0,0,0,0,1.78h1.62a.89.89,0,0,0,0-1.78Z"/><path class="cls-13" d="M1210.29,196.84h-1.62a.89.89,0,0,0,0,1.78h1.62a.89.89,0,0,0,0-1.78Z"/><path class="cls-13" d="M1215.53,196.84h-1.62a.89.89,0,0,0,0,1.78h1.62a.89.89,0,0,0,0-1.78Z"/><path class="cls-13" d="M1205.25,196.69h-10.06a.89.89,0,0,0,0,1.78h10.06a.89.89,0,0,0,0-1.78Z"/><path class="cls-13" d="M1229.94,196.69h-10.06a.89.89,0,0,0,0,1.78h10.06a.89.89,0,0,0,0-1.78Z"/><path class="cls-13" d="M1196.71,200.86h-1.62a.89.89,0,0,0,0,1.78h1.62a.89.89,0,0,0,0-1.78Z"/><path class="cls-13" d="M1215.23,200.86h-1.62a.89.89,0,0,0,0,1.78h1.62a.89.89,0,0,0,0-1.78Z"/><path class="cls-13" d="M1220.47,200.86h-1.62a.89.89,0,0,0,0,1.78h1.62a.89.89,0,0,0,0-1.78Z"/><path class="cls-13" d="M1210.19,200.71h-10.06a.89.89,0,0,0,0,1.78h10.06a.89.89,0,0,0,0-1.78Z"/><path class="cls-13" d="M1200.42,216.84h-1.62a.89.89,0,0,0,0,1.78h1.62a.89.89,0,0,0,0-1.78Z"/><path class="cls-13" d="M1205.66,216.84H1204a.89.89,0,0,0,0,1.78h1.62a.89.89,0,0,0,0-1.78Z"/><path class="cls-13" d="M1220.06,217H1210a.89.89,0,0,0,0,1.78h10.06a.89.89,0,0,0,0-1.78Z"/><path class="cls-13" d="M1181.9,216.84h-1.62a.89.89,0,0,0,0,1.78h1.62a.89.89,0,0,0,0-1.78Z"/><path class="cls-13" d="M1195.38,217h-10.06a.89.89,0,0,0,0,1.78h10.06a.89.89,0,0,0,0-1.78Z"/><path class="cls-13" d="M1186.84,212.82h-1.62a.89.89,0,0,0,0,1.78h1.62a.89.89,0,0,0,0-1.78Z"/><path class="cls-13" d="M1205.35,212.82h-1.62a.89.89,0,0,0,0,1.78h1.62a.89.89,0,0,0,0-1.78Z"/><path class="cls-13" d="M1210.6,212.82H1209a.89.89,0,0,0,0,1.78h1.62a.89.89,0,0,0,0-1.78Z"/><path class="cls-13" d="M1200.32,213h-10.06a.89.89,0,0,0,0,1.78h10.06a.89.89,0,0,0,0-1.78Z"/><path class="cls-13" d="M1191.78,208.8h-1.62a.89.89,0,0,0,0,1.78h1.62a.89.89,0,0,0,0-1.78Z"/><path class="cls-13" d="M1210.29,208.8h-1.62a.89.89,0,0,0,0,1.78h1.62a.89.89,0,0,0,0-1.78Z"/><path class="cls-13" d="M1215.53,208.8h-1.62a.89.89,0,0,0,0,1.78h1.62a.89.89,0,0,0,0-1.78Z"/><path class="cls-13" d="M1205.25,208.95h-10.06a.89.89,0,0,0,0,1.78h10.06a.89.89,0,0,0,0-1.78Z"/><path class="cls-13" d="M1196.71,204.78h-1.62a.89.89,0,0,0,0,1.78h1.62a.89.89,0,0,0,0-1.78Z"/><path class="cls-13" d="M1215.23,204.78h-1.62a.89.89,0,0,0,0,1.78h1.62a.89.89,0,0,0,0-1.78Z"/><path class="cls-13" d="M1220.47,204.78h-1.62a.89.89,0,0,0,0,1.78h1.62a.89.89,0,0,0,0-1.78Z"/><path class="cls-13" d="M1210.19,204.93h-10.06a.89.89,0,0,0,0,1.78h10.06a.89.89,0,0,0,0-1.78Z"/><path d="M1354.09,228.88h-27.46V253h27.46Z"/><path class="cls-12" d="M1358.16,195.2a14.72,14.72,0,0,0,1.28,8.88c.5,1,1.11,2.23.51,3.19a2,2,0,0,1-1.48.82,4.8,4.8,0,0,1-1.72-.22"/><path class="cls-15" d="M1334,185.91a.79.79,0,1,0-.93-.77A.86.86,0,0,0,1334,185.91Z"/><path class="cls-15" d="M1337.43,186.22a.79.79,0,1,0-.93-.77A.86.86,0,0,0,1337.43,186.22Z"/><path class="cls-15" d="M1340.83,187.77a.79.79,0,1,0-.93-.77A.86.86,0,0,0,1340.83,187.77Z"/><path class="cls-15" d="M1344.84,186.84a.79.79,0,1,0-.93-.77A.86.86,0,0,0,1344.84,186.84Z"/><path d="M1260.58,201.49a14.23,14.23,0,0,1,13,3.16,13.57,13.57,0,0,1,4,6.23,33.27,33.27,0,0,1,1.13,8.86c.1,3.29.19,6.58.29,9.87.09,3.14.1,6.29.31,9.42a16.51,16.51,0,0,0,2,7.63,10.46,10.46,0,0,0,5.68,4.33,22.55,22.55,0,0,0,7.36,1,56.84,56.84,0,0,0,8.59-.68c5.4-.87,10.73-3.07,14-7.63a12.66,12.66,0,0,0,2.44-7.12,23.23,23.23,0,0,0-1.93-8.65,62.88,62.88,0,0,1-2.76-8.15,34.23,34.23,0,0,1-.85-8,35.31,35.31,0,0,1,3.77-15.52,30.5,30.5,0,0,1,4.63-6.82,13.36,13.36,0,0,1,7.06-4.35,8.51,8.51,0,0,1,4.12.17.46.46,0,0,0,.25-.89,10.53,10.53,0,0,0-8.25,1.25,20.18,20.18,0,0,0-6,5.81,36,36,0,0,0-5.07,30.9c1.65,5.41,5.23,11,3.69,16.88-1.35,5.12-6,8.6-10.84,10.17a37.3,37.3,0,0,1-9.05,1.57,39.75,39.75,0,0,1-7.78,0,12.46,12.46,0,0,1-6.64-2.62,11,11,0,0,1-3.33-6.83,71.21,71.21,0,0,1-.47-8.85l-.29-10c-.16-5.66,0-11.94-3.7-16.63a15.4,15.4,0,0,0-12.25-5.75,13.82,13.82,0,0,0-3.38.5.46.46,0,0,0,.25.89Z"/><path class="cls-13" d="M1338.67,198.12a9.18,9.18,0,0,1-.31,2.38h0v0c-.62,2.3-2.11,3.91-3.85,3.91s-3.21-1.6-3.84-3.88c0-.16-.08-.32-.11-.48s-.08-.37-.1-.57,0-.31-.06-.47,0-.45,0-.68h0c0-.09,0-.17,0-.26V198h0a9.09,9.09,0,0,1,.08-1.17c0-.16,0-.32.08-.48s.08-.38.13-.57.09-.32.14-.48.14-.41.23-.61l.16-.37a4,4,0,0,1,3.36-2.58c1.9,0,3.51,1.94,4,4.6,0,0,0,.08,0,.12h0A9.2,9.2,0,0,1,1338.67,198.12Z"/><path class="cls-16" d="M1331.18,194.5a.25.25,0,0,1-.2.23l.16-.37A.26.26,0,0,1,1331.18,194.5Z"/><path class="cls-16" d="M1334.83,194.22h-2.72a.24.24,0,0,0,0,.48h2.72a.24.24,0,0,0,0-.48Z"/><path class="cls-16" d="M1331.1,195.58a.24.24,0,0,1-.24.24h-.24c0-.16.09-.32.14-.48h.11a.24.24,0,0,1,.24.24Z"/><path class="cls-16" d="M1332.28,195.35h-.44a.24.24,0,0,0,0,.48h.44a.24.24,0,0,0,0-.48Z"/><path class="cls-16" d="M1336.16,195.31h-2.72a.24.24,0,0,0,0,.48h2.72a.24.24,0,0,0,0-.48Z"/><path class="cls-16" d="M1332.19,196.43h-.44a.24.24,0,0,0,0,.48h.44a.24.24,0,0,0,0-.48Z"/><path class="cls-16" d="M1333.61,196.43h-.44a.24.24,0,0,0,0,.48h.44a.24.24,0,0,0,0-.48Z"/><path class="cls-16" d="M1331.08,196.63a.24.24,0,0,1-.24.24h-.42c0-.16,0-.32.08-.48h.34l.09,0,.08.05a.24.24,0,0,1,.07.17Z"/><path class="cls-16" d="M1337.5,196.39h-2.72a.24.24,0,0,0,0,.48h2.72a.24.24,0,0,0,0-.48Z"/><path class="cls-12" d="M1331.18,198.21a.24.24,0,0,1-.07.17l-.08.05-.09,0h-.44a.24.24,0,0,1-.17-.06h0c0-.09,0-.17,0-.26V198h0l.08-.05.09,0h.44a.24.24,0,0,1,.24.24Z"/><path class="cls-12" d="M1334.83,197.93h-2.72a.24.24,0,0,0,0,.48h2.72a.24.24,0,0,0,0-.48Z"/><path class="cls-12" d="M1331.1,199.29a.24.24,0,0,1-.24.24h-.42c0-.15,0-.31-.06-.47h.48a.24.24,0,0,1,.24.24Z"/><path class="cls-12" d="M1332.28,199.05h-.44a.24.24,0,0,0,0,.48h.44a.24.24,0,0,0,0-.48Z"/><path class="cls-12" d="M1336.16,199h-2.72a.24.24,0,0,0,0,.48h2.72a.24.24,0,0,0,0-.48Z"/><path class="cls-12" d="M1332.19,200.14h-.44a.24.24,0,0,0,0,.48h.44a.24.24,0,0,0,0-.48Z"/><path class="cls-12" d="M1333.61,200.14h-.44a.24.24,0,0,0,0,.48h.44a.24.24,0,0,0,0-.48Z"/><path class="cls-12" d="M1331.08,200.34a.24.24,0,0,1-.24.24h-.18c0-.16-.08-.32-.11-.48h.29l.09,0,.08.05a.24.24,0,0,1,.07.17Z"/><path class="cls-12" d="M1337.5,200.1h-2.72a.24.24,0,0,0,0,.48h2.72a.24.24,0,0,0,0-.48Z"/></g><g class="cls-22"><path class="cls-23" d="M1170.16,382.2v-4.32l-4.32-5.94a3.25,3.25,0,0,0-3.24,3.24v14.58a3.25,3.25,0,0,0,3.24,3.24h14.59a3.25,3.25,0,0,0,3.24-3.24l-5.94-4h-4.05A3.52,3.52,0,0,1,1170.16,382.2Z"/><path class="cls-23" d="M1251.22,305.8v4.32l4.32,5.94a3.25,3.25,0,0,0,3.24-3.24V298.24a3.25,3.25,0,0,0-3.24-3.24h-14.59a3.25,3.25,0,0,0-3.24,3.24l5.94,4h4.05A3.52,3.52,0,0,1,1251.22,305.8Z"/><path class="cls-23" d="M1248.84,362.9h-88.2a5.21,5.21,0,0,1-5.21-5.2V327.07a5.21,5.21,0,0,1,5.21-5.21h88.2a5.21,5.21,0,0,1,5.21,5.21v30.63A5.21,5.21,0,0,1,1248.84,362.9Z"/><path class="cls-16" d="M1210.9,357.09h-57.55a5.35,5.35,0,0,1-5.34-5.34V321.13a5.35,5.35,0,0,1,5.34-5.34h88.2a5.35,5.35,0,0,1,5.34,5.34A36,36,0,0,1,1210.9,357.09Zm-57.55-40.77a4.81,4.81,0,0,0-4.8,4.8v30.63a4.81,4.81,0,0,0,4.8,4.8h57.55a35.48,35.48,0,0,0,35.46-35.43,4.81,4.81,0,0,0-4.8-4.8Z"/><path class="cls-16" d="M1169.89,356c0,.36,0,.72,0,1.08h-16.51a5.07,5.07,0,0,1-5.07-5.07V336.69a19.74,19.74,0,0,1,2.16-.12A19.45,19.45,0,0,1,1169.89,356Z"/><path class="cls-16" d="M1231.1,336.3h-52.79a1.63,1.63,0,1,0,0,3.26h52.79a1.63,1.63,0,1,0,0-3.26Z"/><path class="cls-16" d="M1247,378.69h-52.79a1.63,1.63,0,1,0,0,3.26H1247a1.63,1.63,0,1,0,0-3.26Z"/><path class="cls-16" d="M1194.68,327.17h-16.37a1.63,1.63,0,1,0,0,3.26h16.37a1.63,1.63,0,1,0,0-3.26Z"/><path class="cls-16" d="M1246.79,387.87h-16.37a1.63,1.63,0,1,0,0,3.26h16.37a1.63,1.63,0,1,0,0-3.26Z"/><path class="cls-16" d="M1176.37,381.93h10v-10a3.25,3.25,0,0,0-3.24-3.24h-9.73V379A3,3,0,0,0,1176.37,381.93Z"/><path class="cls-16" d="M1245,306.07h-10v10a3.25,3.25,0,0,0,3.24,3.24H1248V309A3,3,0,0,0,1245,306.07Z"/><path class="cls-15" d="M1153.32,304.14a2.33,2.33,0,1,0-2.28-2.33A2.31,2.31,0,0,0,1153.32,304.14Z"/><path class="cls-15" d="M1161.22,304.14a2.33,2.33,0,1,0-2.28-2.33A2.31,2.31,0,0,0,1161.22,304.14Z"/><path class="cls-15" d="M1169.11,304.14a2.33,2.33,0,1,0-2.28-2.33A2.31,2.31,0,0,0,1169.11,304.14Z"/><path class="cls-16" d="M1219.2,309.65a.41.41,0,0,0-.41.4v2.7a.41.41,0,0,0,.41.4h2.7a.41.41,0,0,0,.41-.4v-2.7a.41.41,0,0,0-.41-.4Z"/><path class="cls-16" d="M1237.57,368.7a.41.41,0,0,0-.41.4v2.7a.41.41,0,0,0,.41.4h2.7a.41.41,0,0,0,.41-.4v-2.7a.41.41,0,0,0-.41-.4Z"/><path class="cls-16" d="M1224.06,368.7a.41.41,0,0,0-.41.4v2.7a.41.41,0,0,0,.41.4h2.7a.4.4,0,0,0,.4-.4v-2.7a.4.4,0,0,0-.4-.4Z"/><path class="cls-16" d="M1225.41,309.65a.41.41,0,0,0-.41.4v2.7a.41.41,0,0,0,.41.4h2.7a.41.41,0,0,0,.41-.4v-2.7a.41.41,0,0,0-.41-.4Z"/><path class="cls-16" d="M1243.79,368.7a.4.4,0,0,0-.4.4v2.7a.4.4,0,0,0,.4.4h2.7a.41.41,0,0,0,.41-.4v-2.7a.41.41,0,0,0-.41-.4Z"/><path class="cls-16" d="M1230.28,368.7a.41.41,0,0,0-.41.4v2.7a.41.41,0,0,0,.41.4h2.7a.41.41,0,0,0,.41-.4v-2.7a.41.41,0,0,0-.41-.4Z"/><path class="cls-16" d="M1237.57,309.65a.41.41,0,0,0-.41.4v2.7a.41.41,0,0,0,.41.4h2.7a.41.41,0,0,0,.41-.4v-2.7a.41.41,0,0,0-.41-.4Z"/></g><g class="cls-24"><path class="cls-2" d="M635.64,269.45a16.26,16.26,0,1,0-16.23-16.26A16.25,16.25,0,0,0,635.64,269.45Z"/><path class="cls-16" d="M638.28,267.07A16.26,16.26,0,1,0,622,250.81,16.25,16.25,0,0,0,638.28,267.07Z"/><path d="M852.22,232.82H651.35v.55H852.22Z"/><path d="M755.38,115.12h-71.3v-1.47H651.76v1.47H580.17a4.83,4.83,0,0,0-4.82,4.83v97.77a4.83,4.83,0,0,0,4.82,4.83H755.38a4.83,4.83,0,0,0,4.82-4.83V119.95a4.82,4.82,0,0,0-4.82-4.83Z"/><path class="cls-16" d="M753.74,123.65H581.81v97.12H753.74Z"/><path class="cls-16" d="M667.63,121a1.77,1.77,0,1,0-1.76-1.77A1.76,1.76,0,0,0,667.63,121Z"/><path class="cls-25" d="M704.57,220.78H581.81V123.65Z"/><path class="cls-2" d="M608.71,213.51A16.55,16.55,0,1,0,592.19,197,16.54,16.54,0,0,0,608.71,213.51Z"/><path d="M723.81,176H707.75v3.36h16.06Z"/><path d="M743.22,149.87H688.33v1.44h54.89Z"/><path d="M743.22,154.43H688.33v1.44h54.89Z"/><path d="M743.22,159H688.33v1.44h54.89Z"/><path d="M743.22,163.55H688.33V165h54.89Z"/><path d="M743.22,168.11H688.33v1.44h54.89Z"/><path class="cls-2" d="M743.22,125.62h-6.71v6.72h6.71Z"/><path class="cls-15" d="M746.34,135.47h-8.15V127.3h8.15Zm-7.8-.35H746v-7.45h-7.44Z"/><path d="M765,219H748.26V217.8a.23.23,0,0,0,0-.09.25.25,0,0,0-.05-.08l-.08-.05-.09,0h-5.75l-.09,0-.08.05a.25.25,0,0,0-.05.08.23.23,0,0,0,0,.09V219h-3.6V217.8a.23.23,0,0,0,0-.09.24.24,0,0,0-.05-.08l-.08-.05-.09,0h-5.75l-.09,0-.08.05a.24.24,0,0,0-.07.17V219h-3.6V217.8a.23.23,0,0,0,0-.09.25.25,0,0,0-.05-.08l-.08-.05-.09,0h-5.75l-.09,0-.08.05a.24.24,0,0,0-.07.17V219h-3.6V217.8a.23.23,0,0,0,0-.09.24.24,0,0,0-.05-.08l-.08-.05-.09,0h-5.75l-.09,0-.08.05a.24.24,0,0,0-.07.17V219h-3.6V217.8a.24.24,0,0,0-.07-.17l-.08-.05-.09,0H703l-.09,0-.08.05a.24.24,0,0,0-.05.08.23.23,0,0,0,0,.09V219h-3.6V217.8a.24.24,0,0,0-.07-.17l-.08-.05-.09,0h-5.75l-.09,0-.08.05a.25.25,0,0,0-.05.08.23.23,0,0,0,0,.09V219h-3.6V217.8a.24.24,0,0,0-.07-.17l-.08-.05-.09,0H644l-.09,0-.08.05a.24.24,0,0,0-.07.17V219h-3.6V217.8a.24.24,0,0,0,0-.09.25.25,0,0,0-.05-.08l-.08-.05-.09,0h-5.75l-.09,0-.08.05a.24.24,0,0,0-.05.08.24.24,0,0,0,0,.09V219h-3.6V217.8a.24.24,0,0,0,0-.09.24.24,0,0,0-.05-.08l-.08-.05-.09,0h-5.75l-.09,0-.08.05a.25.25,0,0,0-.05.08.24.24,0,0,0,0,.09V219h-3.6V217.8a.24.24,0,0,0,0-.09.24.24,0,0,0-.05-.08l-.08-.05-.09,0H614.5l-.09,0-.08.05a.24.24,0,0,0-.05.08.24.24,0,0,0,0,.09V219h-3.6V217.8a.24.24,0,0,0,0-.09.24.24,0,0,0-.05-.08l-.08-.05-.09,0h-5.75l-.09,0-.08.05a.25.25,0,0,0-.05.08.24.24,0,0,0,0,.09V219h-3.6V217.8a.24.24,0,0,0,0-.09.24.24,0,0,0-.05-.08l-.08-.05-.09,0h-5.75l-.09,0-.08.05a.24.24,0,0,0-.05.08.24.24,0,0,0,0,.09V219H591V217.8a.24.24,0,0,0,0-.09.24.24,0,0,0-.05-.08l-.08-.05-.09,0H585l-.09,0-.08.05a.24.24,0,0,0-.05.08.24.24,0,0,0,0,.09V219h-11a5.76,5.76,0,0,0-5.75,5.76v2.61a5.76,5.76,0,0,0,5.75,5.76H765a5.76,5.76,0,0,0,5.75-5.76v-2.61A5.76,5.76,0,0,0,765,219Z"/><path d="M612.72,207.3a20.87,20.87,0,1,1,14.72-6.12A20.81,20.81,0,0,1,612.72,207.3Zm0-41.16a20.32,20.32,0,1,0,14.33,6,20.26,20.26,0,0,0-14.33-6Z"/><path d="M798.51,118.93H728.63v.55h69.88Z"/><path d="M880.18,263.83H679.31v.55H880.18Z"/><path d="M690.68,289.08H620.8v.55h69.88Z"/><path class="cls-16" d="M704.74,260.94h-7.67v7.68h7.67Z"/><path d="M709.4,264.23h-9.32V254.9h9.32Zm-8.91-.41H709v-8.52h-8.51Z"/><path class="cls-16" d="M793.81,116h-7.67v7.68h7.67Z"/><path d="M798.47,119.33h-9.32V110h9.32Zm-8.91-.41h8.51v-8.52h-8.51Z"/><path class="cls-16" d="M871.09,260.94h-7.67v7.68h7.67Z"/><path d="M875.74,264.23h-9.32V254.9h9.32Zm-8.91-.41h8.51v-8.52h-8.51Z"/><path d="M857.7,173.66h-.65V155.77a10.34,10.34,0,0,0-10.34-10.35H808.89a10.35,10.35,0,0,0-10.34,10.35v98.1a10.34,10.34,0,0,0,10.34,10.35h37.83a10.35,10.35,0,0,0,10.34-10.35V186.39h.65Z"/><path class="cls-16" d="M854.85,156.38v98a7.72,7.72,0,0,1-7.72,7.73h-38a7.72,7.72,0,0,1-7.72-7.73v-98a7.72,7.72,0,0,1,7.72-7.73h4.61a3.67,3.67,0,0,0,3.39,5.06H838.8a3.67,3.67,0,0,0,3.39-5.06h4.94a7.72,7.72,0,0,1,7.72,7.73Z"/><path d="M833.79,213.25H822.47v3.36h11.32Z"/><path d="M847.48,187.08H808.77v1.44h38.71Z"/><path d="M847.48,191.64H808.77v1.44h38.71Z"/><path d="M847.48,196.2H808.77v1.44h38.71Z"/><path d="M847.48,200.76H808.77v1.44h38.71Z"/><path d="M847.48,205.32H808.77v1.44h38.71Z"/><path class="cls-2" d="M829.48,168h-6.71v6.72h6.71Z"/><path class="cls-15" d="M825.34,169.63v8.16h8.15v-8.16Zm7.8,7.81h-7.44V170h7.44Z"/><path class="cls-25" d="M854.85,243.88v10.46a7.72,7.72,0,0,1-7.72,7.73h-38a7.72,7.72,0,0,1-7.72-7.73V201.6l32,25.34.55.43,6,4.71.56.44Z"/><path class="cls-2" d="M824.84,258.9a12,12,0,1,0-12-12A12,12,0,0,0,824.84,258.9Z"/><path d="M655.74,289.63a23.88,23.88,0,1,1,16.85-7A23.82,23.82,0,0,1,655.74,289.63Zm0-47.2a23.34,23.34,0,1,0,16.46,6.84,23.27,23.27,0,0,0-16.46-6.84Z"/><path d="M828.38,256.15A15.1,15.1,0,1,1,839,251.72a15.06,15.06,0,0,1-10.65,4.43Zm0-29.64a14.55,14.55,0,1,0,10.26,4.26A14.51,14.51,0,0,0,828.38,226.51Z"/></g><g class="cls-26"><path class="cls-16" d="M421.55,339.16H369.86a1.55,1.55,0,0,1-1.1-.46,1.57,1.57,0,0,1-.46-1.11V320a1.57,1.57,0,0,1,.46-1.11,1.55,1.55,0,0,1,1.1-.46h51.68a1.55,1.55,0,0,1,1.1.46,1.57,1.57,0,0,1,.46,1.11v17.56a1.57,1.57,0,0,1-.46,1.11,1.55,1.55,0,0,1-1.1.46Z"/><path class="cls-14" d="M390.1,323.17H376.4v1.57h13.7Z"/><path class="cls-14" d="M408.16,325a.94.94,0,1,0-.93-.94A.94.94,0,0,0,408.16,325Z"/><path class="cls-14" d="M411.27,325a.94.94,0,1,0-.93-.94A.94.94,0,0,0,411.27,325Z"/><path class="cls-14" d="M414.39,325a.94.94,0,1,0-.93-.94A.94.94,0,0,0,414.39,325Z"/><path class="cls-16" d="M421.55,361.42H369.86a1.55,1.55,0,0,1-1.1-.46,1.57,1.57,0,0,1-.46-1.11V342.29a1.57,1.57,0,0,1,.46-1.11,1.55,1.55,0,0,1,1.1-.46h51.68a1.55,1.55,0,0,1,1.1.46,1.57,1.57,0,0,1,.46,1.11v17.56a1.57,1.57,0,0,1-.46,1.11,1.55,1.55,0,0,1-1.1.46Z"/><path class="cls-14" d="M390.1,345.43H376.4V347h13.7Z"/><path class="cls-14" d="M408.16,347.31a.94.94,0,1,0-.93-.94A.94.94,0,0,0,408.16,347.31Z"/><path class="cls-14" d="M411.27,347.31a.94.94,0,1,0-.93-.94A.94.94,0,0,0,411.27,347.31Z"/><path class="cls-14" d="M414.39,347.31a.94.94,0,1,0-.93-.94A.94.94,0,0,0,414.39,347.31Z"/><path class="cls-16" d="M421.55,383.68H369.86a1.55,1.55,0,0,1-1.1-.46,1.57,1.57,0,0,1-.46-1.11V364.55a1.57,1.57,0,0,1,.46-1.11,1.55,1.55,0,0,1,1.1-.46h51.68a1.55,1.55,0,0,1,1.1.46,1.57,1.57,0,0,1,.46,1.11v17.56a1.57,1.57,0,0,1-.46,1.11,1.55,1.55,0,0,1-1.1.46Z"/><path class="cls-14" d="M390.1,367.69H376.4v1.57h13.7Z"/><path class="cls-14" d="M408.16,369.57a.94.94,0,1,0-.93-.94A.94.94,0,0,0,408.16,369.57Z"/><path class="cls-14" d="M411.27,369.57a.94.94,0,1,0-.93-.94A.94.94,0,0,0,411.27,369.57Z"/><path class="cls-14" d="M414.39,369.57a.94.94,0,1,0-.93-.94A.94.94,0,0,0,414.39,369.57Z"/><path d="M402.7,397.31H350.39V376.54H351v20.14H402.7Z"/><path d="M383.08,304.11h52.31v20.77h-.62V304.74H383.08Z"/></g></svg>