<svg width="698" height="462" viewBox="0 0 698 462" fill="none" xmlns="http://www.w3.org/2000/svg">
<g clip-path="url(#clip0_174_55)">
<path d="M520.78 302.585C520.213 300.883 520.341 299.026 521.134 297.418C521.928 295.809 523.324 294.578 525.019 293.992C525.366 293.877 525.723 293.791 526.085 293.735L529.736 278.752L539.257 278.781L533.807 299.867C533.94 301.377 533.564 302.888 532.739 304.159C531.914 305.431 530.687 306.39 529.254 306.884C528.416 307.163 527.53 307.274 526.649 307.208C525.767 307.143 524.907 306.904 524.119 306.504C523.331 306.104 522.63 305.552 522.057 304.879C521.483 304.206 521.049 303.427 520.78 302.585Z" fill="#9F616A"/>
<path d="M536.854 292.889L522.272 291.864L529.334 249.189L524.84 202.199L539.581 196.071L549.411 248.254L549.384 248.349L536.854 292.889Z" fill="#2F2E41"/>
<path d="M424.102 287.887C424.07 286.098 424.75 284.369 425.992 283.08C427.234 281.792 428.936 281.049 430.726 281.016C431.092 281.014 431.457 281.043 431.818 281.101L439.805 267.963L448.863 270.937L437.327 289.33C436.977 290.946 436.042 292.375 434.701 293.342C433.359 294.308 431.708 294.744 430.065 294.564C428.421 294.385 426.903 293.603 425.802 292.37C424.701 291.137 424.095 289.54 424.102 287.887Z" fill="#9F616A"/>
<path d="M469.071 452.168H461.314L457.624 421.83L469.073 421.831L469.071 452.168Z" fill="#9F616A"/>
<path d="M471.049 459.793L446.038 459.792V459.471C446.028 456.859 447.053 454.349 448.89 452.491C449.786 451.574 450.857 450.846 452.039 450.349C453.221 449.853 454.491 449.598 455.773 449.6H455.774L471.05 449.6L471.049 459.793Z" fill="#2F2E41"/>
<path d="M523.187 452.168H515.43L511.74 421.83L523.188 421.831L523.187 452.168Z" fill="#9F616A"/>
<path d="M525.165 459.793L500.153 459.792V459.471C500.143 456.859 501.169 454.349 503.005 452.491C503.902 451.574 504.972 450.846 506.155 450.349C507.337 449.853 508.606 449.598 509.889 449.6H509.889L525.166 449.6L525.165 459.793Z" fill="#2F2E41"/>
<path d="M515.81 167.279C525.988 167.279 534.239 158.913 534.239 148.593C534.239 138.273 525.988 129.907 515.81 129.907C505.633 129.907 497.382 138.273 497.382 148.593C497.382 158.913 505.633 167.279 515.81 167.279Z" fill="#9F616A"/>
<path d="M509.586 147.568C506.815 148.636 503.753 148.671 500.958 147.666C498.164 146.661 495.825 144.684 494.369 142.096C493.048 139.412 492.715 136.348 493.428 133.443C494.142 130.537 495.856 127.976 498.27 126.209C503.175 122.881 510.5 123.983 515.255 127.843C518.462 126.366 522.059 125.961 525.514 126.688C528.968 127.415 532.097 129.235 534.437 131.879C539.027 137.263 539.529 145.81 536.184 152.086C534.72 155.363 534.072 158.944 534.293 162.526C534.514 166.107 535.599 169.582 537.454 172.653C536.015 172.594 532.847 172.323 528.883 171.977C527.736 171.876 527.24 168.46 525.982 168.35C524.873 168.253 523.012 171.463 521.85 171.364C513.241 170.626 503.603 169.877 499.235 170.023C502.3 162.367 505.755 154.872 509.586 147.568Z" fill="#2F2E41"/>
<path d="M529.943 280.233C529.943 280.233 535.932 286.494 532.275 318.825L529.748 387.476L525.278 448.263L510.896 447.294L498.263 307.383L480.577 358.58L471.053 443.221L457.254 442.251L454.898 358.081L460.947 293.032L529.943 280.233Z" fill="#2F2E41"/>
<path d="M470.665 296.948C463.307 296.949 460.343 296.052 460.127 295.982L459.785 295.874L459.845 295.516C459.894 295.222 464.838 265.995 471.621 250.651L476.391 188.425C476.518 186.587 477.262 184.846 478.503 183.485C479.744 182.125 481.409 181.223 483.227 180.929L483.291 181.34L483.227 180.929L495.36 178.997L502.782 172.371L520.562 173.368L522.13 180.994C524.257 181.597 538.29 185.957 539.679 196.4L539.696 196.531L539.636 196.647L513.927 246.794C516.1 248.968 533.269 266.852 534.434 289.714L534.462 290.264L533.933 290.141C533.883 290.131 528.389 289.072 499.497 294.025C486.135 296.314 476.849 296.948 470.665 296.948Z" fill="#2F2E41"/>
<path d="M442.165 287.584L431.686 279.402L455.075 231.954L476.828 185.451C477.126 184.803 477.617 184.263 478.235 183.904C478.852 183.546 479.565 183.388 480.276 183.451C480.986 183.514 481.66 183.795 482.205 184.256C482.75 184.716 483.139 185.334 483.319 186.025L488.703 205.831L471.866 250.25L442.165 287.584Z" fill="#2F2E41"/>
<path d="M667.107 459.454L667.73 458.303C659.381 453.788 648.992 448.169 643.565 438.949C638.216 429.859 638.096 417.516 643.252 406.736C647.64 397.562 655.701 389.343 666.562 382.967C668.705 381.709 670.954 380.517 673.129 379.364C678.386 376.578 683.822 373.697 688.305 369.609C694.478 363.979 699.15 354.531 695.668 346.115C694.523 343.429 692.648 341.118 690.255 339.444C687.863 337.77 685.049 336.801 682.133 336.646L682.059 337.953C684.73 338.094 687.309 338.982 689.501 340.515C691.693 342.048 693.412 344.164 694.462 346.625C697.697 354.445 693.259 363.32 687.423 368.642C683.063 372.618 677.701 375.459 672.516 378.207C670.328 379.367 668.066 380.566 665.899 381.838C654.812 388.346 646.572 396.761 642.071 406.171C636.729 417.339 636.87 430.153 642.437 439.613C648.048 449.147 658.616 454.863 667.107 459.454Z" fill="#F1F1F1"/>
<path d="M673.836 343.545C680.162 343.545 685.291 341.054 685.291 337.981C685.291 334.909 680.162 332.417 673.836 332.417C667.509 332.417 662.38 334.909 662.38 337.981C662.38 341.054 667.509 343.545 673.836 343.545Z" fill="#F1F1F1"/>
<path d="M664.671 380.202C670.998 380.202 676.127 377.711 676.127 374.638C676.127 371.565 670.998 369.074 664.671 369.074C658.345 369.074 653.216 371.565 653.216 374.638C653.216 377.711 658.345 380.202 664.671 380.202Z" fill="#F1F1F1"/>
<path d="M685.618 386.093C691.944 386.093 697.073 383.602 697.073 380.529C697.073 377.456 691.944 374.965 685.618 374.965C679.291 374.965 674.163 377.456 674.163 380.529C674.163 383.602 679.291 386.093 685.618 386.093Z" fill="#F1F1F1"/>
<path d="M652.889 416.858C659.215 416.858 664.344 414.367 664.344 411.294C664.344 408.222 659.215 405.73 652.889 405.73C646.562 405.73 641.434 408.222 641.434 411.294C641.434 414.367 646.562 416.858 652.889 416.858Z" fill="#F1F1F1"/>
<path d="M629.979 416.858C636.305 416.858 641.434 414.367 641.434 411.294C641.434 408.222 636.305 405.73 629.979 405.73C623.652 405.73 618.524 408.222 618.524 411.294C618.524 414.367 623.652 416.858 629.979 416.858Z" fill="#F1F1F1"/>
<path d="M696 461.234H322.484C322.219 461.234 321.965 461.129 321.777 460.941C321.59 460.754 321.484 460.5 321.484 460.234C321.484 459.969 321.59 459.715 321.777 459.527C321.965 459.34 322.219 459.234 322.484 459.234H696.484C696.749 459.234 697.004 459.34 697.191 459.527C697.379 459.715 697.484 459.969 697.484 460.234C697.484 460.787 696.552 461.234 696 461.234Z" fill="#CBCBCB"/>
<path d="M228.539 111.771H62.5387C61.2131 111.77 59.9422 111.242 59.0049 110.305C58.0675 109.368 57.5402 108.097 57.5387 106.771V50.7712C57.5402 49.4456 58.0675 48.1748 59.0049 47.2374C59.9422 46.3001 61.2131 45.7728 62.5387 45.7712H228.539C229.864 45.7728 231.135 46.3 232.073 47.2374C233.01 48.1747 233.537 49.4456 233.539 50.7712V106.771C233.537 108.097 233.01 109.368 232.073 110.305C231.135 111.242 229.864 111.77 228.539 111.771Z" fill="#3F3D56"/>
<path d="M127.539 60.7712H83.5387V65.7712H127.539V60.7712Z" fill="white"/>
<path d="M185.539 66.7712C187.196 66.7712 188.539 65.4281 188.539 63.7712C188.539 62.1144 187.196 60.7712 185.539 60.7712C183.882 60.7712 182.539 62.1144 182.539 63.7712C182.539 65.4281 183.882 66.7712 185.539 66.7712Z" fill="#415B48"/>
<path d="M195.539 66.7712C197.196 66.7712 198.539 65.4281 198.539 63.7712C198.539 62.1144 197.196 60.7712 195.539 60.7712C193.882 60.7712 192.539 62.1144 192.539 63.7712C192.539 65.4281 193.882 66.7712 195.539 66.7712Z" fill="#415B48"/>
<path d="M205.539 66.7712C207.196 66.7712 208.539 65.4281 208.539 63.7712C208.539 62.1144 207.196 60.7712 205.539 60.7712C203.882 60.7712 202.539 62.1144 202.539 63.7712C202.539 65.4281 203.882 66.7712 205.539 66.7712Z" fill="#415B48"/>
<path d="M228.539 182.771H62.5387C61.2131 182.77 59.9422 182.242 59.0049 181.305C58.0675 180.368 57.5402 179.097 57.5387 177.771V121.771C57.5402 120.446 58.0675 119.175 59.0049 118.237C59.9422 117.3 61.2131 116.773 62.5387 116.771H228.539C229.864 116.773 231.135 117.3 232.073 118.237C233.01 119.175 233.537 120.446 233.539 121.771V177.771C233.537 179.097 233.01 180.368 232.073 181.305C231.135 182.242 229.864 182.77 228.539 182.771Z" fill="#3F3D56"/>
<path d="M127.539 131.771H83.5387V136.771H127.539V131.771Z" fill="white"/>
<path d="M185.539 137.771C187.196 137.771 188.539 136.428 188.539 134.771C188.539 133.114 187.196 131.771 185.539 131.771C183.882 131.771 182.539 133.114 182.539 134.771C182.539 136.428 183.882 137.771 185.539 137.771Z" fill="#415B48"/>
<path d="M195.539 137.771C197.196 137.771 198.539 136.428 198.539 134.771C198.539 133.114 197.196 131.771 195.539 131.771C193.882 131.771 192.539 133.114 192.539 134.771C192.539 136.428 193.882 137.771 195.539 137.771Z" fill="#415B48"/>
<path d="M205.539 137.771C207.196 137.771 208.539 136.428 208.539 134.771C208.539 133.114 207.196 131.771 205.539 131.771C203.882 131.771 202.539 133.114 202.539 134.771C202.539 136.428 203.882 137.771 205.539 137.771Z" fill="#415B48"/>
<path d="M228.539 253.771H62.5387C61.2131 253.77 59.9422 253.242 59.0049 252.305C58.0675 251.368 57.5402 250.097 57.5387 248.771V192.771C57.5402 191.446 58.0675 190.175 59.0049 189.237C59.9422 188.3 61.2131 187.773 62.5387 187.771H228.539C229.864 187.773 231.135 188.3 232.073 189.237C233.01 190.175 233.537 191.446 233.539 192.771V248.771C233.537 250.097 233.01 251.368 232.073 252.305C231.135 253.242 229.864 253.77 228.539 253.771Z" fill="#3F3D56"/>
<path d="M127.539 202.771H83.5387V207.771H127.539V202.771Z" fill="white"/>
<path d="M185.539 208.771C187.196 208.771 188.539 207.428 188.539 205.771C188.539 204.114 187.196 202.771 185.539 202.771C183.882 202.771 182.539 204.114 182.539 205.771C182.539 207.428 183.882 208.771 185.539 208.771Z" fill="#415B48"/>
<path d="M195.539 208.771C197.196 208.771 198.539 207.428 198.539 205.771C198.539 204.114 197.196 202.771 195.539 202.771C193.882 202.771 192.539 204.114 192.539 205.771C192.539 207.428 193.882 208.771 195.539 208.771Z" fill="#415B48"/>
<path d="M205.539 208.771C207.196 208.771 208.539 207.428 208.539 205.771C208.539 204.114 207.196 202.771 205.539 202.771C203.882 202.771 202.539 204.114 202.539 205.771C202.539 207.428 203.882 208.771 205.539 208.771Z" fill="#415B48"/>
<path d="M168 297.234H0V231H2V295.234H168V297.234Z" fill="#CCCCCC"/>
<path d="M105 0H273V66.234H271V2H105V0Z" fill="#CCCCCC"/>
</g>
<defs>
<clipPath id="clip0_174_55">
<rect width="697.484" height="461.234" fill="white"/>
</clipPath>
</defs>
</svg>
