<svg width="700" height="387" viewBox="0 0 700 387" fill="none" xmlns="http://www.w3.org/2000/svg">
<g clip-path="url(#clip0_179_58)">
<path d="M445 331.386H60C57.7465 331.384 55.586 330.487 53.9925 328.894C52.399 327.3 51.5026 325.14 51.5 322.886V98.7544C51.5025 96.5008 52.3989 94.3403 53.9924 92.7468C55.5859 91.1533 57.7464 90.2569 60 90.2544H445C447.254 90.257 449.414 91.1534 451.008 92.7469C452.601 94.3404 453.497 96.5009 453.5 98.7544V322.886C453.497 325.14 452.601 327.3 451.007 328.894C449.414 330.487 447.254 331.384 445 331.386Z" fill="#E6E6E6"/>
<path d="M469 362.754H36V76.2544C36.0029 73.7357 37.0047 71.321 38.7856 69.54C40.5666 67.7591 42.9813 66.7573 45.5 66.7544H459.5C462.019 66.7573 464.433 67.7591 466.214 69.54C467.995 71.321 468.997 73.7357 469 76.2544V362.754ZM38 360.754H467V76.2544C466.998 74.2659 466.207 72.3595 464.801 70.9535C463.395 69.5474 461.488 68.7566 459.5 68.7544H45.5C43.5115 68.7566 41.6051 69.5474 40.1991 70.9535C38.793 72.3595 38.0022 74.2659 38 76.2544V360.754Z" fill="#CCCCCC"/>
<path d="M252.5 83.2544C254.709 83.2544 256.5 81.4635 256.5 79.2544C256.5 77.0453 254.709 75.2544 252.5 75.2544C250.291 75.2544 248.5 77.0453 248.5 79.2544C248.5 81.4635 250.291 83.2544 252.5 83.2544Z" fill="#E6E6E6"/>
<path d="M349 283.821H156C153.746 283.818 151.586 282.922 149.992 281.328C148.399 279.735 147.503 277.574 147.5 275.321V146.321C147.503 144.067 148.399 141.907 149.992 140.313C151.586 138.72 153.746 137.823 156 137.821H349C351.254 137.823 353.414 138.72 355.007 140.313C356.601 141.907 357.497 144.067 357.5 146.321V275.321C357.497 277.574 356.601 279.735 355.007 281.328C353.414 282.922 351.254 283.818 349 283.821Z" fill="white"/>
<path d="M187.75 192.82C186.168 192.82 184.621 192.351 183.305 191.472C181.99 190.593 180.964 189.344 180.359 187.882C179.753 186.42 179.595 184.811 179.904 183.26C180.212 181.708 180.974 180.282 182.093 179.163C183.212 178.045 184.637 177.283 186.189 176.974C187.741 176.665 189.35 176.824 190.811 177.429C192.273 178.035 193.523 179.06 194.402 180.376C195.281 181.691 195.75 183.238 195.75 184.82C195.748 186.941 194.904 188.975 193.404 190.474C191.904 191.974 189.871 192.818 187.75 192.82Z" fill="#CCCCCC"/>
<path d="M187.75 218.82C186.168 218.82 184.621 218.351 183.305 217.472C181.99 216.593 180.964 215.344 180.359 213.882C179.753 212.42 179.595 210.811 179.904 209.26C180.212 207.708 180.974 206.282 182.093 205.163C183.212 204.045 184.637 203.283 186.189 202.974C187.741 202.665 189.35 202.824 190.811 203.429C192.273 204.035 193.523 205.06 194.402 206.376C195.281 207.691 195.75 209.238 195.75 210.82C195.748 212.941 194.904 214.975 193.404 216.474C191.904 217.974 189.871 218.818 187.75 218.82Z" fill="#415B48"/>
<path d="M187.75 244.82C186.168 244.82 184.621 244.351 183.305 243.472C181.99 242.593 180.964 241.344 180.359 239.882C179.753 238.42 179.595 236.811 179.904 235.26C180.212 233.708 180.974 232.282 182.093 231.163C183.212 230.045 184.637 229.283 186.189 228.974C187.741 228.665 189.35 228.824 190.811 229.429C192.273 230.035 193.523 231.06 194.402 232.376C195.281 233.691 195.75 235.238 195.75 236.82C195.748 238.941 194.904 240.975 193.404 242.474C191.904 243.974 189.871 244.818 187.75 244.82Z" fill="#415B48"/>
<path d="M225.75 178.32C224.026 178.32 222.373 179.005 221.154 180.224C219.935 181.443 219.25 183.096 219.25 184.82C219.25 186.544 219.935 188.198 221.154 189.417C222.373 190.635 224.026 191.32 225.75 191.32H318.75C320.474 191.32 322.127 190.635 323.346 189.417C324.565 188.198 325.25 186.544 325.25 184.82C325.25 183.096 324.565 181.443 323.346 180.224C322.127 179.005 320.474 178.32 318.75 178.32H225.75Z" fill="#CCCCCC"/>
<path d="M225.75 204.32C224.026 204.32 222.373 205.005 221.154 206.224C219.935 207.443 219.25 209.096 219.25 210.82C219.25 212.544 219.935 214.198 221.154 215.417C222.373 216.635 224.026 217.32 225.75 217.32H318.75C320.474 217.32 322.127 216.635 323.346 215.417C324.565 214.198 325.25 212.544 325.25 210.82C325.25 209.096 324.565 207.443 323.346 206.224C322.127 205.005 320.474 204.32 318.75 204.32H225.75Z" fill="#415B48"/>
<path d="M225.75 230.32C224.026 230.32 222.373 231.005 221.154 232.224C219.935 233.443 219.25 235.096 219.25 236.82C219.25 238.544 219.935 240.198 221.154 241.417C222.373 242.635 224.026 243.32 225.75 243.32H318.75C320.474 243.32 322.127 242.635 323.346 241.417C324.565 240.198 325.25 238.544 325.25 236.82C325.25 235.096 324.565 233.443 323.346 232.224C322.127 231.005 320.474 230.32 318.75 230.32H225.75Z" fill="#415B48"/>
<path d="M663.288 375.328L651.03 375.122L645.991 327.743L664.083 328.047L663.288 375.328Z" fill="#FFB8B8"/>
<path d="M642.333 371.472L665.974 371.87L665.724 386.754L627.198 386.107C627.231 384.152 627.649 382.223 628.427 380.43C629.205 378.637 630.329 377.014 631.735 375.655C633.14 374.296 634.8 373.227 636.618 372.51C638.437 371.792 640.379 371.439 642.333 371.472Z" fill="#2F2E41"/>
<path d="M541.641 375.216L530.277 370.616L542.612 324.594L559.384 331.384L541.641 375.216Z" fill="#FFB8B8"/>
<path d="M523.474 364.083L545.39 372.955L539.804 386.754L504.089 372.297C505.57 368.637 508.445 365.716 512.08 364.175C515.716 362.635 519.814 362.602 523.474 364.083Z" fill="#2F2E41"/>
<path d="M582.615 197.926L546.615 292.926L531.615 358.926L547.615 366.926L620.615 224.926L647.615 367.426H663.615C663.615 367.426 670.931 198.411 660.273 185.168L582.615 197.926Z" fill="#2F2E41"/>
<path d="M537.984 301.938C553.543 301.938 566.156 289.325 566.156 273.766C566.156 258.207 553.543 245.594 537.984 245.594C522.425 245.594 509.812 258.207 509.812 273.766C509.812 289.325 522.425 301.938 537.984 301.938Z" fill="#415B48"/>
<path d="M535.636 286.223L526.695 274.726L531.895 270.682L536.128 276.125L550.43 261.028L555.213 265.559L535.636 286.223Z" fill="white"/>
<path d="M600.115 66.4253C618.34 66.4253 633.115 51.6507 633.115 33.4253C633.115 15.1999 618.34 0.425293 600.115 0.425293C581.889 0.425293 567.115 15.1999 567.115 33.4253C567.115 51.6507 581.889 66.4253 600.115 66.4253Z" fill="#2F2E41"/>
<path d="M554.061 257.984C555.467 257.284 556.702 256.285 557.68 255.056C558.658 253.827 559.355 252.399 559.721 250.872C560.087 249.344 560.114 247.755 559.8 246.217C559.486 244.678 558.838 243.227 557.902 241.966L582.935 103.426L559.575 103.118L542.191 240.116C540.176 241.828 538.86 244.22 538.491 246.839C538.122 249.457 538.726 252.119 540.189 254.322C541.652 256.524 543.873 258.114 546.429 258.789C548.986 259.464 551.701 259.177 554.061 257.984H554.061Z" fill="#FFB8B8"/>
<path d="M697.509 230.925C698.392 229.58 698.961 228.055 699.175 226.461C699.389 224.868 699.243 223.246 698.748 221.716C698.252 220.187 697.419 218.788 696.311 217.623C695.202 216.458 693.847 215.556 692.343 214.985L647.642 106.405C646.548 103.748 644.889 101.361 642.778 99.4098C640.668 97.4591 638.158 95.9915 635.424 95.1092C632.689 94.2269 629.794 93.9511 626.942 94.3009C624.09 94.6507 621.348 95.6178 618.907 97.1348L678.113 221.896C677.35 224.388 677.514 227.072 678.574 229.452C679.635 231.833 681.52 233.75 683.883 234.85C686.245 235.95 688.926 236.158 691.43 235.437C693.935 234.715 696.094 233.113 697.509 230.925V230.925Z" fill="#FFB8B8"/>
<path d="M600.768 70.4194C614.333 70.4194 625.329 59.4231 625.329 45.8584C625.329 32.2937 614.333 21.2974 600.768 21.2974C587.203 21.2974 576.207 32.2937 576.207 45.8584C576.207 59.4231 587.203 70.4194 600.768 70.4194Z" fill="#FFB8B8"/>
<path d="M570.902 84.6929C585.068 78.7954 609.526 72.9667 636.683 85.6705C639.861 87.1521 642.69 89.2889 644.984 91.9408C647.278 94.5926 648.985 97.6996 649.994 101.058L661.615 139.926L646.615 154.926L660.615 185.926C660.615 185.926 607.115 218.426 583.115 198.426L568.615 146.926L549.615 141.926L556.096 103.415C556.78 99.297 558.497 95.4198 561.086 92.1457C563.676 88.8715 567.053 86.3074 570.902 84.6929Z" fill="#CCCCCC"/>
<path d="M577.796 27.6953C587.388 33.5506 598.202 37.1136 609.395 38.1072L606.065 34.1162C608.49 35.0129 611.042 35.5197 613.626 35.6176C614.919 35.6551 616.204 35.3889 617.376 34.8402C618.548 34.2916 619.575 33.4759 620.375 32.4585C621.028 31.402 621.417 30.2031 621.506 28.9642C621.596 27.7253 621.385 26.4831 620.891 25.3435C619.876 23.0704 618.296 21.0949 616.301 19.6049C612.766 16.8085 608.594 14.9301 604.157 14.1371C599.72 13.3441 595.156 13.6612 590.871 15.06C587.932 15.9384 585.299 17.627 583.275 19.9322C582.28 21.0935 581.589 22.4836 581.264 23.9777C580.939 25.4719 580.99 27.0235 581.413 28.4931" fill="#2F2E41"/>
<path d="M573.202 5.84097C572.803 1.64097 567.658 -0.944714 563.634 0.323976C559.61 1.59267 556.969 5.64409 556.17 9.78678C555.786 11.5314 555.75 13.3348 556.064 15.0934C556.378 16.8521 557.036 18.5315 558.001 20.0352C558.998 21.5199 560.4 22.6871 562.041 23.3981C563.682 24.1091 565.493 24.3339 567.258 24.0459C571.238 23.1977 573.995 19.312 574.783 15.3203C575.572 11.3287 574.789 7.2134 574.007 3.22046" fill="#2F2E41"/>
<path d="M641.202 7.84097C640.803 3.64097 635.658 1.05529 631.634 2.32398C627.61 3.59267 624.969 7.64409 624.17 11.7868C623.786 13.5314 623.75 15.3348 624.064 17.0934C624.378 18.8521 625.036 20.5315 626.001 22.0352C626.998 23.5199 628.4 24.6871 630.041 25.3981C631.682 26.1091 633.493 26.3339 635.258 26.0459C639.238 25.1977 641.995 21.312 642.783 17.3203C643.572 13.3287 642.789 9.2134 642.007 5.22046" fill="#2F2E41"/>
<path d="M476.5 349.754H459V346.754C459 345.694 458.579 344.676 457.828 343.926C457.078 343.176 456.061 342.754 455 342.754H434C432.939 342.754 431.922 343.176 431.172 343.926C430.421 344.676 430 345.694 430 346.754V349.754H427V346.754C427 345.694 426.579 344.676 425.828 343.926C425.078 343.176 424.061 342.754 423 342.754H402C400.939 342.754 399.922 343.176 399.172 343.926C398.421 344.676 398 345.694 398 346.754V349.754H395V346.754C395 345.694 394.579 344.676 393.828 343.926C393.078 343.176 392.061 342.754 391 342.754H370C368.939 342.754 367.922 343.176 367.172 343.926C366.421 344.676 366 345.694 366 346.754V349.754H363V346.754C363 345.694 362.579 344.676 361.828 343.926C361.078 343.176 360.061 342.754 359 342.754H338C336.939 342.754 335.922 343.176 335.172 343.926C334.421 344.676 334 345.694 334 346.754V349.754H331V346.754C331 345.694 330.579 344.676 329.828 343.926C329.078 343.176 328.061 342.754 327 342.754H306C304.939 342.754 303.922 343.176 303.172 343.926C302.421 344.676 302 345.694 302 346.754V349.754H299V346.754C299 345.694 298.579 344.676 297.828 343.926C297.078 343.176 296.061 342.754 295 342.754H274C272.939 342.754 271.922 343.176 271.172 343.926C270.421 344.676 270 345.694 270 346.754V349.754H267V346.754C267 345.694 266.579 344.676 265.828 343.926C265.078 343.176 264.061 342.754 263 342.754H242C240.939 342.754 239.922 343.176 239.172 343.926C238.421 344.676 238 345.694 238 346.754V349.754H235V346.754C235 345.694 234.579 344.676 233.828 343.926C233.078 343.176 232.061 342.754 231 342.754H210C208.939 342.754 207.922 343.176 207.172 343.926C206.421 344.676 206 345.694 206 346.754V349.754H203V346.754C203 345.694 202.579 344.676 201.828 343.926C201.078 343.176 200.061 342.754 199 342.754H178C176.939 342.754 175.922 343.176 175.172 343.926C174.421 344.676 174 345.694 174 346.754V349.754H171V346.754C171 345.694 170.579 344.676 169.828 343.926C169.078 343.176 168.061 342.754 167 342.754H146C144.939 342.754 143.922 343.176 143.172 343.926C142.421 344.676 142 345.694 142 346.754V349.754H139V346.754C139 345.694 138.579 344.676 137.828 343.926C137.078 343.176 136.061 342.754 135 342.754H114C112.939 342.754 111.922 343.176 111.172 343.926C110.421 344.676 110 345.694 110 346.754V349.754H107V346.754C107 345.694 106.579 344.676 105.828 343.926C105.078 343.176 104.061 342.754 103 342.754H82C80.9391 342.754 79.9217 343.176 79.1716 343.926C78.4214 344.676 78 345.694 78 346.754V349.754H75V346.754C75 345.694 74.5786 344.676 73.8284 343.926C73.0783 343.176 72.0609 342.754 71 342.754H50C48.9391 342.754 47.9217 343.176 47.1716 343.926C46.4214 344.676 46 345.694 46 346.754V349.754H28.4999C20.9413 349.754 13.6922 352.757 8.34744 358.102C3.00267 363.447 0 370.696 0 378.254V378.254C0 380.509 0.895534 382.671 2.48959 384.265C4.08365 385.859 6.24566 386.754 8.5 386.754H496.5C498.754 386.754 500.916 385.859 502.51 384.265C504.104 382.671 505 380.509 505 378.254V378.254C505 370.696 501.997 363.447 496.653 358.102C491.308 352.757 484.059 349.754 476.5 349.754Z" fill="#3F3D56"/>
<path d="M152.074 319H62.9262C61.8853 318.999 60.8873 318.606 60.1513 317.907C59.4152 317.209 59.0012 316.262 59 315.274V258.726C59.0012 257.738 59.4152 256.791 60.1513 256.093C60.8873 255.394 61.8853 255.001 62.9262 255H152.074C153.115 255.001 154.113 255.394 154.849 256.093C155.585 256.791 155.999 257.738 156 258.726V315.274C155.999 316.262 155.585 317.209 154.849 317.907C154.113 318.606 153.115 318.999 152.074 319Z" fill="#3F3D56"/>
<path d="M275.126 319H209.874C209.112 318.999 208.381 318.606 207.843 317.907C207.304 317.209 207.001 316.262 207 315.274V258.726C207.001 257.738 207.304 256.791 207.843 256.093C208.381 255.394 209.112 255.001 209.874 255H275.126C275.888 255.001 276.619 255.394 277.157 256.093C277.696 256.791 277.999 257.738 278 258.726V315.274C277.999 316.262 277.696 317.209 277.157 317.907C276.619 318.606 275.888 318.999 275.126 319Z" fill="#3F3D56"/>
<path d="M92.4204 286.091H87.6136C87.5795 285.693 87.4886 285.332 87.3409 285.008C87.1988 284.684 86.9999 284.406 86.7443 284.173C86.4943 283.934 86.1903 283.753 85.8323 283.628C85.4744 283.497 85.0681 283.432 84.6136 283.432C83.8181 283.432 83.1448 283.625 82.5937 284.011C82.0482 284.398 81.6335 284.952 81.3494 285.673C81.071 286.395 80.9318 287.261 80.9318 288.273C80.9318 289.341 81.0738 290.236 81.3579 290.957C81.6477 291.673 82.0653 292.213 82.6107 292.577C83.1562 292.934 83.8124 293.113 84.5795 293.113C85.017 293.113 85.409 293.059 85.7556 292.952C86.1022 292.838 86.4034 292.676 86.659 292.466C86.9147 292.256 87.1221 292.003 87.2812 291.707C87.446 291.406 87.5568 291.068 87.6136 290.693L92.4204 290.727C92.3636 291.466 92.1562 292.219 91.7982 292.986C91.4403 293.747 90.9318 294.452 90.2727 295.099C89.6193 295.741 88.8096 296.258 87.8437 296.65C86.8778 297.042 85.7556 297.238 84.4772 297.238C82.8749 297.238 81.4374 296.895 80.1647 296.207C78.8977 295.52 77.8948 294.508 77.1562 293.173C76.4232 291.838 76.0568 290.204 76.0568 288.273C76.0568 286.329 76.4318 284.693 77.1818 283.363C77.9318 282.028 78.9431 281.02 80.2159 280.338C81.4886 279.65 82.909 279.307 84.4772 279.307C85.5795 279.307 86.5937 279.457 87.5198 279.758C88.446 280.059 89.2585 280.5 89.9573 281.079C90.6562 281.653 91.2187 282.361 91.6448 283.202C92.071 284.042 92.3295 285.006 92.4204 286.091Z" fill="white"/>
<path d="M94.333 283.363V279.545H109.503V283.363H104.253V297H99.583V283.363H94.333Z" fill="white"/>
<path d="M111.527 297V279.545H119.061C120.356 279.545 121.49 279.781 122.461 280.253C123.433 280.724 124.189 281.403 124.729 282.29C125.268 283.176 125.538 284.238 125.538 285.477C125.538 286.727 125.26 287.781 124.703 288.639C124.152 289.497 123.376 290.145 122.376 290.582C121.382 291.02 120.22 291.238 118.89 291.238H114.39V287.557H117.936C118.493 287.557 118.967 287.488 119.359 287.352C119.757 287.21 120.061 286.986 120.271 286.679C120.487 286.372 120.595 285.971 120.595 285.477C120.595 284.977 120.487 284.571 120.271 284.258C120.061 283.94 119.757 283.707 119.359 283.559C118.967 283.406 118.493 283.329 117.936 283.329H116.265V297H111.527ZM121.754 288.988L126.118 297H120.97L116.709 288.988H121.754Z" fill="white"/>
<path d="M127.798 297V279.545H132.537V293.182H139.594V297H127.798Z" fill="white"/>
<path d="M241.841 297H235.125V279.545H241.773C243.568 279.545 245.119 279.895 246.426 280.594C247.739 281.287 248.75 282.287 249.46 283.594C250.176 284.895 250.534 286.455 250.534 288.273C250.534 290.091 250.179 291.653 249.469 292.96C248.759 294.261 247.753 295.261 246.452 295.96C245.151 296.653 243.614 297 241.841 297ZM239.864 292.977H241.67C242.534 292.977 243.27 292.838 243.878 292.56C244.491 292.281 244.957 291.801 245.276 291.119C245.599 290.437 245.761 289.489 245.761 288.273C245.761 287.057 245.597 286.108 245.267 285.426C244.943 284.744 244.466 284.264 243.835 283.986C243.21 283.707 242.443 283.568 241.534 283.568H239.864V292.977Z" fill="white"/>
<path d="M180.409 296.216V283.602H184.227V296.216H180.409ZM176.011 291.818V288H188.625V291.818H176.011Z" fill="#3F3D56"/>
<rect x="91" y="317" width="2" height="28" fill="#3F3D56"/>
<rect x="251" y="317" width="2" height="28" fill="#3F3D56"/>
</g>
<defs>
<clipPath id="clip0_179_58">
<rect width="699.247" height="386.754" fill="white"/>
</clipPath>
</defs>
</svg>
