<svg width="950" height="483" viewBox="0 0 950 483" fill="none" xmlns="http://www.w3.org/2000/svg">
<g clip-path="url(#clip0_179_12)">
<path d="M910.323 462.903C882.682 482.816 846.861 483.816 812.236 481.37C807.401 481.028 802.6 480.628 797.844 480.196C797.815 480.189 797.777 480.191 797.748 480.184C797.52 480.162 797.291 480.141 797.072 480.128C796.09 480.036 795.108 479.944 794.136 479.852L794.365 480.29L795.086 481.65C794.827 481.195 794.568 480.749 794.309 480.294C794.233 480.157 794.147 480.021 794.072 479.884C785.102 464.275 776.206 448.093 773.936 430.269C771.591 411.769 778.183 390.82 794.465 381.727C796.6 380.538 798.862 379.591 801.207 378.904C802.181 378.608 803.168 378.368 804.166 378.155C810.273 376.799 816.63 377.094 822.585 379.01C828.54 380.925 833.877 384.392 838.048 389.054C842.218 393.717 845.072 399.405 846.315 405.536C847.558 411.666 847.146 418.017 845.121 423.936C858.926 409.781 856.351 386.817 851.589 367.625C846.818 348.434 841.042 327.079 850.746 309.841C856.14 300.247 865.626 294.294 876.272 291.896C876.599 291.825 876.925 291.755 877.252 291.694C889.936 289.125 903.123 291.435 914.178 298.164C934.534 310.991 944.988 335.312 948.382 359.137C953.849 397.475 941.75 440.261 910.323 462.903Z" fill="#F2F2F2"/>
<path d="M901.399 401.447C900.597 409.903 898.565 418.198 895.369 426.068C892.423 433.033 888.453 439.518 883.59 445.308C873.655 457.259 860.519 466.244 846.252 472.23C835.344 476.698 823.914 479.769 812.236 481.37C807.401 481.029 802.6 480.629 797.844 480.197C797.815 480.19 797.777 480.192 797.748 480.185C797.52 480.163 797.291 480.141 797.072 480.128C796.09 480.037 795.108 479.945 794.136 479.852L794.365 480.291L795.086 481.651C794.827 481.196 794.568 480.75 794.309 480.295C794.233 480.158 794.148 480.022 794.072 479.885C802.827 471.162 809.364 460.467 813.135 448.697C816.906 436.927 817.801 424.425 815.745 412.237C813.593 400.136 808.612 388.715 801.207 378.904C802.181 378.609 803.168 378.369 804.166 378.156C806.98 382.003 809.449 386.092 811.543 390.374C819.056 405.644 821.453 422.928 818.379 439.667C815.521 454.814 808.401 468.831 797.854 480.073C798.778 480.008 799.71 479.933 800.623 479.85C817.906 478.385 835.155 474.67 850.832 467.059C864.232 460.711 875.865 451.166 884.707 439.263C894.202 426.169 898.385 410.419 899.104 394.411C899.866 377.274 897.642 359.835 893.731 343.168C889.738 326.082 883.668 309.549 875.658 293.938C875.479 293.584 875.443 293.175 875.557 292.795C875.672 292.415 875.928 292.093 876.272 291.897C876.56 291.703 876.912 291.63 877.252 291.695C877.419 291.739 877.574 291.82 877.704 291.932C877.835 292.044 877.939 292.185 878.008 292.342C878.996 294.271 879.966 296.201 880.899 298.152C888.668 314.406 894.388 331.563 897.927 349.227C901.363 366.268 903.197 384.094 901.399 401.447Z" fill="white"/>
<path d="M540.482 471.702C554.601 481.874 572.9 482.385 590.587 481.135C593.057 480.961 595.509 480.757 597.938 480.536C597.953 480.532 597.972 480.534 597.987 480.53C598.104 480.519 598.221 480.508 598.333 480.501C598.834 480.454 599.336 480.407 599.833 480.36L599.715 480.584L599.347 481.279C599.479 481.046 599.612 480.818 599.744 480.586C599.783 480.516 599.827 480.447 599.865 480.377C604.447 472.403 608.992 464.137 610.151 455.032C611.349 445.582 607.982 434.881 599.664 430.236C598.574 429.629 597.418 429.145 596.22 428.794C595.723 428.643 595.219 428.52 594.709 428.411C591.59 427.719 588.342 427.869 585.3 428.848C582.258 429.826 579.532 431.597 577.402 433.979C575.271 436.36 573.813 439.266 573.178 442.398C572.543 445.53 572.754 448.774 573.788 451.797C566.736 444.566 568.052 432.836 570.484 423.032C572.922 413.229 575.872 402.321 570.915 393.515C569.512 391.154 567.624 389.116 565.377 387.536C563.129 385.956 560.573 384.87 557.876 384.348C557.709 384.312 557.542 384.276 557.375 384.245C550.896 382.933 544.16 384.113 538.513 387.55C528.115 394.103 522.774 406.526 521.041 418.696C518.248 438.28 524.428 460.136 540.482 471.702Z" fill="#F2F2F2"/>
<path d="M545.04 440.309C545.45 444.628 546.488 448.865 548.12 452.886C549.625 456.443 551.653 459.756 554.137 462.714C559.302 468.759 565.843 473.475 573.21 476.466C578.783 478.748 584.621 480.317 590.587 481.135C593.056 480.961 595.509 480.756 597.938 480.536C597.953 480.532 597.972 480.533 597.987 480.53C598.104 480.519 598.221 480.507 598.333 480.501C598.834 480.454 599.336 480.407 599.833 480.36L599.715 480.584L599.347 481.279C599.479 481.046 599.611 480.818 599.744 480.586C599.783 480.516 599.826 480.446 599.865 480.377C595.393 475.921 592.053 470.457 590.127 464.445C588.201 458.433 587.744 452.046 588.794 445.821C589.893 439.639 592.438 433.805 596.22 428.794C595.723 428.642 595.219 428.52 594.709 428.411C593.271 430.376 592.01 432.465 590.941 434.652C587.103 442.453 585.878 451.282 587.449 459.832C588.909 467.57 592.546 474.73 597.933 480.473C597.461 480.439 596.985 480.401 596.519 480.358C587.641 479.771 578.948 477.556 570.871 473.825C564.026 470.582 558.084 465.706 553.567 459.626C548.717 452.937 546.58 444.892 546.213 436.715C545.93 427.905 546.853 419.098 548.957 410.539C550.997 401.811 554.098 393.366 558.189 385.391C558.281 385.21 558.299 385.001 558.241 384.807C558.182 384.613 558.052 384.449 557.875 384.348C557.729 384.249 557.549 384.212 557.375 384.245C557.29 384.268 557.211 384.309 557.144 384.366C557.077 384.424 557.024 384.495 556.989 384.576C556.484 385.561 555.989 386.547 555.512 387.544C551.543 395.847 548.622 404.61 546.814 413.634C544.89 422.386 544.292 431.378 545.04 440.309Z" fill="white"/>
<path d="M164 13.2227H17C12.4933 13.229 8.17296 15.0221 4.98622 18.2089C1.79948 21.3956 0.00637539 25.7159 0 30.2227V261.223C0.00637803 265.729 1.79948 270.05 4.98622 273.236C8.17296 276.423 12.4933 278.216 17 278.223H164C168.507 278.216 172.827 276.423 176.014 273.236C179.201 270.05 180.994 265.729 181 261.223V30.2227C180.994 25.7159 179.201 21.3956 176.014 18.2089C172.827 15.0222 168.507 13.229 164 13.2227ZM179 261.223C178.995 265.199 177.413 269.012 174.601 271.824C171.789 274.636 167.977 276.218 164 276.223H17C13.0232 276.218 9.21074 274.636 6.39874 271.824C3.58675 269.012 2.00484 265.199 2 261.223V30.2227C2.00484 26.2459 3.58675 22.4334 6.39874 19.6214C9.21074 16.8094 13.0232 15.2275 17 15.2227H164C167.977 15.2275 171.789 16.8094 174.601 19.6214C177.413 22.4334 178.995 26.2459 179 30.2227V261.223Z" fill="#3F3D56"/>
<path d="M479 278.223H332C327.493 278.218 323.172 276.425 319.985 273.238C316.798 270.051 315.005 265.73 315 261.223V30.2227C315.005 25.7155 316.798 21.3945 319.985 18.2074C323.172 15.0204 327.493 13.2277 332 13.2227H479C483.507 13.2277 487.828 15.0204 491.015 18.2074C494.202 21.3945 495.995 25.7155 496 30.2227V261.223C495.995 265.73 494.202 270.051 491.015 273.238C487.828 276.425 483.507 278.218 479 278.223ZM332 15.2227C328.023 15.2272 324.21 16.8089 321.398 19.621C318.586 22.4331 317.004 26.2458 317 30.2227V261.223C317.004 265.2 318.586 269.012 321.398 271.824C324.21 274.636 328.023 276.218 332 276.223H479C482.977 276.218 486.79 274.636 489.602 271.824C492.414 269.012 493.996 265.2 494 261.223V30.2227C493.996 26.2458 492.414 22.4331 489.602 19.621C486.79 16.8089 482.977 15.2272 479 15.2227H332Z" fill="#3F3D56"/>
<path d="M268 147.223H207C206.735 147.223 206.48 147.117 206.293 146.93C206.105 146.742 206 146.488 206 146.223C206 145.957 206.105 145.703 206.293 145.516C206.48 145.328 206.735 145.223 207 145.223H268C268.265 145.223 268.52 145.328 268.707 145.516C268.895 145.703 269 145.957 269 146.223C269 146.488 268.895 146.742 268.707 146.93C268.52 147.117 268.265 147.223 268 147.223Z" fill="#3F3D56"/>
<path d="M255.001 174.649C254.791 174.649 254.587 174.583 254.417 174.461C254.247 174.339 254.12 174.167 254.053 173.969C253.986 173.77 253.983 173.556 254.044 173.356C254.105 173.156 254.228 172.98 254.394 172.853L286.218 148.609C286.585 148.329 286.883 147.968 287.088 147.554C287.293 147.14 287.399 146.685 287.399 146.223C287.399 145.761 287.293 145.305 287.088 144.891C286.883 144.477 286.585 144.117 286.218 143.837L254.394 119.592C254.183 119.432 254.045 119.194 254.01 118.931C253.975 118.669 254.045 118.403 254.206 118.192C254.366 117.981 254.604 117.843 254.866 117.807C255.129 117.771 255.395 117.841 255.606 118.002L287.429 142.246C288.042 142.712 288.538 143.314 288.88 144.004C289.222 144.694 289.399 145.453 289.399 146.223C289.399 146.993 289.222 147.752 288.88 148.442C288.538 149.132 288.042 149.733 287.429 150.2L255.606 174.444C255.432 174.577 255.219 174.649 255.001 174.649Z" fill="#3F3D56"/>
<path d="M582 147.223H521C520.735 147.223 520.48 147.117 520.293 146.93C520.105 146.742 520 146.488 520 146.223C520 145.957 520.105 145.703 520.293 145.516C520.48 145.328 520.735 145.223 521 145.223H582C582.265 145.223 582.52 145.328 582.707 145.516C582.895 145.703 583 145.957 583 146.223C583 146.488 582.895 146.742 582.707 146.93C582.52 147.117 582.265 147.223 582 147.223Z" fill="#3F3D56"/>
<path d="M569.001 174.649C568.791 174.649 568.587 174.583 568.417 174.461C568.247 174.339 568.12 174.167 568.053 173.969C567.986 173.77 567.983 173.556 568.044 173.356C568.105 173.156 568.227 172.98 568.394 172.853L600.217 148.609C600.585 148.329 600.883 147.968 601.088 147.554C601.293 147.14 601.399 146.685 601.399 146.223C601.399 145.761 601.293 145.305 601.088 144.891C600.883 144.477 600.585 144.117 600.217 143.837L568.394 119.592C568.183 119.432 568.045 119.194 568.01 118.931C567.975 118.669 568.045 118.403 568.205 118.192C568.366 117.981 568.604 117.843 568.866 117.807C569.129 117.771 569.395 117.841 569.606 118.002L601.429 142.246C602.042 142.712 602.538 143.314 602.88 144.004C603.222 144.694 603.399 145.453 603.399 146.223C603.399 146.993 603.222 147.752 602.88 148.442C602.538 149.132 602.042 149.733 601.429 150.2L569.606 174.444C569.432 174.577 569.219 174.649 569.001 174.649Z" fill="#3F3D56"/>
<path d="M423.5 106.723H388.5C386.246 106.72 384.086 105.824 382.492 104.23C380.899 102.637 380.003 100.476 380 98.2227V64.2227C380.003 61.9691 380.899 59.8085 382.492 58.215C384.086 56.6215 386.246 55.7252 388.5 55.7227H423.5C425.754 55.7252 427.914 56.6215 429.508 58.215C431.101 59.8085 431.997 61.9691 432 64.2227V98.2227C431.997 100.476 431.101 102.637 429.508 104.23C427.914 105.824 425.754 106.72 423.5 106.723Z" fill="#415B48"/>
<path d="M430 106.223C429.869 106.223 429.739 106.197 429.617 106.147C429.496 106.096 429.386 106.023 429.293 105.93L381.293 57.9296C381.2 57.8367 381.126 57.7265 381.076 57.6052C381.026 57.4839 381 57.3538 381 57.2225C381 57.0912 381.026 56.9612 381.076 56.8399C381.126 56.7186 381.2 56.6084 381.293 56.5155C381.386 56.4227 381.496 56.349 381.617 56.2988C381.739 56.2485 381.869 56.2227 382 56.2227C382.131 56.2227 382.261 56.2485 382.383 56.2988C382.504 56.349 382.614 56.4227 382.707 56.5155L430.707 104.516C430.847 104.655 430.942 104.834 430.981 105.027C431.019 105.221 430.999 105.422 430.924 105.605C430.848 105.788 430.72 105.944 430.556 106.054C430.391 106.164 430.198 106.222 430 106.223L430 106.223Z" fill="white"/>
<path d="M382 106.224C381.802 106.223 381.609 106.165 381.445 106.055C381.28 105.945 381.152 105.789 381.076 105.606C381.001 105.423 380.981 105.222 381.019 105.028C381.058 104.835 381.153 104.656 381.293 104.517L429.293 56.5165C429.386 56.4237 429.496 56.35 429.617 56.2997C429.739 56.2495 429.869 56.2236 430 56.2236C430.131 56.2236 430.261 56.2495 430.383 56.2997C430.504 56.35 430.614 56.4236 430.707 56.5165C430.8 56.6093 430.874 56.7196 430.924 56.8409C430.974 56.9622 431 57.0922 431 57.2235C431 57.3548 430.974 57.4849 430.924 57.6062C430.874 57.7275 430.8 57.8377 430.707 57.9305L382.707 105.931C382.614 106.024 382.504 106.097 382.383 106.148C382.261 106.198 382.131 106.224 382 106.224Z" fill="white"/>
<path d="M438 159.223H373C369.685 159.223 366.505 157.906 364.161 155.561C361.817 153.217 360.5 150.038 360.5 146.723C360.5 143.407 361.817 140.228 364.161 137.884C366.505 135.54 369.685 134.223 373 134.223H438C441.315 134.223 444.495 135.54 446.839 137.884C449.183 140.228 450.5 143.407 450.5 146.723C450.5 150.038 449.183 153.217 446.839 155.561C444.495 157.906 441.315 159.223 438 159.223ZM373 136.223C370.215 136.223 367.545 137.329 365.575 139.298C363.606 141.267 362.5 143.938 362.5 146.723C362.5 149.507 363.606 152.178 365.575 154.147C367.545 156.116 370.215 157.223 373 157.223H438C440.785 157.223 443.456 156.116 445.425 154.147C447.394 152.178 448.5 149.507 448.5 146.723C448.5 143.938 447.394 141.267 445.425 139.298C443.456 137.329 440.785 136.223 438 136.223H373Z" fill="#3F3D56"/>
<path d="M438 197.223H373C369.685 197.223 366.505 195.906 364.161 193.561C361.817 191.217 360.5 188.038 360.5 184.723C360.5 181.407 361.817 178.228 364.161 175.884C366.505 173.54 369.685 172.223 373 172.223H438C441.315 172.223 444.495 173.54 446.839 175.884C449.183 178.228 450.5 181.407 450.5 184.723C450.5 188.038 449.183 191.217 446.839 193.561C444.495 195.906 441.315 197.223 438 197.223ZM373 174.223C370.215 174.223 367.545 175.329 365.575 177.298C363.606 179.267 362.5 181.938 362.5 184.723C362.5 187.507 363.606 190.178 365.575 192.147C367.545 194.116 370.215 195.223 373 195.223H438C440.785 195.223 443.456 194.116 445.425 192.147C447.394 190.178 448.5 187.507 448.5 184.723C448.5 181.938 447.394 179.267 445.425 177.298C443.456 175.329 440.785 174.223 438 174.223H373Z" fill="#3F3D56"/>
<path d="M438 235.223H373C369.685 235.223 366.505 233.906 364.161 231.561C361.817 229.217 360.5 226.038 360.5 222.723C360.5 219.407 361.817 216.228 364.161 213.884C366.505 211.54 369.685 210.223 373 210.223H438C441.315 210.223 444.495 211.54 446.839 213.884C449.183 216.228 450.5 219.407 450.5 222.723C450.5 226.038 449.183 229.217 446.839 231.561C444.495 233.906 441.315 235.223 438 235.223ZM373 212.223C370.215 212.223 367.545 213.329 365.575 215.298C363.606 217.267 362.5 219.938 362.5 222.723C362.5 225.507 363.606 228.178 365.575 230.147C367.545 232.116 370.215 233.223 373 233.223H438C440.785 233.223 443.456 232.116 445.425 230.147C447.394 228.178 448.5 225.507 448.5 222.723C448.5 219.938 447.394 217.267 445.425 215.298C443.456 213.329 440.785 212.223 438 212.223H373Z" fill="#3F3D56"/>
<path d="M780.832 0.230752L635.815 24.2985C631.37 25.0427 627.402 27.519 624.78 31.1845C622.158 34.85 621.096 39.4056 621.828 43.8525L659.649 271.735C660.393 276.18 662.869 280.149 666.535 282.771C670.2 285.393 674.756 286.454 679.203 285.723L824.219 261.655C828.664 260.911 832.632 258.434 835.254 254.769C837.876 251.103 838.938 246.548 838.206 242.101L800.385 14.218C799.641 9.77315 797.165 5.80471 793.5 3.18273C789.834 0.560751 785.278 -0.500824 780.832 0.230752ZM836.233 242.428C836.88 246.352 835.943 250.372 833.63 253.607C831.316 256.841 827.814 259.026 823.892 259.682L678.875 283.75C674.951 284.396 670.931 283.46 667.697 281.146C664.462 278.832 662.278 275.33 661.622 271.408L623.801 43.525C623.155 39.6011 624.091 35.5811 626.405 32.3466C628.718 29.1122 632.22 26.9274 636.143 26.2716L781.159 2.20377C785.083 1.55744 789.103 2.4938 792.337 4.80746C795.572 7.12111 797.757 10.6232 798.412 14.5455L836.233 242.428Z" fill="#3F3D56"/>
<path d="M755.286 93.6739L691.163 104.316C687.893 104.859 684.54 104.08 681.844 102.152C679.148 100.223 677.328 97.3018 676.785 94.0314C676.242 90.7609 677.021 87.4087 678.95 84.7124C680.879 82.016 683.799 80.1962 687.07 79.6535L751.193 69.0112C754.462 68.4707 757.813 69.2505 760.507 71.1793C763.202 73.1081 765.021 76.028 765.563 79.2972C766.106 82.5664 765.328 85.9172 763.401 88.6131C761.474 91.309 758.555 93.1293 755.286 93.6739ZM687.397 81.6265C684.651 82.083 682.198 83.6118 680.578 85.8766C678.959 88.1414 678.305 90.9567 678.761 93.7035C679.217 96.4503 680.745 98.9035 683.009 100.524C685.274 102.144 688.089 102.798 690.836 102.343L754.959 91.7009C757.705 91.2444 760.158 89.7156 761.778 87.4508C763.397 85.186 764.051 82.3706 763.595 79.6238C763.139 76.877 761.611 74.4238 759.347 72.8036C757.082 71.1835 754.267 70.529 751.52 70.9843L687.397 81.6265Z" fill="#CCCCCC"/>
<path d="M762.817 139.053L698.694 149.695C697.075 149.965 695.417 149.913 693.818 149.542C692.218 149.172 690.707 148.489 689.371 147.534C688.035 146.579 686.9 145.37 686.032 143.977C685.163 142.583 684.578 141.032 684.309 139.412C684.04 137.792 684.093 136.135 684.465 134.535C684.837 132.936 685.52 131.425 686.476 130.09C687.432 128.754 688.641 127.62 690.035 126.753C691.43 125.885 692.981 125.301 694.601 125.033L758.724 114.39C761.995 113.848 765.347 114.626 768.043 116.555C770.74 118.484 772.559 121.405 773.102 124.675C773.645 127.946 772.866 131.298 770.937 133.994C769.009 136.691 766.088 138.51 762.817 139.053ZM694.929 127.006C692.183 127.463 689.73 128.992 688.111 131.256C686.492 133.521 685.838 136.336 686.294 139.082C686.75 141.829 688.278 144.282 690.542 145.902C692.806 147.522 695.62 148.177 698.367 147.722L762.49 137.08C765.236 136.623 767.688 135.094 769.307 132.829C770.927 130.565 771.58 127.75 771.124 125.003C770.668 122.257 769.141 119.804 766.877 118.184C764.613 116.564 761.798 115.909 759.052 116.363L694.929 127.006Z" fill="#CCCCCC"/>
<path d="M770.349 184.433L706.226 195.075C704.606 195.345 702.949 195.293 701.349 194.922C699.749 194.551 698.238 193.869 696.902 192.914C695.566 191.959 694.432 190.75 693.563 189.356C692.695 187.963 692.109 186.411 691.84 184.791C691.572 183.171 691.625 181.514 691.996 179.915C692.368 178.315 693.051 176.805 694.007 175.469C694.963 174.134 696.173 173 697.567 172.132C698.961 171.265 700.512 170.68 702.133 170.412L766.255 159.77C769.525 159.229 772.875 160.009 775.57 161.938C778.265 163.867 780.083 166.787 780.626 170.056C781.169 173.325 780.391 176.676 778.464 179.372C776.536 182.068 773.618 183.888 770.349 184.433ZM702.46 172.385C701.1 172.611 699.797 173.102 698.626 173.831C697.456 174.56 696.44 175.513 695.637 176.634C694.835 177.756 694.261 179.024 693.949 180.368C693.637 181.711 693.593 183.103 693.818 184.463C694.044 185.824 694.536 187.126 695.265 188.297C695.994 189.467 696.947 190.483 698.069 191.285C699.191 192.087 700.46 192.66 701.803 192.972C703.146 193.284 704.538 193.328 705.898 193.102L770.021 182.46C771.382 182.234 772.685 181.743 773.856 181.014C775.027 180.285 776.043 179.333 776.845 178.211C777.648 177.09 778.222 175.821 778.534 174.477C778.847 173.134 778.891 171.742 778.665 170.381C778.439 169.021 777.948 167.718 777.218 166.547C776.489 165.377 775.536 164.361 774.414 163.559C773.292 162.757 772.023 162.184 770.679 161.872C769.335 161.56 767.943 161.517 766.583 161.743L702.46 172.385Z" fill="#CCCCCC"/>
<path d="M777.88 229.812L713.757 240.454C712.138 240.723 710.481 240.67 708.882 240.298C707.284 239.927 705.773 239.244 704.438 238.289C703.103 237.334 701.969 236.126 701.101 234.732C700.233 233.339 699.648 231.788 699.379 230.169C699.111 228.55 699.163 226.893 699.535 225.294C699.906 223.695 700.589 222.185 701.544 220.85C702.499 219.515 703.708 218.381 705.101 217.513C706.494 216.645 708.045 216.06 709.664 215.791L773.787 205.149C777.057 204.608 780.407 205.388 783.102 207.317C785.796 209.246 787.615 212.166 788.157 215.435C788.7 218.704 787.922 222.055 785.995 224.751C784.068 227.447 781.149 229.267 777.88 229.812ZM709.992 217.764C708.631 217.99 707.329 218.481 706.158 219.21C704.988 219.94 703.973 220.892 703.171 222.014C701.551 224.279 700.896 227.094 701.352 229.842C701.808 232.589 703.337 235.042 705.602 236.662C707.867 238.283 710.683 238.937 713.43 238.481L777.553 227.839C780.299 227.382 782.752 225.853 784.372 223.588C785.992 221.324 786.645 218.508 786.189 215.762C785.734 213.015 784.205 210.562 781.941 208.941C779.677 207.321 776.861 206.667 774.114 207.122L709.992 217.764Z" fill="#CCCCCC"/>
<path d="M801.592 27.5945L625.007 56.9015C624.878 56.9235 624.745 56.9196 624.616 56.8902C624.488 56.8608 624.367 56.8063 624.26 56.7299C624.153 56.6535 624.062 56.5567 623.992 56.4451C623.922 56.3334 623.875 56.2091 623.854 56.0793C623.832 55.9494 623.836 55.8166 623.866 55.6884C623.896 55.5603 623.951 55.4393 624.028 55.3324C624.105 55.2255 624.202 55.1347 624.314 55.0654C624.425 54.9961 624.55 54.9496 624.68 54.9285L801.264 25.6215C801.394 25.5995 801.527 25.6033 801.655 25.6328C801.783 25.6622 801.905 25.7167 802.012 25.7931C802.119 25.8695 802.21 25.9663 802.28 26.0779C802.349 26.1896 802.396 26.3139 802.418 26.4437C802.44 26.5735 802.435 26.7063 802.405 26.8345C802.375 26.9627 802.321 27.0837 802.244 27.1906C802.167 27.2975 802.07 27.3882 801.958 27.4575C801.846 27.5269 801.722 27.5734 801.592 27.5945Z" fill="#3F3D56"/>
<path d="M644.19 45.1143C648.056 45.1143 651.19 41.9803 651.19 38.1143C651.19 34.2483 648.056 31.1143 644.19 31.1143C640.324 31.1143 637.19 34.2483 637.19 38.1143C637.19 41.9803 640.324 45.1143 644.19 45.1143Z" fill="#415B48"/>
<path d="M783.619 10.9186L763.889 14.1931C763.628 14.2355 763.36 14.1727 763.145 14.0184C762.93 13.8641 762.785 13.6308 762.742 13.3698C762.699 13.1087 762.761 12.8412 762.914 12.6257C763.068 12.4102 763.301 12.2644 763.561 12.2201L783.292 8.9456C783.553 8.9031 783.82 8.9659 784.035 9.12022C784.25 9.27454 784.395 9.50779 784.439 9.76888C784.482 10.03 784.42 10.2976 784.266 10.5131C784.113 10.7286 783.88 10.8744 783.619 10.9186Z" fill="#3F3D56"/>
<path d="M784.601 16.8375L764.871 20.112C764.61 20.1545 764.343 20.0916 764.128 19.9373C763.913 19.783 763.768 19.5497 763.724 19.2887C763.681 19.0276 763.743 18.7601 763.897 18.5446C764.05 18.3291 764.283 18.1832 764.544 18.139L784.274 14.8645C784.535 14.8221 784.803 14.8849 785.017 15.0392C785.232 15.1936 785.377 15.4268 785.421 15.6878C785.464 15.9489 785.402 16.2165 785.249 16.4319C785.095 16.6474 784.862 16.7933 784.601 16.8375V16.8375Z" fill="#3F3D56"/>
<path d="M785.584 22.7566L765.854 26.0311C765.724 26.0531 765.591 26.0492 765.463 26.0198C765.335 25.9903 765.213 25.9358 765.106 25.8594C764.999 25.783 764.908 25.6862 764.838 25.5746C764.769 25.463 764.722 25.3387 764.7 25.2089C764.679 25.0791 764.683 24.9463 764.713 24.8181C764.743 24.69 764.798 24.569 764.874 24.4621C764.951 24.3552 765.048 24.2644 765.16 24.1951C765.272 24.1258 765.396 24.0792 765.526 24.0581L785.256 20.7836C785.386 20.7616 785.519 20.7654 785.647 20.7949C785.775 20.8243 785.897 20.8788 786.004 20.9552C786.111 21.0316 786.202 21.1284 786.272 21.24C786.341 21.3517 786.388 21.476 786.41 21.6058C786.431 21.7356 786.427 21.8684 786.397 21.9966C786.367 22.1248 786.313 22.2458 786.236 22.3527C786.159 22.4596 786.062 22.5503 785.95 22.6197C785.838 22.689 785.714 22.7355 785.584 22.7566Z" fill="#3F3D56"/>
<path d="M128 163.723H53C50.7464 163.72 48.5859 162.824 46.9924 161.23C45.3989 159.637 44.5025 157.476 44.5 155.223V79.2227C44.5025 76.9691 45.3989 74.8085 46.9924 73.215C48.5859 71.6215 50.7464 70.7252 53 70.7227H128C130.254 70.7252 132.414 71.6215 134.008 73.215C135.601 74.8085 136.497 76.9691 136.5 79.2227V155.223C136.497 157.476 135.601 159.637 134.008 161.23C132.414 162.824 130.254 163.72 128 163.723Z" fill="#415B48"/>
<path d="M122.5 220.223H57.5C54.1848 220.223 51.0054 218.906 48.6612 216.561C46.317 214.217 45 211.038 45 207.723C45 204.407 46.317 201.228 48.6612 198.884C51.0054 196.54 54.1848 195.223 57.5 195.223H122.5C125.815 195.223 128.995 196.54 131.339 198.884C133.683 201.228 135 204.407 135 207.723C135 211.038 133.683 214.217 131.339 216.561C128.995 218.906 125.815 220.223 122.5 220.223ZM57.5 197.223C54.7152 197.223 52.0445 198.329 50.0754 200.298C48.1062 202.267 47 204.938 47 207.723C47 210.507 48.1062 213.178 50.0754 215.147C52.0445 217.116 54.7152 218.223 57.5 218.223H122.5C125.285 218.223 127.955 217.116 129.925 215.147C131.894 213.178 133 210.507 133 207.723C133 204.938 131.894 202.267 129.925 200.298C127.955 198.329 125.285 197.223 122.5 197.223H57.5Z" fill="#3F3D56"/>
<path d="M134.5 162.223C134.369 162.223 134.239 162.198 134.117 162.147C133.996 162.097 133.886 162.023 133.793 161.93L45.7928 73.9303C45.699 73.8377 45.6244 73.7274 45.5734 73.6058C45.5224 73.4842 45.4959 73.3537 45.4955 73.2219C45.4951 73.09 45.5208 72.9594 45.571 72.8375C45.6213 72.7156 45.6952 72.6048 45.7884 72.5116C45.8817 72.4184 45.9925 72.3445 46.1144 72.2943C46.2363 72.244 46.3669 72.2183 46.4988 72.2188C46.6306 72.2192 46.7611 72.2457 46.8826 72.2968C47.0042 72.3478 47.1145 72.4224 47.2071 72.5162L135.207 160.516C135.347 160.656 135.442 160.834 135.481 161.028C135.519 161.222 135.499 161.423 135.424 161.606C135.348 161.789 135.22 161.945 135.056 162.055C134.891 162.165 134.698 162.223 134.5 162.223V162.223Z" fill="white"/>
<path d="M46.5 162.223C46.3022 162.223 46.1089 162.165 45.9444 162.055C45.78 161.945 45.6518 161.789 45.5761 161.606C45.5005 161.423 45.4806 161.222 45.5192 161.028C45.5578 160.834 45.653 160.656 45.7928 160.516L133.793 72.5162C133.885 72.4224 133.996 72.3478 134.117 72.2968C134.239 72.2457 134.369 72.2192 134.501 72.2188C134.633 72.2183 134.764 72.244 134.886 72.2943C135.007 72.3445 135.118 72.4184 135.211 72.5116C135.305 72.6048 135.379 72.7156 135.429 72.8375C135.479 72.9594 135.505 73.09 135.504 73.2218C135.504 73.3537 135.478 73.4842 135.427 73.6057C135.375 73.7273 135.301 73.8376 135.207 73.9303L47.2071 161.93C47.1144 162.023 47.0041 162.097 46.8828 162.147C46.7614 162.198 46.6313 162.223 46.5 162.223Z" fill="white"/>
<path d="M819.054 264.413C819.517 262.912 819.645 261.328 819.43 259.773C819.215 258.217 818.661 256.727 817.807 255.409C816.954 254.09 815.822 252.975 814.491 252.141C813.16 251.308 811.663 250.776 810.104 250.584L758.771 190.601L746.798 203.172L797.929 260.685C797.78 263.325 798.604 265.928 800.245 268.001C801.887 270.074 804.232 271.472 806.836 271.932C809.44 272.392 812.122 271.88 814.373 270.494C816.625 269.108 818.291 266.945 819.054 264.413V264.413Z" fill="#A0616A"/>
<path d="M773.641 203.237L755.291 216.647C754.769 217.029 754.171 217.293 753.538 217.423C752.904 217.552 752.25 217.544 751.62 217.398C750.99 217.252 750.399 216.972 749.887 216.576C749.375 216.181 748.954 215.681 748.653 215.108L738.109 195.053C736.172 192.37 735.377 189.029 735.9 185.762C736.422 182.495 738.219 179.569 740.896 177.624C743.573 175.68 746.911 174.876 750.18 175.39C753.448 175.903 756.38 177.692 758.332 180.364L774.191 196.445C774.644 196.905 774.994 197.458 775.215 198.066C775.436 198.674 775.523 199.322 775.471 199.966C775.419 200.611 775.228 201.237 774.912 201.801C774.597 202.365 774.163 202.855 773.641 203.237V203.237Z" fill="#415B48"/>
<path d="M738.233 163.162C751.798 163.162 762.794 152.166 762.794 138.601C762.794 125.036 751.798 114.04 738.233 114.04C724.668 114.04 713.672 125.036 713.672 138.601C713.672 152.166 724.668 163.162 738.233 163.162Z" fill="#A0616A"/>
<path d="M748.902 249.409C748.647 249.409 748.393 249.388 748.141 249.346L705.046 242.092C704.008 241.919 703.064 241.387 702.378 240.589C701.692 239.791 701.308 238.777 701.293 237.725C701.162 227.865 701.9 202.977 711.559 184.849C714.58 179.182 719.556 174.806 725.562 172.534C731.568 170.262 738.195 170.249 744.209 172.497C750.224 174.744 755.218 179.101 758.262 184.755C761.305 190.409 762.192 196.976 760.756 203.235C757.523 217.159 755.052 231.25 753.354 245.444C753.224 246.535 752.699 247.54 751.879 248.271C751.059 249.001 750 249.406 748.902 249.409L748.902 249.409Z" fill="#2F2E41"/>
<path d="M658.548 168.538C658.671 169.077 658.751 169.626 658.788 170.178L701.745 194.96L712.186 188.949L723.318 203.521L705.867 215.959C704.457 216.963 702.76 217.484 701.029 217.442C699.298 217.399 697.628 216.797 696.269 215.725L651.973 180.779C649.973 181.519 647.796 181.633 645.731 181.105C643.666 180.578 641.81 179.434 640.41 177.826C639.011 176.218 638.134 174.222 637.897 172.104C637.659 169.985 638.072 167.845 639.081 165.967C640.09 164.089 641.646 162.563 643.544 161.591C645.441 160.62 647.589 160.249 649.703 160.528C651.816 160.807 653.794 161.723 655.374 163.153C656.954 164.584 658.061 166.462 658.548 168.538V168.538Z" fill="#A0616A"/>
<path d="M702.335 192.483C702.465 191.85 702.729 191.252 703.111 190.73C703.492 190.207 703.982 189.774 704.547 189.458L724.26 178.436C726.879 176.414 730.192 175.514 733.474 175.932C736.756 176.35 739.738 178.053 741.767 180.666C743.796 183.28 744.705 186.591 744.296 189.874C743.888 193.157 742.194 196.144 739.586 198.18L723.869 214.501C723.42 214.967 722.877 215.33 722.275 215.567C721.673 215.804 721.027 215.908 720.382 215.873C719.736 215.837 719.105 215.663 718.533 215.362C717.961 215.061 717.46 214.64 717.065 214.128L703.181 196.134C702.786 195.622 702.506 195.031 702.36 194.401C702.214 193.771 702.205 193.117 702.335 192.483Z" fill="#415B48"/>
<path d="M681.537 469.689H669.277L666.391 422.554L681.539 422.401L681.537 469.689Z" fill="#A0616A"/>
<path d="M684.663 481.573L645.133 481.572V481.072C645.133 479.051 645.531 477.05 646.304 475.184C647.077 473.317 648.211 471.621 649.639 470.192C651.068 468.763 652.764 467.63 654.631 466.857C656.498 466.083 658.499 465.685 660.519 465.686H660.52L684.664 465.687L684.663 481.573Z" fill="#2F2E41"/>
<path d="M798.537 469.689H786.277L780.445 422.401H798.539L798.537 469.689Z" fill="#A0616A"/>
<path d="M801.663 481.573L762.133 481.572V481.072C762.133 479.051 762.531 477.05 763.304 475.184C764.077 473.317 765.211 471.621 766.639 470.192C768.068 468.763 769.764 467.63 771.631 466.857C773.498 466.083 775.499 465.685 777.519 465.686H777.52L801.664 465.687L801.663 481.573Z" fill="#2F2E41"/>
<path d="M784.599 445.167C783.666 445.165 782.756 444.874 781.995 444.334C781.233 443.795 780.657 443.033 780.346 442.153L741.276 330.526C741.127 330.099 740.863 329.72 740.515 329.43C740.167 329.141 739.746 328.951 739.298 328.882C738.851 328.813 738.393 328.866 737.973 329.037C737.553 329.208 737.188 329.49 736.916 329.853L698.806 380.666C698.509 381.063 698.3 381.518 698.191 382.001L686.047 436.181C685.83 437.144 685.302 438.008 684.546 438.643C683.79 439.277 682.846 439.645 681.86 439.691L667.315 440.353C666.688 440.384 666.061 440.283 665.476 440.055C664.891 439.827 664.36 439.478 663.92 439.03C663.478 438.585 663.133 438.053 662.909 437.467C662.685 436.881 662.585 436.255 662.617 435.628L665.153 386.176C665.953 370.178 670.075 354.522 677.256 340.204C693.221 308.369 702.458 273.587 704.391 238.026L704.422 237.473L749.174 244.593L755.892 253.895C758.89 258.091 762.137 262.104 765.617 265.91C774.173 275.187 776.741 287.593 777.389 296.366C778.227 307.149 779.753 317.867 781.959 328.455L804.153 437.517C804.32 438.136 804.352 438.783 804.247 439.416C804.143 440.049 803.905 440.652 803.548 441.185C803.192 441.718 802.726 442.168 802.181 442.506C801.636 442.845 801.026 443.063 800.39 443.146L785.175 445.13C784.984 445.155 784.792 445.167 784.599 445.167Z" fill="#2F2E41"/>
<path d="M765.391 121.554C763.44 115.64 761.999 109.569 761.086 103.408C760.799 99.8219 761.718 95.9628 764.329 93.4882C769.217 88.8571 777.522 91.0629 782.634 95.4458C790.022 101.78 793.706 111.514 795.099 121.146C796.491 130.777 795.879 140.571 796.214 150.297C796.549 160.023 797.94 170.023 802.898 178.396C807.857 186.77 817.058 193.197 826.763 192.485C830.681 192.273 834.4 190.697 837.277 188.029C838.689 186.686 839.758 185.023 840.395 183.182C841.032 181.34 841.219 179.372 840.938 177.443C845.899 186.326 843.384 198.364 835.985 205.347C828.586 212.33 817.205 214.303 807.478 211.322C797.751 208.341 789.745 200.865 784.963 191.886C780.181 182.906 778.429 172.532 778.683 162.362C778.878 154.552 780.206 146.678 778.886 138.977C777.566 131.277 772.747 123.458 765.148 121.645L765.391 121.554Z" fill="#2F2E41"/>
<path d="M731.264 131.678C729.968 136.006 725.013 138.675 720.554 137.943C716.096 137.211 712.43 133.539 711.075 129.229C709.851 124.827 710.352 120.124 712.477 116.079C713.648 113.654 715.286 111.484 717.297 109.693C719.307 107.903 721.651 106.526 724.195 105.642C726.752 104.794 729.476 104.574 732.137 104.999C734.798 105.424 737.317 106.482 739.484 108.085C739.714 107.113 740.2 106.219 740.891 105.497C741.581 104.775 742.452 104.25 743.413 103.976C745.348 103.454 747.391 103.484 749.31 104.063C754.839 105.638 759.63 109.124 762.832 113.9C765.992 118.661 768.083 124.051 768.96 129.698C770.469 138.166 769.913 147.42 765.156 154.588C760.4 161.755 750.67 165.987 742.776 162.57C742.283 160.054 743.449 157.52 744.798 155.339C746.148 153.159 747.746 151.035 748.265 148.523C748.783 146.012 747.789 142.941 745.36 142.119C743.288 141.419 741.079 142.554 738.895 142.691C737.656 142.769 736.417 142.519 735.304 141.967C734.191 141.415 733.243 140.58 732.555 139.546C731.866 138.512 731.462 137.315 731.382 136.076C731.302 134.836 731.55 133.597 732.1 132.483L731.264 131.678Z" fill="#2F2E41"/>
<path d="M911.815 482.223H530.815C530.55 482.223 530.295 482.117 530.108 481.93C529.92 481.742 529.815 481.488 529.815 481.223C529.815 480.957 529.92 480.703 530.108 480.516C530.295 480.328 530.55 480.223 530.815 480.223H911.815C912.08 480.223 912.335 480.328 912.522 480.516C912.71 480.703 912.815 480.957 912.815 481.223C912.815 481.488 912.71 481.742 912.522 481.93C912.335 482.117 912.08 482.223 911.815 482.223Z" fill="#CCCCCC"/>
</g>
<defs>
<clipPath id="clip0_179_12">
<rect width="949.651" height="482.323" fill="white"/>
</clipPath>
</defs>
</svg>
