<svg width="438" height="513" viewBox="0 0 438 513" fill="none" xmlns="http://www.w3.org/2000/svg">
<g clip-path="url(#clip0_174_185)">
<path d="M103.191 209.225C119.76 209.225 133.191 195.793 133.191 179.225C133.191 162.656 119.76 149.225 103.191 149.225C86.6226 149.225 73.1912 162.656 73.1912 179.225C73.1912 195.793 86.6226 209.225 103.191 209.225Z" fill="#2F2E41"/>
<path d="M105.711 209.282C119.276 209.282 130.272 198.285 130.272 184.721C130.272 171.156 119.276 160.16 105.711 160.16C92.1465 160.16 81.1501 171.156 81.1501 184.721C81.1501 198.285 92.1465 209.282 105.711 209.282Z" fill="#A0616A"/>
<path d="M199.249 259.429C198.859 259.821 198.501 260.244 198.177 260.693L148.615 258.942L142.946 248.311L125.784 254.769L133.99 274.569C134.653 276.168 135.817 277.509 137.307 278.39C138.797 279.272 140.532 279.646 142.253 279.458L198.338 273.3C199.641 274.988 201.428 276.239 203.459 276.887C205.491 277.534 207.672 277.548 209.712 276.927C211.752 276.305 213.554 275.076 214.878 273.405C216.203 271.734 216.987 269.699 217.127 267.571C217.267 265.443 216.756 263.323 215.661 261.493C214.566 259.663 212.94 258.209 211 257.326C209.059 256.442 206.895 256.171 204.796 256.547C202.697 256.924 200.762 257.931 199.249 259.434V259.429Z" fill="#A0616A"/>
<path d="M119.182 264.329C118.551 264.046 117.987 263.629 117.531 263.109C117.075 262.588 116.737 261.975 116.539 261.312L109.639 238.143C108.889 236.553 108.46 234.831 108.376 233.075C108.293 231.32 108.555 229.565 109.15 227.911C109.745 226.257 110.66 224.736 111.842 223.436C113.025 222.136 114.452 221.081 116.042 220.333C117.633 219.584 119.355 219.157 121.111 219.074C122.867 218.992 124.621 219.256 126.275 219.852C127.928 220.448 129.448 221.364 130.747 222.548C132.047 223.732 133.1 225.16 133.847 226.751L147.219 246.986C147.601 247.563 147.853 248.216 147.96 248.9C148.066 249.584 148.024 250.283 147.836 250.949C147.648 251.616 147.319 252.233 146.87 252.761C146.422 253.288 145.865 253.713 145.238 254.006L123.197 264.295C122.57 264.588 121.887 264.743 121.195 264.748C120.503 264.753 119.817 264.609 119.186 264.325L119.182 264.329Z" fill="#CCCCCC"/>
<path d="M167.997 499.556L178.765 493.694L161.28 449.372L145.388 458.023L167.997 499.556Z" fill="#A0616A"/>
<path d="M163.337 497.535L184.542 485.991C186.317 485.025 188.264 484.418 190.273 484.204C192.283 483.991 194.314 484.175 196.252 484.747C198.19 485.319 199.997 486.267 201.568 487.537C203.14 488.806 204.446 490.373 205.412 492.148L205.412 492.149L205.651 492.588L170.931 511.488L163.337 497.535Z" fill="#2F2E41"/>
<path d="M49.5102 499.603H61.7692L67.6022 452.315H49.5022L49.5102 499.603Z" fill="#A0616A"/>
<path d="M46.3822 495.602H70.5272C74.6078 495.602 78.5213 497.223 81.4067 500.108C84.2922 502.993 85.9132 506.907 85.9132 510.988V511.489H46.3832L46.3822 495.602Z" fill="#2F2E41"/>
<path d="M125.691 289.729L129.691 337.729L174.31 471.585C174.646 472.591 174.568 473.69 174.093 474.638C173.619 475.587 172.787 476.309 171.78 476.644C171.669 476.681 171.556 476.713 171.442 476.741L157.767 479.997C156.891 480.206 155.97 480.113 155.154 479.733C154.337 479.354 153.672 478.71 153.267 477.906L96.2242 364.749C96.0382 364.38 95.7427 364.078 95.3782 363.884C95.0138 363.69 94.5982 363.613 94.1885 363.665C93.7788 363.717 93.3952 363.894 93.0902 364.172C92.7852 364.45 92.5739 364.816 92.4852 365.22L67.3852 479.582C67.1896 480.472 66.6956 481.269 65.985 481.841C65.2745 482.412 64.39 482.724 63.4782 482.724H50.7522C50.2278 482.725 49.7084 482.622 49.2235 482.423C48.7387 482.223 48.298 481.929 47.9265 481.559C47.555 481.189 47.2601 480.75 47.0585 480.266C46.857 479.782 46.7527 479.262 46.7517 478.738C46.7517 478.715 46.7519 478.692 46.7522 478.67C47.9182 399.37 44.0722 309.017 74.6882 294.724L79.6882 281.724L125.691 289.729Z" fill="#3F3D56"/>
<path d="M78.2512 285.129L73.0972 253.952C72.2438 248.839 72.6914 243.593 74.3986 238.699C76.1059 233.804 79.0179 229.418 82.8662 225.946C86.6277 222.506 91.1945 220.069 96.1457 218.859C101.097 217.648 106.273 217.704 111.197 219.021C111.489 219.099 111.782 219.18 112.075 219.262C118.133 220.997 123.512 224.55 127.486 229.441C131.46 234.331 133.837 240.323 134.297 246.608C135.281 260.148 134.397 279.792 124.619 296.478L124.429 296.802L78.2512 285.129Z" fill="#CCCCCC"/>
<path d="M130.144 171.667C124.532 175.535 117.87 177.594 111.053 177.567C113.485 179.253 116.253 180.391 119.167 180.905C110.104 182.849 100.738 182.902 91.6533 181.06C89.6339 180.736 87.6854 180.067 85.8932 179.082C85.0002 178.583 84.2222 177.902 83.6097 177.082C82.9972 176.263 82.564 175.324 82.3383 174.327C81.7383 170.878 84.4213 167.745 87.2143 165.634C91.4897 162.45 96.4193 160.257 101.646 159.212C106.874 158.167 112.268 158.298 117.438 159.594C120.814 160.467 124.196 161.941 126.389 164.653C128.582 167.365 129.232 171.545 127.142 174.337L130.144 171.667Z" fill="#2F2E41"/>
<path d="M102.797 149.077C105.644 137.577 95.4402 124.809 83.5972 125.048C71.5842 125.291 62.7432 136.148 56.6662 146.512C50.5892 156.876 44.5512 168.629 33.3972 173.092C29.7054 174.568 25.7048 175.106 21.7542 174.656C17.8035 174.206 14.0263 172.783 10.761 170.514C7.49582 168.245 4.84468 165.201 3.04531 161.655C1.24595 158.11 0.354595 154.173 0.451168 150.198C-1.04883 162.791 1.02818 176.417 9.15118 186.158C17.2742 195.899 32.3842 200.288 43.2512 193.742C49.4512 190.003 53.4202 183.505 56.6892 177.042C59.9582 170.579 62.8672 163.763 67.8202 158.478C72.7732 153.193 80.4322 149.686 87.3262 151.909C90.0622 152.792 92.5172 154.509 95.3442 155.035C98.1712 155.561 101.73 154.215 102.116 151.366L102.797 149.077Z" fill="#2F2E41"/>
<path d="M43.5972 357.52C42.5778 356.325 41.8327 354.921 41.4145 353.408C40.9963 351.894 40.9151 350.307 41.1766 348.758C41.4381 347.209 42.036 345.737 42.9281 344.444C43.8203 343.152 44.9849 342.071 46.3401 341.277L67.6452 245.777L89.2582 254.648L61.5211 345.729C62.7102 348.095 62.9888 350.815 62.3041 353.372C61.6193 355.93 60.0189 358.147 57.807 359.602C55.595 361.057 52.9256 361.649 50.3059 361.265C47.6862 360.881 45.2987 359.548 43.5972 357.52Z" fill="#A0616A"/>
<path d="M59.2061 259.479C58.8655 258.875 58.6591 258.206 58.6011 257.515C58.5431 256.825 58.6349 256.13 58.8701 255.479L67.0631 232.734C67.7527 229.253 69.7966 226.19 72.7451 224.216C75.6936 222.243 79.3053 221.522 82.7856 222.211C86.2659 222.901 89.3298 224.945 91.3031 227.893C93.2765 230.842 93.9977 234.453 93.3081 237.934L92.0631 262.156C92.0276 262.847 91.8435 263.523 91.5233 264.136C91.2031 264.75 90.7545 265.287 90.2078 265.712C89.6612 266.137 89.0295 266.439 88.3556 266.597C87.6818 266.756 86.9817 266.767 86.3031 266.631L62.4531 261.831C61.7744 261.694 61.133 261.413 60.5728 261.007C60.0126 260.6 59.5468 260.077 59.2071 259.474L59.2061 259.479Z" fill="#CCCCCC"/>
<path d="M300.282 3.659C299.828 2.58142 299.068 1.66056 298.096 1.01025C297.124 0.359947 295.983 0.00871831 294.814 0H185.653C184.084 0.000794921 182.58 0.624452 181.47 1.73393C180.361 2.84341 179.737 4.34797 179.736 5.91701V144.012C179.737 145.581 180.361 147.086 181.47 148.195C182.58 149.305 184.084 149.928 185.653 149.929H294.814C296.383 149.927 297.887 149.303 298.996 148.194C300.105 147.084 300.729 145.581 300.731 144.012V5.91901C300.734 5.14325 300.581 4.3748 300.282 3.659ZM299.417 144.011C299.415 145.23 298.929 146.399 298.067 147.261C297.205 148.123 296.036 148.609 294.817 148.611H185.653C184.433 148.611 183.263 148.126 182.4 147.264C181.538 146.401 181.053 145.231 181.053 144.011V5.91901C181.055 4.69974 181.541 3.53108 182.403 2.66893C183.265 1.80678 184.434 1.32138 185.653 1.319H294.814C295.734 1.32278 296.632 1.6007 297.393 2.11726C298.154 2.63382 298.744 3.36556 299.087 4.21899C299.154 4.38878 299.212 4.56204 299.26 4.73801C299.365 5.12533 299.418 5.52477 299.418 5.92599L299.417 144.011Z" fill="#CCCCCC"/>
<path d="M277.499 32.6062H244.619C243.921 32.6062 243.252 32.3291 242.759 31.8358C242.266 31.3425 241.989 30.6734 241.989 29.9757C241.989 29.2781 242.266 28.609 242.759 28.1157C243.252 27.6224 243.921 27.3452 244.619 27.3452H277.498C278.187 27.3586 278.843 27.6417 279.325 28.1335C279.808 28.6254 280.078 29.2868 280.078 29.9757C280.078 30.6646 279.808 31.326 279.325 31.8179C278.843 32.3097 278.187 32.5928 277.498 32.6062H277.499Z" fill="#CCCCCC"/>
<path d="M277.499 46.4158H244.619C243.921 46.4158 243.252 46.1387 242.759 45.6453C242.266 45.152 241.989 44.4829 241.989 43.7853C241.989 43.0876 242.266 42.4186 242.759 41.9252C243.252 41.4319 243.921 41.1548 244.619 41.1548H277.498C278.187 41.1682 278.843 41.4513 279.325 41.9431C279.808 42.435 280.078 43.0964 280.078 43.7853C280.078 44.4742 279.808 45.1356 279.325 45.6275C278.843 46.1193 278.187 46.4024 277.498 46.4158H277.499Z" fill="#CCCCCC"/>
<path d="M227.753 54.2789H203.72C202.936 54.2781 202.183 53.966 201.629 53.4113C201.074 52.8566 200.762 52.1044 200.761 51.3199V22.9649C200.762 22.1803 201.074 21.4281 201.629 20.8734C202.183 20.3186 202.936 20.0067 203.72 20.0059H227.753C228.538 20.0069 229.29 20.319 229.844 20.8737C230.399 21.4284 230.711 22.1804 230.712 22.9649V51.3199C230.711 52.1044 230.399 52.8566 229.845 53.4113C229.29 53.966 228.538 54.2781 227.753 54.2789Z" fill="#CCCCCC"/>
<path d="M277.27 74.6921H202.963C202.265 74.6921 201.596 74.415 201.103 73.9217C200.61 73.4284 200.333 72.7593 200.333 72.0616C200.333 71.364 200.61 70.6949 201.103 70.2016C201.596 69.7083 202.265 69.4312 202.963 69.4312H277.27C277.968 69.4312 278.637 69.7083 279.13 70.2016C279.623 70.6949 279.901 71.364 279.901 72.0616C279.901 72.7593 279.623 73.4284 279.13 73.9217C278.637 74.415 277.968 74.6921 277.27 74.6921Z" fill="#CCCCCC"/>
<path d="M277.27 88.5061H202.963C202.265 88.5061 201.596 88.229 201.103 87.7357C200.61 87.2424 200.333 86.5733 200.333 85.8756C200.333 85.178 200.61 84.5089 201.103 84.0156C201.596 83.5223 202.265 83.2451 202.963 83.2451H277.27C277.968 83.2451 278.637 83.5223 279.13 84.0156C279.623 84.5089 279.901 85.178 279.901 85.8756C279.901 86.5733 279.623 87.2424 279.13 87.7357C278.637 88.229 277.968 88.5061 277.27 88.5061Z" fill="#CCCCCC"/>
<path d="M277.27 102.311H202.963C202.265 102.311 201.596 102.034 201.103 101.54C200.61 101.047 200.333 100.378 200.333 99.6803C200.333 98.9827 200.61 98.3136 201.103 97.8203C201.596 97.327 202.265 97.0498 202.963 97.0498H277.27C277.968 97.0498 278.637 97.327 279.13 97.8203C279.623 98.3136 279.901 98.9827 279.901 99.6803C279.901 100.378 279.623 101.047 279.13 101.54C278.637 102.034 277.968 102.311 277.27 102.311Z" fill="#CCCCCC"/>
<path d="M277.27 116.124H202.963C202.265 116.124 201.596 115.847 201.103 115.353C200.61 114.86 200.333 114.191 200.333 113.493C200.333 112.796 200.61 112.127 201.103 111.633C201.596 111.14 202.265 110.863 202.963 110.863H277.27C277.968 110.863 278.637 111.14 279.13 111.633C279.623 112.127 279.901 112.796 279.901 113.493C279.901 114.191 279.623 114.86 279.13 115.353C278.637 115.847 277.968 116.124 277.27 116.124Z" fill="#CCCCCC"/>
<path d="M277.27 129.93H202.963C202.265 129.93 201.596 129.653 201.103 129.16C200.61 128.666 200.333 127.997 200.333 127.299C200.333 126.602 200.61 125.933 201.103 125.439C201.596 124.946 202.265 124.669 202.963 124.669H277.27C277.968 124.669 278.637 124.946 279.13 125.439C279.623 125.933 279.901 126.602 279.901 127.299C279.901 127.997 279.623 128.666 279.13 129.16C278.637 129.653 277.968 129.93 277.27 129.93Z" fill="#CCCCCC"/>
<path d="M366.21 85.1974C365.633 83.8276 364.667 82.6571 363.432 81.8306C362.197 81.0041 360.746 80.558 359.26 80.5474H220.535C218.541 80.5484 216.629 81.3411 215.219 82.7511C213.809 84.1611 213.016 86.0733 213.015 88.0674V263.567C213.016 265.561 213.809 267.474 215.219 268.884C216.629 270.294 218.541 271.086 220.535 271.087H359.265C361.259 271.085 363.17 270.292 364.58 268.882C365.989 267.472 366.783 265.561 366.785 263.567V88.0674C366.788 87.0823 366.595 86.1065 366.215 85.1974H366.21Z" fill="#E6E6E6"/>
<path d="M354.914 261.234H225.27C223.402 261.232 221.939 259.188 221.939 256.582V93.7817C221.941 91.1724 223.405 89.1289 225.27 89.1289H354.914C356.783 89.1313 358.246 91.1748 358.246 93.7817V256.582C358.244 259.19 356.781 261.234 354.914 261.234Z" fill="white"/>
<path d="M366.21 85.1974C365.633 83.8276 364.667 82.6571 363.432 81.8306C362.197 81.0041 360.746 80.558 359.26 80.5474H220.535C218.541 80.5484 216.629 81.3411 215.219 82.7511C213.809 84.1611 213.016 86.0733 213.015 88.0674V263.567C213.016 265.561 213.809 267.474 215.219 268.884C216.629 270.294 218.541 271.086 220.535 271.087H359.265C361.259 271.085 363.17 270.292 364.58 268.882C365.989 267.472 366.783 265.561 366.785 263.567V88.0674C366.788 87.0823 366.595 86.1065 366.215 85.1974H366.21ZM365.11 263.567C365.108 265.118 364.491 266.605 363.395 267.702C362.298 268.799 360.811 269.416 359.26 269.417H220.535C218.984 269.417 217.497 268.801 216.4 267.704C215.303 266.608 214.686 265.12 214.685 263.569V88.0684C214.687 86.5175 215.304 85.0308 216.401 83.9341C217.498 82.8375 218.984 82.2205 220.535 82.2184H359.265C360.433 82.2228 361.574 82.5752 362.541 83.2307C363.508 83.8861 364.258 84.8149 364.695 85.8984C364.78 86.1143 364.854 86.3346 364.915 86.5584C365.048 87.0507 365.115 87.5585 365.115 88.0684L365.11 263.567Z" fill="#3F3D56"/>
<path d="M337.26 121.982H295.474C294.588 121.982 293.737 121.63 293.11 121.003C292.483 120.376 292.131 119.526 292.131 118.639C292.131 117.753 292.483 116.902 293.11 116.276C293.737 115.649 294.588 115.296 295.474 115.296H337.26C338.147 115.296 338.997 115.649 339.624 116.276C340.251 116.902 340.603 117.753 340.603 118.639C340.603 119.526 340.251 120.376 339.624 121.003C338.997 121.63 338.147 121.982 337.26 121.982Z" fill="#3F3D56"/>
<path d="M337.26 139.533H295.474C294.588 139.533 293.737 139.18 293.11 138.554C292.483 137.927 292.131 137.076 292.131 136.19C292.131 135.303 292.483 134.453 293.11 133.826C293.737 133.199 294.588 132.847 295.474 132.847H337.26C338.147 132.847 338.997 133.199 339.624 133.826C340.251 134.453 340.603 135.303 340.603 136.19C340.603 137.076 340.251 137.927 339.624 138.554C338.997 139.18 338.147 139.533 337.26 139.533Z" fill="#3F3D56"/>
<path d="M274.034 149.526H243.497C242.5 149.525 241.544 149.128 240.839 148.423C240.134 147.718 239.737 146.762 239.736 145.765V109.729C239.737 108.732 240.134 107.776 240.839 107.071C241.544 106.365 242.5 105.969 243.497 105.968H274.034C275.031 105.969 275.987 106.365 276.692 107.071C277.397 107.776 277.794 108.732 277.795 109.729V145.765C277.794 146.762 277.397 147.718 276.692 148.423C275.987 149.128 275.031 149.525 274.034 149.526Z" fill="#415B48"/>
<path d="M336.97 175.469H242.534C241.648 175.469 240.797 175.116 240.17 174.49C239.543 173.863 239.191 173.012 239.191 172.126C239.191 171.239 239.543 170.389 240.17 169.762C240.797 169.135 241.648 168.783 242.534 168.783H336.97C337.857 168.783 338.707 169.135 339.334 169.762C339.961 170.389 340.313 171.239 340.313 172.126C340.313 173.012 339.961 173.863 339.334 174.49C338.707 175.116 337.857 175.469 336.97 175.469Z" fill="#E6E6E6"/>
<path d="M336.97 193.019H242.534C241.648 193.021 240.796 192.671 240.168 192.046C239.539 191.421 239.184 190.571 239.182 189.685C239.179 188.798 239.529 187.947 240.154 187.318C240.78 186.69 241.629 186.335 242.516 186.333H336.97C337.857 186.333 338.707 186.685 339.334 187.312C339.961 187.939 340.313 188.789 340.313 189.676C340.313 190.562 339.961 191.412 339.334 192.039C338.707 192.666 337.857 193.019 336.97 193.019Z" fill="#E6E6E6"/>
<path d="M336.97 210.569H242.534C241.648 210.569 240.797 210.217 240.17 209.59C239.543 208.963 239.191 208.112 239.191 207.226C239.191 206.339 239.543 205.489 240.17 204.862C240.797 204.235 241.648 203.883 242.534 203.883H336.97C337.857 203.88 338.708 204.23 339.337 204.855C339.965 205.481 340.32 206.33 340.322 207.217C340.325 208.103 339.975 208.954 339.35 209.583C338.725 210.212 337.875 210.566 336.989 210.569H336.97Z" fill="#E6E6E6"/>
<path d="M336.97 228.119H242.534C242.095 228.12 241.66 228.035 241.254 227.868C240.848 227.701 240.479 227.456 240.168 227.146C239.856 226.836 239.609 226.469 239.44 226.063C239.271 225.658 239.183 225.224 239.182 224.785C239.181 224.346 239.266 223.911 239.433 223.505C239.6 223.099 239.845 222.73 240.154 222.418C240.464 222.107 240.832 221.86 241.237 221.691C241.642 221.522 242.077 221.434 242.516 221.433H336.97C337.857 221.433 338.707 221.785 339.334 222.412C339.961 223.039 340.313 223.889 340.313 224.776C340.313 225.662 339.961 226.513 339.334 227.139C338.707 227.766 337.857 228.119 336.97 228.119Z" fill="#E6E6E6"/>
<path d="M336.97 245.668H242.534C241.648 245.671 240.796 245.321 240.168 244.696C239.539 244.071 239.184 243.221 239.182 242.335C239.179 241.448 239.529 240.597 240.154 239.968C240.78 239.339 241.629 238.985 242.516 238.982H336.97C337.857 238.982 338.707 239.335 339.334 239.962C339.961 240.588 340.313 241.439 340.313 242.325C340.313 243.212 339.961 244.062 339.334 244.689C338.707 245.316 337.857 245.668 336.97 245.668Z" fill="#E6E6E6"/>
<path d="M383.551 121.628C413.375 121.628 437.551 97.4518 437.551 67.6284C437.551 37.805 413.375 13.6284 383.551 13.6284C353.728 13.6284 329.551 37.805 329.551 67.6284C329.551 97.4518 353.728 121.628 383.551 121.628Z" fill="#415B48"/>
<path d="M392.056 69.4194V39.6284H376.714V69.4194H369.551L376.967 82.2644L384.385 95.1114L391.803 82.2644L399.22 69.4174L392.056 69.4194Z" fill="white"/>
<path d="M403.625 512.628H22.6252C22.36 512.628 22.1057 512.523 21.9181 512.336C21.7306 512.148 21.6252 511.894 21.6252 511.628C21.6252 511.363 21.7306 511.109 21.9181 510.921C22.1057 510.734 22.36 510.628 22.6252 510.628H403.625C403.89 510.628 404.145 510.734 404.332 510.921C404.52 511.109 404.625 511.363 404.625 511.628C404.625 511.894 404.52 512.148 404.332 512.336C404.145 512.523 403.89 512.628 403.625 512.628Z" fill="#E6E6E6"/>
<path d="M371.074 503.736C361.474 510.651 349.035 510.998 337.011 510.149C335.332 510.031 333.665 509.892 332.011 509.742H331.978C331.899 509.734 331.819 509.727 331.743 509.722L330.723 509.622L330.803 509.774L331.053 510.246C330.963 510.088 330.873 509.933 330.783 509.775C330.757 509.728 330.727 509.68 330.701 509.633C327.586 504.212 324.501 498.593 323.709 492.403C322.894 485.978 325.184 478.703 330.838 475.546C331.58 475.132 332.365 474.803 333.179 474.565C333.517 474.465 333.86 474.378 334.207 474.305C336.328 473.833 338.536 473.936 340.604 474.601C342.673 475.266 344.526 476.47 345.975 478.09C347.423 479.709 348.414 481.685 348.846 483.814C349.277 485.943 349.134 488.149 348.43 490.205C353.224 485.289 352.33 477.315 350.676 470.65C349.022 463.985 347.013 456.569 350.383 450.583C351.337 448.977 352.621 447.592 354.149 446.518C355.676 445.443 357.414 444.705 359.248 444.351C359.361 444.327 359.475 444.302 359.588 444.281C363.993 443.388 368.572 444.191 372.411 446.528C379.48 450.983 383.111 459.428 384.289 467.702C386.189 481.015 381.987 495.875 371.074 503.736Z" fill="#F2F2F2"/>
</g>
<defs>
<clipPath id="clip0_174_185">
<rect width="437.551" height="512.629" fill="white"/>
</clipPath>
</defs>
</svg>
