<?xml version="1.0" encoding="utf-8"?>
<!-- Generator: Adobe Illustrator 21.1.0, SVG Export Plug-In . SVG Version: 6.00 Build 0)  -->
<svg version="1.1" id="圖層_1" xmlns="http://www.w3.org/2000/svg" xmlns:xlink="http://www.w3.org/1999/xlink" x="0px" y="0px"
	 viewBox="0 0 1972 1145.8" style="enable-background:new 0 0 1972 1145.8;" xml:space="preserve">
<style type="text/css">
	.st0{fill:#FFFFFF;}
</style>
<g>
	<path class="st0" d="M259.5,8.5L7.5,413.4L6.6,800l133.1-0.5l473.2-791H259.5z"/>
	<path class="st0" d="M691.2,8.5L525,279.3l278.3,0.9L671.7,460.9l357.1,5L1155,270.8L1039.8,12.5L691.2,8.5z"/>
	<path class="st0" d="M427.1,453.7L292.7,677.8l282.9-0.3L452,875h322l174-278l36.9-59.9l29.7-49.4l21.3-32.1L427.1,453.7z"/>
	<path class="st0" d="M4,858.4l615.8,0.2h163.1l140.8,275.9l-917.8-1L4,858.4z"/>
	<path class="st0" d="M1547.7,450.8l-159.3,230.8h316.1l-291,451.4l356-1.8l194.6-282.4l-6.4-398L1547.7,450.8L1547.7,450.8z"/>
	<path class="st0" d="M1586.8,266.1l-340-2.1L867.2,864.4l127.6,268.9l443.3-0.9l155.6-273.6l-412,0.8L1586.8,266.1z"/>
	<path class="st0" d="M1962.2,281.8l-722.7,0.3L1115.9,8.5h847.7L1962.2,281.8z"/>
</g>
</svg>
